%TF.GenerationSoftware,KiCad,Pcbnew,8.0.5*%
%TF.CreationDate,2024-10-18T08:36:53+02:00*%
%TF.ProjectId,bottom_case,626f7474-6f6d-45f6-9361-73652e6b6963,0.0.2*%
%TF.SameCoordinates,Original*%
%TF.FileFunction,Legend,Bot*%
%TF.FilePolarity,Positive*%
%FSLAX46Y46*%
G04 Gerber Fmt 4.6, Leading zero omitted, Abs format (unit mm)*
G04 Created by KiCad (PCBNEW 8.0.5) date 2024-10-18 08:36:53*
%MOMM*%
%LPD*%
G01*
G04 APERTURE LIST*
%ADD10C,0.150000*%
G04 APERTURE END LIST*
D10*
X34242920Y-78127466D02*
X33576254Y-78127466D01*
X33576254Y-78127466D02*
X33623873Y-78222704D01*
X33623873Y-78222704D02*
X33719111Y-78365561D01*
X33719111Y-78365561D02*
X33861968Y-78460799D01*
X33957206Y-78270323D02*
X33957206Y-78603656D01*
X33957206Y-78603656D02*
X33957206Y-78698894D01*
X33957206Y-78698894D02*
X34004825Y-78841751D01*
X34004825Y-78841751D02*
X34100063Y-79079847D01*
X33147682Y-78317942D02*
X32576254Y-78317942D01*
X32861968Y-78032228D02*
X32861968Y-79032228D01*
X32861968Y-79032228D02*
X33004825Y-78984608D01*
X32719111Y-78508418D02*
X32576254Y-78889370D01*
X33052444Y-78508418D02*
X33100063Y-78651275D01*
X33100063Y-78651275D02*
X33147682Y-78746513D01*
X33147682Y-78746513D02*
X33195301Y-78889370D01*
X32623873Y-78127466D02*
X32528635Y-78222704D01*
X32481016Y-78079847D02*
X32385778Y-78175085D01*
X32100063Y-78270323D02*
X31528635Y-78270323D01*
X31528635Y-78270323D02*
X31576254Y-78984608D01*
X31576254Y-78984608D02*
X31719111Y-78889370D01*
X31861968Y-77936989D02*
X31861968Y-78270323D01*
X31861968Y-78270323D02*
X31861968Y-78508418D01*
X31861968Y-78508418D02*
X31909587Y-78698894D01*
X31909587Y-78698894D02*
X32004825Y-78841751D01*
X32004825Y-78841751D02*
X32100063Y-78984608D01*
X30576254Y-78317942D02*
X30481016Y-78413180D01*
X30433397Y-78270323D02*
X30338159Y-78365561D01*
X30766730Y-77984608D02*
X30766730Y-79032228D01*
X30766730Y-78413180D02*
X30481016Y-78651275D01*
X29338158Y-78413180D02*
X29100063Y-79079847D01*
X29100063Y-79079847D02*
X28861968Y-78413180D01*
X28290539Y-78079847D02*
X28195301Y-78079847D01*
X28195301Y-78079847D02*
X28100063Y-78127466D01*
X28100063Y-78127466D02*
X28052444Y-78175085D01*
X28052444Y-78175085D02*
X28004825Y-78270323D01*
X28004825Y-78270323D02*
X27957206Y-78460799D01*
X27957206Y-78460799D02*
X27957206Y-78698894D01*
X27957206Y-78698894D02*
X28004825Y-78889370D01*
X28004825Y-78889370D02*
X28052444Y-78984608D01*
X28052444Y-78984608D02*
X28100063Y-79032228D01*
X28100063Y-79032228D02*
X28195301Y-79079847D01*
X28195301Y-79079847D02*
X28290539Y-79079847D01*
X28290539Y-79079847D02*
X28385777Y-79032228D01*
X28385777Y-79032228D02*
X28433396Y-78984608D01*
X28433396Y-78984608D02*
X28481015Y-78889370D01*
X28481015Y-78889370D02*
X28528634Y-78698894D01*
X28528634Y-78698894D02*
X28528634Y-78460799D01*
X28528634Y-78460799D02*
X28481015Y-78270323D01*
X28481015Y-78270323D02*
X28433396Y-78175085D01*
X28433396Y-78175085D02*
X28385777Y-78127466D01*
X28385777Y-78127466D02*
X28290539Y-78079847D01*
X27528634Y-78984608D02*
X27481015Y-79032228D01*
X27481015Y-79032228D02*
X27528634Y-79079847D01*
X27528634Y-79079847D02*
X27576253Y-79032228D01*
X27576253Y-79032228D02*
X27528634Y-78984608D01*
X27528634Y-78984608D02*
X27528634Y-79079847D01*
X27100063Y-78175085D02*
X27052444Y-78127466D01*
X27052444Y-78127466D02*
X26957206Y-78079847D01*
X26957206Y-78079847D02*
X26719111Y-78079847D01*
X26719111Y-78079847D02*
X26623873Y-78127466D01*
X26623873Y-78127466D02*
X26576254Y-78175085D01*
X26576254Y-78175085D02*
X26528635Y-78270323D01*
X26528635Y-78270323D02*
X26528635Y-78365561D01*
X26528635Y-78365561D02*
X26576254Y-78508418D01*
X26576254Y-78508418D02*
X27147682Y-79079847D01*
X27147682Y-79079847D02*
X26528635Y-79079847D01*
X34242920Y-80404076D02*
X33766730Y-80404076D01*
X34338158Y-80689791D02*
X34004825Y-79689791D01*
X34004825Y-79689791D02*
X33671492Y-80689791D01*
X32576253Y-80689791D02*
X32576253Y-79689791D01*
X32481015Y-80308838D02*
X32195301Y-80689791D01*
X32195301Y-80023124D02*
X32576253Y-80404076D01*
X31385777Y-80642172D02*
X31481015Y-80689791D01*
X31481015Y-80689791D02*
X31671491Y-80689791D01*
X31671491Y-80689791D02*
X31766729Y-80642172D01*
X31766729Y-80642172D02*
X31814348Y-80546933D01*
X31814348Y-80546933D02*
X31814348Y-80165981D01*
X31814348Y-80165981D02*
X31766729Y-80070743D01*
X31766729Y-80070743D02*
X31671491Y-80023124D01*
X31671491Y-80023124D02*
X31481015Y-80023124D01*
X31481015Y-80023124D02*
X31385777Y-80070743D01*
X31385777Y-80070743D02*
X31338158Y-80165981D01*
X31338158Y-80165981D02*
X31338158Y-80261219D01*
X31338158Y-80261219D02*
X31814348Y-80356457D01*
X31004824Y-80023124D02*
X30766729Y-80689791D01*
X30528634Y-80023124D02*
X30766729Y-80689791D01*
X30766729Y-80689791D02*
X30861967Y-80927886D01*
X30861967Y-80927886D02*
X30909586Y-80975505D01*
X30909586Y-80975505D02*
X31004824Y-81023124D01*
X30147681Y-80689791D02*
X30147681Y-79689791D01*
X30147681Y-80070743D02*
X30052443Y-80023124D01*
X30052443Y-80023124D02*
X29861967Y-80023124D01*
X29861967Y-80023124D02*
X29766729Y-80070743D01*
X29766729Y-80070743D02*
X29719110Y-80118362D01*
X29719110Y-80118362D02*
X29671491Y-80213600D01*
X29671491Y-80213600D02*
X29671491Y-80499314D01*
X29671491Y-80499314D02*
X29719110Y-80594552D01*
X29719110Y-80594552D02*
X29766729Y-80642172D01*
X29766729Y-80642172D02*
X29861967Y-80689791D01*
X29861967Y-80689791D02*
X30052443Y-80689791D01*
X30052443Y-80689791D02*
X30147681Y-80642172D01*
X29100062Y-80689791D02*
X29195300Y-80642172D01*
X29195300Y-80642172D02*
X29242919Y-80594552D01*
X29242919Y-80594552D02*
X29290538Y-80499314D01*
X29290538Y-80499314D02*
X29290538Y-80213600D01*
X29290538Y-80213600D02*
X29242919Y-80118362D01*
X29242919Y-80118362D02*
X29195300Y-80070743D01*
X29195300Y-80070743D02*
X29100062Y-80023124D01*
X29100062Y-80023124D02*
X28957205Y-80023124D01*
X28957205Y-80023124D02*
X28861967Y-80070743D01*
X28861967Y-80070743D02*
X28814348Y-80118362D01*
X28814348Y-80118362D02*
X28766729Y-80213600D01*
X28766729Y-80213600D02*
X28766729Y-80499314D01*
X28766729Y-80499314D02*
X28814348Y-80594552D01*
X28814348Y-80594552D02*
X28861967Y-80642172D01*
X28861967Y-80642172D02*
X28957205Y-80689791D01*
X28957205Y-80689791D02*
X29100062Y-80689791D01*
X27909586Y-80689791D02*
X27909586Y-80165981D01*
X27909586Y-80165981D02*
X27957205Y-80070743D01*
X27957205Y-80070743D02*
X28052443Y-80023124D01*
X28052443Y-80023124D02*
X28242919Y-80023124D01*
X28242919Y-80023124D02*
X28338157Y-80070743D01*
X27909586Y-80642172D02*
X28004824Y-80689791D01*
X28004824Y-80689791D02*
X28242919Y-80689791D01*
X28242919Y-80689791D02*
X28338157Y-80642172D01*
X28338157Y-80642172D02*
X28385776Y-80546933D01*
X28385776Y-80546933D02*
X28385776Y-80451695D01*
X28385776Y-80451695D02*
X28338157Y-80356457D01*
X28338157Y-80356457D02*
X28242919Y-80308838D01*
X28242919Y-80308838D02*
X28004824Y-80308838D01*
X28004824Y-80308838D02*
X27909586Y-80261219D01*
X27433395Y-80689791D02*
X27433395Y-80023124D01*
X27433395Y-80213600D02*
X27385776Y-80118362D01*
X27385776Y-80118362D02*
X27338157Y-80070743D01*
X27338157Y-80070743D02*
X27242919Y-80023124D01*
X27242919Y-80023124D02*
X27147681Y-80023124D01*
X26385776Y-80689791D02*
X26385776Y-79689791D01*
X26385776Y-80642172D02*
X26481014Y-80689791D01*
X26481014Y-80689791D02*
X26671490Y-80689791D01*
X26671490Y-80689791D02*
X26766728Y-80642172D01*
X26766728Y-80642172D02*
X26814347Y-80594552D01*
X26814347Y-80594552D02*
X26861966Y-80499314D01*
X26861966Y-80499314D02*
X26861966Y-80213600D01*
X26861966Y-80213600D02*
X26814347Y-80118362D01*
X26814347Y-80118362D02*
X26766728Y-80070743D01*
X26766728Y-80070743D02*
X26671490Y-80023124D01*
X26671490Y-80023124D02*
X26481014Y-80023124D01*
X26481014Y-80023124D02*
X26385776Y-80070743D01*
X25290537Y-80023124D02*
X24909585Y-80023124D01*
X25147680Y-80689791D02*
X25147680Y-79832648D01*
X25147680Y-79832648D02*
X25100061Y-79737410D01*
X25100061Y-79737410D02*
X25004823Y-79689791D01*
X25004823Y-79689791D02*
X24909585Y-79689791D01*
X24433394Y-80689791D02*
X24528632Y-80642172D01*
X24528632Y-80642172D02*
X24576251Y-80594552D01*
X24576251Y-80594552D02*
X24623870Y-80499314D01*
X24623870Y-80499314D02*
X24623870Y-80213600D01*
X24623870Y-80213600D02*
X24576251Y-80118362D01*
X24576251Y-80118362D02*
X24528632Y-80070743D01*
X24528632Y-80070743D02*
X24433394Y-80023124D01*
X24433394Y-80023124D02*
X24290537Y-80023124D01*
X24290537Y-80023124D02*
X24195299Y-80070743D01*
X24195299Y-80070743D02*
X24147680Y-80118362D01*
X24147680Y-80118362D02*
X24100061Y-80213600D01*
X24100061Y-80213600D02*
X24100061Y-80499314D01*
X24100061Y-80499314D02*
X24147680Y-80594552D01*
X24147680Y-80594552D02*
X24195299Y-80642172D01*
X24195299Y-80642172D02*
X24290537Y-80689791D01*
X24290537Y-80689791D02*
X24433394Y-80689791D01*
X23671489Y-80689791D02*
X23671489Y-80023124D01*
X23671489Y-80213600D02*
X23623870Y-80118362D01*
X23623870Y-80118362D02*
X23576251Y-80070743D01*
X23576251Y-80070743D02*
X23481013Y-80023124D01*
X23481013Y-80023124D02*
X23385775Y-80023124D01*
X22338155Y-80404076D02*
X21861965Y-80404076D01*
X22433393Y-80689791D02*
X22100060Y-79689791D01*
X22100060Y-79689791D02*
X21766727Y-80689791D01*
X21004822Y-80023124D02*
X21004822Y-80689791D01*
X21433393Y-80023124D02*
X21433393Y-80546933D01*
X21433393Y-80546933D02*
X21385774Y-80642172D01*
X21385774Y-80642172D02*
X21290536Y-80689791D01*
X21290536Y-80689791D02*
X21147679Y-80689791D01*
X21147679Y-80689791D02*
X21052441Y-80642172D01*
X21052441Y-80642172D02*
X21004822Y-80594552D01*
X20528631Y-80689791D02*
X20528631Y-80023124D01*
X20528631Y-80213600D02*
X20481012Y-80118362D01*
X20481012Y-80118362D02*
X20433393Y-80070743D01*
X20433393Y-80070743D02*
X20338155Y-80023124D01*
X20338155Y-80023124D02*
X20242917Y-80023124D01*
X20004821Y-80023124D02*
X19766726Y-80689791D01*
X19528631Y-80023124D02*
X19766726Y-80689791D01*
X19766726Y-80689791D02*
X19861964Y-80927886D01*
X19861964Y-80927886D02*
X19909583Y-80975505D01*
X19909583Y-80975505D02*
X20004821Y-81023124D01*
X19147678Y-80023124D02*
X19147678Y-80689791D01*
X19147678Y-80118362D02*
X19100059Y-80070743D01*
X19100059Y-80070743D02*
X19004821Y-80023124D01*
X19004821Y-80023124D02*
X18861964Y-80023124D01*
X18861964Y-80023124D02*
X18766726Y-80070743D01*
X18766726Y-80070743D02*
X18719107Y-80165981D01*
X18719107Y-80165981D02*
X18719107Y-80689791D01*
M02*
