%TF.GenerationSoftware,KiCad,Pcbnew,8.0.5*%
%TF.CreationDate,2024-10-18T08:36:54+02:00*%
%TF.ProjectId,bottom_case,626f7474-6f6d-45f6-9361-73652e6b6963,0.0.2*%
%TF.SameCoordinates,Original*%
%TF.FileFunction,Profile,NP*%
%FSLAX46Y46*%
G04 Gerber Fmt 4.6, Leading zero omitted, Abs format (unit mm)*
G04 Created by KiCad (PCBNEW 8.0.5) date 2024-10-18 08:36:54*
%MOMM*%
%LPD*%
G01*
G04 APERTURE LIST*
%TA.AperFunction,Profile*%
%ADD10C,0.150000*%
%TD*%
G04 APERTURE END LIST*
D10*
X133323039Y-83894697D02*
X140063164Y-86049550D01*
X141366732Y-88539305D02*
X136564439Y-104246896D01*
X134067086Y-105574762D02*
X118861857Y-100926057D01*
X118668124Y-100877261D02*
X115370889Y-100219952D01*
X115275498Y-100203325D02*
X101174664Y-98095942D01*
X100987575Y-98076920D02*
X97786307Y-97902947D01*
X97677777Y-97900000D02*
X81732081Y-97900000D01*
X79732081Y-95900000D02*
X79732081Y-78612579D01*
X77769852Y-76612936D02*
X72694310Y-76517064D01*
X70732081Y-74517421D02*
X70732081Y-72870000D01*
X68732081Y-70870000D02*
X58332081Y-70870000D01*
X56332081Y-72870000D02*
X56332081Y-73630000D01*
X54332081Y-75630000D02*
X40332081Y-75630000D01*
X38332081Y-77630000D02*
X38332081Y-80430000D01*
X36332081Y-82430000D02*
X18732081Y-82430000D01*
X16732081Y-80430000D02*
X16732081Y-30030000D01*
X18732081Y-28030000D02*
X32732081Y-28030000D01*
X34732081Y-26030000D02*
X34732081Y-23230000D01*
X36732081Y-21230000D02*
X50732081Y-21230000D01*
X52732081Y-19230000D02*
X52732081Y-18470000D01*
X54732081Y-16470000D02*
X72332081Y-16470000D01*
X74332081Y-18470000D02*
X74332081Y-20080000D01*
X76332081Y-22080000D02*
X89681221Y-22080000D01*
X91122147Y-22693013D02*
X92332081Y-23950000D01*
X92332081Y-23950000D02*
X107327918Y-23950000D01*
X109095494Y-25014225D02*
X109768668Y-26285775D01*
X111536244Y-27350000D02*
X129932081Y-27350000D01*
X131932081Y-29350000D02*
X131932081Y-81989685D01*
X140063164Y-86049550D02*
G75*
G02*
X141366732Y-88539305I-609042J-1905012D01*
G01*
X136564439Y-104246897D02*
G75*
G02*
X134067086Y-105574762I-1912609J584744D01*
G01*
X118668123Y-100877261D02*
G75*
G02*
X118861857Y-100926057I-391009J-1961406D01*
G01*
X115275498Y-100203326D02*
G75*
G02*
X115370889Y-100219952I-295619J-1978031D01*
G01*
X100987575Y-98076921D02*
G75*
G02*
X101174664Y-98095942I-108530J-1997052D01*
G01*
X97677777Y-97900000D02*
G75*
G02*
X97786307Y-97902947I0J-2000000D01*
G01*
X81732081Y-97900000D02*
G75*
G02*
X79732081Y-95900000I0J2000000D01*
G01*
X77769852Y-76612936D02*
G75*
G02*
X79732081Y-78612579I-37771J-1999643D01*
G01*
X72694310Y-76517064D02*
G75*
G02*
X70732081Y-74517421I37771J1999643D01*
G01*
X68732081Y-70870000D02*
G75*
G02*
X70732081Y-72870000I0J-2000000D01*
G01*
X56332081Y-72870000D02*
G75*
G02*
X58332081Y-70870000I2000000J0D01*
G01*
X56332081Y-73630000D02*
G75*
G02*
X54332081Y-75630000I-2000000J0D01*
G01*
X38332081Y-77630000D02*
G75*
G02*
X40332081Y-75630000I2000000J0D01*
G01*
X38332081Y-80430000D02*
G75*
G02*
X36332081Y-82430000I-2000000J0D01*
G01*
X18732081Y-82430000D02*
G75*
G02*
X16732081Y-80430000I0J2000000D01*
G01*
X16732081Y-30030000D02*
G75*
G02*
X18732081Y-28030000I2000000J0D01*
G01*
X34732081Y-26030000D02*
G75*
G02*
X32732081Y-28030000I-2000000J0D01*
G01*
X34732081Y-23230000D02*
G75*
G02*
X36732081Y-21230000I2000000J0D01*
G01*
X52732081Y-19230000D02*
G75*
G02*
X50732081Y-21230000I-2000000J0D01*
G01*
X52732081Y-18470000D02*
G75*
G02*
X54732081Y-16470000I2000000J0D01*
G01*
X72332081Y-16470000D02*
G75*
G02*
X74332081Y-18470000I0J-2000000D01*
G01*
X76332081Y-22080000D02*
G75*
G02*
X74332081Y-20080000I0J2000000D01*
G01*
X89681221Y-22080000D02*
G75*
G02*
X91122147Y-22693013I0J-2000000D01*
G01*
X107327918Y-23950000D02*
G75*
G02*
X109095494Y-25014225I0J-2000000D01*
G01*
X111536244Y-27350000D02*
G75*
G02*
X109768668Y-26285775I0J2000000D01*
G01*
X129932081Y-27350000D02*
G75*
G02*
X131932081Y-29350000I0J-2000000D01*
G01*
X133323039Y-83894696D02*
G75*
G02*
X131932081Y-81989685I609042J1905011D01*
G01*
M02*
