%TF.GenerationSoftware,KiCad,Pcbnew,8.0.5*%
%TF.CreationDate,2024-10-18T08:36:53+02:00*%
%TF.ProjectId,bottom_case,626f7474-6f6d-45f6-9361-73652e6b6963,0.0.2*%
%TF.SameCoordinates,Original*%
%TF.FileFunction,Legend,Top*%
%TF.FilePolarity,Positive*%
%FSLAX46Y46*%
G04 Gerber Fmt 4.6, Leading zero omitted, Abs format (unit mm)*
G04 Created by KiCad (PCBNEW 8.0.5) date 2024-10-18 08:36:53*
%MOMM*%
%LPD*%
G01*
G04 APERTURE LIST*
%ADD10C,0.150000*%
G04 APERTURE END LIST*
D10*
X20821241Y-78127466D02*
X21487907Y-78127466D01*
X21487907Y-78127466D02*
X21440288Y-78222704D01*
X21440288Y-78222704D02*
X21345050Y-78365561D01*
X21345050Y-78365561D02*
X21202193Y-78460799D01*
X21106955Y-78270323D02*
X21106955Y-78603656D01*
X21106955Y-78603656D02*
X21106955Y-78698894D01*
X21106955Y-78698894D02*
X21059336Y-78841751D01*
X21059336Y-78841751D02*
X20964098Y-79079847D01*
X21916479Y-78317942D02*
X22487907Y-78317942D01*
X22202193Y-78032228D02*
X22202193Y-79032228D01*
X22202193Y-79032228D02*
X22059336Y-78984608D01*
X22345050Y-78508418D02*
X22487907Y-78889370D01*
X22011717Y-78508418D02*
X21964098Y-78651275D01*
X21964098Y-78651275D02*
X21916479Y-78746513D01*
X21916479Y-78746513D02*
X21868860Y-78889370D01*
X22440288Y-78127466D02*
X22535526Y-78222704D01*
X22583145Y-78079847D02*
X22678384Y-78175085D01*
X22964098Y-78270323D02*
X23535526Y-78270323D01*
X23535526Y-78270323D02*
X23487907Y-78984608D01*
X23487907Y-78984608D02*
X23345050Y-78889370D01*
X23202193Y-77936989D02*
X23202193Y-78270323D01*
X23202193Y-78270323D02*
X23202193Y-78508418D01*
X23202193Y-78508418D02*
X23154574Y-78698894D01*
X23154574Y-78698894D02*
X23059336Y-78841751D01*
X23059336Y-78841751D02*
X22964098Y-78984608D01*
X24487907Y-78317942D02*
X24583145Y-78413180D01*
X24630764Y-78270323D02*
X24726002Y-78365561D01*
X24297431Y-77984608D02*
X24297431Y-79032228D01*
X24297431Y-78413180D02*
X24583145Y-78651275D01*
X25726003Y-78413180D02*
X25964098Y-79079847D01*
X25964098Y-79079847D02*
X26202193Y-78413180D01*
X26773622Y-78079847D02*
X26868860Y-78079847D01*
X26868860Y-78079847D02*
X26964098Y-78127466D01*
X26964098Y-78127466D02*
X27011717Y-78175085D01*
X27011717Y-78175085D02*
X27059336Y-78270323D01*
X27059336Y-78270323D02*
X27106955Y-78460799D01*
X27106955Y-78460799D02*
X27106955Y-78698894D01*
X27106955Y-78698894D02*
X27059336Y-78889370D01*
X27059336Y-78889370D02*
X27011717Y-78984608D01*
X27011717Y-78984608D02*
X26964098Y-79032228D01*
X26964098Y-79032228D02*
X26868860Y-79079847D01*
X26868860Y-79079847D02*
X26773622Y-79079847D01*
X26773622Y-79079847D02*
X26678384Y-79032228D01*
X26678384Y-79032228D02*
X26630765Y-78984608D01*
X26630765Y-78984608D02*
X26583146Y-78889370D01*
X26583146Y-78889370D02*
X26535527Y-78698894D01*
X26535527Y-78698894D02*
X26535527Y-78460799D01*
X26535527Y-78460799D02*
X26583146Y-78270323D01*
X26583146Y-78270323D02*
X26630765Y-78175085D01*
X26630765Y-78175085D02*
X26678384Y-78127466D01*
X26678384Y-78127466D02*
X26773622Y-78079847D01*
X27535527Y-78984608D02*
X27583146Y-79032228D01*
X27583146Y-79032228D02*
X27535527Y-79079847D01*
X27535527Y-79079847D02*
X27487908Y-79032228D01*
X27487908Y-79032228D02*
X27535527Y-78984608D01*
X27535527Y-78984608D02*
X27535527Y-79079847D01*
X27964098Y-78175085D02*
X28011717Y-78127466D01*
X28011717Y-78127466D02*
X28106955Y-78079847D01*
X28106955Y-78079847D02*
X28345050Y-78079847D01*
X28345050Y-78079847D02*
X28440288Y-78127466D01*
X28440288Y-78127466D02*
X28487907Y-78175085D01*
X28487907Y-78175085D02*
X28535526Y-78270323D01*
X28535526Y-78270323D02*
X28535526Y-78365561D01*
X28535526Y-78365561D02*
X28487907Y-78508418D01*
X28487907Y-78508418D02*
X27916479Y-79079847D01*
X27916479Y-79079847D02*
X28535526Y-79079847D01*
X20821241Y-80404076D02*
X21297431Y-80404076D01*
X20726003Y-80689791D02*
X21059336Y-79689791D01*
X21059336Y-79689791D02*
X21392669Y-80689791D01*
X22487908Y-80689791D02*
X22487908Y-79689791D01*
X22583146Y-80308838D02*
X22868860Y-80689791D01*
X22868860Y-80023124D02*
X22487908Y-80404076D01*
X23678384Y-80642172D02*
X23583146Y-80689791D01*
X23583146Y-80689791D02*
X23392670Y-80689791D01*
X23392670Y-80689791D02*
X23297432Y-80642172D01*
X23297432Y-80642172D02*
X23249813Y-80546933D01*
X23249813Y-80546933D02*
X23249813Y-80165981D01*
X23249813Y-80165981D02*
X23297432Y-80070743D01*
X23297432Y-80070743D02*
X23392670Y-80023124D01*
X23392670Y-80023124D02*
X23583146Y-80023124D01*
X23583146Y-80023124D02*
X23678384Y-80070743D01*
X23678384Y-80070743D02*
X23726003Y-80165981D01*
X23726003Y-80165981D02*
X23726003Y-80261219D01*
X23726003Y-80261219D02*
X23249813Y-80356457D01*
X24059337Y-80023124D02*
X24297432Y-80689791D01*
X24535527Y-80023124D02*
X24297432Y-80689791D01*
X24297432Y-80689791D02*
X24202194Y-80927886D01*
X24202194Y-80927886D02*
X24154575Y-80975505D01*
X24154575Y-80975505D02*
X24059337Y-81023124D01*
X24916480Y-80689791D02*
X24916480Y-79689791D01*
X24916480Y-80070743D02*
X25011718Y-80023124D01*
X25011718Y-80023124D02*
X25202194Y-80023124D01*
X25202194Y-80023124D02*
X25297432Y-80070743D01*
X25297432Y-80070743D02*
X25345051Y-80118362D01*
X25345051Y-80118362D02*
X25392670Y-80213600D01*
X25392670Y-80213600D02*
X25392670Y-80499314D01*
X25392670Y-80499314D02*
X25345051Y-80594552D01*
X25345051Y-80594552D02*
X25297432Y-80642172D01*
X25297432Y-80642172D02*
X25202194Y-80689791D01*
X25202194Y-80689791D02*
X25011718Y-80689791D01*
X25011718Y-80689791D02*
X24916480Y-80642172D01*
X25964099Y-80689791D02*
X25868861Y-80642172D01*
X25868861Y-80642172D02*
X25821242Y-80594552D01*
X25821242Y-80594552D02*
X25773623Y-80499314D01*
X25773623Y-80499314D02*
X25773623Y-80213600D01*
X25773623Y-80213600D02*
X25821242Y-80118362D01*
X25821242Y-80118362D02*
X25868861Y-80070743D01*
X25868861Y-80070743D02*
X25964099Y-80023124D01*
X25964099Y-80023124D02*
X26106956Y-80023124D01*
X26106956Y-80023124D02*
X26202194Y-80070743D01*
X26202194Y-80070743D02*
X26249813Y-80118362D01*
X26249813Y-80118362D02*
X26297432Y-80213600D01*
X26297432Y-80213600D02*
X26297432Y-80499314D01*
X26297432Y-80499314D02*
X26249813Y-80594552D01*
X26249813Y-80594552D02*
X26202194Y-80642172D01*
X26202194Y-80642172D02*
X26106956Y-80689791D01*
X26106956Y-80689791D02*
X25964099Y-80689791D01*
X27154575Y-80689791D02*
X27154575Y-80165981D01*
X27154575Y-80165981D02*
X27106956Y-80070743D01*
X27106956Y-80070743D02*
X27011718Y-80023124D01*
X27011718Y-80023124D02*
X26821242Y-80023124D01*
X26821242Y-80023124D02*
X26726004Y-80070743D01*
X27154575Y-80642172D02*
X27059337Y-80689791D01*
X27059337Y-80689791D02*
X26821242Y-80689791D01*
X26821242Y-80689791D02*
X26726004Y-80642172D01*
X26726004Y-80642172D02*
X26678385Y-80546933D01*
X26678385Y-80546933D02*
X26678385Y-80451695D01*
X26678385Y-80451695D02*
X26726004Y-80356457D01*
X26726004Y-80356457D02*
X26821242Y-80308838D01*
X26821242Y-80308838D02*
X27059337Y-80308838D01*
X27059337Y-80308838D02*
X27154575Y-80261219D01*
X27630766Y-80689791D02*
X27630766Y-80023124D01*
X27630766Y-80213600D02*
X27678385Y-80118362D01*
X27678385Y-80118362D02*
X27726004Y-80070743D01*
X27726004Y-80070743D02*
X27821242Y-80023124D01*
X27821242Y-80023124D02*
X27916480Y-80023124D01*
X28678385Y-80689791D02*
X28678385Y-79689791D01*
X28678385Y-80642172D02*
X28583147Y-80689791D01*
X28583147Y-80689791D02*
X28392671Y-80689791D01*
X28392671Y-80689791D02*
X28297433Y-80642172D01*
X28297433Y-80642172D02*
X28249814Y-80594552D01*
X28249814Y-80594552D02*
X28202195Y-80499314D01*
X28202195Y-80499314D02*
X28202195Y-80213600D01*
X28202195Y-80213600D02*
X28249814Y-80118362D01*
X28249814Y-80118362D02*
X28297433Y-80070743D01*
X28297433Y-80070743D02*
X28392671Y-80023124D01*
X28392671Y-80023124D02*
X28583147Y-80023124D01*
X28583147Y-80023124D02*
X28678385Y-80070743D01*
X29773624Y-80023124D02*
X30154576Y-80023124D01*
X29916481Y-80689791D02*
X29916481Y-79832648D01*
X29916481Y-79832648D02*
X29964100Y-79737410D01*
X29964100Y-79737410D02*
X30059338Y-79689791D01*
X30059338Y-79689791D02*
X30154576Y-79689791D01*
X30630767Y-80689791D02*
X30535529Y-80642172D01*
X30535529Y-80642172D02*
X30487910Y-80594552D01*
X30487910Y-80594552D02*
X30440291Y-80499314D01*
X30440291Y-80499314D02*
X30440291Y-80213600D01*
X30440291Y-80213600D02*
X30487910Y-80118362D01*
X30487910Y-80118362D02*
X30535529Y-80070743D01*
X30535529Y-80070743D02*
X30630767Y-80023124D01*
X30630767Y-80023124D02*
X30773624Y-80023124D01*
X30773624Y-80023124D02*
X30868862Y-80070743D01*
X30868862Y-80070743D02*
X30916481Y-80118362D01*
X30916481Y-80118362D02*
X30964100Y-80213600D01*
X30964100Y-80213600D02*
X30964100Y-80499314D01*
X30964100Y-80499314D02*
X30916481Y-80594552D01*
X30916481Y-80594552D02*
X30868862Y-80642172D01*
X30868862Y-80642172D02*
X30773624Y-80689791D01*
X30773624Y-80689791D02*
X30630767Y-80689791D01*
X31392672Y-80689791D02*
X31392672Y-80023124D01*
X31392672Y-80213600D02*
X31440291Y-80118362D01*
X31440291Y-80118362D02*
X31487910Y-80070743D01*
X31487910Y-80070743D02*
X31583148Y-80023124D01*
X31583148Y-80023124D02*
X31678386Y-80023124D01*
X32726006Y-80404076D02*
X33202196Y-80404076D01*
X32630768Y-80689791D02*
X32964101Y-79689791D01*
X32964101Y-79689791D02*
X33297434Y-80689791D01*
X34059339Y-80023124D02*
X34059339Y-80689791D01*
X33630768Y-80023124D02*
X33630768Y-80546933D01*
X33630768Y-80546933D02*
X33678387Y-80642172D01*
X33678387Y-80642172D02*
X33773625Y-80689791D01*
X33773625Y-80689791D02*
X33916482Y-80689791D01*
X33916482Y-80689791D02*
X34011720Y-80642172D01*
X34011720Y-80642172D02*
X34059339Y-80594552D01*
X34535530Y-80689791D02*
X34535530Y-80023124D01*
X34535530Y-80213600D02*
X34583149Y-80118362D01*
X34583149Y-80118362D02*
X34630768Y-80070743D01*
X34630768Y-80070743D02*
X34726006Y-80023124D01*
X34726006Y-80023124D02*
X34821244Y-80023124D01*
X35059340Y-80023124D02*
X35297435Y-80689791D01*
X35535530Y-80023124D02*
X35297435Y-80689791D01*
X35297435Y-80689791D02*
X35202197Y-80927886D01*
X35202197Y-80927886D02*
X35154578Y-80975505D01*
X35154578Y-80975505D02*
X35059340Y-81023124D01*
X35916483Y-80023124D02*
X35916483Y-80689791D01*
X35916483Y-80118362D02*
X35964102Y-80070743D01*
X35964102Y-80070743D02*
X36059340Y-80023124D01*
X36059340Y-80023124D02*
X36202197Y-80023124D01*
X36202197Y-80023124D02*
X36297435Y-80070743D01*
X36297435Y-80070743D02*
X36345054Y-80165981D01*
X36345054Y-80165981D02*
X36345054Y-80689791D01*
M02*
