%TF.GenerationSoftware,KiCad,Pcbnew,8.0.6*%
%TF.CreationDate,2024-12-06T19:51:08+01:00*%
%TF.ProjectId,keyboard_pcb,6b657962-6f61-4726-945f-7063622e6b69,0.0.3*%
%TF.SameCoordinates,Original*%
%TF.FileFunction,Copper,L1,Top*%
%TF.FilePolarity,Positive*%
%FSLAX46Y46*%
G04 Gerber Fmt 4.6, Leading zero omitted, Abs format (unit mm)*
G04 Created by KiCad (PCBNEW 8.0.6) date 2024-12-06 19:51:08*
%MOMM*%
%LPD*%
G01*
G04 APERTURE LIST*
G04 Aperture macros list*
%AMRoundRect*
0 Rectangle with rounded corners*
0 $1 Rounding radius*
0 $2 $3 $4 $5 $6 $7 $8 $9 X,Y pos of 4 corners*
0 Add a 4 corners polygon primitive as box body*
4,1,4,$2,$3,$4,$5,$6,$7,$8,$9,$2,$3,0*
0 Add four circle primitives for the rounded corners*
1,1,$1+$1,$2,$3*
1,1,$1+$1,$4,$5*
1,1,$1+$1,$6,$7*
1,1,$1+$1,$8,$9*
0 Add four rect primitives between the rounded corners*
20,1,$1+$1,$2,$3,$4,$5,0*
20,1,$1+$1,$4,$5,$6,$7,0*
20,1,$1+$1,$6,$7,$8,$9,0*
20,1,$1+$1,$8,$9,$2,$3,0*%
%AMRotRect*
0 Rectangle, with rotation*
0 The origin of the aperture is its center*
0 $1 length*
0 $2 width*
0 $3 Rotation angle, in degrees counterclockwise*
0 Add horizontal line*
21,1,$1,$2,0,0,$3*%
%AMOutline5P*
0 Free polygon, 5 corners , with rotation*
0 The origin of the aperture is its center*
0 number of corners: always 5*
0 $1 to $10 corner X, Y*
0 $11 Rotation angle, in degrees counterclockwise*
0 create outline with 5 corners*
4,1,5,$1,$2,$3,$4,$5,$6,$7,$8,$9,$10,$1,$2,$11*%
%AMOutline6P*
0 Free polygon, 6 corners , with rotation*
0 The origin of the aperture is its center*
0 number of corners: always 6*
0 $1 to $12 corner X, Y*
0 $13 Rotation angle, in degrees counterclockwise*
0 create outline with 6 corners*
4,1,6,$1,$2,$3,$4,$5,$6,$7,$8,$9,$10,$11,$12,$1,$2,$13*%
%AMOutline7P*
0 Free polygon, 7 corners , with rotation*
0 The origin of the aperture is its center*
0 number of corners: always 7*
0 $1 to $14 corner X, Y*
0 $15 Rotation angle, in degrees counterclockwise*
0 create outline with 7 corners*
4,1,7,$1,$2,$3,$4,$5,$6,$7,$8,$9,$10,$11,$12,$13,$14,$1,$2,$15*%
%AMOutline8P*
0 Free polygon, 8 corners , with rotation*
0 The origin of the aperture is its center*
0 number of corners: always 8*
0 $1 to $16 corner X, Y*
0 $17 Rotation angle, in degrees counterclockwise*
0 create outline with 8 corners*
4,1,8,$1,$2,$3,$4,$5,$6,$7,$8,$9,$10,$11,$12,$13,$14,$15,$16,$1,$2,$17*%
%AMFreePoly0*
4,1,6,0.250000,0.000000,-0.250000,-0.625000,-0.500000,-0.625000,-0.500000,0.625000,-0.250000,0.625000,0.250000,0.000000,0.250000,0.000000,$1*%
%AMFreePoly1*
4,1,6,0.500000,-0.625000,-0.650000,-0.625000,-0.150000,0.000000,-0.650000,0.625000,0.500000,0.625000,0.500000,-0.625000,0.500000,-0.625000,$1*%
G04 Aperture macros list end*
%TA.AperFunction,ComponentPad*%
%ADD10R,1.200000X1.200000*%
%TD*%
%TA.AperFunction,ComponentPad*%
%ADD11RotRect,1.200000X1.200000X80.475000*%
%TD*%
%TA.AperFunction,ComponentPad*%
%ADD12RotRect,1.200000X1.200000X70.950000*%
%TD*%
%TA.AperFunction,ComponentPad*%
%ADD13C,1.900000*%
%TD*%
%TA.AperFunction,SMDPad,CuDef*%
%ADD14Outline5P,-1.300000X1.300000X1.300000X1.300000X1.300000X-0.117000X0.117000X-1.300000X-1.300000X-1.300000X0.000000*%
%TD*%
%TA.AperFunction,SMDPad,CuDef*%
%ADD15R,2.600000X2.600000*%
%TD*%
%TA.AperFunction,SMDPad,CuDef*%
%ADD16Outline5P,-1.300000X1.300000X1.300000X1.300000X1.300000X-0.117000X0.117000X-1.300000X-1.300000X-1.300000X350.475000*%
%TD*%
%TA.AperFunction,SMDPad,CuDef*%
%ADD17RotRect,2.600000X2.600000X350.475000*%
%TD*%
%TA.AperFunction,SMDPad,CuDef*%
%ADD18Outline5P,-1.300000X1.300000X1.300000X1.300000X1.300000X-0.117000X0.117000X-1.300000X-1.300000X-1.300000X340.950000*%
%TD*%
%TA.AperFunction,SMDPad,CuDef*%
%ADD19RotRect,2.600000X2.600000X340.950000*%
%TD*%
%TA.AperFunction,ComponentPad*%
%ADD20O,1.700000X1.700000*%
%TD*%
%TA.AperFunction,ComponentPad*%
%ADD21C,0.800000*%
%TD*%
%TA.AperFunction,SMDPad,CuDef*%
%ADD22FreePoly0,0.000000*%
%TD*%
%TA.AperFunction,SMDPad,CuDef*%
%ADD23FreePoly1,0.000000*%
%TD*%
%TA.AperFunction,SMDPad,CuDef*%
%ADD24FreePoly1,180.000000*%
%TD*%
%TA.AperFunction,SMDPad,CuDef*%
%ADD25FreePoly0,180.000000*%
%TD*%
%TA.AperFunction,SMDPad,CuDef*%
%ADD26R,0.700000X1.500000*%
%TD*%
%TA.AperFunction,SMDPad,CuDef*%
%ADD27R,1.000000X0.800000*%
%TD*%
%TA.AperFunction,SMDPad,CuDef*%
%ADD28R,1.200000X0.600000*%
%TD*%
%TA.AperFunction,ComponentPad*%
%ADD29R,1.300000X1.000000*%
%TD*%
%TA.AperFunction,ComponentPad*%
%ADD30C,2.600000*%
%TD*%
%TA.AperFunction,ComponentPad*%
%ADD31RoundRect,0.250000X-0.625000X0.350000X-0.625000X-0.350000X0.625000X-0.350000X0.625000X0.350000X0*%
%TD*%
%TA.AperFunction,ComponentPad*%
%ADD32O,1.750000X1.200000*%
%TD*%
%TA.AperFunction,ViaPad*%
%ADD33C,0.600000*%
%TD*%
%TA.AperFunction,Conductor*%
%ADD34C,0.200000*%
%TD*%
%TA.AperFunction,Conductor*%
%ADD35C,0.250000*%
%TD*%
G04 APERTURE END LIST*
D10*
%TO.P,D1,1*%
%TO.N,P4*%
X18222937Y-82525786D03*
%TO.P,D1,2*%
X18222937Y-79725786D03*
%TD*%
%TO.P,D2,1*%
%TO.N,P3*%
X18222937Y-63475786D03*
%TO.P,D2,2*%
X18222937Y-60675786D03*
%TD*%
%TO.P,D3,1*%
%TO.N,P2*%
X18222937Y-44425786D03*
%TO.P,D3,2*%
X18222937Y-41625786D03*
%TD*%
%TO.P,D4,1*%
%TO.N,P4*%
X37272937Y-74905786D03*
%TO.P,D4,2*%
X37272937Y-72105786D03*
%TD*%
%TO.P,D5,1*%
%TO.N,P3*%
X37272937Y-55855786D03*
%TO.P,D5,2*%
X37272937Y-53055786D03*
%TD*%
%TO.P,D6,1*%
%TO.N,P2*%
X37272937Y-36805786D03*
%TO.P,D6,2*%
X37272937Y-34005786D03*
%TD*%
%TO.P,D7,1*%
%TO.N,P4*%
X56322937Y-69571786D03*
%TO.P,D7,2*%
X56322937Y-66771786D03*
%TD*%
%TO.P,D8,1*%
%TO.N,P3*%
X56322937Y-50521786D03*
%TO.P,D8,2*%
X56322937Y-47721786D03*
%TD*%
%TO.P,D9,1*%
%TO.N,P2*%
X56322937Y-31471786D03*
%TO.P,D9,2*%
X56322937Y-28671786D03*
%TD*%
%TO.P,D10,1*%
%TO.N,P4*%
X75372937Y-75858286D03*
%TO.P,D10,2*%
X75372937Y-73058286D03*
%TD*%
%TO.P,D11,1*%
%TO.N,P3*%
X75372937Y-56808286D03*
%TO.P,D11,2*%
X75372937Y-54008286D03*
%TD*%
%TO.P,D12,1*%
%TO.N,P2*%
X75372937Y-37758286D03*
%TO.P,D12,2*%
X75372937Y-34958286D03*
%TD*%
%TO.P,D13,1*%
%TO.N,P4*%
X94422937Y-77953786D03*
%TO.P,D13,2*%
X94422937Y-75153786D03*
%TD*%
%TO.P,D14,1*%
%TO.N,P3*%
X94422937Y-58903786D03*
%TO.P,D14,2*%
X94422937Y-56103786D03*
%TD*%
%TO.P,D15,1*%
%TO.N,P2*%
X94422937Y-39853786D03*
%TO.P,D15,2*%
X94422937Y-37053786D03*
%TD*%
%TO.P,D16,1*%
%TO.N,P5*%
X84897937Y-97003786D03*
%TO.P,D16,2*%
X84897937Y-94203786D03*
%TD*%
D11*
%TO.P,D17,1*%
%TO.N,P5*%
X104517983Y-97309341D03*
%TO.P,D17,2*%
X104981321Y-94547943D03*
%TD*%
D12*
%TO.P,D18,1*%
%TO.N,P5*%
X123954633Y-100957711D03*
%TO.P,D18,2*%
X124868533Y-98311055D03*
%TD*%
D13*
%TO.P,S1,*%
%TO.N,*%
X30722937Y-82675786D03*
X20722937Y-82675786D03*
D14*
%TO.P,S1,1*%
%TO.N,P10*%
X28997937Y-71575786D03*
D15*
%TO.P,S1,2*%
%TO.N,P4*%
X17447937Y-73775786D03*
%TD*%
D13*
%TO.P,S2,*%
%TO.N,*%
X30722937Y-63625786D03*
X20722937Y-63625786D03*
D14*
%TO.P,S2,1*%
%TO.N,P10*%
X28997937Y-52525786D03*
D15*
%TO.P,S2,2*%
%TO.N,P3*%
X17447937Y-54725786D03*
%TD*%
D13*
%TO.P,S3,*%
%TO.N,*%
X30722937Y-44575786D03*
X20722937Y-44575786D03*
D14*
%TO.P,S3,1*%
%TO.N,P10*%
X28997937Y-33475786D03*
D15*
%TO.P,S3,2*%
%TO.N,P2*%
X17447937Y-35675786D03*
%TD*%
D13*
%TO.P,S4,*%
%TO.N,*%
X49772937Y-75055786D03*
X39772937Y-75055786D03*
D14*
%TO.P,S4,1*%
%TO.N,P16*%
X48047937Y-63955786D03*
D15*
%TO.P,S4,2*%
%TO.N,P4*%
X36497937Y-66155786D03*
%TD*%
D13*
%TO.P,S5,*%
%TO.N,*%
X49772937Y-56005786D03*
X39772937Y-56005786D03*
D14*
%TO.P,S5,1*%
%TO.N,P16*%
X48047937Y-44905786D03*
D15*
%TO.P,S5,2*%
%TO.N,P3*%
X36497937Y-47105786D03*
%TD*%
D13*
%TO.P,S6,*%
%TO.N,*%
X49772937Y-36955786D03*
X39772937Y-36955786D03*
D14*
%TO.P,S6,1*%
%TO.N,P16*%
X48047937Y-25855786D03*
D15*
%TO.P,S6,2*%
%TO.N,P2*%
X36497937Y-28055786D03*
%TD*%
D13*
%TO.P,S7,*%
%TO.N,*%
X68822937Y-69721786D03*
X58822937Y-69721786D03*
D14*
%TO.P,S7,1*%
%TO.N,P14*%
X67097937Y-58621786D03*
D15*
%TO.P,S7,2*%
%TO.N,P4*%
X55547937Y-60821786D03*
%TD*%
D13*
%TO.P,S8,*%
%TO.N,*%
X68822937Y-50671786D03*
X58822937Y-50671786D03*
D14*
%TO.P,S8,1*%
%TO.N,P14*%
X67097937Y-39571786D03*
D15*
%TO.P,S8,2*%
%TO.N,P3*%
X55547937Y-41771786D03*
%TD*%
D13*
%TO.P,S9,*%
%TO.N,*%
X68822937Y-31621786D03*
X58822937Y-31621786D03*
D14*
%TO.P,S9,1*%
%TO.N,P14*%
X67097937Y-20521786D03*
D15*
%TO.P,S9,2*%
%TO.N,P2*%
X55547937Y-22721786D03*
%TD*%
D13*
%TO.P,S10,*%
%TO.N,*%
X87872937Y-76008286D03*
X77872937Y-76008286D03*
D14*
%TO.P,S10,1*%
%TO.N,P15*%
X86147937Y-64908286D03*
D15*
%TO.P,S10,2*%
%TO.N,P4*%
X74597937Y-67108286D03*
%TD*%
D13*
%TO.P,S11,*%
%TO.N,*%
X87872937Y-56958286D03*
X77872937Y-56958286D03*
D14*
%TO.P,S11,1*%
%TO.N,P15*%
X86147937Y-45858286D03*
D15*
%TO.P,S11,2*%
%TO.N,P3*%
X74597937Y-48058286D03*
%TD*%
D13*
%TO.P,S12,*%
%TO.N,*%
X87872937Y-37908286D03*
X77872937Y-37908286D03*
D14*
%TO.P,S12,1*%
%TO.N,P15*%
X86147937Y-26808286D03*
D15*
%TO.P,S12,2*%
%TO.N,P2*%
X74597937Y-29008286D03*
%TD*%
D13*
%TO.P,S13,*%
%TO.N,*%
X106922937Y-78103786D03*
X96922937Y-78103786D03*
D14*
%TO.P,S13,1*%
%TO.N,P18*%
X105197937Y-67003786D03*
D15*
%TO.P,S13,2*%
%TO.N,P4*%
X93647937Y-69203786D03*
%TD*%
D13*
%TO.P,S14,*%
%TO.N,*%
X106922937Y-59053786D03*
X96922937Y-59053786D03*
D14*
%TO.P,S14,1*%
%TO.N,P18*%
X105197937Y-47953786D03*
D15*
%TO.P,S14,2*%
%TO.N,P3*%
X93647937Y-50153786D03*
%TD*%
D13*
%TO.P,S15,*%
%TO.N,*%
X106922937Y-40003786D03*
X96922937Y-40003786D03*
D14*
%TO.P,S15,1*%
%TO.N,P18*%
X105197937Y-28903786D03*
D15*
%TO.P,S15,2*%
%TO.N,P2*%
X93647937Y-31103786D03*
%TD*%
D13*
%TO.P,S16,*%
%TO.N,*%
X97397937Y-97153786D03*
X87397937Y-97153786D03*
D14*
%TO.P,S16,1*%
%TO.N,P14*%
X95672937Y-86053786D03*
D15*
%TO.P,S16,2*%
%TO.N,P5*%
X84122937Y-88253786D03*
%TD*%
D13*
%TO.P,S17,*%
%TO.N,*%
X116820830Y-99525747D03*
X106958695Y-97870968D03*
D16*
%TO.P,S17,1*%
%TO.N,P15*%
X116956417Y-88293328D03*
D17*
%TO.P,S17,2*%
%TO.N,P5*%
X105201600Y-88551727D03*
%TD*%
D13*
%TO.P,S18,*%
%TO.N,*%
X135721100Y-105179409D03*
X126268759Y-101915478D03*
D18*
%TO.P,S18,1*%
%TO.N,P18*%
X137713535Y-94124283D03*
D19*
%TO.P,S18,2*%
%TO.N,P5*%
X126078016Y-92433957D03*
%TD*%
D20*
%TO.P,,0*%
%TO.N,_1_0*%
X116302937Y-34433786D03*
%TO.P,,25*%
%TO.N,_1_25*%
X131542937Y-34433786D03*
%TO.P,,1*%
%TO.N,_1_1*%
X116302937Y-36973786D03*
%TO.P,,24*%
%TO.N,_1_24*%
X131542937Y-36973786D03*
%TO.P,,2*%
%TO.N,_1_2*%
X116302937Y-39513786D03*
%TO.P,,23*%
%TO.N,_1_23*%
X131542937Y-39513786D03*
%TO.P,,3*%
%TO.N,_1_3*%
X116302937Y-42053786D03*
%TO.P,,22*%
%TO.N,_1_22*%
X131542937Y-42053786D03*
%TO.P,,4*%
%TO.N,_1_4*%
X116302937Y-44593786D03*
%TO.P,,21*%
%TO.N,_1_21*%
X131542937Y-44593786D03*
%TO.P,,5*%
%TO.N,_1_5*%
X116302937Y-47133786D03*
%TO.P,,20*%
%TO.N,_1_20*%
X131542937Y-47133786D03*
%TO.P,,6*%
%TO.N,_1_6*%
X116302937Y-49673786D03*
%TO.P,,19*%
%TO.N,_1_19*%
X131542937Y-49673786D03*
%TO.P,,7*%
%TO.N,_1_7*%
X116302937Y-52213786D03*
%TO.P,,18*%
%TO.N,_1_18*%
X131542937Y-52213786D03*
%TO.P,,8*%
%TO.N,_1_8*%
X116302937Y-54753786D03*
%TO.P,,17*%
%TO.N,_1_17*%
X131542937Y-54753786D03*
%TO.P,,9*%
%TO.N,_1_9*%
X116302937Y-57293786D03*
%TO.P,,16*%
%TO.N,_1_16*%
X131542937Y-57293786D03*
%TO.P,,10*%
%TO.N,_1_10*%
X116302937Y-59833786D03*
%TO.P,,15*%
%TO.N,_1_15*%
X131542937Y-59833786D03*
%TO.P,,11*%
%TO.N,_1_11*%
X116302937Y-62373786D03*
%TO.P,,14*%
%TO.N,_1_14*%
X131542937Y-62373786D03*
%TO.P,,12*%
%TO.N,_1_12*%
X116302937Y-64913786D03*
%TO.P,,13*%
%TO.N,_1_13*%
X131542937Y-64913786D03*
D21*
%TO.P,,0*%
%TO.N,B-*%
X120660937Y-34433786D03*
D22*
%TO.N,_1_0*%
X118302937Y-34433786D03*
D23*
%TO.P,,25*%
%TO.N,B+*%
X119147937Y-34433786D03*
D21*
X127184937Y-34433786D03*
D24*
%TO.P,,0*%
%TO.N,B-*%
X128697937Y-34433786D03*
D25*
%TO.P,,25*%
%TO.N,_1_25*%
X129542937Y-34433786D03*
D21*
%TO.P,,1*%
%TO.N,P1*%
X120660937Y-36973786D03*
D22*
%TO.N,_1_1*%
X118302937Y-36973786D03*
D23*
%TO.P,,24*%
%TO.N,RAW*%
X119147937Y-36973786D03*
D21*
X127184937Y-36973786D03*
D24*
%TO.P,,1*%
%TO.N,P1*%
X128697937Y-36973786D03*
D25*
%TO.P,,24*%
%TO.N,_1_24*%
X129542937Y-36973786D03*
D21*
%TO.P,,2*%
%TO.N,P0*%
X120660937Y-39513786D03*
D22*
%TO.N,_1_2*%
X118302937Y-39513786D03*
D23*
%TO.P,,23*%
%TO.N,GND*%
X119147937Y-39513786D03*
D21*
X127184937Y-39513786D03*
D24*
%TO.P,,2*%
%TO.N,P0*%
X128697937Y-39513786D03*
D25*
%TO.P,,23*%
%TO.N,_1_23*%
X129542937Y-39513786D03*
D21*
%TO.P,,3*%
%TO.N,GND*%
X120660937Y-42053786D03*
D22*
%TO.N,_1_3*%
X118302937Y-42053786D03*
D23*
%TO.P,,22*%
%TO.N,RST*%
X119147937Y-42053786D03*
D21*
X127184937Y-42053786D03*
D24*
%TO.P,,3*%
%TO.N,GND*%
X128697937Y-42053786D03*
D25*
%TO.P,,22*%
%TO.N,_1_22*%
X129542937Y-42053786D03*
D21*
%TO.P,,4*%
%TO.N,GND*%
X120660937Y-44593786D03*
D22*
%TO.N,_1_4*%
X118302937Y-44593786D03*
D23*
%TO.P,,21*%
%TO.N,VCC*%
X119147937Y-44593786D03*
D21*
X127184937Y-44593786D03*
D24*
%TO.P,,4*%
%TO.N,GND*%
X128697937Y-44593786D03*
D25*
%TO.P,,21*%
%TO.N,_1_21*%
X129542937Y-44593786D03*
D21*
%TO.P,,5*%
%TO.N,P2*%
X120660937Y-47133786D03*
D22*
%TO.N,_1_5*%
X118302937Y-47133786D03*
D23*
%TO.P,,20*%
%TO.N,P21*%
X119147937Y-47133786D03*
D21*
X127184937Y-47133786D03*
D24*
%TO.P,,5*%
%TO.N,P2*%
X128697937Y-47133786D03*
D25*
%TO.P,,20*%
%TO.N,_1_20*%
X129542937Y-47133786D03*
D21*
%TO.P,,6*%
%TO.N,P3*%
X120660937Y-49673786D03*
D22*
%TO.N,_1_6*%
X118302937Y-49673786D03*
D23*
%TO.P,,19*%
%TO.N,P20*%
X119147937Y-49673786D03*
D21*
X127184937Y-49673786D03*
D24*
%TO.P,,6*%
%TO.N,P3*%
X128697937Y-49673786D03*
D25*
%TO.P,,19*%
%TO.N,_1_19*%
X129542937Y-49673786D03*
D21*
%TO.P,,7*%
%TO.N,P4*%
X120660937Y-52213786D03*
D22*
%TO.N,_1_7*%
X118302937Y-52213786D03*
D23*
%TO.P,,18*%
%TO.N,P19*%
X119147937Y-52213786D03*
D21*
X127184937Y-52213786D03*
D24*
%TO.P,,7*%
%TO.N,P4*%
X128697937Y-52213786D03*
D25*
%TO.P,,18*%
%TO.N,_1_18*%
X129542937Y-52213786D03*
D21*
%TO.P,,8*%
%TO.N,P5*%
X120660937Y-54753786D03*
D22*
%TO.N,_1_8*%
X118302937Y-54753786D03*
D23*
%TO.P,,17*%
%TO.N,P18*%
X119147937Y-54753786D03*
D21*
X127184937Y-54753786D03*
D24*
%TO.P,,8*%
%TO.N,P5*%
X128697937Y-54753786D03*
D25*
%TO.P,,17*%
%TO.N,_1_17*%
X129542937Y-54753786D03*
D21*
%TO.P,,9*%
%TO.N,P6*%
X120660937Y-57293786D03*
D22*
%TO.N,_1_9*%
X118302937Y-57293786D03*
D23*
%TO.P,,16*%
%TO.N,P15*%
X119147937Y-57293786D03*
D21*
X127184937Y-57293786D03*
D24*
%TO.P,,9*%
%TO.N,P6*%
X128697937Y-57293786D03*
D25*
%TO.P,,16*%
%TO.N,_1_16*%
X129542937Y-57293786D03*
D21*
%TO.P,,10*%
%TO.N,P7*%
X120660937Y-59833786D03*
D22*
%TO.N,_1_10*%
X118302937Y-59833786D03*
D23*
%TO.P,,15*%
%TO.N,P14*%
X119147937Y-59833786D03*
D21*
X127184937Y-59833786D03*
D24*
%TO.P,,10*%
%TO.N,P7*%
X128697937Y-59833786D03*
D25*
%TO.P,,15*%
%TO.N,_1_15*%
X129542937Y-59833786D03*
D21*
%TO.P,,11*%
%TO.N,P8*%
X120660937Y-62373786D03*
D22*
%TO.N,_1_11*%
X118302937Y-62373786D03*
D23*
%TO.P,,14*%
%TO.N,P16*%
X119147937Y-62373786D03*
D21*
X127184937Y-62373786D03*
D24*
%TO.P,,11*%
%TO.N,P8*%
X128697937Y-62373786D03*
D25*
%TO.P,,14*%
%TO.N,_1_14*%
X129542937Y-62373786D03*
D21*
%TO.P,,12*%
%TO.N,P9*%
X120660937Y-64913786D03*
D22*
%TO.N,_1_12*%
X118302937Y-64913786D03*
D23*
%TO.P,,13*%
%TO.N,P10*%
X119147937Y-64913786D03*
D21*
X127184937Y-64913786D03*
D24*
%TO.P,,12*%
%TO.N,P9*%
X128697937Y-64913786D03*
D25*
%TO.P,,13*%
%TO.N,_1_13*%
X129542937Y-64913786D03*
%TD*%
D26*
%TO.P,T1,1*%
%TO.N,pos*%
X126172937Y-30783786D03*
%TO.P,T1,2*%
%TO.N,B+*%
X123172937Y-30783786D03*
D27*
%TO.P,T1,*%
%TO.N,*%
X127572937Y-27923786D03*
X120272937Y-27923786D03*
X120272937Y-30133786D03*
X127572937Y-30133786D03*
%TD*%
D28*
%TO.P,DISP1,14*%
%TO.N,GND*%
X120112937Y-69953786D03*
%TO.P,DISP1,15*%
%TO.N,VCC*%
X122652937Y-69953786D03*
%TO.P,DISP1,16*%
%TO.N,P20*%
X125192937Y-69953786D03*
%TO.P,DISP1,17*%
%TO.N,P19*%
X127732937Y-69953786D03*
%TO.P,DISP1,10*%
%TO.N,DISP1_1*%
X120112937Y-70853786D03*
%TO.P,DISP1,11*%
%TO.N,DISP1_2*%
X122652937Y-70853786D03*
%TO.P,DISP1,12*%
%TO.N,DISP1_3*%
X125192937Y-70853786D03*
%TO.P,DISP1,13*%
%TO.N,DISP1_4*%
X127732937Y-70853786D03*
D20*
%TO.P,DISP1,1*%
%TO.N,DISP1_1*%
X120112937Y-72603786D03*
%TO.P,DISP1,2*%
%TO.N,DISP1_2*%
X122652937Y-72603786D03*
%TO.P,DISP1,3*%
%TO.N,DISP1_3*%
X125192937Y-72603786D03*
%TO.P,DISP1,4*%
%TO.N,DISP1_4*%
X127732937Y-72603786D03*
%TD*%
D29*
%TO.P,S19,1*%
%TO.N,RST*%
X113922937Y-30353786D03*
%TO.P,S19,2*%
%TO.N,GND*%
X117922937Y-30353786D03*
%TD*%
D30*
%TO.P,H1,*%
%TO.N,*%
X35922937Y-41195786D03*
%TD*%
%TO.P,H2,*%
%TO.N,*%
X35922937Y-60245786D03*
%TD*%
%TO.P,H3,*%
%TO.N,*%
X92397937Y-43331036D03*
%TD*%
%TO.P,H4,*%
%TO.N,*%
X92397937Y-62381036D03*
%TD*%
%TO.P,H5,*%
%TO.N,*%
X114922937Y-72953786D03*
%TD*%
%TO.P,H6,*%
%TO.N,*%
X132922937Y-72953786D03*
%TD*%
D31*
%TO.P,_2,1*%
%TO.N,pos*%
X131922937Y-78953786D03*
D32*
%TO.P,_2,2*%
%TO.N,B-*%
X131922937Y-80953786D03*
%TD*%
D33*
%TO.N,B-*%
X134452937Y-77645786D03*
%TO.N,P14*%
X108901045Y-61515500D03*
%TO.N,P10*%
X110152937Y-60215786D03*
%TO.N,P16*%
X109322937Y-60835786D03*
%TO.N,P15*%
X107672937Y-62225786D03*
%TO.N,P18*%
X106972937Y-62985786D03*
X98772937Y-63255786D03*
%TO.N,P15*%
X79722937Y-60795786D03*
%TO.N,P14*%
X60672937Y-54695786D03*
%TO.N,P16*%
X41497937Y-59155786D03*
%TO.N,P10*%
X22572937Y-62515786D03*
%TO.N,GND*%
X127792937Y-69153784D03*
%TO.N,VCC*%
X123852937Y-69935786D03*
%TO.N,P20*%
X126492937Y-69935786D03*
%TO.N,P19*%
X125437937Y-68735786D03*
%TO.N,B+*%
X123862937Y-32145786D03*
%TO.N,pos*%
X125822937Y-32295786D03*
%TO.N,P18*%
X136792937Y-90785786D03*
%TO.N,P5*%
X138832937Y-92125786D03*
%TO.N,P15*%
X113242937Y-85055786D03*
%TO.N,P5*%
X116956515Y-85312208D03*
%TO.N,P14*%
X92872937Y-83565786D03*
%TO.N,P5*%
X89952937Y-83015786D03*
%TO.N,P15*%
X82862937Y-62175786D03*
%TO.N,P4*%
X86072937Y-62625786D03*
%TO.N,P14*%
X64072937Y-55805786D03*
%TO.N,P4*%
X64812937Y-54995786D03*
%TO.N,P16*%
X45097937Y-60790786D03*
%TO.N,P4*%
X44472937Y-60110786D03*
X24238256Y-67865786D03*
%TO.N,P10*%
X25372937Y-68465786D03*
%TO.N,P3*%
X24487028Y-49638165D03*
%TO.N,P10*%
X25672937Y-49985786D03*
%TO.N,P3*%
X42662937Y-41445786D03*
%TO.N,P16*%
X44672937Y-42285786D03*
%TO.N,P3*%
X62782937Y-36345786D03*
%TO.N,P14*%
X64322937Y-36775786D03*
%TO.N,P3*%
X81732937Y-42405786D03*
%TO.N,P15*%
X83352937Y-43005786D03*
%TO.N,P4*%
X100693672Y-64386521D03*
%TO.N,P18*%
X102182937Y-64425786D03*
%TO.N,P3*%
X99822937Y-45575786D03*
%TO.N,P18*%
X102312937Y-45355786D03*
%TO.N,P2*%
X100802937Y-25535786D03*
%TO.N,P18*%
X102062937Y-26135786D03*
%TO.N,P2*%
X82432937Y-23365786D03*
%TO.N,P15*%
X83512937Y-23965786D03*
%TO.N,P2*%
X63142937Y-17155786D03*
%TO.N,P14*%
X63992937Y-17755786D03*
%TO.N,P2*%
X44312937Y-21705786D03*
%TO.N,P16*%
X44804091Y-22337270D03*
%TO.N,P2*%
X25642937Y-29135786D03*
%TO.N,P10*%
X25402937Y-29905786D03*
%TD*%
D34*
%TO.N,P5*%
X109317541Y-84435786D02*
X105201600Y-88551727D01*
X116956515Y-85312208D02*
X116080093Y-84435786D01*
X116080093Y-84435786D02*
X109317541Y-84435786D01*
X89952937Y-83015786D02*
X89932937Y-83035786D01*
X89932937Y-83035786D02*
X86332937Y-83035786D01*
X86332937Y-83035786D02*
X84122937Y-85245786D01*
X84122937Y-85245786D02*
X84122937Y-88253786D01*
%TO.N,P4*%
X75372937Y-75858286D02*
X75335437Y-75895786D01*
X58142937Y-74015786D02*
X56322937Y-72195786D01*
X75335437Y-75895786D02*
X72122937Y-75895786D01*
X72122937Y-75895786D02*
X70242937Y-74015786D01*
X70242937Y-74015786D02*
X58142937Y-74015786D01*
X56322937Y-72195786D02*
X56322937Y-69571786D01*
%TO.N,P2*%
X100802937Y-25535786D02*
X96802937Y-25535786D01*
X96802937Y-25535786D02*
X93647937Y-28690786D01*
X93647937Y-28690786D02*
X93647937Y-31103786D01*
%TO.N,P18*%
X105197937Y-47953786D02*
X105197937Y-46140786D01*
X105197937Y-46140786D02*
X104412937Y-45355786D01*
X104412937Y-45355786D02*
X102312937Y-45355786D01*
%TO.N,P15*%
X86147937Y-45858286D02*
X86147937Y-44010786D01*
X86147937Y-44010786D02*
X85142937Y-43005786D01*
X85142937Y-43005786D02*
X83352937Y-43005786D01*
%TO.N,P3*%
X81732937Y-42405786D02*
X75902937Y-42405786D01*
X75902937Y-42405786D02*
X74597937Y-43710786D01*
X74597937Y-43710786D02*
X74597937Y-48058286D01*
%TO.N,P4*%
X55547937Y-60821786D02*
X55547937Y-54750786D01*
X55547937Y-54750786D02*
X55922937Y-54375786D01*
X55922937Y-54375786D02*
X59504408Y-54375786D01*
X60921466Y-55295786D02*
X61421466Y-54795786D01*
X59504408Y-54375786D02*
X60424408Y-55295786D01*
X60424408Y-55295786D02*
X60921466Y-55295786D01*
X61421466Y-54795786D02*
X64612937Y-54795786D01*
X64612937Y-54795786D02*
X64812937Y-54995786D01*
%TO.N,P2*%
X94422937Y-42355786D02*
X96482937Y-44415786D01*
X113664791Y-52683932D02*
X114752937Y-51595786D01*
X106972937Y-44415786D02*
X110292937Y-47735786D01*
X110292937Y-47735786D02*
X110292937Y-51565786D01*
X94422937Y-39853786D02*
X94422937Y-42355786D01*
X96482937Y-44415786D02*
X106972937Y-44415786D01*
X110292937Y-51565786D02*
X111411083Y-52683932D01*
X115152937Y-49197440D02*
X115826591Y-48523786D01*
X111411083Y-52683932D02*
X113664791Y-52683932D01*
X114752937Y-51595786D02*
X114752937Y-51571754D01*
X114752937Y-51571754D02*
X115152937Y-51171754D01*
X115152937Y-51171754D02*
X115152937Y-49197440D01*
X115826591Y-48523786D02*
X119584937Y-48523786D01*
X119584937Y-48523786D02*
X120660937Y-47447786D01*
X120660937Y-47447786D02*
X120660937Y-47133786D01*
%TO.N,P5*%
X104517983Y-97309341D02*
X103676492Y-97309341D01*
X103676492Y-97309341D02*
X102822937Y-96455786D01*
X111740477Y-53883932D02*
X114701083Y-53883932D01*
X102822937Y-96455786D02*
X102822937Y-80181472D01*
X115826591Y-55903786D02*
X119724937Y-55903786D01*
X102822937Y-80181472D02*
X111392937Y-71611472D01*
X115152937Y-54335786D02*
X115152937Y-55230132D01*
X111392937Y-54231472D02*
X111740477Y-53883932D01*
X114701083Y-53883932D02*
X115152937Y-54335786D01*
X115152937Y-55230132D02*
X115826591Y-55903786D01*
X111392937Y-71611472D02*
X111392937Y-54231472D01*
X119724937Y-55903786D02*
X120660937Y-54967786D01*
X120660937Y-54967786D02*
X120660937Y-54753786D01*
X104517983Y-97309341D02*
X104517983Y-99080740D01*
X84897937Y-98070786D02*
X84897937Y-97003786D01*
X104517983Y-99080740D02*
X104232937Y-99365786D01*
X86192937Y-99365786D02*
X84897937Y-98070786D01*
X104232937Y-99365786D02*
X86192937Y-99365786D01*
X123954633Y-100957711D02*
X106124862Y-100957711D01*
X106124862Y-100957711D02*
X104517983Y-99350832D01*
X104517983Y-99350832D02*
X104517983Y-97309341D01*
%TO.N,P4*%
X110992937Y-71445786D02*
X110992937Y-54065786D01*
X95222937Y-79575786D02*
X102862937Y-79575786D01*
X102862937Y-79575786D02*
X110992937Y-71445786D01*
X94422937Y-78775786D02*
X95222937Y-79575786D01*
X94422937Y-77953786D02*
X94422937Y-78775786D01*
X110992937Y-54065786D02*
X111574791Y-53483932D01*
X119834791Y-53483932D02*
X120660937Y-52657786D01*
X111574791Y-53483932D02*
X119834791Y-53483932D01*
X120660937Y-52657786D02*
X120660937Y-52213786D01*
X94422937Y-77953786D02*
X76100937Y-77953786D01*
X76100937Y-77953786D02*
X75372937Y-77225786D01*
X75372937Y-77225786D02*
X75372937Y-75858286D01*
%TO.N,P10*%
X108484408Y-60405786D02*
X94124937Y-60405786D01*
X93022937Y-59303786D02*
X76210937Y-59303786D01*
X110132937Y-60195786D02*
X108694408Y-60195786D01*
X22922937Y-62165786D02*
X22572937Y-62515786D01*
X76210937Y-59303786D02*
X70482937Y-53575786D01*
X108694408Y-60195786D02*
X108484408Y-60405786D01*
X94124937Y-60405786D02*
X93022937Y-59303786D01*
X70482937Y-53575786D02*
X55288623Y-53575786D01*
X55288623Y-53575786D02*
X50318623Y-58545786D01*
X110152937Y-60215786D02*
X110132937Y-60195786D01*
X34228623Y-58545786D02*
X30608623Y-62165786D01*
X50318623Y-58545786D02*
X34228623Y-58545786D01*
X30608623Y-62165786D02*
X22922937Y-62165786D01*
%TO.N,P3*%
X18222937Y-63475786D02*
X19932937Y-61765786D01*
X30442937Y-61765786D02*
X34062937Y-58145786D01*
X34062937Y-58145786D02*
X36692937Y-58145786D01*
X19932937Y-61765786D02*
X30442937Y-61765786D01*
X36692937Y-58145786D02*
X37272937Y-57565786D01*
X37272937Y-57565786D02*
X37272937Y-55855786D01*
X37762937Y-58105786D02*
X50192937Y-58105786D01*
X37272937Y-57615786D02*
X37762937Y-58105786D01*
X55122937Y-53175786D02*
X55772937Y-53175786D01*
X37272937Y-55855786D02*
X37272937Y-57615786D01*
X50192937Y-58105786D02*
X55122937Y-53175786D01*
X55772937Y-53175786D02*
X56322937Y-52625786D01*
X56322937Y-52625786D02*
X56322937Y-50521786D01*
X56322937Y-50521786D02*
X56322937Y-52645786D01*
X70648623Y-53175786D02*
X74281123Y-56808286D01*
X56322937Y-52645786D02*
X56852937Y-53175786D01*
X56852937Y-53175786D02*
X70648623Y-53175786D01*
X74281123Y-56808286D02*
X75372937Y-56808286D01*
%TO.N,P16*%
X109322937Y-60835786D02*
X109252937Y-60905786D01*
X109252937Y-60905786D02*
X94059251Y-60905786D01*
X94059251Y-60905786D02*
X92857251Y-59703786D01*
X41707937Y-58945786D02*
X41497937Y-59155786D01*
X76045251Y-59703786D02*
X70317251Y-53975786D01*
X50484309Y-58945786D02*
X41707937Y-58945786D01*
X92857251Y-59703786D02*
X76045251Y-59703786D01*
X70317251Y-53975786D02*
X55454309Y-53975786D01*
X55454309Y-53975786D02*
X50484309Y-58945786D01*
%TO.N,B-*%
X134452937Y-77645786D02*
X134652937Y-77445786D01*
X134652937Y-33791472D02*
X133557251Y-32695786D01*
X134652937Y-77445786D02*
X134652937Y-33791472D01*
X133557251Y-32695786D02*
X130435937Y-32695786D01*
X130435937Y-32695786D02*
X128697937Y-34433786D01*
%TO.N,pos*%
X125822937Y-32295786D02*
X133722937Y-32295786D01*
X133722937Y-32295786D02*
X135052937Y-33625786D01*
X135052937Y-33625786D02*
X135052937Y-78085786D01*
X135052937Y-78085786D02*
X134184937Y-78953786D01*
X134184937Y-78953786D02*
X131922937Y-78953786D01*
%TO.N,P19*%
X127732937Y-69953786D02*
X132699251Y-69953786D01*
X132699251Y-69953786D02*
X133852937Y-68800100D01*
X133852937Y-68800100D02*
X133852937Y-51775786D01*
X133852937Y-51775786D02*
X133122937Y-51045786D01*
X133122937Y-51045786D02*
X128309601Y-51045786D01*
X128309601Y-51045786D02*
X127184937Y-52170450D01*
X127184937Y-52170450D02*
X127184937Y-52213786D01*
%TO.N,VCC*%
X129212937Y-74005786D02*
X134252937Y-68965786D01*
X134252937Y-68965786D02*
X134252937Y-44105786D01*
X123852937Y-72890132D02*
X124968591Y-74005786D01*
X123852937Y-69935786D02*
X123852937Y-72890132D01*
X124968591Y-74005786D02*
X129212937Y-74005786D01*
X134252937Y-44105786D02*
X133552937Y-43405786D01*
X133552937Y-43405786D02*
X128162937Y-43405786D01*
X128162937Y-43405786D02*
X127184937Y-44383786D01*
X127184937Y-44383786D02*
X127184937Y-44593786D01*
%TO.N,GND*%
X120112937Y-69953786D02*
X120112937Y-68925786D01*
X120902937Y-68135786D02*
X127332937Y-68135786D01*
X120112937Y-68925786D02*
X120902937Y-68135786D01*
X127332937Y-68135786D02*
X127792937Y-68595786D01*
X127792937Y-68595786D02*
X127792937Y-69153784D01*
%TO.N,P20*%
X126492937Y-69935786D02*
X126474937Y-69953786D01*
X126474937Y-69953786D02*
X125192937Y-69953786D01*
%TO.N,P19*%
X125437937Y-68735786D02*
X126342937Y-68735786D01*
X126342937Y-68735786D02*
X127560937Y-69953786D01*
X127560937Y-69953786D02*
X127732937Y-69953786D01*
%TO.N,RST*%
X113922937Y-30353786D02*
X113922937Y-39000132D01*
X113922937Y-39000132D02*
X115826591Y-40903786D01*
X115826591Y-40903786D02*
X119600937Y-40903786D01*
X119600937Y-40903786D02*
X119902937Y-41205786D01*
%TO.N,P14*%
X75879565Y-60103786D02*
X70171565Y-54395786D01*
X108870759Y-61545786D02*
X94133565Y-61545786D01*
X60972937Y-54395786D02*
X60672937Y-54695786D01*
X108901045Y-61515500D02*
X108870759Y-61545786D01*
X94133565Y-61545786D02*
X92691565Y-60103786D01*
X92691565Y-60103786D02*
X75879565Y-60103786D01*
X70171565Y-54395786D02*
X60972937Y-54395786D01*
%TO.N,P16*%
X109322937Y-60835786D02*
X109172937Y-60685786D01*
%TO.N,P18*%
X106972937Y-62985786D02*
X106962937Y-62975786D01*
X106962937Y-62975786D02*
X99052937Y-62975786D01*
X99052937Y-62975786D02*
X98772937Y-63255786D01*
%TO.N,P15*%
X107672937Y-62225786D02*
X107592937Y-62305786D01*
X91735195Y-63981036D02*
X88549945Y-60795786D01*
X107592937Y-62305786D02*
X94735929Y-62305786D01*
X94735929Y-62305786D02*
X93060679Y-63981036D01*
X93060679Y-63981036D02*
X91735195Y-63981036D01*
X88549945Y-60795786D02*
X79722937Y-60795786D01*
%TO.N,P4*%
X86072937Y-62625786D02*
X85022937Y-61575786D01*
X80130437Y-61575786D02*
X74597937Y-67108286D01*
X85022937Y-61575786D02*
X80130437Y-61575786D01*
%TO.N,P3*%
X94422937Y-58903786D02*
X95522937Y-57803786D01*
X109484937Y-57803786D02*
X110592937Y-56695786D01*
X110592937Y-53900100D02*
X110827252Y-53665786D01*
X110827252Y-53665786D02*
X111409105Y-53083932D01*
X95522937Y-57803786D02*
X109484937Y-57803786D01*
X115152937Y-51737440D02*
X116064591Y-50825786D01*
X116064591Y-50825786D02*
X120082937Y-50825786D01*
X120082937Y-50825786D02*
X120660937Y-50247786D01*
X120660937Y-50247786D02*
X120660937Y-49673786D01*
X110592937Y-56695786D02*
X110592937Y-53900100D01*
X111409105Y-53083932D02*
X114084791Y-53083932D01*
X115152937Y-52015786D02*
X115152937Y-51737440D01*
X114084791Y-53083932D02*
X115152937Y-52015786D01*
%TO.N,VCC*%
X123834937Y-69953786D02*
X123852937Y-69935786D01*
X122652937Y-69953786D02*
X123834937Y-69953786D01*
D35*
%TO.N,B+*%
X119902937Y-33585786D02*
X124032937Y-33585786D01*
D34*
X124032937Y-32315786D02*
X124032937Y-33585786D01*
D35*
X124032937Y-33585786D02*
X126342937Y-33585786D01*
D34*
X123862937Y-32145786D02*
X124032937Y-32315786D01*
%TO.N,pos*%
X126172937Y-31945786D02*
X125822937Y-32295786D01*
X126172937Y-30783786D02*
X126172937Y-31945786D01*
%TO.N,B+*%
X123172937Y-31455786D02*
X123862937Y-32145786D01*
X123172937Y-30783786D02*
X123172937Y-31455786D01*
%TO.N,P2*%
X56322937Y-31471786D02*
X56322937Y-34295786D01*
X56322937Y-34295786D02*
X57332937Y-35305786D01*
X57332937Y-35305786D02*
X72920437Y-35305786D01*
X72920437Y-35305786D02*
X75372937Y-37758286D01*
X37272937Y-36805786D02*
X39232937Y-38765786D01*
X39232937Y-38765786D02*
X51882937Y-38765786D01*
X51882937Y-38765786D02*
X56322937Y-34325786D01*
X56322937Y-34325786D02*
X56322937Y-31471786D01*
X18222937Y-44425786D02*
X19922937Y-46125786D01*
X33712937Y-39655786D02*
X36312937Y-37055786D01*
X36312937Y-37055786D02*
X37522937Y-37055786D01*
X19922937Y-46125786D02*
X31192937Y-46125786D01*
X31192937Y-46125786D02*
X33712937Y-43605786D01*
X33712937Y-43605786D02*
X33712937Y-39655786D01*
X37522937Y-37055786D02*
X37272937Y-36805786D01*
%TO.N,P3*%
X24487028Y-49638165D02*
X20820558Y-49638165D01*
X20820558Y-49638165D02*
X17447937Y-53010786D01*
X17447937Y-53010786D02*
X17447937Y-54725786D01*
%TO.N,P4*%
X24238256Y-67865786D02*
X21242937Y-67865786D01*
X21242937Y-67865786D02*
X17447937Y-71660786D01*
X17447937Y-71660786D02*
X17447937Y-73775786D01*
X37272937Y-74905786D02*
X37272937Y-79475786D01*
X32312937Y-84435786D02*
X19042937Y-84435786D01*
X37272937Y-79475786D02*
X32312937Y-84435786D01*
X18222937Y-83615786D02*
X18222937Y-82525786D01*
X19042937Y-84435786D02*
X18222937Y-83615786D01*
X56322937Y-69571786D02*
X56322937Y-72355786D01*
X56322937Y-72355786D02*
X51522937Y-77155786D01*
X37272937Y-76435786D02*
X37272937Y-74905786D01*
X51522937Y-77155786D02*
X37992937Y-77155786D01*
X37992937Y-77155786D02*
X37272937Y-76435786D01*
%TO.N,P5*%
X138832937Y-91977257D02*
X136481466Y-89625786D01*
X138832937Y-92125786D02*
X138832937Y-91977257D01*
X136481466Y-89625786D02*
X128886187Y-89625786D01*
X128886187Y-89625786D02*
X126078016Y-92433957D01*
%TO.N,P18*%
X136792937Y-90785786D02*
X137713535Y-91706384D01*
X137713535Y-91706384D02*
X137713535Y-94124283D01*
%TO.N,P15*%
X113242937Y-85055786D02*
X115172937Y-85055786D01*
X115172937Y-85055786D02*
X116956417Y-86839266D01*
X116956417Y-86839266D02*
X116956417Y-88293328D01*
X113242937Y-85055786D02*
X114352937Y-85055786D01*
%TO.N,P14*%
X95360937Y-86053786D02*
X92872937Y-83565786D01*
X95672937Y-86053786D02*
X95360937Y-86053786D01*
%TO.N,P15*%
X83415437Y-62175786D02*
X82862937Y-62175786D01*
X86147937Y-64908286D02*
X83415437Y-62175786D01*
%TO.N,P14*%
X67097937Y-58621786D02*
X67097937Y-57500786D01*
X67097937Y-57500786D02*
X65402937Y-55805786D01*
X65402937Y-55805786D02*
X64072937Y-55805786D01*
%TO.N,P4*%
X42542937Y-60110786D02*
X36497937Y-66155786D01*
X44472937Y-60110786D02*
X42542937Y-60110786D01*
%TO.N,P16*%
X48047937Y-63955786D02*
X48047937Y-62540786D01*
X48047937Y-62540786D02*
X46297937Y-60790786D01*
X46297937Y-60790786D02*
X45097937Y-60790786D01*
X45097937Y-60790786D02*
X45092937Y-60785786D01*
%TO.N,P10*%
X28997937Y-71575786D02*
X28997937Y-70440786D01*
X28997937Y-70440786D02*
X27022937Y-68465786D01*
X27022937Y-68465786D02*
X25372937Y-68465786D01*
X26457937Y-49985786D02*
X25672937Y-49985786D01*
X28997937Y-52525786D02*
X26457937Y-49985786D01*
%TO.N,P3*%
X42662937Y-41445786D02*
X42157937Y-41445786D01*
X42157937Y-41445786D02*
X36497937Y-47105786D01*
%TO.N,P16*%
X44672937Y-42285786D02*
X46472937Y-42285786D01*
X46472937Y-42285786D02*
X48047937Y-43860786D01*
X48047937Y-43860786D02*
X48047937Y-44905786D01*
%TO.N,P3*%
X55547937Y-41771786D02*
X60973937Y-36345786D01*
X60973937Y-36345786D02*
X62782937Y-36345786D01*
%TO.N,P14*%
X67097937Y-39550786D02*
X64322937Y-36775786D01*
X67097937Y-39571786D02*
X67097937Y-39550786D01*
%TO.N,P4*%
X100693672Y-64386521D02*
X98465202Y-64386521D01*
X98465202Y-64386521D02*
X93647937Y-69203786D01*
%TO.N,P18*%
X102182937Y-64425786D02*
X102902937Y-64425786D01*
X102902937Y-64425786D02*
X105197937Y-66720786D01*
X105197937Y-66720786D02*
X105197937Y-67003786D01*
%TO.N,P3*%
X99822937Y-45575786D02*
X98225937Y-45575786D01*
X98225937Y-45575786D02*
X93647937Y-50153786D01*
%TO.N,P18*%
X105197937Y-28490786D02*
X105197937Y-28903786D01*
X102062937Y-26135786D02*
X102842937Y-26135786D01*
X102842937Y-26135786D02*
X105197937Y-28490786D01*
%TO.N,P2*%
X82432937Y-23365786D02*
X80240437Y-23365786D01*
X80240437Y-23365786D02*
X74597937Y-29008286D01*
%TO.N,P15*%
X83512937Y-23965786D02*
X85752937Y-23965786D01*
X85752937Y-23965786D02*
X86147937Y-24360786D01*
X86147937Y-24360786D02*
X86147937Y-26808286D01*
%TO.N,P2*%
X61113937Y-17155786D02*
X55547937Y-22721786D01*
X63142937Y-17155786D02*
X61113937Y-17155786D01*
%TO.N,P14*%
X66482937Y-17755786D02*
X67097937Y-18370786D01*
X63992937Y-17755786D02*
X66482937Y-17755786D01*
X67097937Y-18370786D02*
X67097937Y-20521786D01*
%TO.N,P16*%
X47014421Y-22337270D02*
X48047937Y-23370786D01*
X44804091Y-22337270D02*
X47014421Y-22337270D01*
X48047937Y-23370786D02*
X48047937Y-25855786D01*
%TO.N,P2*%
X44312937Y-21705786D02*
X44302937Y-21695786D01*
X44302937Y-21695786D02*
X39542937Y-21695786D01*
X39542937Y-21695786D02*
X36497937Y-24740786D01*
X36497937Y-24740786D02*
X36497937Y-28055786D01*
X17447937Y-35675786D02*
X17447937Y-32060786D01*
X17447937Y-32060786D02*
X20372937Y-29135786D01*
X20372937Y-29135786D02*
X25642937Y-29135786D01*
%TO.N,P10*%
X28997937Y-33475786D02*
X28997937Y-30410786D01*
X28997937Y-30410786D02*
X28492937Y-29905786D01*
X28492937Y-29905786D02*
X25402937Y-29905786D01*
%TO.N,P2*%
X94422937Y-37053786D02*
X94422937Y-31878786D01*
X94422937Y-31878786D02*
X93647937Y-31103786D01*
X75372937Y-34958286D02*
X75372937Y-29783286D01*
X75372937Y-29783286D02*
X74597937Y-29008286D01*
X56322937Y-28671786D02*
X56322937Y-23496786D01*
X56322937Y-23496786D02*
X55547937Y-22721786D01*
X37272937Y-34005786D02*
X37272937Y-28830786D01*
X37272937Y-28830786D02*
X36497937Y-28055786D01*
X18222937Y-41625786D02*
X18222937Y-36450786D01*
X18222937Y-36450786D02*
X17447937Y-35675786D01*
X75372937Y-37758286D02*
X77468437Y-39853786D01*
X77468437Y-39853786D02*
X94422937Y-39853786D01*
%TO.N,P5*%
X124868533Y-98311055D02*
X126078016Y-97101572D01*
X126078016Y-97101572D02*
X126078016Y-92433957D01*
X104981321Y-94547943D02*
X104981321Y-88772006D01*
X104981321Y-88772006D02*
X105201600Y-88551727D01*
X84897937Y-94203786D02*
X84897937Y-89028786D01*
X84897937Y-89028786D02*
X84122937Y-88253786D01*
%TO.N,P4*%
X37272937Y-72105786D02*
X37272937Y-66930786D01*
X37272937Y-66930786D02*
X36497937Y-66155786D01*
X56322937Y-66771786D02*
X56322937Y-61596786D01*
X56322937Y-61596786D02*
X55547937Y-60821786D01*
X75372937Y-73058286D02*
X75372937Y-67883286D01*
X75372937Y-67883286D02*
X74597937Y-67108286D01*
X94422937Y-75153786D02*
X94422937Y-69978786D01*
X94422937Y-69978786D02*
X93647937Y-69203786D01*
%TO.N,P3*%
X94422937Y-56103786D02*
X94422937Y-50928786D01*
X94422937Y-50928786D02*
X93647937Y-50153786D01*
X75372937Y-54008286D02*
X75372937Y-48833286D01*
X75372937Y-48833286D02*
X74597937Y-48058286D01*
X56322937Y-47721786D02*
X56322937Y-42546786D01*
X56322937Y-42546786D02*
X55547937Y-41771786D01*
X37272937Y-53055786D02*
X37272937Y-47880786D01*
X37272937Y-47880786D02*
X36497937Y-47105786D01*
X75372937Y-56808286D02*
X77468437Y-58903786D01*
X77468437Y-58903786D02*
X94422937Y-58903786D01*
X18222937Y-60675786D02*
X18222937Y-55500786D01*
X18222937Y-55500786D02*
X17447937Y-54725786D01*
%TO.N,P4*%
X18222937Y-79725786D02*
X18222937Y-74550786D01*
X18222937Y-74550786D02*
X17447937Y-73775786D01*
D35*
%TO.N,_1_0*%
X118302937Y-34435786D02*
X116302937Y-34435786D01*
%TO.N,_1_25*%
X129542937Y-34435786D02*
X131542937Y-34435786D01*
%TO.N,B+*%
X119142937Y-34435786D02*
X119902937Y-33585786D01*
X126342937Y-33585786D02*
X127182937Y-34435786D01*
%TO.N,B-*%
X128702937Y-34435786D02*
X127942937Y-35285786D01*
X127942937Y-35285786D02*
X121502937Y-35285786D01*
X121502937Y-35285786D02*
X120662937Y-34435786D01*
%TO.N,_1_1*%
X118302937Y-36975786D02*
X116302937Y-36975786D01*
%TO.N,_1_24*%
X129542937Y-36975786D02*
X131542937Y-36975786D01*
%TO.N,RAW*%
X119142937Y-36975786D02*
X119902937Y-36125786D01*
X119902937Y-36125786D02*
X126342937Y-36125786D01*
X126342937Y-36125786D02*
X127182937Y-36975786D01*
%TO.N,P1*%
X128702937Y-36975786D02*
X127942937Y-37825786D01*
X127942937Y-37825786D02*
X121502937Y-37825786D01*
X121502937Y-37825786D02*
X120662937Y-36975786D01*
%TO.N,_1_2*%
X118302937Y-39515786D02*
X116302937Y-39515786D01*
%TO.N,_1_23*%
X129542937Y-39515786D02*
X131542937Y-39515786D01*
%TO.N,GND*%
X119142937Y-39515786D02*
X119902937Y-38665786D01*
X119902937Y-38665786D02*
X126342937Y-38665786D01*
X126342937Y-38665786D02*
X127182937Y-39515786D01*
%TO.N,P0*%
X128702937Y-39515786D02*
X127942937Y-40365786D01*
X127942937Y-40365786D02*
X121502937Y-40365786D01*
X121502937Y-40365786D02*
X120662937Y-39515786D01*
%TO.N,_1_3*%
X118302937Y-42055786D02*
X116302937Y-42055786D01*
%TO.N,_1_22*%
X129542937Y-42055786D02*
X131542937Y-42055786D01*
%TO.N,RST*%
X119142937Y-42055786D02*
X119902937Y-41205786D01*
X119902937Y-41205786D02*
X126342937Y-41205786D01*
X126342937Y-41205786D02*
X127182937Y-42055786D01*
%TO.N,GND*%
X128702937Y-42055786D02*
X127942937Y-42905786D01*
X127942937Y-42905786D02*
X121502937Y-42905786D01*
X121502937Y-42905786D02*
X120662937Y-42055786D01*
%TO.N,_1_4*%
X118302937Y-44595786D02*
X116302937Y-44595786D01*
%TO.N,_1_21*%
X129542937Y-44595786D02*
X131542937Y-44595786D01*
%TO.N,VCC*%
X119142937Y-44595786D02*
X119902937Y-43745786D01*
X119902937Y-43745786D02*
X126342937Y-43745786D01*
X126342937Y-43745786D02*
X127182937Y-44595786D01*
%TO.N,GND*%
X128702937Y-44595786D02*
X127942937Y-45445786D01*
X127942937Y-45445786D02*
X121502937Y-45445786D01*
X121502937Y-45445786D02*
X120662937Y-44595786D01*
%TO.N,_1_5*%
X118302937Y-47135786D02*
X116302937Y-47135786D01*
%TO.N,_1_20*%
X129542937Y-47135786D02*
X131542937Y-47135786D01*
%TO.N,P21*%
X119142937Y-47135786D02*
X119902937Y-46285786D01*
X119902937Y-46285786D02*
X126342937Y-46285786D01*
X126342937Y-46285786D02*
X127182937Y-47135786D01*
%TO.N,P2*%
X128702937Y-47135786D02*
X127942937Y-47985786D01*
X127942937Y-47985786D02*
X121502937Y-47985786D01*
X121502937Y-47985786D02*
X120662937Y-47135786D01*
%TO.N,_1_6*%
X118302937Y-49675786D02*
X116302937Y-49675786D01*
%TO.N,_1_19*%
X129542937Y-49675786D02*
X131542937Y-49675786D01*
%TO.N,P20*%
X119142937Y-49675786D02*
X119902937Y-48825786D01*
X119902937Y-48825786D02*
X126342937Y-48825786D01*
X126342937Y-48825786D02*
X127182937Y-49675786D01*
%TO.N,P3*%
X128702937Y-49675786D02*
X127942937Y-50525786D01*
X127942937Y-50525786D02*
X121502937Y-50525786D01*
X121502937Y-50525786D02*
X120662937Y-49675786D01*
%TO.N,_1_7*%
X118302937Y-52215786D02*
X116302937Y-52215786D01*
%TO.N,_1_18*%
X129542937Y-52215786D02*
X131542937Y-52215786D01*
%TO.N,P19*%
X119142937Y-52215786D02*
X119902937Y-51365786D01*
X119902937Y-51365786D02*
X126342937Y-51365786D01*
X126342937Y-51365786D02*
X127182937Y-52215786D01*
%TO.N,P4*%
X128702937Y-52215786D02*
X127942937Y-53065786D01*
X127942937Y-53065786D02*
X121502937Y-53065786D01*
X121502937Y-53065786D02*
X120662937Y-52215786D01*
%TO.N,_1_8*%
X118302937Y-54755786D02*
X116302937Y-54755786D01*
%TO.N,_1_17*%
X129542937Y-54755786D02*
X131542937Y-54755786D01*
%TO.N,P18*%
X119142937Y-54755786D02*
X119902937Y-53905786D01*
X119902937Y-53905786D02*
X126342937Y-53905786D01*
X126342937Y-53905786D02*
X127182937Y-54755786D01*
%TO.N,P5*%
X128702937Y-54755786D02*
X127942937Y-55605786D01*
X127942937Y-55605786D02*
X121502937Y-55605786D01*
X121502937Y-55605786D02*
X120662937Y-54755786D01*
%TO.N,_1_9*%
X118302937Y-57295786D02*
X116302937Y-57295786D01*
%TO.N,_1_16*%
X129542937Y-57295786D02*
X131542937Y-57295786D01*
%TO.N,P15*%
X119142937Y-57295786D02*
X119902937Y-56445786D01*
X119902937Y-56445786D02*
X126342937Y-56445786D01*
X126342937Y-56445786D02*
X127182937Y-57295786D01*
%TO.N,P6*%
X128702937Y-57295786D02*
X127942937Y-58145786D01*
X127942937Y-58145786D02*
X121502937Y-58145786D01*
X121502937Y-58145786D02*
X120662937Y-57295786D01*
%TO.N,_1_10*%
X118302937Y-59835786D02*
X116302937Y-59835786D01*
%TO.N,_1_15*%
X129542937Y-59835786D02*
X131542937Y-59835786D01*
%TO.N,P14*%
X119142937Y-59835786D02*
X119902937Y-58985786D01*
X119902937Y-58985786D02*
X126342937Y-58985786D01*
X126342937Y-58985786D02*
X127182937Y-59835786D01*
%TO.N,P7*%
X128702937Y-59835786D02*
X127942937Y-60685786D01*
X127942937Y-60685786D02*
X121502937Y-60685786D01*
X121502937Y-60685786D02*
X120662937Y-59835786D01*
%TO.N,_1_11*%
X118302937Y-62375786D02*
X116302937Y-62375786D01*
%TO.N,_1_14*%
X129542937Y-62375786D02*
X131542937Y-62375786D01*
%TO.N,P16*%
X119142937Y-62375786D02*
X119902937Y-61525786D01*
X119902937Y-61525786D02*
X126342937Y-61525786D01*
X126342937Y-61525786D02*
X127182937Y-62375786D01*
%TO.N,P8*%
X128702937Y-62375786D02*
X127942937Y-63225786D01*
X127942937Y-63225786D02*
X121502937Y-63225786D01*
X121502937Y-63225786D02*
X120662937Y-62375786D01*
%TO.N,_1_12*%
X118302937Y-64915786D02*
X116302937Y-64915786D01*
%TO.N,_1_13*%
X129542937Y-64915786D02*
X131542937Y-64915786D01*
%TO.N,P10*%
X119142937Y-64915786D02*
X119902937Y-64065786D01*
X119902937Y-64065786D02*
X126342937Y-64065786D01*
X126342937Y-64065786D02*
X127182937Y-64915786D01*
%TO.N,P9*%
X128702937Y-64915786D02*
X127942937Y-65765786D01*
X127942937Y-65765786D02*
X121502937Y-65765786D01*
X121502937Y-65765786D02*
X120662937Y-64915786D01*
%TO.N,DISP1_1*%
X120112937Y-72603786D02*
X120112937Y-70853786D01*
%TO.N,DISP1_2*%
X122652937Y-72603786D02*
X122652937Y-70853786D01*
%TO.N,DISP1_3*%
X125192937Y-72603786D02*
X125192937Y-70853786D01*
%TO.N,DISP1_4*%
X127732937Y-72603786D02*
X127732937Y-70853786D01*
%TD*%
%TA.AperFunction,Conductor*%
%TO.N,P5*%
G36*
X106968938Y-86648050D02*
G01*
X106971768Y-86650134D01*
X107103130Y-86781496D01*
X107106557Y-86789769D01*
X107105990Y-86793367D01*
X106503278Y-88658253D01*
X106497473Y-88665071D01*
X106491116Y-88666310D01*
X105210926Y-88553319D01*
X105202987Y-88549178D01*
X105200277Y-88542380D01*
X105119918Y-87228912D01*
X105122833Y-87220448D01*
X105128119Y-87217028D01*
X106960021Y-86647235D01*
X106968938Y-86648050D01*
G37*
%TD.AperFunction*%
%TD*%
%TA.AperFunction,Conductor*%
%TO.N,P5*%
G36*
X116610379Y-84820683D02*
G01*
X117061186Y-85030331D01*
X117067241Y-85036926D01*
X117067074Y-85045383D01*
X116959078Y-85308392D01*
X116952766Y-85314744D01*
X116952699Y-85314771D01*
X116689690Y-85422767D01*
X116680735Y-85422740D01*
X116674638Y-85416879D01*
X116464990Y-84966073D01*
X116464610Y-84957128D01*
X116467325Y-84952870D01*
X116597176Y-84823019D01*
X116605448Y-84819593D01*
X116610379Y-84820683D01*
G37*
%TD.AperFunction*%
%TD*%
%TA.AperFunction,Conductor*%
%TO.N,P5*%
G36*
X89836334Y-82743062D02*
G01*
X89842611Y-82749343D01*
X89952052Y-83011275D01*
X89952079Y-83020230D01*
X89952052Y-83020297D01*
X89842294Y-83282986D01*
X89835942Y-83289298D01*
X89827866Y-83289597D01*
X89364983Y-83138420D01*
X89358182Y-83132594D01*
X89356915Y-83127298D01*
X89356915Y-82943636D01*
X89360342Y-82935363D01*
X89364175Y-82932811D01*
X89827380Y-82743027D01*
X89836334Y-82743062D01*
G37*
%TD.AperFunction*%
%TD*%
%TA.AperFunction,Conductor*%
%TO.N,P5*%
G36*
X84225999Y-85957213D02*
G01*
X84226423Y-85957659D01*
X85116423Y-86946549D01*
X85119410Y-86954991D01*
X85117002Y-86961506D01*
X84132213Y-88242717D01*
X84124455Y-88247188D01*
X84115807Y-88244863D01*
X84113661Y-88242717D01*
X83128871Y-86961506D01*
X83126546Y-86952858D01*
X83129450Y-86946549D01*
X84019451Y-85957659D01*
X84027533Y-85953802D01*
X84028148Y-85953786D01*
X84217726Y-85953786D01*
X84225999Y-85957213D01*
G37*
%TD.AperFunction*%
%TD*%
%TA.AperFunction,Conductor*%
%TO.N,P4*%
G36*
X74780630Y-75284202D02*
G01*
X75365382Y-75850008D01*
X75368944Y-75858223D01*
X75365654Y-75866552D01*
X75365512Y-75866696D01*
X74780208Y-76451026D01*
X74771932Y-76454446D01*
X74764799Y-76452013D01*
X74177494Y-75999298D01*
X74173034Y-75991533D01*
X74172937Y-75990031D01*
X74172937Y-75801135D01*
X74176364Y-75792862D01*
X74176968Y-75792298D01*
X74764843Y-75283759D01*
X74773338Y-75280941D01*
X74780630Y-75284202D01*
G37*
%TD.AperFunction*%
%TD*%
%TA.AperFunction,Conductor*%
%TO.N,P4*%
G36*
X56331201Y-69579064D02*
G01*
X56671927Y-69920358D01*
X56915394Y-70164231D01*
X56918814Y-70172507D01*
X56916102Y-70179987D01*
X56426445Y-70767576D01*
X56418516Y-70771738D01*
X56417457Y-70771786D01*
X56228417Y-70771786D01*
X56220144Y-70768359D01*
X56219429Y-70767576D01*
X55729771Y-70179987D01*
X55727107Y-70171438D01*
X55730479Y-70164231D01*
X56314658Y-69579078D01*
X56322927Y-69575645D01*
X56331201Y-69579064D01*
G37*
%TD.AperFunction*%
%TD*%
%TA.AperFunction,Conductor*%
%TO.N,P2*%
G36*
X100686578Y-25262836D02*
G01*
X100692440Y-25268934D01*
X100802052Y-25531275D01*
X100802079Y-25540230D01*
X100802052Y-25540297D01*
X100692440Y-25802637D01*
X100686088Y-25808949D01*
X100677631Y-25809115D01*
X100543884Y-25760279D01*
X100210624Y-25638592D01*
X100204028Y-25632536D01*
X100202937Y-25627602D01*
X100202937Y-25443969D01*
X100206364Y-25435696D01*
X100210624Y-25432979D01*
X100677634Y-25262455D01*
X100686578Y-25262836D01*
G37*
%TD.AperFunction*%
%TD*%
%TA.AperFunction,Conductor*%
%TO.N,P2*%
G36*
X93750999Y-28807213D02*
G01*
X93751423Y-28807659D01*
X94641423Y-29796549D01*
X94644410Y-29804991D01*
X94642002Y-29811506D01*
X93657213Y-31092717D01*
X93649455Y-31097188D01*
X93640807Y-31094863D01*
X93638661Y-31092717D01*
X92653871Y-29811506D01*
X92651546Y-29802858D01*
X92654450Y-29796549D01*
X93544451Y-28807659D01*
X93552533Y-28803802D01*
X93553148Y-28803786D01*
X93742726Y-28803786D01*
X93750999Y-28807213D01*
G37*
%TD.AperFunction*%
%TD*%
%TA.AperFunction,Conductor*%
%TO.N,P18*%
G36*
X104932514Y-45732791D02*
G01*
X105995785Y-46647264D01*
X105999823Y-46655257D01*
X105998106Y-46662291D01*
X105206676Y-47941509D01*
X105199409Y-47946741D01*
X105190570Y-47945303D01*
X105188199Y-47943363D01*
X103985809Y-46662146D01*
X103982646Y-46653768D01*
X103986161Y-46645773D01*
X104782866Y-45867136D01*
X104916613Y-45733388D01*
X104924885Y-45729962D01*
X104932514Y-45732791D01*
G37*
%TD.AperFunction*%
%TD*%
%TA.AperFunction,Conductor*%
%TO.N,P18*%
G36*
X102905250Y-45252979D02*
G01*
X102911846Y-45259035D01*
X102912937Y-45263969D01*
X102912937Y-45447602D01*
X102909510Y-45455875D01*
X102905250Y-45458592D01*
X102438242Y-45629116D01*
X102429295Y-45628735D01*
X102423433Y-45622637D01*
X102313820Y-45360295D01*
X102313794Y-45351342D01*
X102313799Y-45351328D01*
X102423433Y-45088933D01*
X102429785Y-45082622D01*
X102438239Y-45082455D01*
X102905250Y-45252979D01*
G37*
%TD.AperFunction*%
%TD*%
%TA.AperFunction,Conductor*%
%TO.N,P15*%
G36*
X85906921Y-43627344D02*
G01*
X86959652Y-44551704D01*
X86963607Y-44559738D01*
X86961835Y-44566727D01*
X86156772Y-45846075D01*
X86149465Y-45851252D01*
X86140638Y-45849747D01*
X86138280Y-45847789D01*
X84953106Y-44566624D01*
X84950004Y-44558224D01*
X84953499Y-44550329D01*
X85757261Y-43761531D01*
X85890929Y-43627862D01*
X85899201Y-43624436D01*
X85906921Y-43627344D01*
G37*
%TD.AperFunction*%
%TD*%
%TA.AperFunction,Conductor*%
%TO.N,P15*%
G36*
X83945250Y-42902979D02*
G01*
X83951846Y-42909035D01*
X83952937Y-42913969D01*
X83952937Y-43097602D01*
X83949510Y-43105875D01*
X83945250Y-43108592D01*
X83478242Y-43279116D01*
X83469295Y-43278735D01*
X83463433Y-43272637D01*
X83353820Y-43010295D01*
X83353794Y-43001342D01*
X83353799Y-43001328D01*
X83463433Y-42738933D01*
X83469785Y-42732622D01*
X83478239Y-42732455D01*
X83945250Y-42902979D01*
G37*
%TD.AperFunction*%
%TD*%
%TA.AperFunction,Conductor*%
%TO.N,P3*%
G36*
X81616578Y-42132836D02*
G01*
X81622440Y-42138934D01*
X81732052Y-42401275D01*
X81732079Y-42410230D01*
X81732052Y-42410297D01*
X81622440Y-42672637D01*
X81616088Y-42678949D01*
X81607631Y-42679115D01*
X81473884Y-42630279D01*
X81140624Y-42508592D01*
X81134028Y-42502536D01*
X81132937Y-42497602D01*
X81132937Y-42313969D01*
X81136364Y-42305696D01*
X81140624Y-42302979D01*
X81607634Y-42132455D01*
X81616578Y-42132836D01*
G37*
%TD.AperFunction*%
%TD*%
%TA.AperFunction,Conductor*%
%TO.N,P3*%
G36*
X74700999Y-45761713D02*
G01*
X74701423Y-45762159D01*
X75591423Y-46751049D01*
X75594410Y-46759491D01*
X75592002Y-46766006D01*
X74607213Y-48047217D01*
X74599455Y-48051688D01*
X74590807Y-48049363D01*
X74588661Y-48047217D01*
X73603871Y-46766006D01*
X73601546Y-46757358D01*
X73604450Y-46751049D01*
X74494451Y-45762159D01*
X74502533Y-45758302D01*
X74503148Y-45758286D01*
X74692726Y-45758286D01*
X74700999Y-45761713D01*
G37*
%TD.AperFunction*%
%TD*%
%TA.AperFunction,Conductor*%
%TO.N,P4*%
G36*
X55650999Y-58525213D02*
G01*
X55651423Y-58525659D01*
X56541423Y-59514549D01*
X56544410Y-59522991D01*
X56542002Y-59529506D01*
X55557213Y-60810717D01*
X55549455Y-60815188D01*
X55540807Y-60812863D01*
X55538661Y-60810717D01*
X54553871Y-59529506D01*
X54551546Y-59520858D01*
X54554450Y-59514549D01*
X55444451Y-58525659D01*
X55452533Y-58521802D01*
X55453148Y-58521786D01*
X55642726Y-58521786D01*
X55650999Y-58525213D01*
G37*
%TD.AperFunction*%
%TD*%
%TA.AperFunction,Conductor*%
%TO.N,P4*%
G36*
X64809551Y-54699713D02*
G01*
X64812978Y-54707947D01*
X64813920Y-54990900D01*
X64810521Y-54999185D01*
X64810474Y-54999232D01*
X64609131Y-55199630D01*
X64600849Y-55203037D01*
X64592586Y-55199591D01*
X64296072Y-54899203D01*
X64292699Y-54890984D01*
X64292699Y-54707986D01*
X64296126Y-54699713D01*
X64304399Y-54696286D01*
X64801278Y-54696286D01*
X64809551Y-54699713D01*
G37*
%TD.AperFunction*%
%TD*%
%TA.AperFunction,Conductor*%
%TO.N,P2*%
G36*
X94431201Y-39861064D02*
G01*
X94771927Y-40202358D01*
X95015394Y-40446231D01*
X95018814Y-40454507D01*
X95016102Y-40461987D01*
X94526445Y-41049576D01*
X94518516Y-41053738D01*
X94517457Y-41053786D01*
X94328417Y-41053786D01*
X94320144Y-41050359D01*
X94319429Y-41049576D01*
X93829771Y-40461987D01*
X93827107Y-40453438D01*
X93830479Y-40446231D01*
X94414658Y-39861078D01*
X94422927Y-39857645D01*
X94431201Y-39861064D01*
G37*
%TD.AperFunction*%
%TD*%
%TA.AperFunction,Conductor*%
%TO.N,P2*%
G36*
X120665046Y-47136498D02*
G01*
X120665083Y-47136535D01*
X120934613Y-47407416D01*
X120938019Y-47415697D01*
X120934571Y-47423962D01*
X120933658Y-47424780D01*
X120385255Y-47866480D01*
X120376662Y-47869001D01*
X120369643Y-47865641D01*
X120239286Y-47735284D01*
X120235859Y-47727011D01*
X120235869Y-47726517D01*
X120248630Y-47424780D01*
X120260464Y-47144969D01*
X120264237Y-47136851D01*
X120272131Y-47133766D01*
X120656769Y-47133087D01*
X120665046Y-47136498D01*
G37*
%TD.AperFunction*%
%TD*%
%TA.AperFunction,Conductor*%
%TO.N,P5*%
G36*
X104032143Y-96627586D02*
G01*
X104511664Y-97300193D01*
X104513676Y-97308919D01*
X104508929Y-97316512D01*
X104508604Y-97316736D01*
X103842360Y-97758595D01*
X103833571Y-97760311D01*
X103826560Y-97755899D01*
X103352488Y-97128742D01*
X103350232Y-97120076D01*
X103353547Y-97113415D01*
X103486967Y-96979995D01*
X103488710Y-96978562D01*
X104016099Y-96624662D01*
X104024876Y-96622898D01*
X104032143Y-96627586D01*
G37*
%TD.AperFunction*%
%TD*%
%TA.AperFunction,Conductor*%
%TO.N,P5*%
G36*
X120665046Y-54756498D02*
G01*
X120665083Y-54756535D01*
X120933807Y-55026606D01*
X120937213Y-55034887D01*
X120933765Y-55043152D01*
X120932067Y-55044550D01*
X120302244Y-55470488D01*
X120293472Y-55472284D01*
X120287417Y-55469069D01*
X120157181Y-55338833D01*
X120153754Y-55330560D01*
X120153951Y-55328428D01*
X120259160Y-54763325D01*
X120264043Y-54755820D01*
X120270638Y-54753768D01*
X120656769Y-54753087D01*
X120665046Y-54756498D01*
G37*
%TD.AperFunction*%
%TD*%
%TA.AperFunction,Conductor*%
%TO.N,P5*%
G36*
X104524758Y-97317935D02*
G01*
X104525362Y-97318711D01*
X105005439Y-97993351D01*
X105007443Y-98002078D01*
X105005228Y-98007205D01*
X104621494Y-98513100D01*
X104613764Y-98517620D01*
X104612172Y-98517729D01*
X104424008Y-98517729D01*
X104415735Y-98514302D01*
X104414484Y-98512825D01*
X103924234Y-97825812D01*
X103922218Y-97817087D01*
X103926190Y-97810093D01*
X104508269Y-97316576D01*
X104516794Y-97313840D01*
X104524758Y-97317935D01*
G37*
%TD.AperFunction*%
%TD*%
%TA.AperFunction,Conductor*%
%TO.N,P5*%
G36*
X84905503Y-97011366D02*
G01*
X84905852Y-97011701D01*
X85490141Y-97595990D01*
X85493568Y-97604263D01*
X85490618Y-97612030D01*
X85062921Y-98093861D01*
X85062444Y-98094367D01*
X84929927Y-98226884D01*
X84921654Y-98230311D01*
X84913381Y-98226884D01*
X84913015Y-98226502D01*
X84351466Y-97611707D01*
X84348417Y-97603287D01*
X84351496Y-97595894D01*
X84888971Y-97012049D01*
X84897096Y-97008284D01*
X84905503Y-97011366D01*
G37*
%TD.AperFunction*%
%TD*%
%TA.AperFunction,Conductor*%
%TO.N,P5*%
G36*
X123533419Y-100366625D02*
G01*
X123947583Y-100946441D01*
X123949603Y-100955165D01*
X123944863Y-100962763D01*
X123943176Y-100963765D01*
X123197231Y-101326306D01*
X123188293Y-101326840D01*
X123186284Y-101325926D01*
X122725737Y-101061084D01*
X122720274Y-101053989D01*
X122719870Y-101050941D01*
X122719870Y-100864225D01*
X122723297Y-100855952D01*
X122725403Y-100854283D01*
X123517739Y-100363479D01*
X123526575Y-100362036D01*
X123533419Y-100366625D01*
G37*
%TD.AperFunction*%
%TD*%
%TA.AperFunction,Conductor*%
%TO.N,P5*%
G36*
X104524758Y-97317935D02*
G01*
X104525362Y-97318711D01*
X105005439Y-97993351D01*
X105007443Y-98002078D01*
X105005228Y-98007205D01*
X104621494Y-98513100D01*
X104613764Y-98517620D01*
X104612172Y-98517729D01*
X104424008Y-98517729D01*
X104415735Y-98514302D01*
X104414484Y-98512825D01*
X103924234Y-97825812D01*
X103922218Y-97817087D01*
X103926190Y-97810093D01*
X104508269Y-97316576D01*
X104516794Y-97313840D01*
X104524758Y-97317935D01*
G37*
%TD.AperFunction*%
%TD*%
%TA.AperFunction,Conductor*%
%TO.N,P4*%
G36*
X94430510Y-77961481D02*
G01*
X94431572Y-77962421D01*
X95016351Y-78547200D01*
X95019778Y-78555473D01*
X95017995Y-78561681D01*
X94761638Y-78971235D01*
X94759994Y-78973300D01*
X94627092Y-79106202D01*
X94618819Y-79109629D01*
X94611299Y-79106892D01*
X93960717Y-78561054D01*
X93956582Y-78553111D01*
X93959023Y-78544881D01*
X94414087Y-77963482D01*
X94421883Y-77959080D01*
X94430510Y-77961481D01*
G37*
%TD.AperFunction*%
%TD*%
%TA.AperFunction,Conductor*%
%TO.N,P4*%
G36*
X120665046Y-52216498D02*
G01*
X120935718Y-52488527D01*
X120939124Y-52496807D01*
X120935868Y-52504877D01*
X120488187Y-52971604D01*
X120479987Y-52975202D01*
X120471644Y-52971949D01*
X120471470Y-52971778D01*
X120341339Y-52841647D01*
X120338002Y-52834817D01*
X120262564Y-52226901D01*
X120264946Y-52218271D01*
X120272734Y-52213851D01*
X120274142Y-52213762D01*
X120656769Y-52213087D01*
X120665046Y-52216498D01*
G37*
%TD.AperFunction*%
%TD*%
%TA.AperFunction,Conductor*%
%TO.N,P4*%
G36*
X93830491Y-77361328D02*
G01*
X94415643Y-77945506D01*
X94419077Y-77953776D01*
X94415657Y-77962052D01*
X94415643Y-77962066D01*
X93830491Y-78546243D01*
X93822215Y-78549663D01*
X93814735Y-78546951D01*
X93227147Y-78057294D01*
X93222985Y-78049365D01*
X93222937Y-78048306D01*
X93222937Y-77859265D01*
X93226364Y-77850992D01*
X93227138Y-77850284D01*
X93814736Y-77360619D01*
X93823284Y-77357956D01*
X93830491Y-77361328D01*
G37*
%TD.AperFunction*%
%TD*%
%TA.AperFunction,Conductor*%
%TO.N,P4*%
G36*
X75381201Y-75865564D02*
G01*
X75721927Y-76206858D01*
X75965394Y-76450731D01*
X75968814Y-76459007D01*
X75966102Y-76466487D01*
X75476445Y-77054076D01*
X75468516Y-77058238D01*
X75467457Y-77058286D01*
X75278417Y-77058286D01*
X75270144Y-77054859D01*
X75269429Y-77054076D01*
X74779771Y-76466487D01*
X74777107Y-76457938D01*
X74780479Y-76450731D01*
X75364658Y-75865578D01*
X75372927Y-75862145D01*
X75381201Y-75865564D01*
G37*
%TD.AperFunction*%
%TD*%
%TA.AperFunction,Conductor*%
%TO.N,P10*%
G36*
X110036794Y-59942663D02*
G01*
X110042294Y-59948585D01*
X110152052Y-60211275D01*
X110152079Y-60220230D01*
X110152052Y-60220297D01*
X110042611Y-60482228D01*
X110036259Y-60488540D01*
X110027379Y-60488544D01*
X109564179Y-60298762D01*
X109557823Y-60292454D01*
X109556915Y-60287935D01*
X109556915Y-60104273D01*
X109560342Y-60096000D01*
X109564983Y-60093151D01*
X110027868Y-59941974D01*
X110036794Y-59942663D01*
G37*
%TD.AperFunction*%
%TD*%
%TA.AperFunction,Conductor*%
%TO.N,P10*%
G36*
X23021779Y-62071242D02*
G01*
X23027459Y-62078164D01*
X23027963Y-62081560D01*
X23027963Y-62263085D01*
X23026780Y-62268212D01*
X22854919Y-62620708D01*
X22848213Y-62626643D01*
X22839938Y-62626396D01*
X22669606Y-62556096D01*
X22576442Y-62517645D01*
X22570104Y-62511323D01*
X22463020Y-62250526D01*
X22463047Y-62241571D01*
X22469399Y-62235259D01*
X22470433Y-62234890D01*
X23012868Y-62070364D01*
X23021779Y-62071242D01*
G37*
%TD.AperFunction*%
%TD*%
%TA.AperFunction,Conductor*%
%TO.N,P3*%
G36*
X19178232Y-62383800D02*
G01*
X19182005Y-62386327D01*
X19312395Y-62516717D01*
X19315822Y-62524990D01*
X19314941Y-62529445D01*
X18827394Y-63713487D01*
X18821075Y-63719832D01*
X18812120Y-63719851D01*
X18812113Y-63719848D01*
X18226728Y-63478348D01*
X18220387Y-63472025D01*
X18220374Y-63471994D01*
X17978874Y-62886609D01*
X17978887Y-62877654D01*
X17985228Y-62871331D01*
X19169279Y-62383781D01*
X19178232Y-62383800D01*
G37*
%TD.AperFunction*%
%TD*%
%TA.AperFunction,Conductor*%
%TO.N,P3*%
G36*
X37281201Y-55863064D02*
G01*
X37621927Y-56204358D01*
X37865394Y-56448231D01*
X37868814Y-56456507D01*
X37866102Y-56463987D01*
X37376445Y-57051576D01*
X37368516Y-57055738D01*
X37367457Y-57055786D01*
X37178417Y-57055786D01*
X37170144Y-57052359D01*
X37169429Y-57051576D01*
X36679771Y-56463987D01*
X36677107Y-56455438D01*
X36680479Y-56448231D01*
X37264658Y-55863078D01*
X37272927Y-55859645D01*
X37281201Y-55863064D01*
G37*
%TD.AperFunction*%
%TD*%
%TA.AperFunction,Conductor*%
%TO.N,P3*%
G36*
X37281201Y-55863064D02*
G01*
X37621927Y-56204358D01*
X37865394Y-56448231D01*
X37868814Y-56456507D01*
X37866102Y-56463987D01*
X37376445Y-57051576D01*
X37368516Y-57055738D01*
X37367457Y-57055786D01*
X37178417Y-57055786D01*
X37170144Y-57052359D01*
X37169429Y-57051576D01*
X36679771Y-56463987D01*
X36677107Y-56455438D01*
X36680479Y-56448231D01*
X37264658Y-55863078D01*
X37272927Y-55859645D01*
X37281201Y-55863064D01*
G37*
%TD.AperFunction*%
%TD*%
%TA.AperFunction,Conductor*%
%TO.N,P3*%
G36*
X56331201Y-50529064D02*
G01*
X56671927Y-50870358D01*
X56915394Y-51114231D01*
X56918814Y-51122507D01*
X56916102Y-51129987D01*
X56426445Y-51717576D01*
X56418516Y-51721738D01*
X56417457Y-51721786D01*
X56228417Y-51721786D01*
X56220144Y-51718359D01*
X56219429Y-51717576D01*
X55729771Y-51129987D01*
X55727107Y-51121438D01*
X55730479Y-51114231D01*
X56314658Y-50529078D01*
X56322927Y-50525645D01*
X56331201Y-50529064D01*
G37*
%TD.AperFunction*%
%TD*%
%TA.AperFunction,Conductor*%
%TO.N,P3*%
G36*
X56331201Y-50529064D02*
G01*
X56671927Y-50870358D01*
X56915394Y-51114231D01*
X56918814Y-51122507D01*
X56916102Y-51129987D01*
X56426445Y-51717576D01*
X56418516Y-51721738D01*
X56417457Y-51721786D01*
X56228417Y-51721786D01*
X56220144Y-51718359D01*
X56219429Y-51717576D01*
X55729771Y-51129987D01*
X55727107Y-51121438D01*
X55730479Y-51114231D01*
X56314658Y-50529078D01*
X56322927Y-50525645D01*
X56331201Y-50529064D01*
G37*
%TD.AperFunction*%
%TD*%
%TA.AperFunction,Conductor*%
%TO.N,P3*%
G36*
X74780829Y-56216178D02*
G01*
X75365088Y-56800437D01*
X75368515Y-56808710D01*
X75365088Y-56816983D01*
X75364806Y-56817256D01*
X74780729Y-57363342D01*
X74772345Y-57366489D01*
X74764964Y-57363540D01*
X74150514Y-56817256D01*
X74143186Y-56810741D01*
X74139280Y-56802683D01*
X74142216Y-56794223D01*
X74142670Y-56793741D01*
X74275157Y-56661254D01*
X74275513Y-56660914D01*
X74764683Y-56215796D01*
X74773107Y-56212764D01*
X74780829Y-56216178D01*
G37*
%TD.AperFunction*%
%TD*%
%TA.AperFunction,Conductor*%
%TO.N,P16*%
G36*
X109212619Y-60569479D02*
G01*
X109213054Y-60570402D01*
X109322052Y-60831275D01*
X109322079Y-60840230D01*
X109322052Y-60840297D01*
X109211926Y-61103869D01*
X109205574Y-61110181D01*
X109198538Y-61110767D01*
X109198199Y-61110690D01*
X109194466Y-61109124D01*
X109111098Y-61055547D01*
X109111096Y-61055546D01*
X108973007Y-61015000D01*
X108973006Y-61015000D01*
X108829084Y-61015000D01*
X108829083Y-61015000D01*
X108809439Y-61020767D01*
X108803549Y-61020950D01*
X108745967Y-61007856D01*
X108738659Y-61002680D01*
X108736861Y-60996447D01*
X108736861Y-60812860D01*
X108740288Y-60804587D01*
X108743123Y-60802501D01*
X109196825Y-60564551D01*
X109205742Y-60563744D01*
X109212619Y-60569479D01*
G37*
%TD.AperFunction*%
%TD*%
%TA.AperFunction,Conductor*%
%TO.N,P16*%
G36*
X42008067Y-58849713D02*
G01*
X42011494Y-58857986D01*
X42011494Y-59041165D01*
X42008337Y-59049159D01*
X41718313Y-59359106D01*
X41710158Y-59362806D01*
X41701776Y-59359655D01*
X41701516Y-59359405D01*
X41500399Y-59159232D01*
X41496953Y-59150967D01*
X41496953Y-59150900D01*
X41497292Y-59049159D01*
X41497898Y-58867219D01*
X41501352Y-58858960D01*
X41509369Y-58855563D01*
X41985713Y-58846287D01*
X41985941Y-58846286D01*
X41999794Y-58846286D01*
X42008067Y-58849713D01*
G37*
%TD.AperFunction*%
%TD*%
%TA.AperFunction,Conductor*%
%TO.N,B-*%
G36*
X134749010Y-77128975D02*
G01*
X134752437Y-77137248D01*
X134752437Y-77634125D01*
X134749010Y-77642398D01*
X134740776Y-77645825D01*
X134457822Y-77646769D01*
X134449537Y-77643370D01*
X134449490Y-77643323D01*
X134448569Y-77642398D01*
X134249092Y-77441980D01*
X134245685Y-77433698D01*
X134249129Y-77425437D01*
X134549520Y-77128921D01*
X134557739Y-77125548D01*
X134740737Y-77125548D01*
X134749010Y-77128975D01*
G37*
%TD.AperFunction*%
%TD*%
%TA.AperFunction,Conductor*%
%TO.N,pos*%
G36*
X126415250Y-32192979D02*
G01*
X126421846Y-32199035D01*
X126422937Y-32203969D01*
X126422937Y-32387602D01*
X126419510Y-32395875D01*
X126415250Y-32398592D01*
X125948242Y-32569116D01*
X125939295Y-32568735D01*
X125933433Y-32562637D01*
X125823820Y-32300295D01*
X125823794Y-32291342D01*
X125823799Y-32291328D01*
X125933433Y-32028933D01*
X125939785Y-32022622D01*
X125948239Y-32022455D01*
X126415250Y-32192979D01*
G37*
%TD.AperFunction*%
%TD*%
%TA.AperFunction,Conductor*%
%TO.N,pos*%
G36*
X132650690Y-78377331D02*
G01*
X133392527Y-78850336D01*
X133397661Y-78857673D01*
X133397937Y-78860201D01*
X133397937Y-79047370D01*
X133394510Y-79055643D01*
X133392527Y-79057235D01*
X132650691Y-79530239D01*
X132641873Y-79531798D01*
X132637064Y-79529488D01*
X131933257Y-78962899D01*
X131928963Y-78955042D01*
X131931481Y-78946449D01*
X131933258Y-78944672D01*
X132637066Y-78378082D01*
X132645657Y-78375565D01*
X132650690Y-78377331D01*
G37*
%TD.AperFunction*%
%TD*%
%TA.AperFunction,Conductor*%
%TO.N,P19*%
G36*
X128338582Y-69657549D02*
G01*
X128627727Y-69850313D01*
X128632710Y-69857752D01*
X128632937Y-69860047D01*
X128632937Y-70047524D01*
X128629510Y-70055797D01*
X128627727Y-70057259D01*
X128338581Y-70250022D01*
X128329796Y-70251760D01*
X128326866Y-70250755D01*
X127919725Y-70047524D01*
X127752906Y-69964253D01*
X127747035Y-69957493D01*
X127747664Y-69948561D01*
X127752906Y-69943318D01*
X128326867Y-69656815D01*
X128335798Y-69656187D01*
X128338582Y-69657549D01*
G37*
%TD.AperFunction*%
%TD*%
%TA.AperFunction,Conductor*%
%TO.N,P19*%
G36*
X127659679Y-51565777D02*
G01*
X127790094Y-51696192D01*
X127793521Y-51704465D01*
X127792822Y-51708447D01*
X127558646Y-52355372D01*
X127552608Y-52361985D01*
X127543663Y-52362391D01*
X127543193Y-52362210D01*
X127188741Y-52216349D01*
X127182394Y-52210031D01*
X127182373Y-52209981D01*
X127036149Y-51854648D01*
X127036170Y-51845694D01*
X127042106Y-51839554D01*
X127646544Y-51563407D01*
X127655493Y-51563087D01*
X127659679Y-51565777D01*
G37*
%TD.AperFunction*%
%TD*%
%TA.AperFunction,Conductor*%
%TO.N,VCC*%
G36*
X124119788Y-70046282D02*
G01*
X124126100Y-70052634D01*
X124126267Y-70061091D01*
X123955744Y-70528099D01*
X123949688Y-70534695D01*
X123944754Y-70535786D01*
X123761120Y-70535786D01*
X123752847Y-70532359D01*
X123750130Y-70528099D01*
X123579606Y-70061088D01*
X123579987Y-70052144D01*
X123586084Y-70046282D01*
X123848427Y-69936669D01*
X123857381Y-69936643D01*
X124119788Y-70046282D01*
G37*
%TD.AperFunction*%
%TD*%
%TA.AperFunction,Conductor*%
%TO.N,VCC*%
G36*
X127560830Y-43880080D02*
G01*
X127691065Y-44010315D01*
X127694492Y-44018588D01*
X127694285Y-44020781D01*
X127586748Y-44584296D01*
X127581831Y-44591780D01*
X127575276Y-44593803D01*
X127189105Y-44594484D01*
X127180826Y-44591072D01*
X126912101Y-44321000D01*
X126908695Y-44312719D01*
X126912143Y-44304454D01*
X126913869Y-44303037D01*
X127546038Y-43878638D01*
X127554815Y-43876873D01*
X127560830Y-43880080D01*
G37*
%TD.AperFunction*%
%TD*%
%TA.AperFunction,Conductor*%
%TO.N,GND*%
G36*
X120214948Y-69357213D02*
G01*
X120216410Y-69358996D01*
X120407625Y-69645818D01*
X120409363Y-69654603D01*
X120406177Y-69660567D01*
X120121224Y-69946471D01*
X120112956Y-69949912D01*
X120104678Y-69946499D01*
X120104650Y-69946471D01*
X119819696Y-69660567D01*
X119816283Y-69652289D01*
X119818247Y-69645820D01*
X120009464Y-69358996D01*
X120016904Y-69354013D01*
X120019199Y-69353786D01*
X120206675Y-69353786D01*
X120214948Y-69357213D01*
G37*
%TD.AperFunction*%
%TD*%
%TA.AperFunction,Conductor*%
%TO.N,GND*%
G36*
X127838338Y-68507530D02*
G01*
X127840796Y-68511141D01*
X128065372Y-69028095D01*
X128065525Y-69037049D01*
X128059303Y-69043488D01*
X128059152Y-69043553D01*
X127798143Y-69152611D01*
X127789188Y-69152638D01*
X127789141Y-69152619D01*
X127526796Y-69043561D01*
X127520472Y-69037221D01*
X127520483Y-69028266D01*
X127520576Y-69028050D01*
X127691644Y-68638804D01*
X127694077Y-68635245D01*
X127821793Y-68507529D01*
X127830065Y-68504103D01*
X127838338Y-68507530D01*
G37*
%TD.AperFunction*%
%TD*%
%TA.AperFunction,Conductor*%
%TO.N,P20*%
G36*
X125798582Y-69657549D02*
G01*
X126087727Y-69850313D01*
X126092710Y-69857752D01*
X126092937Y-69860047D01*
X126092937Y-70047524D01*
X126089510Y-70055797D01*
X126087727Y-70057259D01*
X125798581Y-70250022D01*
X125789796Y-70251760D01*
X125786866Y-70250755D01*
X125379725Y-70047524D01*
X125212906Y-69964253D01*
X125207035Y-69957493D01*
X125207664Y-69948561D01*
X125212906Y-69943318D01*
X125786867Y-69656815D01*
X125795798Y-69656187D01*
X125798582Y-69657549D01*
G37*
%TD.AperFunction*%
%TD*%
%TA.AperFunction,Conductor*%
%TO.N,P20*%
G36*
X126376358Y-69663038D02*
G01*
X126382594Y-69669302D01*
X126492052Y-69931275D01*
X126492079Y-69940230D01*
X126492052Y-69940297D01*
X126382309Y-70202951D01*
X126375957Y-70209263D01*
X126367842Y-70209549D01*
X125904546Y-70056439D01*
X125897766Y-70050589D01*
X125896517Y-70045330D01*
X125896517Y-69861669D01*
X125899944Y-69853396D01*
X125903821Y-69850826D01*
X126367404Y-69662969D01*
X126376358Y-69663038D01*
G37*
%TD.AperFunction*%
%TD*%
%TA.AperFunction,Conductor*%
%TO.N,P19*%
G36*
X126030250Y-68632979D02*
G01*
X126036846Y-68639035D01*
X126037937Y-68643969D01*
X126037937Y-68827602D01*
X126034510Y-68835875D01*
X126030250Y-68838592D01*
X125563242Y-69009116D01*
X125554295Y-69008735D01*
X125548433Y-69002637D01*
X125438820Y-68740295D01*
X125438794Y-68731342D01*
X125438799Y-68731328D01*
X125548433Y-68468933D01*
X125554785Y-68462622D01*
X125563239Y-68462455D01*
X126030250Y-68632979D01*
G37*
%TD.AperFunction*%
%TD*%
%TA.AperFunction,Conductor*%
%TO.N,P19*%
G36*
X127126662Y-69373778D02*
G01*
X127420591Y-69490368D01*
X127425114Y-69493578D01*
X127461809Y-69535927D01*
X127582884Y-69613737D01*
X127689631Y-69645080D01*
X127720975Y-69654284D01*
X127816246Y-69654284D01*
X127824519Y-69657711D01*
X127827946Y-69665984D01*
X127827360Y-69669640D01*
X127736653Y-69945345D01*
X127730812Y-69952133D01*
X127724089Y-69953299D01*
X127139640Y-69880285D01*
X127131855Y-69875859D01*
X127130312Y-69873226D01*
X126981153Y-69519616D01*
X126981096Y-69510664D01*
X126983659Y-69506800D01*
X127114078Y-69376381D01*
X127122350Y-69372955D01*
X127126662Y-69373778D01*
G37*
%TD.AperFunction*%
%TD*%
%TA.AperFunction,Conductor*%
%TO.N,RST*%
G36*
X113931201Y-30361066D02*
G01*
X114133742Y-30564012D01*
X114415546Y-30846381D01*
X114418965Y-30854658D01*
X114416401Y-30861955D01*
X114026450Y-31349395D01*
X114018606Y-31353714D01*
X114017314Y-31353786D01*
X113828560Y-31353786D01*
X113820287Y-31350359D01*
X113819424Y-31349395D01*
X113429472Y-30861955D01*
X113426980Y-30853354D01*
X113430327Y-30846381D01*
X113914656Y-30361082D01*
X113922925Y-30357648D01*
X113931201Y-30361066D01*
G37*
%TD.AperFunction*%
%TD*%
%TA.AperFunction,Conductor*%
%TO.N,P14*%
G36*
X108790749Y-61249133D02*
G01*
X108790808Y-61249270D01*
X108900160Y-61510989D01*
X108900187Y-61519944D01*
X108900160Y-61520011D01*
X108790327Y-61782881D01*
X108783975Y-61789193D01*
X108776102Y-61789556D01*
X108315340Y-61648321D01*
X108308435Y-61642620D01*
X108307069Y-61637135D01*
X108307069Y-61453469D01*
X108310496Y-61445196D01*
X108314117Y-61442734D01*
X108775365Y-61243043D01*
X108784317Y-61242902D01*
X108790749Y-61249133D01*
G37*
%TD.AperFunction*%
%TD*%
%TA.AperFunction,Conductor*%
%TO.N,P14*%
G36*
X61143388Y-54300385D02*
G01*
X61148428Y-54307787D01*
X61148673Y-54310170D01*
X61148673Y-54492403D01*
X61146869Y-54498645D01*
X60955355Y-54802260D01*
X60948043Y-54807429D01*
X60940995Y-54806833D01*
X60676442Y-54697645D01*
X60670104Y-54691323D01*
X60563482Y-54431651D01*
X60563509Y-54422697D01*
X60569861Y-54416385D01*
X60571915Y-54415754D01*
X61134590Y-54298715D01*
X61143388Y-54300385D01*
G37*
%TD.AperFunction*%
%TD*%
%TA.AperFunction,Conductor*%
%TO.N,P18*%
G36*
X106856686Y-62712748D02*
G01*
X106862368Y-62718760D01*
X106972052Y-62981275D01*
X106972079Y-62990230D01*
X106972052Y-62990297D01*
X106862525Y-63252434D01*
X106856173Y-63258746D01*
X106847503Y-63258833D01*
X106382400Y-63078680D01*
X106375923Y-63072496D01*
X106374926Y-63067770D01*
X106374926Y-62884118D01*
X106378353Y-62875845D01*
X106382798Y-62873062D01*
X106847748Y-62712214D01*
X106856686Y-62712748D01*
G37*
%TD.AperFunction*%
%TD*%
%TA.AperFunction,Conductor*%
%TO.N,P18*%
G36*
X99252071Y-62880066D02*
G01*
X99256801Y-62887670D01*
X99256958Y-62889578D01*
X99256958Y-63072126D01*
X99254873Y-63078793D01*
X98993032Y-63456432D01*
X98985502Y-63461278D01*
X98976750Y-63459380D01*
X98975163Y-63458058D01*
X98775399Y-63259232D01*
X98771953Y-63250967D01*
X98771953Y-63250900D01*
X98772904Y-62965677D01*
X98776358Y-62957415D01*
X98782696Y-62954173D01*
X99243350Y-62878035D01*
X99252071Y-62880066D01*
G37*
%TD.AperFunction*%
%TD*%
%TA.AperFunction,Conductor*%
%TO.N,P15*%
G36*
X107562609Y-61959509D02*
G01*
X107563145Y-61960621D01*
X107672052Y-62221275D01*
X107672079Y-62230230D01*
X107672052Y-62230297D01*
X107561851Y-62494047D01*
X107555499Y-62500359D01*
X107548683Y-62500993D01*
X107098178Y-62407717D01*
X107090771Y-62402684D01*
X107088850Y-62396260D01*
X107088850Y-62212715D01*
X107092277Y-62204442D01*
X107094922Y-62202458D01*
X107546726Y-61954871D01*
X107555628Y-61953901D01*
X107562609Y-61959509D01*
G37*
%TD.AperFunction*%
%TD*%
%TA.AperFunction,Conductor*%
%TO.N,P15*%
G36*
X80315250Y-60692979D02*
G01*
X80321846Y-60699035D01*
X80322937Y-60703969D01*
X80322937Y-60887602D01*
X80319510Y-60895875D01*
X80315250Y-60898592D01*
X79848242Y-61069116D01*
X79839295Y-61068735D01*
X79833433Y-61062637D01*
X79723820Y-60800295D01*
X79723794Y-60791342D01*
X79723799Y-60791328D01*
X79833433Y-60528933D01*
X79839785Y-60522622D01*
X79848239Y-60522455D01*
X80315250Y-60692979D01*
G37*
%TD.AperFunction*%
%TD*%
%TA.AperFunction,Conductor*%
%TO.N,P4*%
G36*
X85726801Y-62134261D02*
G01*
X86177608Y-62343909D01*
X86183663Y-62350504D01*
X86183496Y-62358961D01*
X86075500Y-62621970D01*
X86069188Y-62628322D01*
X86069121Y-62628349D01*
X85806112Y-62736345D01*
X85797157Y-62736318D01*
X85791060Y-62730457D01*
X85581412Y-62279651D01*
X85581032Y-62270706D01*
X85583747Y-62266448D01*
X85713598Y-62136597D01*
X85721870Y-62133171D01*
X85726801Y-62134261D01*
G37*
%TD.AperFunction*%
%TD*%
%TA.AperFunction,Conductor*%
%TO.N,P4*%
G36*
X76536209Y-65033421D02*
G01*
X76539681Y-65035817D01*
X76670405Y-65166541D01*
X76673832Y-65174814D01*
X76673071Y-65178963D01*
X75901076Y-67214223D01*
X75894938Y-67220743D01*
X75889120Y-67221730D01*
X74607015Y-67109846D01*
X74599071Y-67105713D01*
X74596376Y-67099207D01*
X74484492Y-65817102D01*
X74487187Y-65808562D01*
X74491996Y-65805147D01*
X76527262Y-65033151D01*
X76536209Y-65033421D01*
G37*
%TD.AperFunction*%
%TD*%
%TA.AperFunction,Conductor*%
%TO.N,P3*%
G36*
X95378232Y-57811800D02*
G01*
X95382005Y-57814327D01*
X95512395Y-57944717D01*
X95515822Y-57952990D01*
X95514941Y-57957445D01*
X95027394Y-59141487D01*
X95021075Y-59147832D01*
X95012120Y-59147851D01*
X95012113Y-59147848D01*
X94426728Y-58906348D01*
X94420387Y-58900025D01*
X94420374Y-58899994D01*
X94178874Y-58314609D01*
X94178887Y-58305654D01*
X94185228Y-58299331D01*
X95369279Y-57811781D01*
X95378232Y-57811800D01*
G37*
%TD.AperFunction*%
%TD*%
%TA.AperFunction,Conductor*%
%TO.N,P3*%
G36*
X120667176Y-49678639D02*
G01*
X120815702Y-49827909D01*
X120936813Y-49949627D01*
X120940219Y-49957908D01*
X120938046Y-49964671D01*
X120579867Y-50467046D01*
X120572274Y-50471793D01*
X120563548Y-50469781D01*
X120562067Y-50468527D01*
X120432618Y-50339078D01*
X120429603Y-50333882D01*
X120294092Y-49836789D01*
X120295222Y-49827909D01*
X120300891Y-49822910D01*
X120654399Y-49676087D01*
X120663352Y-49676079D01*
X120667176Y-49678639D01*
G37*
%TD.AperFunction*%
%TD*%
%TA.AperFunction,Conductor*%
%TO.N,VCC*%
G36*
X123258582Y-69657549D02*
G01*
X123547727Y-69850313D01*
X123552710Y-69857752D01*
X123552937Y-69860047D01*
X123552937Y-70047524D01*
X123549510Y-70055797D01*
X123547727Y-70057259D01*
X123258581Y-70250022D01*
X123249796Y-70251760D01*
X123246866Y-70250755D01*
X122839725Y-70047524D01*
X122672906Y-69964253D01*
X122667035Y-69957493D01*
X122667664Y-69948561D01*
X122672906Y-69943318D01*
X123246867Y-69656815D01*
X123255798Y-69656187D01*
X123258582Y-69657549D01*
G37*
%TD.AperFunction*%
%TD*%
%TA.AperFunction,Conductor*%
%TO.N,VCC*%
G36*
X123736358Y-69663038D02*
G01*
X123742594Y-69669302D01*
X123852052Y-69931275D01*
X123852079Y-69940230D01*
X123852052Y-69940297D01*
X123742309Y-70202951D01*
X123735957Y-70209263D01*
X123727842Y-70209549D01*
X123264546Y-70056439D01*
X123257766Y-70050589D01*
X123256517Y-70045330D01*
X123256517Y-69861669D01*
X123259944Y-69853396D01*
X123263821Y-69850826D01*
X123727404Y-69662969D01*
X123736358Y-69663038D01*
G37*
%TD.AperFunction*%
%TD*%
%TA.AperFunction,Conductor*%
%TO.N,B+*%
G36*
X124150612Y-32145744D02*
G01*
X124158872Y-32149198D01*
X124162271Y-32157483D01*
X124162253Y-32158093D01*
X124133551Y-32675019D01*
X124129671Y-32683089D01*
X124121869Y-32686070D01*
X123938308Y-32686070D01*
X123930035Y-32682643D01*
X123929436Y-32681998D01*
X123923436Y-32675019D01*
X123657861Y-32366125D01*
X123655067Y-32357619D01*
X123658440Y-32350246D01*
X123859492Y-32148247D01*
X123867754Y-32144802D01*
X124150612Y-32145744D01*
G37*
%TD.AperFunction*%
%TD*%
%TA.AperFunction,Conductor*%
%TO.N,pos*%
G36*
X126265435Y-31844187D02*
G01*
X126268862Y-31852460D01*
X126268358Y-31855856D01*
X126103836Y-32398275D01*
X126098156Y-32405197D01*
X126089244Y-32406075D01*
X126088196Y-32405702D01*
X125827447Y-32298638D01*
X125821097Y-32292328D01*
X125712326Y-32028783D01*
X125712337Y-32019829D01*
X125718012Y-32013804D01*
X126070511Y-31841943D01*
X126075638Y-31840760D01*
X126257162Y-31840760D01*
X126265435Y-31844187D01*
G37*
%TD.AperFunction*%
%TD*%
%TA.AperFunction,Conductor*%
%TO.N,pos*%
G36*
X126177879Y-30799878D02*
G01*
X126183542Y-30805541D01*
X126520053Y-31527598D01*
X126520442Y-31536544D01*
X126518969Y-31539340D01*
X126276437Y-31878886D01*
X126268839Y-31883627D01*
X126266916Y-31883786D01*
X126078958Y-31883786D01*
X126070685Y-31880359D01*
X126069437Y-31878886D01*
X125826904Y-31539340D01*
X125824884Y-31530617D01*
X125825818Y-31527603D01*
X126162332Y-30805540D01*
X126168933Y-30799489D01*
X126177879Y-30799878D01*
G37*
%TD.AperFunction*%
%TD*%
%TA.AperFunction,Conductor*%
%TO.N,B+*%
G36*
X123518790Y-30733605D02*
G01*
X123523427Y-30741266D01*
X123523548Y-30742483D01*
X123568891Y-31705396D01*
X123565857Y-31713821D01*
X123565477Y-31714219D01*
X123435302Y-31844394D01*
X123427029Y-31847821D01*
X123419499Y-31845076D01*
X123054425Y-31538066D01*
X123050298Y-31530118D01*
X123050408Y-31527226D01*
X123170856Y-30791470D01*
X123175574Y-30783860D01*
X123180635Y-30781795D01*
X123510096Y-30731467D01*
X123518790Y-30733605D01*
G37*
%TD.AperFunction*%
%TD*%
%TA.AperFunction,Conductor*%
%TO.N,B+*%
G36*
X123516801Y-31654261D02*
G01*
X123967608Y-31863909D01*
X123973663Y-31870504D01*
X123973496Y-31878961D01*
X123865500Y-32141970D01*
X123859188Y-32148322D01*
X123859121Y-32148349D01*
X123596112Y-32256345D01*
X123587157Y-32256318D01*
X123581060Y-32250457D01*
X123371412Y-31799651D01*
X123371032Y-31790706D01*
X123373747Y-31786448D01*
X123503598Y-31656597D01*
X123511870Y-31653171D01*
X123516801Y-31654261D01*
G37*
%TD.AperFunction*%
%TD*%
%TA.AperFunction,Conductor*%
%TO.N,P2*%
G36*
X56331201Y-31479064D02*
G01*
X56671927Y-31820358D01*
X56915394Y-32064231D01*
X56918814Y-32072507D01*
X56916102Y-32079987D01*
X56426445Y-32667576D01*
X56418516Y-32671738D01*
X56417457Y-32671786D01*
X56228417Y-32671786D01*
X56220144Y-32668359D01*
X56219429Y-32667576D01*
X55729771Y-32079987D01*
X55727107Y-32071438D01*
X55730479Y-32064231D01*
X56314658Y-31479078D01*
X56322927Y-31475645D01*
X56331201Y-31479064D01*
G37*
%TD.AperFunction*%
%TD*%
%TA.AperFunction,Conductor*%
%TO.N,P2*%
G36*
X74426592Y-36666280D02*
G01*
X75361365Y-37051186D01*
X75610638Y-37153828D01*
X75616983Y-37160147D01*
X75617002Y-37169102D01*
X75616999Y-37169109D01*
X75375499Y-37754494D01*
X75369176Y-37760835D01*
X75369145Y-37760848D01*
X74783760Y-38002348D01*
X74774805Y-38002335D01*
X74768482Y-37995994D01*
X74768479Y-37995987D01*
X74427997Y-37169102D01*
X74280932Y-36811943D01*
X74280951Y-36802990D01*
X74283475Y-36799220D01*
X74413869Y-36668826D01*
X74422141Y-36665400D01*
X74426592Y-36666280D01*
G37*
%TD.AperFunction*%
%TD*%
%TA.AperFunction,Conductor*%
%TO.N,P2*%
G36*
X37871068Y-36561736D02*
G01*
X37877391Y-36568077D01*
X37877394Y-36568084D01*
X38364941Y-37752126D01*
X38364922Y-37761081D01*
X38362395Y-37764854D01*
X38232005Y-37895244D01*
X38223732Y-37898671D01*
X38219277Y-37897790D01*
X37035235Y-37410243D01*
X37028890Y-37403924D01*
X37028871Y-37394970D01*
X37270374Y-36809576D01*
X37276697Y-36803236D01*
X37862114Y-36561723D01*
X37871068Y-36561736D01*
G37*
%TD.AperFunction*%
%TD*%
%TA.AperFunction,Conductor*%
%TO.N,P2*%
G36*
X56331201Y-31479064D02*
G01*
X56671927Y-31820358D01*
X56915394Y-32064231D01*
X56918814Y-32072507D01*
X56916102Y-32079987D01*
X56426445Y-32667576D01*
X56418516Y-32671738D01*
X56417457Y-32671786D01*
X56228417Y-32671786D01*
X56220144Y-32668359D01*
X56219429Y-32667576D01*
X55729771Y-32079987D01*
X55727107Y-32071438D01*
X55730479Y-32064231D01*
X56314658Y-31479078D01*
X56322927Y-31475645D01*
X56331201Y-31479064D01*
G37*
%TD.AperFunction*%
%TD*%
%TA.AperFunction,Conductor*%
%TO.N,P2*%
G36*
X18821068Y-44181736D02*
G01*
X18827391Y-44188077D01*
X18827394Y-44188084D01*
X19314941Y-45372126D01*
X19314922Y-45381081D01*
X19312395Y-45384854D01*
X19182005Y-45515244D01*
X19173732Y-45518671D01*
X19169277Y-45517790D01*
X17985235Y-45030243D01*
X17978890Y-45023924D01*
X17978871Y-45014970D01*
X18220374Y-44429576D01*
X18226697Y-44423236D01*
X18812114Y-44181723D01*
X18821068Y-44181736D01*
G37*
%TD.AperFunction*%
%TD*%
%TA.AperFunction,Conductor*%
%TO.N,P2*%
G36*
X36682006Y-36394627D02*
G01*
X37262138Y-36797096D01*
X37266981Y-36804626D01*
X37265081Y-36813377D01*
X37263741Y-36814981D01*
X36677563Y-37401159D01*
X36669290Y-37404586D01*
X36666573Y-37404266D01*
X36217160Y-37296970D01*
X36211604Y-37293863D01*
X36079849Y-37162108D01*
X36076422Y-37153835D01*
X36078910Y-37146623D01*
X36666130Y-36397024D01*
X36673927Y-36392626D01*
X36682006Y-36394627D01*
G37*
%TD.AperFunction*%
%TD*%
%TA.AperFunction,Conductor*%
%TO.N,P3*%
G36*
X24370669Y-49365215D02*
G01*
X24376531Y-49371313D01*
X24486143Y-49633654D01*
X24486170Y-49642609D01*
X24486143Y-49642676D01*
X24376531Y-49905016D01*
X24370179Y-49911328D01*
X24361722Y-49911494D01*
X24227975Y-49862658D01*
X23894715Y-49740971D01*
X23888119Y-49734915D01*
X23887028Y-49729981D01*
X23887028Y-49546348D01*
X23890455Y-49538075D01*
X23894715Y-49535358D01*
X24361725Y-49364834D01*
X24370669Y-49365215D01*
G37*
%TD.AperFunction*%
%TD*%
%TA.AperFunction,Conductor*%
%TO.N,P3*%
G36*
X17798336Y-52533871D02*
G01*
X17932307Y-52667842D01*
X18710609Y-53417608D01*
X18714190Y-53425816D01*
X18710918Y-53434151D01*
X18710857Y-53434214D01*
X17457920Y-54715559D01*
X17449686Y-54719078D01*
X17441375Y-54715744D01*
X17439472Y-54713314D01*
X16686692Y-53434465D01*
X16685449Y-53425597D01*
X16689406Y-53419443D01*
X17782695Y-52533055D01*
X17791279Y-52530507D01*
X17798336Y-52533871D01*
G37*
%TD.AperFunction*%
%TD*%
%TA.AperFunction,Conductor*%
%TO.N,P4*%
G36*
X24121897Y-67592836D02*
G01*
X24127759Y-67598934D01*
X24237371Y-67861275D01*
X24237398Y-67870230D01*
X24237371Y-67870297D01*
X24127759Y-68132637D01*
X24121407Y-68138949D01*
X24112950Y-68139115D01*
X23979203Y-68090279D01*
X23645943Y-67968592D01*
X23639347Y-67962536D01*
X23638256Y-67957602D01*
X23638256Y-67773969D01*
X23641683Y-67765696D01*
X23645943Y-67762979D01*
X24112953Y-67592455D01*
X24121897Y-67592836D01*
G37*
%TD.AperFunction*%
%TD*%
%TA.AperFunction,Conductor*%
%TO.N,P4*%
G36*
X17516314Y-71467535D02*
G01*
X17516439Y-71467659D01*
X17649462Y-71600682D01*
X18517553Y-72468251D01*
X18520982Y-72476523D01*
X18518291Y-72483992D01*
X17456944Y-73764769D01*
X17449026Y-73768953D01*
X17440470Y-73766313D01*
X17438402Y-73764087D01*
X16527506Y-72483992D01*
X16527314Y-72483722D01*
X16525311Y-72474997D01*
X16528449Y-72468796D01*
X17499772Y-71467782D01*
X17507990Y-71464233D01*
X17516314Y-71467535D01*
G37*
%TD.AperFunction*%
%TD*%
%TA.AperFunction,Conductor*%
%TO.N,P4*%
G36*
X37281201Y-74913064D02*
G01*
X37621927Y-75254358D01*
X37865394Y-75498231D01*
X37868814Y-75506507D01*
X37866102Y-75513987D01*
X37376445Y-76101576D01*
X37368516Y-76105738D01*
X37367457Y-76105786D01*
X37178417Y-76105786D01*
X37170144Y-76102359D01*
X37169429Y-76101576D01*
X36679771Y-75513987D01*
X36677107Y-75505438D01*
X36680479Y-75498231D01*
X37264658Y-74913078D01*
X37272927Y-74909645D01*
X37281201Y-74913064D01*
G37*
%TD.AperFunction*%
%TD*%
%TA.AperFunction,Conductor*%
%TO.N,P4*%
G36*
X18230503Y-82533361D02*
G01*
X18230790Y-82533639D01*
X18815051Y-83117900D01*
X18818478Y-83126173D01*
X18815439Y-83134040D01*
X18371607Y-83622660D01*
X18371219Y-83623066D01*
X18238772Y-83755513D01*
X18230499Y-83758940D01*
X18222226Y-83755513D01*
X18221763Y-83755022D01*
X17668326Y-83133754D01*
X17665381Y-83125298D01*
X17668509Y-83117988D01*
X18213969Y-82533924D01*
X18222117Y-82530219D01*
X18230503Y-82533361D01*
G37*
%TD.AperFunction*%
%TD*%
%TA.AperFunction,Conductor*%
%TO.N,P4*%
G36*
X56331201Y-69579064D02*
G01*
X56671927Y-69920358D01*
X56915394Y-70164231D01*
X56918814Y-70172507D01*
X56916102Y-70179987D01*
X56426445Y-70767576D01*
X56418516Y-70771738D01*
X56417457Y-70771786D01*
X56228417Y-70771786D01*
X56220144Y-70768359D01*
X56219429Y-70767576D01*
X55729771Y-70179987D01*
X55727107Y-70171438D01*
X55730479Y-70164231D01*
X56314658Y-69579078D01*
X56322927Y-69575645D01*
X56331201Y-69579064D01*
G37*
%TD.AperFunction*%
%TD*%
%TA.AperFunction,Conductor*%
%TO.N,P4*%
G36*
X37281201Y-74913064D02*
G01*
X37621927Y-75254358D01*
X37865394Y-75498231D01*
X37868814Y-75506507D01*
X37866102Y-75513987D01*
X37376445Y-76101576D01*
X37368516Y-76105738D01*
X37367457Y-76105786D01*
X37178417Y-76105786D01*
X37170144Y-76102359D01*
X37169429Y-76101576D01*
X36679771Y-75513987D01*
X36677107Y-75505438D01*
X36680479Y-75498231D01*
X37264658Y-74913078D01*
X37272927Y-74909645D01*
X37281201Y-74913064D01*
G37*
%TD.AperFunction*%
%TD*%
%TA.AperFunction,Conductor*%
%TO.N,P5*%
G36*
X138576490Y-91577115D02*
G01*
X138761906Y-91710283D01*
X139033917Y-91905645D01*
X139038638Y-91913255D01*
X139036595Y-91921973D01*
X139035393Y-91923394D01*
X138835310Y-92124815D01*
X138831453Y-92127392D01*
X138568359Y-92235422D01*
X138559404Y-92235395D01*
X138553092Y-92229043D01*
X138552548Y-92227372D01*
X138527938Y-92126493D01*
X138428559Y-91719132D01*
X138429928Y-91710283D01*
X138431649Y-91708091D01*
X138561395Y-91578345D01*
X138569667Y-91574919D01*
X138576490Y-91577115D01*
G37*
%TD.AperFunction*%
%TD*%
%TA.AperFunction,Conductor*%
%TO.N,P5*%
G36*
X127739172Y-90636754D02*
G01*
X127741386Y-90638490D01*
X127873860Y-90770964D01*
X127877287Y-90779237D01*
X127877117Y-90781221D01*
X127732148Y-91623553D01*
X127727368Y-91631125D01*
X127725740Y-91632088D01*
X126093756Y-92426656D01*
X126084817Y-92427197D01*
X126078115Y-92421259D01*
X126076936Y-92416378D01*
X126049295Y-91058015D01*
X126052553Y-91049676D01*
X126058198Y-91046417D01*
X127730322Y-90635401D01*
X127739172Y-90636754D01*
G37*
%TD.AperFunction*%
%TD*%
%TA.AperFunction,Conductor*%
%TO.N,P18*%
G36*
X137068716Y-90675253D02*
G01*
X137074814Y-90681115D01*
X137284460Y-91131918D01*
X137284841Y-91140865D01*
X137282124Y-91145125D01*
X137152276Y-91274973D01*
X137144003Y-91278400D01*
X137139069Y-91277309D01*
X136845673Y-91140865D01*
X136688265Y-91067662D01*
X136682210Y-91061067D01*
X136682376Y-91052611D01*
X136790373Y-90789600D01*
X136796683Y-90783250D01*
X137059762Y-90675226D01*
X137068716Y-90675253D01*
G37*
%TD.AperFunction*%
%TD*%
%TA.AperFunction,Conductor*%
%TO.N,P18*%
G36*
X137815558Y-91752390D02*
G01*
X137817010Y-91754157D01*
X138708275Y-93086403D01*
X138710026Y-93095185D01*
X138706949Y-93101055D01*
X137725155Y-94113301D01*
X137716935Y-94116854D01*
X137708610Y-94113554D01*
X137706234Y-94110272D01*
X136912638Y-92478563D01*
X136912103Y-92469627D01*
X136914783Y-92465282D01*
X137459758Y-91906605D01*
X137610092Y-91752493D01*
X137618322Y-91748964D01*
X137618467Y-91748963D01*
X137807285Y-91748963D01*
X137815558Y-91752390D01*
G37*
%TD.AperFunction*%
%TD*%
%TA.AperFunction,Conductor*%
%TO.N,P15*%
G36*
X113835250Y-84952979D02*
G01*
X113841846Y-84959035D01*
X113842937Y-84963969D01*
X113842937Y-85147602D01*
X113839510Y-85155875D01*
X113835250Y-85158592D01*
X113368242Y-85329116D01*
X113359295Y-85328735D01*
X113353433Y-85322637D01*
X113243820Y-85060295D01*
X113243794Y-85051342D01*
X113243799Y-85051328D01*
X113353433Y-84788933D01*
X113359785Y-84782622D01*
X113368239Y-84782455D01*
X113835250Y-84952979D01*
G37*
%TD.AperFunction*%
%TD*%
%TA.AperFunction,Conductor*%
%TO.N,P15*%
G36*
X116424239Y-86163716D02*
G01*
X117635478Y-87084260D01*
X117639992Y-87091993D01*
X117638562Y-87099371D01*
X116966192Y-88278137D01*
X116959116Y-88283625D01*
X116950232Y-88282503D01*
X116946501Y-88279131D01*
X116805978Y-88081981D01*
X115894507Y-86803209D01*
X115892497Y-86794485D01*
X115894785Y-86789257D01*
X116274243Y-86299531D01*
X116275205Y-86298440D01*
X116408888Y-86164757D01*
X116417160Y-86161331D01*
X116424239Y-86163716D01*
G37*
%TD.AperFunction*%
%TD*%
%TA.AperFunction,Conductor*%
%TO.N,P15*%
G36*
X113835250Y-84952979D02*
G01*
X113841846Y-84959035D01*
X113842937Y-84963969D01*
X113842937Y-85147602D01*
X113839510Y-85155875D01*
X113835250Y-85158592D01*
X113368242Y-85329116D01*
X113359295Y-85328735D01*
X113353433Y-85322637D01*
X113243820Y-85060295D01*
X113243794Y-85051342D01*
X113243799Y-85051328D01*
X113353433Y-84788933D01*
X113359785Y-84782622D01*
X113368239Y-84782455D01*
X113835250Y-84952979D01*
G37*
%TD.AperFunction*%
%TD*%
%TA.AperFunction,Conductor*%
%TO.N,P14*%
G36*
X93742905Y-84289491D02*
G01*
X95674362Y-84751621D01*
X95681610Y-84756879D01*
X95683339Y-84763088D01*
X95673718Y-86044609D01*
X95670229Y-86052856D01*
X95663886Y-86056071D01*
X94381997Y-86263395D01*
X94373283Y-86261333D01*
X94369356Y-86256410D01*
X94279601Y-86044609D01*
X94084448Y-85584093D01*
X94083928Y-85582580D01*
X94059095Y-85489899D01*
X93971281Y-85277898D01*
X93909271Y-85170494D01*
X93908646Y-85169240D01*
X93598195Y-84436648D01*
X93598124Y-84427697D01*
X93600694Y-84423815D01*
X93731912Y-84292597D01*
X93740184Y-84289171D01*
X93742905Y-84289491D01*
G37*
%TD.AperFunction*%
%TD*%
%TA.AperFunction,Conductor*%
%TO.N,P14*%
G36*
X93148716Y-83455253D02*
G01*
X93154814Y-83461115D01*
X93364460Y-83911918D01*
X93364841Y-83920865D01*
X93362124Y-83925125D01*
X93232276Y-84054973D01*
X93224003Y-84058400D01*
X93219069Y-84057309D01*
X92925673Y-83920865D01*
X92768265Y-83847662D01*
X92762210Y-83841067D01*
X92762376Y-83832611D01*
X92870373Y-83569600D01*
X92876683Y-83563250D01*
X93139762Y-83455226D01*
X93148716Y-83455253D01*
G37*
%TD.AperFunction*%
%TD*%
%TA.AperFunction,Conductor*%
%TO.N,P15*%
G36*
X82988441Y-61903363D02*
G01*
X82988668Y-61903461D01*
X83504138Y-62131755D01*
X83510314Y-62138238D01*
X83510097Y-62147190D01*
X83507672Y-62150725D01*
X83379896Y-62278501D01*
X83376259Y-62280970D01*
X82988630Y-62448251D01*
X82979676Y-62448383D01*
X82973252Y-62442145D01*
X82973190Y-62442000D01*
X82864101Y-62179581D01*
X82864090Y-62170627D01*
X82973135Y-61909646D01*
X82979486Y-61903336D01*
X82988441Y-61903363D01*
G37*
%TD.AperFunction*%
%TD*%
%TA.AperFunction,Conductor*%
%TO.N,P15*%
G36*
X84218609Y-62833150D02*
G01*
X86253874Y-63605146D01*
X86260394Y-63611284D01*
X86261381Y-63617102D01*
X86149497Y-64899207D01*
X86145364Y-64907151D01*
X86138858Y-64909846D01*
X84856753Y-65021730D01*
X84848213Y-65019035D01*
X84844797Y-65014223D01*
X84805206Y-64909846D01*
X84072802Y-62978960D01*
X84073072Y-62970013D01*
X84075465Y-62966544D01*
X84206193Y-62835816D01*
X84214465Y-62832390D01*
X84218609Y-62833150D01*
G37*
%TD.AperFunction*%
%TD*%
%TA.AperFunction,Conductor*%
%TO.N,P14*%
G36*
X66290327Y-56548506D02*
G01*
X67304039Y-57139217D01*
X67608631Y-57316709D01*
X67614053Y-57323835D01*
X67613608Y-57331152D01*
X67105223Y-58605992D01*
X67098975Y-58612407D01*
X67090021Y-58612526D01*
X67086082Y-58609931D01*
X65804096Y-57327945D01*
X65800669Y-57319672D01*
X65802070Y-57314120D01*
X66140308Y-56686894D01*
X66142328Y-56684181D01*
X66276167Y-56550342D01*
X66284439Y-56546916D01*
X66290327Y-56548506D01*
G37*
%TD.AperFunction*%
%TD*%
%TA.AperFunction,Conductor*%
%TO.N,P14*%
G36*
X64665250Y-55702979D02*
G01*
X64671846Y-55709035D01*
X64672937Y-55713969D01*
X64672937Y-55897602D01*
X64669510Y-55905875D01*
X64665250Y-55908592D01*
X64198242Y-56079116D01*
X64189295Y-56078735D01*
X64183433Y-56072637D01*
X64073820Y-55810295D01*
X64073794Y-55801342D01*
X64073799Y-55801328D01*
X64183433Y-55538933D01*
X64189785Y-55532622D01*
X64198239Y-55532455D01*
X64665250Y-55702979D01*
G37*
%TD.AperFunction*%
%TD*%
%TA.AperFunction,Conductor*%
%TO.N,P4*%
G36*
X38436209Y-64080921D02*
G01*
X38439681Y-64083317D01*
X38570405Y-64214041D01*
X38573832Y-64222314D01*
X38573071Y-64226463D01*
X37801076Y-66261723D01*
X37794938Y-66268243D01*
X37789120Y-66269230D01*
X36507015Y-66157346D01*
X36499071Y-66153213D01*
X36496376Y-66146707D01*
X36384492Y-64864602D01*
X36387187Y-64856062D01*
X36391996Y-64852647D01*
X38427262Y-64080651D01*
X38436209Y-64080921D01*
G37*
%TD.AperFunction*%
%TD*%
%TA.AperFunction,Conductor*%
%TO.N,P4*%
G36*
X44356578Y-59837836D02*
G01*
X44362440Y-59843934D01*
X44472052Y-60106275D01*
X44472079Y-60115230D01*
X44472052Y-60115297D01*
X44362440Y-60377637D01*
X44356088Y-60383949D01*
X44347631Y-60384115D01*
X44213884Y-60335279D01*
X43880624Y-60213592D01*
X43874028Y-60207536D01*
X43872937Y-60202602D01*
X43872937Y-60018969D01*
X43876364Y-60010696D01*
X43880624Y-60007979D01*
X44347634Y-59837455D01*
X44356578Y-59837836D01*
G37*
%TD.AperFunction*%
%TD*%
%TA.AperFunction,Conductor*%
%TO.N,P16*%
G36*
X47500854Y-61849681D02*
G01*
X48687015Y-62650053D01*
X48691956Y-62657522D01*
X48690947Y-62664962D01*
X48055888Y-63941925D01*
X48049136Y-63947807D01*
X48040202Y-63947191D01*
X48037139Y-63944988D01*
X46755789Y-62663638D01*
X46752362Y-62655365D01*
X46755368Y-62647535D01*
X47351255Y-61985909D01*
X47351638Y-61985506D01*
X47486038Y-61851106D01*
X47494310Y-61847680D01*
X47500854Y-61849681D01*
G37*
%TD.AperFunction*%
%TD*%
%TA.AperFunction,Conductor*%
%TO.N,P16*%
G36*
X45690250Y-60687979D02*
G01*
X45696846Y-60694035D01*
X45697937Y-60698969D01*
X45697937Y-60882602D01*
X45694510Y-60890875D01*
X45690250Y-60893592D01*
X45223242Y-61064116D01*
X45214295Y-61063735D01*
X45208433Y-61057637D01*
X45098820Y-60795295D01*
X45098794Y-60786342D01*
X45098799Y-60786328D01*
X45208433Y-60523933D01*
X45214785Y-60517622D01*
X45223239Y-60517455D01*
X45690250Y-60687979D01*
G37*
%TD.AperFunction*%
%TD*%
%TA.AperFunction,Conductor*%
%TO.N,P10*%
G36*
X28204338Y-69502539D02*
G01*
X29514901Y-70270678D01*
X29520306Y-70277818D01*
X29519835Y-70285151D01*
X29005262Y-71560094D01*
X28998987Y-71566483D01*
X28990033Y-71566565D01*
X28986139Y-71563988D01*
X27704205Y-70282054D01*
X27700778Y-70273781D01*
X27702274Y-70268058D01*
X28054333Y-69640791D01*
X28056256Y-69638253D01*
X28190150Y-69504359D01*
X28198422Y-69500933D01*
X28204338Y-69502539D01*
G37*
%TD.AperFunction*%
%TD*%
%TA.AperFunction,Conductor*%
%TO.N,P10*%
G36*
X25965250Y-68362979D02*
G01*
X25971846Y-68369035D01*
X25972937Y-68373969D01*
X25972937Y-68557602D01*
X25969510Y-68565875D01*
X25965250Y-68568592D01*
X25498242Y-68739116D01*
X25489295Y-68738735D01*
X25483433Y-68732637D01*
X25373820Y-68470295D01*
X25373794Y-68461342D01*
X25373799Y-68461328D01*
X25483433Y-68198933D01*
X25489785Y-68192622D01*
X25498239Y-68192455D01*
X25965250Y-68362979D01*
G37*
%TD.AperFunction*%
%TD*%
%TA.AperFunction,Conductor*%
%TO.N,P10*%
G36*
X26265250Y-49882979D02*
G01*
X26271846Y-49889035D01*
X26272937Y-49893969D01*
X26272937Y-50077602D01*
X26269510Y-50085875D01*
X26265250Y-50088592D01*
X25798242Y-50259116D01*
X25789295Y-50258735D01*
X25783433Y-50252637D01*
X25673820Y-49990295D01*
X25673794Y-49981342D01*
X25673799Y-49981328D01*
X25783433Y-49718933D01*
X25789785Y-49712622D01*
X25798239Y-49712455D01*
X26265250Y-49882979D01*
G37*
%TD.AperFunction*%
%TD*%
%TA.AperFunction,Conductor*%
%TO.N,P10*%
G36*
X27068609Y-50450650D02*
G01*
X29103874Y-51222646D01*
X29110394Y-51228784D01*
X29111381Y-51234602D01*
X28999497Y-52516707D01*
X28995364Y-52524651D01*
X28988858Y-52527346D01*
X27706753Y-52639230D01*
X27698213Y-52636535D01*
X27694797Y-52631723D01*
X27655206Y-52527346D01*
X26922802Y-50596460D01*
X26923072Y-50587513D01*
X26925465Y-50584044D01*
X27056193Y-50453316D01*
X27064465Y-50449890D01*
X27068609Y-50450650D01*
G37*
%TD.AperFunction*%
%TD*%
%TA.AperFunction,Conductor*%
%TO.N,P3*%
G36*
X42552621Y-41179472D02*
G01*
X42553029Y-41180344D01*
X42661764Y-41440579D01*
X42661791Y-41449534D01*
X42661772Y-41449581D01*
X42552411Y-41712654D01*
X42546071Y-41718978D01*
X42537642Y-41719171D01*
X42163930Y-41584556D01*
X42159622Y-41581821D01*
X42031357Y-41453556D01*
X42027930Y-41445283D01*
X42031357Y-41437010D01*
X42034243Y-41434897D01*
X42536851Y-41174466D01*
X42545772Y-41173703D01*
X42552621Y-41179472D01*
G37*
%TD.AperFunction*%
%TD*%
%TA.AperFunction,Conductor*%
%TO.N,P3*%
G36*
X38436209Y-45030921D02*
G01*
X38439681Y-45033317D01*
X38570405Y-45164041D01*
X38573832Y-45172314D01*
X38573071Y-45176463D01*
X37801076Y-47211723D01*
X37794938Y-47218243D01*
X37789120Y-47219230D01*
X36507015Y-47107346D01*
X36499071Y-47103213D01*
X36496376Y-47096707D01*
X36384492Y-45814602D01*
X36387187Y-45806062D01*
X36391996Y-45802647D01*
X38427262Y-45030651D01*
X38436209Y-45030921D01*
G37*
%TD.AperFunction*%
%TD*%
%TA.AperFunction,Conductor*%
%TO.N,P16*%
G36*
X45265250Y-42182979D02*
G01*
X45271846Y-42189035D01*
X45272937Y-42193969D01*
X45272937Y-42377602D01*
X45269510Y-42385875D01*
X45265250Y-42388592D01*
X44798242Y-42559116D01*
X44789295Y-42558735D01*
X44783433Y-42552637D01*
X44673820Y-42290295D01*
X44673794Y-42281342D01*
X44673799Y-42281328D01*
X44783433Y-42018933D01*
X44789785Y-42012622D01*
X44798239Y-42012455D01*
X45265250Y-42182979D01*
G37*
%TD.AperFunction*%
%TD*%
%TA.AperFunction,Conductor*%
%TO.N,P16*%
G36*
X47164278Y-42832338D02*
G01*
X48525241Y-43600871D01*
X48530760Y-43607923D01*
X48530450Y-43615149D01*
X48055007Y-44889438D01*
X48048904Y-44895991D01*
X48039955Y-44896310D01*
X48035772Y-44893621D01*
X46753493Y-43611342D01*
X46750066Y-43603069D01*
X46750976Y-43598545D01*
X47014232Y-42971504D01*
X47016742Y-42967767D01*
X47150256Y-42834253D01*
X47158528Y-42830827D01*
X47164278Y-42832338D01*
G37*
%TD.AperFunction*%
%TD*%
%TA.AperFunction,Conductor*%
%TO.N,P3*%
G36*
X57486209Y-39696921D02*
G01*
X57489681Y-39699317D01*
X57620405Y-39830041D01*
X57623832Y-39838314D01*
X57623071Y-39842463D01*
X56851076Y-41877723D01*
X56844938Y-41884243D01*
X56839120Y-41885230D01*
X55557015Y-41773346D01*
X55549071Y-41769213D01*
X55546376Y-41762707D01*
X55434492Y-40480602D01*
X55437187Y-40472062D01*
X55441996Y-40468647D01*
X57477262Y-39696651D01*
X57486209Y-39696921D01*
G37*
%TD.AperFunction*%
%TD*%
%TA.AperFunction,Conductor*%
%TO.N,P3*%
G36*
X62666578Y-36072836D02*
G01*
X62672440Y-36078934D01*
X62782052Y-36341275D01*
X62782079Y-36350230D01*
X62782052Y-36350297D01*
X62672440Y-36612637D01*
X62666088Y-36618949D01*
X62657631Y-36619115D01*
X62523884Y-36570279D01*
X62190624Y-36448592D01*
X62184028Y-36442536D01*
X62182937Y-36437602D01*
X62182937Y-36253969D01*
X62186364Y-36245696D01*
X62190624Y-36242979D01*
X62657634Y-36072455D01*
X62666578Y-36072836D01*
G37*
%TD.AperFunction*%
%TD*%
%TA.AperFunction,Conductor*%
%TO.N,P14*%
G36*
X65189626Y-37496676D02*
G01*
X67210090Y-38268619D01*
X67216595Y-38274772D01*
X67217565Y-38280620D01*
X67099544Y-39562712D01*
X67095373Y-39570637D01*
X67088854Y-39573300D01*
X65806787Y-39679015D01*
X65798261Y-39676280D01*
X65794854Y-39671417D01*
X65043723Y-37642422D01*
X65044064Y-37633474D01*
X65046419Y-37630090D01*
X65177178Y-37499331D01*
X65185450Y-37495905D01*
X65189626Y-37496676D01*
G37*
%TD.AperFunction*%
%TD*%
%TA.AperFunction,Conductor*%
%TO.N,P14*%
G36*
X64598716Y-36665253D02*
G01*
X64604814Y-36671115D01*
X64814460Y-37121918D01*
X64814841Y-37130865D01*
X64812124Y-37135125D01*
X64682276Y-37264973D01*
X64674003Y-37268400D01*
X64669069Y-37267309D01*
X64375673Y-37130865D01*
X64218265Y-37057662D01*
X64212210Y-37051067D01*
X64212376Y-37042611D01*
X64320373Y-36779600D01*
X64326683Y-36773250D01*
X64589762Y-36665226D01*
X64598716Y-36665253D01*
G37*
%TD.AperFunction*%
%TD*%
%TA.AperFunction,Conductor*%
%TO.N,P4*%
G36*
X100577313Y-64113571D02*
G01*
X100583175Y-64119669D01*
X100692787Y-64382010D01*
X100692814Y-64390965D01*
X100692787Y-64391032D01*
X100583175Y-64653372D01*
X100576823Y-64659684D01*
X100568366Y-64659850D01*
X100434619Y-64611014D01*
X100101359Y-64489327D01*
X100094763Y-64483271D01*
X100093672Y-64478337D01*
X100093672Y-64294704D01*
X100097099Y-64286431D01*
X100101359Y-64283714D01*
X100568369Y-64113190D01*
X100577313Y-64113571D01*
G37*
%TD.AperFunction*%
%TD*%
%TA.AperFunction,Conductor*%
%TO.N,P4*%
G36*
X95586209Y-67128921D02*
G01*
X95589681Y-67131317D01*
X95720405Y-67262041D01*
X95723832Y-67270314D01*
X95723071Y-67274463D01*
X94951076Y-69309723D01*
X94944938Y-69316243D01*
X94939120Y-69317230D01*
X93657015Y-69205346D01*
X93649071Y-69201213D01*
X93646376Y-69194707D01*
X93534492Y-67912602D01*
X93537187Y-67904062D01*
X93541996Y-67900647D01*
X95577262Y-67128651D01*
X95586209Y-67128921D01*
G37*
%TD.AperFunction*%
%TD*%
%TA.AperFunction,Conductor*%
%TO.N,P18*%
G36*
X102775250Y-64322979D02*
G01*
X102781846Y-64329035D01*
X102782937Y-64333969D01*
X102782937Y-64517602D01*
X102779510Y-64525875D01*
X102775250Y-64528592D01*
X102308242Y-64699116D01*
X102299295Y-64698735D01*
X102293433Y-64692637D01*
X102183820Y-64430295D01*
X102183794Y-64421342D01*
X102183799Y-64421328D01*
X102293433Y-64158933D01*
X102299785Y-64152622D01*
X102308239Y-64152455D01*
X102775250Y-64322979D01*
G37*
%TD.AperFunction*%
%TD*%
%TA.AperFunction,Conductor*%
%TO.N,P18*%
G36*
X103551779Y-64929004D02*
G01*
X105089574Y-65573797D01*
X105391155Y-65700249D01*
X105397460Y-65706608D01*
X105398194Y-65712825D01*
X105200151Y-66994735D01*
X105195501Y-67002388D01*
X105188772Y-67004648D01*
X103907194Y-67024849D01*
X103898868Y-67021553D01*
X103895668Y-67016019D01*
X103404748Y-65073830D01*
X103406043Y-65064971D01*
X103407814Y-65062695D01*
X103538988Y-64931521D01*
X103547260Y-64928095D01*
X103551779Y-64929004D01*
G37*
%TD.AperFunction*%
%TD*%
%TA.AperFunction,Conductor*%
%TO.N,P3*%
G36*
X99706578Y-45302836D02*
G01*
X99712440Y-45308934D01*
X99822052Y-45571275D01*
X99822079Y-45580230D01*
X99822052Y-45580297D01*
X99712440Y-45842637D01*
X99706088Y-45848949D01*
X99697631Y-45849115D01*
X99563884Y-45800279D01*
X99230624Y-45678592D01*
X99224028Y-45672536D01*
X99222937Y-45667602D01*
X99222937Y-45483969D01*
X99226364Y-45475696D01*
X99230624Y-45472979D01*
X99697634Y-45302455D01*
X99706578Y-45302836D01*
G37*
%TD.AperFunction*%
%TD*%
%TA.AperFunction,Conductor*%
%TO.N,P3*%
G36*
X95586209Y-48078921D02*
G01*
X95589681Y-48081317D01*
X95720405Y-48212041D01*
X95723832Y-48220314D01*
X95723071Y-48224463D01*
X94951076Y-50259723D01*
X94944938Y-50266243D01*
X94939120Y-50267230D01*
X93657015Y-50155346D01*
X93649071Y-50151213D01*
X93646376Y-50144707D01*
X93534492Y-48862602D01*
X93537187Y-48854062D01*
X93541996Y-48850647D01*
X95577262Y-48078651D01*
X95586209Y-48078921D01*
G37*
%TD.AperFunction*%
%TD*%
%TA.AperFunction,Conductor*%
%TO.N,P18*%
G36*
X102655250Y-26032979D02*
G01*
X102661846Y-26039035D01*
X102662937Y-26043969D01*
X102662937Y-26227602D01*
X102659510Y-26235875D01*
X102655250Y-26238592D01*
X102188242Y-26409116D01*
X102179295Y-26408735D01*
X102173433Y-26402637D01*
X102063820Y-26140295D01*
X102063794Y-26131342D01*
X102063799Y-26131328D01*
X102173433Y-25868933D01*
X102179785Y-25862622D01*
X102188239Y-25862455D01*
X102655250Y-26032979D01*
G37*
%TD.AperFunction*%
%TD*%
%TA.AperFunction,Conductor*%
%TO.N,P18*%
G36*
X103681863Y-26829190D02*
G01*
X105434060Y-27600046D01*
X105440253Y-27606514D01*
X105440849Y-27612911D01*
X105200475Y-28894724D01*
X105195582Y-28902224D01*
X105188707Y-28904265D01*
X103907385Y-28874955D01*
X103899193Y-28871340D01*
X103896161Y-28865456D01*
X103655364Y-27606514D01*
X103534284Y-26973476D01*
X103536096Y-26964707D01*
X103537498Y-26963011D01*
X103668883Y-26831626D01*
X103677155Y-26828200D01*
X103681863Y-26829190D01*
G37*
%TD.AperFunction*%
%TD*%
%TA.AperFunction,Conductor*%
%TO.N,P2*%
G36*
X82316578Y-23092836D02*
G01*
X82322440Y-23098934D01*
X82432052Y-23361275D01*
X82432079Y-23370230D01*
X82432052Y-23370297D01*
X82322440Y-23632637D01*
X82316088Y-23638949D01*
X82307631Y-23639115D01*
X82173884Y-23590279D01*
X81840624Y-23468592D01*
X81834028Y-23462536D01*
X81832937Y-23457602D01*
X81832937Y-23273969D01*
X81836364Y-23265696D01*
X81840624Y-23262979D01*
X82307634Y-23092455D01*
X82316578Y-23092836D01*
G37*
%TD.AperFunction*%
%TD*%
%TA.AperFunction,Conductor*%
%TO.N,P2*%
G36*
X76536209Y-26933421D02*
G01*
X76539681Y-26935817D01*
X76670405Y-27066541D01*
X76673832Y-27074814D01*
X76673071Y-27078963D01*
X75901076Y-29114223D01*
X75894938Y-29120743D01*
X75889120Y-29121730D01*
X74607015Y-29009846D01*
X74599071Y-29005713D01*
X74596376Y-28999207D01*
X74484492Y-27717102D01*
X74487187Y-27708562D01*
X74491996Y-27705147D01*
X76527262Y-26933151D01*
X76536209Y-26933421D01*
G37*
%TD.AperFunction*%
%TD*%
%TA.AperFunction,Conductor*%
%TO.N,P15*%
G36*
X84105250Y-23862979D02*
G01*
X84111846Y-23869035D01*
X84112937Y-23873969D01*
X84112937Y-24057602D01*
X84109510Y-24065875D01*
X84105250Y-24068592D01*
X83638242Y-24239116D01*
X83629295Y-24238735D01*
X83623433Y-24232637D01*
X83513820Y-23970295D01*
X83513794Y-23961342D01*
X83513799Y-23961328D01*
X83623433Y-23698933D01*
X83629785Y-23692622D01*
X83638239Y-23692455D01*
X84105250Y-23862979D01*
G37*
%TD.AperFunction*%
%TD*%
%TA.AperFunction,Conductor*%
%TO.N,P15*%
G36*
X86250999Y-24511713D02*
G01*
X86251423Y-24512159D01*
X87141423Y-25501049D01*
X87144410Y-25509491D01*
X87142002Y-25516006D01*
X86157213Y-26797217D01*
X86149455Y-26801688D01*
X86140807Y-26799363D01*
X86138661Y-26797217D01*
X85153871Y-25516006D01*
X85151546Y-25507358D01*
X85154450Y-25501049D01*
X86044451Y-24512159D01*
X86052533Y-24508302D01*
X86053148Y-24508286D01*
X86242726Y-24508286D01*
X86250999Y-24511713D01*
G37*
%TD.AperFunction*%
%TD*%
%TA.AperFunction,Conductor*%
%TO.N,P2*%
G36*
X57486209Y-20646921D02*
G01*
X57489681Y-20649317D01*
X57620405Y-20780041D01*
X57623832Y-20788314D01*
X57623071Y-20792463D01*
X56851076Y-22827723D01*
X56844938Y-22834243D01*
X56839120Y-22835230D01*
X55557015Y-22723346D01*
X55549071Y-22719213D01*
X55546376Y-22712707D01*
X55434492Y-21430602D01*
X55437187Y-21422062D01*
X55441996Y-21418647D01*
X57477262Y-20646651D01*
X57486209Y-20646921D01*
G37*
%TD.AperFunction*%
%TD*%
%TA.AperFunction,Conductor*%
%TO.N,P2*%
G36*
X63026578Y-16882836D02*
G01*
X63032440Y-16888934D01*
X63142052Y-17151275D01*
X63142079Y-17160230D01*
X63142052Y-17160297D01*
X63032440Y-17422637D01*
X63026088Y-17428949D01*
X63017631Y-17429115D01*
X62883884Y-17380279D01*
X62550624Y-17258592D01*
X62544028Y-17252536D01*
X62542937Y-17247602D01*
X62542937Y-17063969D01*
X62546364Y-17055696D01*
X62550624Y-17052979D01*
X63017634Y-16882455D01*
X63026578Y-16882836D01*
G37*
%TD.AperFunction*%
%TD*%
%TA.AperFunction,Conductor*%
%TO.N,P14*%
G36*
X64585250Y-17652979D02*
G01*
X64591846Y-17659035D01*
X64592937Y-17663969D01*
X64592937Y-17847602D01*
X64589510Y-17855875D01*
X64585250Y-17858592D01*
X64118242Y-18029116D01*
X64109295Y-18028735D01*
X64103433Y-18022637D01*
X63993820Y-17760295D01*
X63993794Y-17751342D01*
X63993799Y-17751328D01*
X64103433Y-17488933D01*
X64109785Y-17482622D01*
X64118239Y-17482455D01*
X64585250Y-17652979D01*
G37*
%TD.AperFunction*%
%TD*%
%TA.AperFunction,Conductor*%
%TO.N,P14*%
G36*
X67071345Y-18203206D02*
G01*
X67071556Y-18203422D01*
X68031938Y-19214745D01*
X68035150Y-19223104D01*
X68032937Y-19229655D01*
X67107560Y-20510154D01*
X67099937Y-20514852D01*
X67091224Y-20512784D01*
X67089015Y-20510702D01*
X66043107Y-19229978D01*
X66040528Y-19221402D01*
X66043893Y-19214307D01*
X66921868Y-18336138D01*
X67054800Y-18203205D01*
X67063072Y-18199779D01*
X67071345Y-18203206D01*
G37*
%TD.AperFunction*%
%TD*%
%TA.AperFunction,Conductor*%
%TO.N,P16*%
G36*
X45396404Y-22234463D02*
G01*
X45403000Y-22240519D01*
X45404091Y-22245453D01*
X45404091Y-22429086D01*
X45400664Y-22437359D01*
X45396404Y-22440076D01*
X44929396Y-22610600D01*
X44920449Y-22610219D01*
X44914587Y-22604121D01*
X44804974Y-22341779D01*
X44804948Y-22332826D01*
X44804953Y-22332812D01*
X44914587Y-22070417D01*
X44920939Y-22064106D01*
X44929393Y-22063939D01*
X45396404Y-22234463D01*
G37*
%TD.AperFunction*%
%TD*%
%TA.AperFunction,Conductor*%
%TO.N,P16*%
G36*
X48150999Y-23559213D02*
G01*
X48151423Y-23559659D01*
X49041423Y-24548549D01*
X49044410Y-24556991D01*
X49042002Y-24563506D01*
X48057213Y-25844717D01*
X48049455Y-25849188D01*
X48040807Y-25846863D01*
X48038661Y-25844717D01*
X47053871Y-24563506D01*
X47051546Y-24554858D01*
X47054450Y-24548549D01*
X47944451Y-23559659D01*
X47952533Y-23555802D01*
X47953148Y-23555786D01*
X48142726Y-23555786D01*
X48150999Y-23559213D01*
G37*
%TD.AperFunction*%
%TD*%
%TA.AperFunction,Conductor*%
%TO.N,P2*%
G36*
X44196686Y-21432748D02*
G01*
X44202368Y-21438760D01*
X44312052Y-21701275D01*
X44312079Y-21710230D01*
X44312052Y-21710297D01*
X44202525Y-21972434D01*
X44196173Y-21978746D01*
X44187503Y-21978833D01*
X43722400Y-21798680D01*
X43715923Y-21792496D01*
X43714926Y-21787770D01*
X43714926Y-21604118D01*
X43718353Y-21595845D01*
X43722798Y-21593062D01*
X44187748Y-21432214D01*
X44196686Y-21432748D01*
G37*
%TD.AperFunction*%
%TD*%
%TA.AperFunction,Conductor*%
%TO.N,P2*%
G36*
X36600999Y-25759213D02*
G01*
X36601423Y-25759659D01*
X37491423Y-26748549D01*
X37494410Y-26756991D01*
X37492002Y-26763506D01*
X36507213Y-28044717D01*
X36499455Y-28049188D01*
X36490807Y-28046863D01*
X36488661Y-28044717D01*
X35503871Y-26763506D01*
X35501546Y-26754858D01*
X35504450Y-26748549D01*
X36394451Y-25759659D01*
X36402533Y-25755802D01*
X36403148Y-25755786D01*
X36592726Y-25755786D01*
X36600999Y-25759213D01*
G37*
%TD.AperFunction*%
%TD*%
%TA.AperFunction,Conductor*%
%TO.N,P2*%
G36*
X17550999Y-33379213D02*
G01*
X17551423Y-33379659D01*
X18441423Y-34368549D01*
X18444410Y-34376991D01*
X18442002Y-34383506D01*
X17457213Y-35664717D01*
X17449455Y-35669188D01*
X17440807Y-35666863D01*
X17438661Y-35664717D01*
X16453871Y-34383506D01*
X16451546Y-34374858D01*
X16454450Y-34368549D01*
X17344451Y-33379659D01*
X17352533Y-33375802D01*
X17353148Y-33375786D01*
X17542726Y-33375786D01*
X17550999Y-33379213D01*
G37*
%TD.AperFunction*%
%TD*%
%TA.AperFunction,Conductor*%
%TO.N,P2*%
G36*
X25526578Y-28862836D02*
G01*
X25532440Y-28868934D01*
X25642052Y-29131275D01*
X25642079Y-29140230D01*
X25642052Y-29140297D01*
X25532440Y-29402637D01*
X25526088Y-29408949D01*
X25517631Y-29409115D01*
X25383884Y-29360279D01*
X25050624Y-29238592D01*
X25044028Y-29232536D01*
X25042937Y-29227602D01*
X25042937Y-29043969D01*
X25046364Y-29035696D01*
X25050624Y-29032979D01*
X25517634Y-28862455D01*
X25526578Y-28862836D01*
G37*
%TD.AperFunction*%
%TD*%
%TA.AperFunction,Conductor*%
%TO.N,P10*%
G36*
X29100999Y-31179213D02*
G01*
X29101423Y-31179659D01*
X29991423Y-32168549D01*
X29994410Y-32176991D01*
X29992002Y-32183506D01*
X29007213Y-33464717D01*
X28999455Y-33469188D01*
X28990807Y-33466863D01*
X28988661Y-33464717D01*
X28003871Y-32183506D01*
X28001546Y-32174858D01*
X28004450Y-32168549D01*
X28894451Y-31179659D01*
X28902533Y-31175802D01*
X28903148Y-31175786D01*
X29092726Y-31175786D01*
X29100999Y-31179213D01*
G37*
%TD.AperFunction*%
%TD*%
%TA.AperFunction,Conductor*%
%TO.N,P10*%
G36*
X25995250Y-29802979D02*
G01*
X26001846Y-29809035D01*
X26002937Y-29813969D01*
X26002937Y-29997602D01*
X25999510Y-30005875D01*
X25995250Y-30008592D01*
X25528242Y-30179116D01*
X25519295Y-30178735D01*
X25513433Y-30172637D01*
X25403820Y-29910295D01*
X25403794Y-29901342D01*
X25403799Y-29901328D01*
X25513433Y-29638933D01*
X25519785Y-29632622D01*
X25528239Y-29632455D01*
X25995250Y-29802979D01*
G37*
%TD.AperFunction*%
%TD*%
%TA.AperFunction,Conductor*%
%TO.N,P2*%
G36*
X94525730Y-35857213D02*
G01*
X94526445Y-35857996D01*
X95016102Y-36445584D01*
X95018766Y-36454133D01*
X95015394Y-36461340D01*
X94431217Y-37046492D01*
X94422947Y-37049926D01*
X94414671Y-37046506D01*
X94414657Y-37046492D01*
X93830479Y-36461340D01*
X93827059Y-36453064D01*
X93829770Y-36445586D01*
X94319429Y-35857996D01*
X94327358Y-35853834D01*
X94328417Y-35853786D01*
X94517457Y-35853786D01*
X94525730Y-35857213D01*
G37*
%TD.AperFunction*%
%TD*%
%TA.AperFunction,Conductor*%
%TO.N,P2*%
G36*
X93656408Y-31112227D02*
G01*
X93659669Y-31114527D01*
X94942358Y-32398203D01*
X94945782Y-32406476D01*
X94944850Y-32411048D01*
X94525965Y-33396662D01*
X94519575Y-33402936D01*
X94515197Y-33403786D01*
X94326935Y-33403786D01*
X94319774Y-33401338D01*
X94313733Y-33396662D01*
X93038372Y-32409546D01*
X93033928Y-32401774D01*
X93034962Y-32395282D01*
X93640824Y-31117782D01*
X93647464Y-31111778D01*
X93656408Y-31112227D01*
G37*
%TD.AperFunction*%
%TD*%
%TA.AperFunction,Conductor*%
%TO.N,P2*%
G36*
X75475730Y-33761713D02*
G01*
X75476445Y-33762496D01*
X75966102Y-34350084D01*
X75968766Y-34358633D01*
X75965394Y-34365840D01*
X75381217Y-34950992D01*
X75372947Y-34954426D01*
X75364671Y-34951006D01*
X75364657Y-34950992D01*
X74780479Y-34365840D01*
X74777059Y-34357564D01*
X74779770Y-34350086D01*
X75269429Y-33762496D01*
X75277358Y-33758334D01*
X75278417Y-33758286D01*
X75467457Y-33758286D01*
X75475730Y-33761713D01*
G37*
%TD.AperFunction*%
%TD*%
%TA.AperFunction,Conductor*%
%TO.N,P2*%
G36*
X74606408Y-29016727D02*
G01*
X74609669Y-29019027D01*
X75892358Y-30302703D01*
X75895782Y-30310976D01*
X75894850Y-30315548D01*
X75475965Y-31301162D01*
X75469575Y-31307436D01*
X75465197Y-31308286D01*
X75276935Y-31308286D01*
X75269774Y-31305838D01*
X75263733Y-31301162D01*
X73988372Y-30314046D01*
X73983928Y-30306274D01*
X73984962Y-30299782D01*
X74590824Y-29022282D01*
X74597464Y-29016278D01*
X74606408Y-29016727D01*
G37*
%TD.AperFunction*%
%TD*%
%TA.AperFunction,Conductor*%
%TO.N,P2*%
G36*
X56425730Y-27475213D02*
G01*
X56426445Y-27475996D01*
X56916102Y-28063584D01*
X56918766Y-28072133D01*
X56915394Y-28079340D01*
X56331217Y-28664492D01*
X56322947Y-28667926D01*
X56314671Y-28664506D01*
X56314657Y-28664492D01*
X55730479Y-28079340D01*
X55727059Y-28071064D01*
X55729770Y-28063586D01*
X56219429Y-27475996D01*
X56227358Y-27471834D01*
X56228417Y-27471786D01*
X56417457Y-27471786D01*
X56425730Y-27475213D01*
G37*
%TD.AperFunction*%
%TD*%
%TA.AperFunction,Conductor*%
%TO.N,P2*%
G36*
X55556408Y-22730227D02*
G01*
X55559669Y-22732527D01*
X56842358Y-24016203D01*
X56845782Y-24024476D01*
X56844850Y-24029048D01*
X56425965Y-25014662D01*
X56419575Y-25020936D01*
X56415197Y-25021786D01*
X56226935Y-25021786D01*
X56219774Y-25019338D01*
X56213733Y-25014662D01*
X54938372Y-24027546D01*
X54933928Y-24019774D01*
X54934962Y-24013282D01*
X55540824Y-22735782D01*
X55547464Y-22729778D01*
X55556408Y-22730227D01*
G37*
%TD.AperFunction*%
%TD*%
%TA.AperFunction,Conductor*%
%TO.N,P2*%
G36*
X37375730Y-32809213D02*
G01*
X37376445Y-32809996D01*
X37866102Y-33397584D01*
X37868766Y-33406133D01*
X37865394Y-33413340D01*
X37281217Y-33998492D01*
X37272947Y-34001926D01*
X37264671Y-33998506D01*
X37264657Y-33998492D01*
X36680479Y-33413340D01*
X36677059Y-33405064D01*
X36679770Y-33397586D01*
X37169429Y-32809996D01*
X37177358Y-32805834D01*
X37178417Y-32805786D01*
X37367457Y-32805786D01*
X37375730Y-32809213D01*
G37*
%TD.AperFunction*%
%TD*%
%TA.AperFunction,Conductor*%
%TO.N,P2*%
G36*
X36506408Y-28064227D02*
G01*
X36509669Y-28066527D01*
X37792358Y-29350203D01*
X37795782Y-29358476D01*
X37794850Y-29363048D01*
X37375965Y-30348662D01*
X37369575Y-30354936D01*
X37365197Y-30355786D01*
X37176935Y-30355786D01*
X37169774Y-30353338D01*
X37163733Y-30348662D01*
X35888372Y-29361546D01*
X35883928Y-29353774D01*
X35884962Y-29347282D01*
X36490824Y-28069782D01*
X36497464Y-28063778D01*
X36506408Y-28064227D01*
G37*
%TD.AperFunction*%
%TD*%
%TA.AperFunction,Conductor*%
%TO.N,P2*%
G36*
X17456408Y-35684227D02*
G01*
X17459669Y-35686527D01*
X18742358Y-36970203D01*
X18745782Y-36978476D01*
X18744850Y-36983048D01*
X18325965Y-37968662D01*
X18319575Y-37974936D01*
X18315197Y-37975786D01*
X18126935Y-37975786D01*
X18119774Y-37973338D01*
X18113733Y-37968662D01*
X16838372Y-36981546D01*
X16833928Y-36973774D01*
X16834962Y-36967282D01*
X17440824Y-35689782D01*
X17447464Y-35683778D01*
X17456408Y-35684227D01*
G37*
%TD.AperFunction*%
%TD*%
%TA.AperFunction,Conductor*%
%TO.N,P2*%
G36*
X18325730Y-40429213D02*
G01*
X18326445Y-40429996D01*
X18816102Y-41017584D01*
X18818766Y-41026133D01*
X18815394Y-41033340D01*
X18231217Y-41618492D01*
X18222947Y-41621926D01*
X18214671Y-41618506D01*
X18214657Y-41618492D01*
X17630479Y-41033340D01*
X17627059Y-41025064D01*
X17629770Y-41017586D01*
X18119429Y-40429996D01*
X18127358Y-40425834D01*
X18128417Y-40425786D01*
X18317457Y-40425786D01*
X18325730Y-40429213D01*
G37*
%TD.AperFunction*%
%TD*%
%TA.AperFunction,Conductor*%
%TO.N,P2*%
G36*
X75971068Y-37514236D02*
G01*
X75977391Y-37520577D01*
X75977394Y-37520584D01*
X76464941Y-38704626D01*
X76464922Y-38713581D01*
X76462395Y-38717354D01*
X76332005Y-38847744D01*
X76323732Y-38851171D01*
X76319277Y-38850290D01*
X75135235Y-38362743D01*
X75128890Y-38356424D01*
X75128871Y-38347470D01*
X75370374Y-37762076D01*
X75376697Y-37755736D01*
X75962114Y-37514223D01*
X75971068Y-37514236D01*
G37*
%TD.AperFunction*%
%TD*%
%TA.AperFunction,Conductor*%
%TO.N,P2*%
G36*
X93830491Y-39261328D02*
G01*
X94415643Y-39845506D01*
X94419077Y-39853776D01*
X94415657Y-39862052D01*
X94415643Y-39862066D01*
X93830491Y-40446243D01*
X93822215Y-40449663D01*
X93814735Y-40446951D01*
X93227147Y-39957294D01*
X93222985Y-39949365D01*
X93222937Y-39948306D01*
X93222937Y-39759265D01*
X93226364Y-39750992D01*
X93227138Y-39750284D01*
X93814736Y-39260619D01*
X93823284Y-39257956D01*
X93830491Y-39261328D01*
G37*
%TD.AperFunction*%
%TD*%
%TA.AperFunction,Conductor*%
%TO.N,P5*%
G36*
X125696216Y-97347158D02*
G01*
X125698768Y-97349091D01*
X125829958Y-97480281D01*
X125833385Y-97488554D01*
X125832600Y-97492769D01*
X125395647Y-98624365D01*
X125389470Y-98630848D01*
X125380517Y-98631065D01*
X125378543Y-98630079D01*
X124871954Y-98314334D01*
X124866746Y-98307050D01*
X124866739Y-98307018D01*
X124849296Y-98230898D01*
X124712123Y-97632278D01*
X124713615Y-97623451D01*
X124720355Y-97618405D01*
X125687326Y-97346102D01*
X125696216Y-97347158D01*
G37*
%TD.AperFunction*%
%TD*%
%TA.AperFunction,Conductor*%
%TO.N,P5*%
G36*
X126082940Y-92444685D02*
G01*
X126085316Y-92447967D01*
X126878911Y-94079674D01*
X126879447Y-94088612D01*
X126876764Y-94092961D01*
X126181459Y-94805747D01*
X126173229Y-94809276D01*
X126173084Y-94809277D01*
X125984266Y-94809277D01*
X125975993Y-94805850D01*
X125974541Y-94804083D01*
X125498805Y-94092961D01*
X125083274Y-93471833D01*
X125081524Y-93463053D01*
X125084600Y-93457184D01*
X126066395Y-92444937D01*
X126074615Y-92441385D01*
X126082940Y-92444685D01*
G37*
%TD.AperFunction*%
%TD*%
%TA.AperFunction,Conductor*%
%TO.N,P5*%
G36*
X105207463Y-88561449D02*
G01*
X105209336Y-88563846D01*
X106059882Y-90006186D01*
X106061133Y-90015053D01*
X106057286Y-90021124D01*
X105084573Y-90830234D01*
X105077091Y-90832939D01*
X104887462Y-90832939D01*
X104879189Y-90829512D01*
X104877833Y-90827885D01*
X104316844Y-90015053D01*
X104093157Y-89690948D01*
X104091279Y-89682193D01*
X104094447Y-89676098D01*
X105188693Y-88563846D01*
X105190919Y-88561583D01*
X105199163Y-88558089D01*
X105207463Y-88561449D01*
G37*
%TD.AperFunction*%
%TD*%
%TA.AperFunction,Conductor*%
%TO.N,P5*%
G36*
X105083569Y-93342982D02*
G01*
X105084820Y-93344459D01*
X105575069Y-94031470D01*
X105577085Y-94040195D01*
X105573111Y-94047190D01*
X104991035Y-94540706D01*
X104982509Y-94543443D01*
X104974545Y-94539348D01*
X104973943Y-94538576D01*
X104493863Y-93863931D01*
X104491860Y-93855205D01*
X104494073Y-93850080D01*
X104877810Y-93344184D01*
X104885540Y-93339664D01*
X104887132Y-93339555D01*
X105075296Y-93339555D01*
X105083569Y-93342982D01*
G37*
%TD.AperFunction*%
%TD*%
%TA.AperFunction,Conductor*%
%TO.N,P5*%
G36*
X85000730Y-93007213D02*
G01*
X85001445Y-93007996D01*
X85491102Y-93595584D01*
X85493766Y-93604133D01*
X85490394Y-93611340D01*
X84906217Y-94196492D01*
X84897947Y-94199926D01*
X84889671Y-94196506D01*
X84889657Y-94196492D01*
X84305479Y-93611340D01*
X84302059Y-93603064D01*
X84304770Y-93595586D01*
X84794429Y-93007996D01*
X84802358Y-93003834D01*
X84803417Y-93003786D01*
X84992457Y-93003786D01*
X85000730Y-93007213D01*
G37*
%TD.AperFunction*%
%TD*%
%TA.AperFunction,Conductor*%
%TO.N,P5*%
G36*
X84131408Y-88262227D02*
G01*
X84134669Y-88264527D01*
X85417358Y-89548203D01*
X85420782Y-89556476D01*
X85419850Y-89561048D01*
X85000965Y-90546662D01*
X84994575Y-90552936D01*
X84990197Y-90553786D01*
X84801935Y-90553786D01*
X84794774Y-90551338D01*
X84788733Y-90546662D01*
X83513372Y-89559546D01*
X83508928Y-89551774D01*
X83509962Y-89545282D01*
X84115824Y-88267782D01*
X84122464Y-88261778D01*
X84131408Y-88262227D01*
G37*
%TD.AperFunction*%
%TD*%
%TA.AperFunction,Conductor*%
%TO.N,P4*%
G36*
X36506408Y-66164227D02*
G01*
X36509669Y-66166527D01*
X37792358Y-67450203D01*
X37795782Y-67458476D01*
X37794850Y-67463048D01*
X37375965Y-68448662D01*
X37369575Y-68454936D01*
X37365197Y-68455786D01*
X37176935Y-68455786D01*
X37169774Y-68453338D01*
X37163733Y-68448662D01*
X35888372Y-67461546D01*
X35883928Y-67453774D01*
X35884962Y-67447282D01*
X36490824Y-66169782D01*
X36497464Y-66163778D01*
X36506408Y-66164227D01*
G37*
%TD.AperFunction*%
%TD*%
%TA.AperFunction,Conductor*%
%TO.N,P4*%
G36*
X37375730Y-70909213D02*
G01*
X37376445Y-70909996D01*
X37866102Y-71497584D01*
X37868766Y-71506133D01*
X37865394Y-71513340D01*
X37281217Y-72098492D01*
X37272947Y-72101926D01*
X37264671Y-72098506D01*
X37264657Y-72098492D01*
X36680479Y-71513340D01*
X36677059Y-71505064D01*
X36679770Y-71497586D01*
X37169429Y-70909996D01*
X37177358Y-70905834D01*
X37178417Y-70905786D01*
X37367457Y-70905786D01*
X37375730Y-70909213D01*
G37*
%TD.AperFunction*%
%TD*%
%TA.AperFunction,Conductor*%
%TO.N,P4*%
G36*
X56425730Y-65575213D02*
G01*
X56426445Y-65575996D01*
X56916102Y-66163584D01*
X56918766Y-66172133D01*
X56915394Y-66179340D01*
X56331217Y-66764492D01*
X56322947Y-66767926D01*
X56314671Y-66764506D01*
X56314657Y-66764492D01*
X55730479Y-66179340D01*
X55727059Y-66171064D01*
X55729770Y-66163586D01*
X56219429Y-65575996D01*
X56227358Y-65571834D01*
X56228417Y-65571786D01*
X56417457Y-65571786D01*
X56425730Y-65575213D01*
G37*
%TD.AperFunction*%
%TD*%
%TA.AperFunction,Conductor*%
%TO.N,P4*%
G36*
X55556408Y-60830227D02*
G01*
X55559669Y-60832527D01*
X56842358Y-62116203D01*
X56845782Y-62124476D01*
X56844850Y-62129048D01*
X56425965Y-63114662D01*
X56419575Y-63120936D01*
X56415197Y-63121786D01*
X56226935Y-63121786D01*
X56219774Y-63119338D01*
X56213733Y-63114662D01*
X54938372Y-62127546D01*
X54933928Y-62119774D01*
X54934962Y-62113282D01*
X55540824Y-60835782D01*
X55547464Y-60829778D01*
X55556408Y-60830227D01*
G37*
%TD.AperFunction*%
%TD*%
%TA.AperFunction,Conductor*%
%TO.N,P4*%
G36*
X75475730Y-71861713D02*
G01*
X75476445Y-71862496D01*
X75966102Y-72450084D01*
X75968766Y-72458633D01*
X75965394Y-72465840D01*
X75381217Y-73050992D01*
X75372947Y-73054426D01*
X75364671Y-73051006D01*
X75364657Y-73050992D01*
X74780479Y-72465840D01*
X74777059Y-72457564D01*
X74779770Y-72450086D01*
X75269429Y-71862496D01*
X75277358Y-71858334D01*
X75278417Y-71858286D01*
X75467457Y-71858286D01*
X75475730Y-71861713D01*
G37*
%TD.AperFunction*%
%TD*%
%TA.AperFunction,Conductor*%
%TO.N,P4*%
G36*
X74606408Y-67116727D02*
G01*
X74609669Y-67119027D01*
X75892358Y-68402703D01*
X75895782Y-68410976D01*
X75894850Y-68415548D01*
X75475965Y-69401162D01*
X75469575Y-69407436D01*
X75465197Y-69408286D01*
X75276935Y-69408286D01*
X75269774Y-69405838D01*
X75263733Y-69401162D01*
X73988372Y-68414046D01*
X73983928Y-68406274D01*
X73984962Y-68399782D01*
X74590824Y-67122282D01*
X74597464Y-67116278D01*
X74606408Y-67116727D01*
G37*
%TD.AperFunction*%
%TD*%
%TA.AperFunction,Conductor*%
%TO.N,P4*%
G36*
X94525730Y-73957213D02*
G01*
X94526445Y-73957996D01*
X95016102Y-74545584D01*
X95018766Y-74554133D01*
X95015394Y-74561340D01*
X94431217Y-75146492D01*
X94422947Y-75149926D01*
X94414671Y-75146506D01*
X94414657Y-75146492D01*
X93830479Y-74561340D01*
X93827059Y-74553064D01*
X93829770Y-74545586D01*
X94319429Y-73957996D01*
X94327358Y-73953834D01*
X94328417Y-73953786D01*
X94517457Y-73953786D01*
X94525730Y-73957213D01*
G37*
%TD.AperFunction*%
%TD*%
%TA.AperFunction,Conductor*%
%TO.N,P4*%
G36*
X93656408Y-69212227D02*
G01*
X93659669Y-69214527D01*
X94942358Y-70498203D01*
X94945782Y-70506476D01*
X94944850Y-70511048D01*
X94525965Y-71496662D01*
X94519575Y-71502936D01*
X94515197Y-71503786D01*
X94326935Y-71503786D01*
X94319774Y-71501338D01*
X94313733Y-71496662D01*
X93038372Y-70509546D01*
X93033928Y-70501774D01*
X93034962Y-70495282D01*
X93640824Y-69217782D01*
X93647464Y-69211778D01*
X93656408Y-69212227D01*
G37*
%TD.AperFunction*%
%TD*%
%TA.AperFunction,Conductor*%
%TO.N,P3*%
G36*
X94525730Y-54907213D02*
G01*
X94526445Y-54907996D01*
X95016102Y-55495584D01*
X95018766Y-55504133D01*
X95015394Y-55511340D01*
X94431217Y-56096492D01*
X94422947Y-56099926D01*
X94414671Y-56096506D01*
X94414657Y-56096492D01*
X93830479Y-55511340D01*
X93827059Y-55503064D01*
X93829770Y-55495586D01*
X94319429Y-54907996D01*
X94327358Y-54903834D01*
X94328417Y-54903786D01*
X94517457Y-54903786D01*
X94525730Y-54907213D01*
G37*
%TD.AperFunction*%
%TD*%
%TA.AperFunction,Conductor*%
%TO.N,P3*%
G36*
X93656408Y-50162227D02*
G01*
X93659669Y-50164527D01*
X94942358Y-51448203D01*
X94945782Y-51456476D01*
X94944850Y-51461048D01*
X94525965Y-52446662D01*
X94519575Y-52452936D01*
X94515197Y-52453786D01*
X94326935Y-52453786D01*
X94319774Y-52451338D01*
X94313733Y-52446662D01*
X93038372Y-51459546D01*
X93033928Y-51451774D01*
X93034962Y-51445282D01*
X93640824Y-50167782D01*
X93647464Y-50161778D01*
X93656408Y-50162227D01*
G37*
%TD.AperFunction*%
%TD*%
%TA.AperFunction,Conductor*%
%TO.N,P3*%
G36*
X74606408Y-48066727D02*
G01*
X74609669Y-48069027D01*
X75892358Y-49352703D01*
X75895782Y-49360976D01*
X75894850Y-49365548D01*
X75475965Y-50351162D01*
X75469575Y-50357436D01*
X75465197Y-50358286D01*
X75276935Y-50358286D01*
X75269774Y-50355838D01*
X75263733Y-50351162D01*
X73988372Y-49364046D01*
X73983928Y-49356274D01*
X73984962Y-49349782D01*
X74590824Y-48072282D01*
X74597464Y-48066278D01*
X74606408Y-48066727D01*
G37*
%TD.AperFunction*%
%TD*%
%TA.AperFunction,Conductor*%
%TO.N,P3*%
G36*
X75475730Y-52811713D02*
G01*
X75476445Y-52812496D01*
X75966102Y-53400084D01*
X75968766Y-53408633D01*
X75965394Y-53415840D01*
X75381217Y-54000992D01*
X75372947Y-54004426D01*
X75364671Y-54001006D01*
X75364657Y-54000992D01*
X74780479Y-53415840D01*
X74777059Y-53407564D01*
X74779770Y-53400086D01*
X75269429Y-52812496D01*
X75277358Y-52808334D01*
X75278417Y-52808286D01*
X75467457Y-52808286D01*
X75475730Y-52811713D01*
G37*
%TD.AperFunction*%
%TD*%
%TA.AperFunction,Conductor*%
%TO.N,P3*%
G36*
X55556408Y-41780227D02*
G01*
X55559669Y-41782527D01*
X56842358Y-43066203D01*
X56845782Y-43074476D01*
X56844850Y-43079048D01*
X56425965Y-44064662D01*
X56419575Y-44070936D01*
X56415197Y-44071786D01*
X56226935Y-44071786D01*
X56219774Y-44069338D01*
X56213733Y-44064662D01*
X54938372Y-43077546D01*
X54933928Y-43069774D01*
X54934962Y-43063282D01*
X55540824Y-41785782D01*
X55547464Y-41779778D01*
X55556408Y-41780227D01*
G37*
%TD.AperFunction*%
%TD*%
%TA.AperFunction,Conductor*%
%TO.N,P3*%
G36*
X56425730Y-46525213D02*
G01*
X56426445Y-46525996D01*
X56916102Y-47113584D01*
X56918766Y-47122133D01*
X56915394Y-47129340D01*
X56331217Y-47714492D01*
X56322947Y-47717926D01*
X56314671Y-47714506D01*
X56314657Y-47714492D01*
X55730479Y-47129340D01*
X55727059Y-47121064D01*
X55729770Y-47113586D01*
X56219429Y-46525996D01*
X56227358Y-46521834D01*
X56228417Y-46521786D01*
X56417457Y-46521786D01*
X56425730Y-46525213D01*
G37*
%TD.AperFunction*%
%TD*%
%TA.AperFunction,Conductor*%
%TO.N,P3*%
G36*
X36506408Y-47114227D02*
G01*
X36509669Y-47116527D01*
X37792358Y-48400203D01*
X37795782Y-48408476D01*
X37794850Y-48413048D01*
X37375965Y-49398662D01*
X37369575Y-49404936D01*
X37365197Y-49405786D01*
X37176935Y-49405786D01*
X37169774Y-49403338D01*
X37163733Y-49398662D01*
X35888372Y-48411546D01*
X35883928Y-48403774D01*
X35884962Y-48397282D01*
X36490824Y-47119782D01*
X36497464Y-47113778D01*
X36506408Y-47114227D01*
G37*
%TD.AperFunction*%
%TD*%
%TA.AperFunction,Conductor*%
%TO.N,P3*%
G36*
X37375730Y-51859213D02*
G01*
X37376445Y-51859996D01*
X37866102Y-52447584D01*
X37868766Y-52456133D01*
X37865394Y-52463340D01*
X37281217Y-53048492D01*
X37272947Y-53051926D01*
X37264671Y-53048506D01*
X37264657Y-53048492D01*
X36680479Y-52463340D01*
X36677059Y-52455064D01*
X36679770Y-52447586D01*
X37169429Y-51859996D01*
X37177358Y-51855834D01*
X37178417Y-51855786D01*
X37367457Y-51855786D01*
X37375730Y-51859213D01*
G37*
%TD.AperFunction*%
%TD*%
%TA.AperFunction,Conductor*%
%TO.N,P3*%
G36*
X75971068Y-56564236D02*
G01*
X75977391Y-56570577D01*
X75977394Y-56570584D01*
X76464941Y-57754626D01*
X76464922Y-57763581D01*
X76462395Y-57767354D01*
X76332005Y-57897744D01*
X76323732Y-57901171D01*
X76319277Y-57900290D01*
X75135235Y-57412743D01*
X75128890Y-57406424D01*
X75128871Y-57397470D01*
X75370374Y-56812076D01*
X75376697Y-56805736D01*
X75962114Y-56564223D01*
X75971068Y-56564236D01*
G37*
%TD.AperFunction*%
%TD*%
%TA.AperFunction,Conductor*%
%TO.N,P3*%
G36*
X93830491Y-58311328D02*
G01*
X94415643Y-58895506D01*
X94419077Y-58903776D01*
X94415657Y-58912052D01*
X94415643Y-58912066D01*
X93830491Y-59496243D01*
X93822215Y-59499663D01*
X93814735Y-59496951D01*
X93227147Y-59007294D01*
X93222985Y-58999365D01*
X93222937Y-58998306D01*
X93222937Y-58809265D01*
X93226364Y-58800992D01*
X93227138Y-58800284D01*
X93814736Y-58310619D01*
X93823284Y-58307956D01*
X93830491Y-58311328D01*
G37*
%TD.AperFunction*%
%TD*%
%TA.AperFunction,Conductor*%
%TO.N,P3*%
G36*
X17456408Y-54734227D02*
G01*
X17459669Y-54736527D01*
X18742358Y-56020203D01*
X18745782Y-56028476D01*
X18744850Y-56033048D01*
X18325965Y-57018662D01*
X18319575Y-57024936D01*
X18315197Y-57025786D01*
X18126935Y-57025786D01*
X18119774Y-57023338D01*
X18113733Y-57018662D01*
X16838372Y-56031546D01*
X16833928Y-56023774D01*
X16834962Y-56017282D01*
X17440824Y-54739782D01*
X17447464Y-54733778D01*
X17456408Y-54734227D01*
G37*
%TD.AperFunction*%
%TD*%
%TA.AperFunction,Conductor*%
%TO.N,P3*%
G36*
X18325730Y-59479213D02*
G01*
X18326445Y-59479996D01*
X18816102Y-60067584D01*
X18818766Y-60076133D01*
X18815394Y-60083340D01*
X18231217Y-60668492D01*
X18222947Y-60671926D01*
X18214671Y-60668506D01*
X18214657Y-60668492D01*
X17630479Y-60083340D01*
X17627059Y-60075064D01*
X17629770Y-60067586D01*
X18119429Y-59479996D01*
X18127358Y-59475834D01*
X18128417Y-59475786D01*
X18317457Y-59475786D01*
X18325730Y-59479213D01*
G37*
%TD.AperFunction*%
%TD*%
%TA.AperFunction,Conductor*%
%TO.N,P4*%
G36*
X17456408Y-73784227D02*
G01*
X17459669Y-73786527D01*
X18742358Y-75070203D01*
X18745782Y-75078476D01*
X18744850Y-75083048D01*
X18325965Y-76068662D01*
X18319575Y-76074936D01*
X18315197Y-76075786D01*
X18126935Y-76075786D01*
X18119774Y-76073338D01*
X18113733Y-76068662D01*
X16838372Y-75081546D01*
X16833928Y-75073774D01*
X16834962Y-75067282D01*
X17440824Y-73789782D01*
X17447464Y-73783778D01*
X17456408Y-73784227D01*
G37*
%TD.AperFunction*%
%TD*%
%TA.AperFunction,Conductor*%
%TO.N,P4*%
G36*
X18325730Y-78529213D02*
G01*
X18326445Y-78529996D01*
X18816102Y-79117584D01*
X18818766Y-79126133D01*
X18815394Y-79133340D01*
X18231217Y-79718492D01*
X18222947Y-79721926D01*
X18214671Y-79718506D01*
X18214657Y-79718492D01*
X17630479Y-79133340D01*
X17627059Y-79125064D01*
X17629770Y-79117586D01*
X18119429Y-78529996D01*
X18127358Y-78525834D01*
X18128417Y-78525786D01*
X18317457Y-78525786D01*
X18325730Y-78529213D01*
G37*
%TD.AperFunction*%
%TD*%
%TA.AperFunction,Conductor*%
%TO.N,_1_0*%
G36*
X116638767Y-33653591D02*
G01*
X116639357Y-33653856D01*
X117995918Y-34307595D01*
X118001883Y-34314274D01*
X118002539Y-34318135D01*
X118002539Y-34553417D01*
X117999112Y-34561690D01*
X117995893Y-34563969D01*
X116639343Y-35213754D01*
X116630402Y-35214237D01*
X116623737Y-35208256D01*
X116623484Y-35207691D01*
X116303802Y-34438275D01*
X116303793Y-34429320D01*
X116303802Y-34429297D01*
X116349988Y-34318135D01*
X116623473Y-33659906D01*
X116629812Y-33653582D01*
X116638767Y-33653591D01*
G37*
%TD.AperFunction*%
%TD*%
%TA.AperFunction,Conductor*%
%TO.N,_1_25*%
G36*
X131222135Y-33659317D02*
G01*
X131222400Y-33659907D01*
X131542071Y-34429297D01*
X131542080Y-34438252D01*
X131542071Y-34438275D01*
X131222389Y-35207691D01*
X131216050Y-35214016D01*
X131207095Y-35214007D01*
X131206530Y-35213754D01*
X129849981Y-34563969D01*
X129844000Y-34557304D01*
X129843335Y-34553417D01*
X129843335Y-34318135D01*
X129846762Y-34309862D01*
X129849954Y-34307595D01*
X131206517Y-33653855D01*
X131215456Y-33653352D01*
X131222135Y-33659317D01*
G37*
%TD.AperFunction*%
%TD*%
%TA.AperFunction,Conductor*%
%TO.N,B+*%
G36*
X126716908Y-33782287D02*
G01*
X127113003Y-33962093D01*
X127327729Y-34059567D01*
X127333846Y-34066107D01*
X127333713Y-34074674D01*
X127187495Y-34429986D01*
X127181177Y-34436332D01*
X127181127Y-34436353D01*
X126825870Y-34582544D01*
X126816916Y-34582523D01*
X126810743Y-34576513D01*
X126585591Y-34074674D01*
X126535080Y-33962092D01*
X126534821Y-33953142D01*
X126537530Y-33948984D01*
X126703851Y-33784619D01*
X126712143Y-33781242D01*
X126716908Y-33782287D01*
G37*
%TD.AperFunction*%
%TD*%
%TA.AperFunction,Conductor*%
%TO.N,B-*%
G36*
X121028915Y-34285066D02*
G01*
X121035107Y-34291118D01*
X121308584Y-34907218D01*
X121308808Y-34916170D01*
X121306114Y-34920287D01*
X121139793Y-35084651D01*
X121131500Y-35088029D01*
X121126694Y-35086965D01*
X120518089Y-34808024D01*
X120511996Y-34801462D01*
X120512143Y-34792937D01*
X120658379Y-34437583D01*
X120664695Y-34431239D01*
X121019961Y-34285045D01*
X121028915Y-34285066D01*
G37*
%TD.AperFunction*%
%TD*%
%TA.AperFunction,Conductor*%
%TO.N,_1_1*%
G36*
X116638767Y-36193591D02*
G01*
X116639357Y-36193856D01*
X117995918Y-36847595D01*
X118001883Y-36854274D01*
X118002539Y-36858135D01*
X118002539Y-37093417D01*
X117999112Y-37101690D01*
X117995893Y-37103969D01*
X116639343Y-37753754D01*
X116630402Y-37754237D01*
X116623737Y-37748256D01*
X116623484Y-37747691D01*
X116303802Y-36978275D01*
X116303793Y-36969320D01*
X116303802Y-36969297D01*
X116349988Y-36858135D01*
X116623473Y-36199906D01*
X116629812Y-36193582D01*
X116638767Y-36193591D01*
G37*
%TD.AperFunction*%
%TD*%
%TA.AperFunction,Conductor*%
%TO.N,_1_24*%
G36*
X131222135Y-36199317D02*
G01*
X131222400Y-36199907D01*
X131542071Y-36969297D01*
X131542080Y-36978252D01*
X131542071Y-36978275D01*
X131222389Y-37747691D01*
X131216050Y-37754016D01*
X131207095Y-37754007D01*
X131206530Y-37753754D01*
X129849981Y-37103969D01*
X129844000Y-37097304D01*
X129843335Y-37093417D01*
X129843335Y-36858135D01*
X129846762Y-36849862D01*
X129849954Y-36847595D01*
X131206517Y-36193855D01*
X131215456Y-36193352D01*
X131222135Y-36199317D01*
G37*
%TD.AperFunction*%
%TD*%
%TA.AperFunction,Conductor*%
%TO.N,RAW*%
G36*
X126716908Y-36322287D02*
G01*
X127113003Y-36502093D01*
X127327729Y-36599567D01*
X127333846Y-36606107D01*
X127333713Y-36614674D01*
X127187495Y-36969986D01*
X127181177Y-36976332D01*
X127181127Y-36976353D01*
X126825870Y-37122544D01*
X126816916Y-37122523D01*
X126810743Y-37116513D01*
X126585591Y-36614674D01*
X126535080Y-36502092D01*
X126534821Y-36493142D01*
X126537530Y-36488984D01*
X126703851Y-36324619D01*
X126712143Y-36321242D01*
X126716908Y-36322287D01*
G37*
%TD.AperFunction*%
%TD*%
%TA.AperFunction,Conductor*%
%TO.N,P1*%
G36*
X121028915Y-36825066D02*
G01*
X121035107Y-36831118D01*
X121308584Y-37447218D01*
X121308808Y-37456170D01*
X121306114Y-37460287D01*
X121139793Y-37624651D01*
X121131500Y-37628029D01*
X121126694Y-37626965D01*
X120518089Y-37348024D01*
X120511996Y-37341462D01*
X120512143Y-37332937D01*
X120658379Y-36977583D01*
X120664695Y-36971239D01*
X121019961Y-36825045D01*
X121028915Y-36825066D01*
G37*
%TD.AperFunction*%
%TD*%
%TA.AperFunction,Conductor*%
%TO.N,_1_2*%
G36*
X116638767Y-38733591D02*
G01*
X116639357Y-38733856D01*
X117995918Y-39387595D01*
X118001883Y-39394274D01*
X118002539Y-39398135D01*
X118002539Y-39633417D01*
X117999112Y-39641690D01*
X117995893Y-39643969D01*
X116639343Y-40293754D01*
X116630402Y-40294237D01*
X116623737Y-40288256D01*
X116623484Y-40287691D01*
X116303802Y-39518275D01*
X116303793Y-39509320D01*
X116303802Y-39509297D01*
X116349988Y-39398135D01*
X116623473Y-38739906D01*
X116629812Y-38733582D01*
X116638767Y-38733591D01*
G37*
%TD.AperFunction*%
%TD*%
%TA.AperFunction,Conductor*%
%TO.N,_1_23*%
G36*
X131222135Y-38739317D02*
G01*
X131222400Y-38739907D01*
X131542071Y-39509297D01*
X131542080Y-39518252D01*
X131542071Y-39518275D01*
X131222389Y-40287691D01*
X131216050Y-40294016D01*
X131207095Y-40294007D01*
X131206530Y-40293754D01*
X129849981Y-39643969D01*
X129844000Y-39637304D01*
X129843335Y-39633417D01*
X129843335Y-39398135D01*
X129846762Y-39389862D01*
X129849954Y-39387595D01*
X131206517Y-38733855D01*
X131215456Y-38733352D01*
X131222135Y-38739317D01*
G37*
%TD.AperFunction*%
%TD*%
%TA.AperFunction,Conductor*%
%TO.N,GND*%
G36*
X126716908Y-38862287D02*
G01*
X127113003Y-39042093D01*
X127327729Y-39139567D01*
X127333846Y-39146107D01*
X127333713Y-39154674D01*
X127187495Y-39509986D01*
X127181177Y-39516332D01*
X127181127Y-39516353D01*
X126825870Y-39662544D01*
X126816916Y-39662523D01*
X126810743Y-39656513D01*
X126585591Y-39154674D01*
X126535080Y-39042092D01*
X126534821Y-39033142D01*
X126537530Y-39028984D01*
X126703851Y-38864619D01*
X126712143Y-38861242D01*
X126716908Y-38862287D01*
G37*
%TD.AperFunction*%
%TD*%
%TA.AperFunction,Conductor*%
%TO.N,P0*%
G36*
X121028915Y-39365066D02*
G01*
X121035107Y-39371118D01*
X121308584Y-39987218D01*
X121308808Y-39996170D01*
X121306114Y-40000287D01*
X121139793Y-40164651D01*
X121131500Y-40168029D01*
X121126694Y-40166965D01*
X120518089Y-39888024D01*
X120511996Y-39881462D01*
X120512143Y-39872937D01*
X120658379Y-39517583D01*
X120664695Y-39511239D01*
X121019961Y-39365045D01*
X121028915Y-39365066D01*
G37*
%TD.AperFunction*%
%TD*%
%TA.AperFunction,Conductor*%
%TO.N,_1_3*%
G36*
X116638767Y-41273591D02*
G01*
X116639357Y-41273856D01*
X117995918Y-41927595D01*
X118001883Y-41934274D01*
X118002539Y-41938135D01*
X118002539Y-42173417D01*
X117999112Y-42181690D01*
X117995893Y-42183969D01*
X116639343Y-42833754D01*
X116630402Y-42834237D01*
X116623737Y-42828256D01*
X116623484Y-42827691D01*
X116303802Y-42058275D01*
X116303793Y-42049320D01*
X116303802Y-42049297D01*
X116349988Y-41938135D01*
X116623473Y-41279906D01*
X116629812Y-41273582D01*
X116638767Y-41273591D01*
G37*
%TD.AperFunction*%
%TD*%
%TA.AperFunction,Conductor*%
%TO.N,_1_22*%
G36*
X131222135Y-41279317D02*
G01*
X131222400Y-41279907D01*
X131542071Y-42049297D01*
X131542080Y-42058252D01*
X131542071Y-42058275D01*
X131222389Y-42827691D01*
X131216050Y-42834016D01*
X131207095Y-42834007D01*
X131206530Y-42833754D01*
X129849981Y-42183969D01*
X129844000Y-42177304D01*
X129843335Y-42173417D01*
X129843335Y-41938135D01*
X129846762Y-41929862D01*
X129849954Y-41927595D01*
X131206517Y-41273855D01*
X131215456Y-41273352D01*
X131222135Y-41279317D01*
G37*
%TD.AperFunction*%
%TD*%
%TA.AperFunction,Conductor*%
%TO.N,RST*%
G36*
X126716908Y-41402287D02*
G01*
X127113003Y-41582093D01*
X127327729Y-41679567D01*
X127333846Y-41686107D01*
X127333713Y-41694674D01*
X127187495Y-42049986D01*
X127181177Y-42056332D01*
X127181127Y-42056353D01*
X126825870Y-42202544D01*
X126816916Y-42202523D01*
X126810743Y-42196513D01*
X126585591Y-41694674D01*
X126535080Y-41582092D01*
X126534821Y-41573142D01*
X126537530Y-41568984D01*
X126703851Y-41404619D01*
X126712143Y-41401242D01*
X126716908Y-41402287D01*
G37*
%TD.AperFunction*%
%TD*%
%TA.AperFunction,Conductor*%
%TO.N,GND*%
G36*
X121028915Y-41905066D02*
G01*
X121035107Y-41911118D01*
X121308584Y-42527218D01*
X121308808Y-42536170D01*
X121306114Y-42540287D01*
X121139793Y-42704651D01*
X121131500Y-42708029D01*
X121126694Y-42706965D01*
X120518089Y-42428024D01*
X120511996Y-42421462D01*
X120512143Y-42412937D01*
X120658379Y-42057583D01*
X120664695Y-42051239D01*
X121019961Y-41905045D01*
X121028915Y-41905066D01*
G37*
%TD.AperFunction*%
%TD*%
%TA.AperFunction,Conductor*%
%TO.N,_1_4*%
G36*
X116638767Y-43813591D02*
G01*
X116639357Y-43813856D01*
X117995918Y-44467595D01*
X118001883Y-44474274D01*
X118002539Y-44478135D01*
X118002539Y-44713417D01*
X117999112Y-44721690D01*
X117995893Y-44723969D01*
X116639343Y-45373754D01*
X116630402Y-45374237D01*
X116623737Y-45368256D01*
X116623484Y-45367691D01*
X116303802Y-44598275D01*
X116303793Y-44589320D01*
X116303802Y-44589297D01*
X116349988Y-44478135D01*
X116623473Y-43819906D01*
X116629812Y-43813582D01*
X116638767Y-43813591D01*
G37*
%TD.AperFunction*%
%TD*%
%TA.AperFunction,Conductor*%
%TO.N,_1_21*%
G36*
X131222135Y-43819317D02*
G01*
X131222400Y-43819907D01*
X131542071Y-44589297D01*
X131542080Y-44598252D01*
X131542071Y-44598275D01*
X131222389Y-45367691D01*
X131216050Y-45374016D01*
X131207095Y-45374007D01*
X131206530Y-45373754D01*
X129849981Y-44723969D01*
X129844000Y-44717304D01*
X129843335Y-44713417D01*
X129843335Y-44478135D01*
X129846762Y-44469862D01*
X129849954Y-44467595D01*
X131206517Y-43813855D01*
X131215456Y-43813352D01*
X131222135Y-43819317D01*
G37*
%TD.AperFunction*%
%TD*%
%TA.AperFunction,Conductor*%
%TO.N,VCC*%
G36*
X126716908Y-43942287D02*
G01*
X127113003Y-44122093D01*
X127327729Y-44219567D01*
X127333846Y-44226107D01*
X127333713Y-44234674D01*
X127187495Y-44589986D01*
X127181177Y-44596332D01*
X127181127Y-44596353D01*
X126825870Y-44742544D01*
X126816916Y-44742523D01*
X126810743Y-44736513D01*
X126585591Y-44234674D01*
X126535080Y-44122092D01*
X126534821Y-44113142D01*
X126537530Y-44108984D01*
X126703851Y-43944619D01*
X126712143Y-43941242D01*
X126716908Y-43942287D01*
G37*
%TD.AperFunction*%
%TD*%
%TA.AperFunction,Conductor*%
%TO.N,GND*%
G36*
X121028915Y-44445066D02*
G01*
X121035107Y-44451118D01*
X121308584Y-45067218D01*
X121308808Y-45076170D01*
X121306114Y-45080287D01*
X121139793Y-45244651D01*
X121131500Y-45248029D01*
X121126694Y-45246965D01*
X120518089Y-44968024D01*
X120511996Y-44961462D01*
X120512143Y-44952937D01*
X120658379Y-44597583D01*
X120664695Y-44591239D01*
X121019961Y-44445045D01*
X121028915Y-44445066D01*
G37*
%TD.AperFunction*%
%TD*%
%TA.AperFunction,Conductor*%
%TO.N,_1_5*%
G36*
X116638767Y-46353591D02*
G01*
X116639357Y-46353856D01*
X117995918Y-47007595D01*
X118001883Y-47014274D01*
X118002539Y-47018135D01*
X118002539Y-47253417D01*
X117999112Y-47261690D01*
X117995893Y-47263969D01*
X116639343Y-47913754D01*
X116630402Y-47914237D01*
X116623737Y-47908256D01*
X116623484Y-47907691D01*
X116303802Y-47138275D01*
X116303793Y-47129320D01*
X116303802Y-47129297D01*
X116349988Y-47018135D01*
X116623473Y-46359906D01*
X116629812Y-46353582D01*
X116638767Y-46353591D01*
G37*
%TD.AperFunction*%
%TD*%
%TA.AperFunction,Conductor*%
%TO.N,_1_20*%
G36*
X131222135Y-46359317D02*
G01*
X131222400Y-46359907D01*
X131542071Y-47129297D01*
X131542080Y-47138252D01*
X131542071Y-47138275D01*
X131222389Y-47907691D01*
X131216050Y-47914016D01*
X131207095Y-47914007D01*
X131206530Y-47913754D01*
X129849981Y-47263969D01*
X129844000Y-47257304D01*
X129843335Y-47253417D01*
X129843335Y-47018135D01*
X129846762Y-47009862D01*
X129849954Y-47007595D01*
X131206517Y-46353855D01*
X131215456Y-46353352D01*
X131222135Y-46359317D01*
G37*
%TD.AperFunction*%
%TD*%
%TA.AperFunction,Conductor*%
%TO.N,P21*%
G36*
X126716908Y-46482287D02*
G01*
X127113003Y-46662093D01*
X127327729Y-46759567D01*
X127333846Y-46766107D01*
X127333713Y-46774674D01*
X127187495Y-47129986D01*
X127181177Y-47136332D01*
X127181127Y-47136353D01*
X126825870Y-47282544D01*
X126816916Y-47282523D01*
X126810743Y-47276513D01*
X126585591Y-46774674D01*
X126535080Y-46662092D01*
X126534821Y-46653142D01*
X126537530Y-46648984D01*
X126703851Y-46484619D01*
X126712143Y-46481242D01*
X126716908Y-46482287D01*
G37*
%TD.AperFunction*%
%TD*%
%TA.AperFunction,Conductor*%
%TO.N,P2*%
G36*
X121028915Y-46985066D02*
G01*
X121035107Y-46991118D01*
X121308584Y-47607218D01*
X121308808Y-47616170D01*
X121306114Y-47620287D01*
X121139793Y-47784651D01*
X121131500Y-47788029D01*
X121126694Y-47786965D01*
X120518089Y-47508024D01*
X120511996Y-47501462D01*
X120512143Y-47492937D01*
X120658379Y-47137583D01*
X120664695Y-47131239D01*
X121019961Y-46985045D01*
X121028915Y-46985066D01*
G37*
%TD.AperFunction*%
%TD*%
%TA.AperFunction,Conductor*%
%TO.N,_1_6*%
G36*
X116638767Y-48893591D02*
G01*
X116639357Y-48893856D01*
X117995918Y-49547595D01*
X118001883Y-49554274D01*
X118002539Y-49558135D01*
X118002539Y-49793417D01*
X117999112Y-49801690D01*
X117995893Y-49803969D01*
X116639343Y-50453754D01*
X116630402Y-50454237D01*
X116623737Y-50448256D01*
X116623484Y-50447691D01*
X116303802Y-49678275D01*
X116303793Y-49669320D01*
X116303802Y-49669297D01*
X116349988Y-49558135D01*
X116623473Y-48899906D01*
X116629812Y-48893582D01*
X116638767Y-48893591D01*
G37*
%TD.AperFunction*%
%TD*%
%TA.AperFunction,Conductor*%
%TO.N,_1_19*%
G36*
X131222135Y-48899317D02*
G01*
X131222400Y-48899907D01*
X131542071Y-49669297D01*
X131542080Y-49678252D01*
X131542071Y-49678275D01*
X131222389Y-50447691D01*
X131216050Y-50454016D01*
X131207095Y-50454007D01*
X131206530Y-50453754D01*
X129849981Y-49803969D01*
X129844000Y-49797304D01*
X129843335Y-49793417D01*
X129843335Y-49558135D01*
X129846762Y-49549862D01*
X129849954Y-49547595D01*
X131206517Y-48893855D01*
X131215456Y-48893352D01*
X131222135Y-48899317D01*
G37*
%TD.AperFunction*%
%TD*%
%TA.AperFunction,Conductor*%
%TO.N,P20*%
G36*
X126716908Y-49022287D02*
G01*
X127113003Y-49202093D01*
X127327729Y-49299567D01*
X127333846Y-49306107D01*
X127333713Y-49314674D01*
X127187495Y-49669986D01*
X127181177Y-49676332D01*
X127181127Y-49676353D01*
X126825870Y-49822544D01*
X126816916Y-49822523D01*
X126810743Y-49816513D01*
X126585591Y-49314674D01*
X126535080Y-49202092D01*
X126534821Y-49193142D01*
X126537530Y-49188984D01*
X126703851Y-49024619D01*
X126712143Y-49021242D01*
X126716908Y-49022287D01*
G37*
%TD.AperFunction*%
%TD*%
%TA.AperFunction,Conductor*%
%TO.N,P3*%
G36*
X121028915Y-49525066D02*
G01*
X121035107Y-49531118D01*
X121308584Y-50147218D01*
X121308808Y-50156170D01*
X121306114Y-50160287D01*
X121139793Y-50324651D01*
X121131500Y-50328029D01*
X121126694Y-50326965D01*
X120518089Y-50048024D01*
X120511996Y-50041462D01*
X120512143Y-50032937D01*
X120658379Y-49677583D01*
X120664695Y-49671239D01*
X121019961Y-49525045D01*
X121028915Y-49525066D01*
G37*
%TD.AperFunction*%
%TD*%
%TA.AperFunction,Conductor*%
%TO.N,_1_7*%
G36*
X116638767Y-51433591D02*
G01*
X116639357Y-51433856D01*
X117995918Y-52087595D01*
X118001883Y-52094274D01*
X118002539Y-52098135D01*
X118002539Y-52333417D01*
X117999112Y-52341690D01*
X117995893Y-52343969D01*
X116639343Y-52993754D01*
X116630402Y-52994237D01*
X116623737Y-52988256D01*
X116623484Y-52987691D01*
X116303802Y-52218275D01*
X116303793Y-52209320D01*
X116303802Y-52209297D01*
X116349988Y-52098135D01*
X116623473Y-51439906D01*
X116629812Y-51433582D01*
X116638767Y-51433591D01*
G37*
%TD.AperFunction*%
%TD*%
%TA.AperFunction,Conductor*%
%TO.N,_1_18*%
G36*
X131222135Y-51439317D02*
G01*
X131222400Y-51439907D01*
X131542071Y-52209297D01*
X131542080Y-52218252D01*
X131542071Y-52218275D01*
X131222389Y-52987691D01*
X131216050Y-52994016D01*
X131207095Y-52994007D01*
X131206530Y-52993754D01*
X129849981Y-52343969D01*
X129844000Y-52337304D01*
X129843335Y-52333417D01*
X129843335Y-52098135D01*
X129846762Y-52089862D01*
X129849954Y-52087595D01*
X131206517Y-51433855D01*
X131215456Y-51433352D01*
X131222135Y-51439317D01*
G37*
%TD.AperFunction*%
%TD*%
%TA.AperFunction,Conductor*%
%TO.N,P19*%
G36*
X126716908Y-51562287D02*
G01*
X127113003Y-51742093D01*
X127327729Y-51839567D01*
X127333846Y-51846107D01*
X127333713Y-51854674D01*
X127187495Y-52209986D01*
X127181177Y-52216332D01*
X127181127Y-52216353D01*
X126825870Y-52362544D01*
X126816916Y-52362523D01*
X126810743Y-52356513D01*
X126585591Y-51854674D01*
X126535080Y-51742092D01*
X126534821Y-51733142D01*
X126537530Y-51728984D01*
X126703851Y-51564619D01*
X126712143Y-51561242D01*
X126716908Y-51562287D01*
G37*
%TD.AperFunction*%
%TD*%
%TA.AperFunction,Conductor*%
%TO.N,P4*%
G36*
X121028915Y-52065066D02*
G01*
X121035107Y-52071118D01*
X121308584Y-52687218D01*
X121308808Y-52696170D01*
X121306114Y-52700287D01*
X121139793Y-52864651D01*
X121131500Y-52868029D01*
X121126694Y-52866965D01*
X120518089Y-52588024D01*
X120511996Y-52581462D01*
X120512143Y-52572937D01*
X120658379Y-52217583D01*
X120664695Y-52211239D01*
X121019961Y-52065045D01*
X121028915Y-52065066D01*
G37*
%TD.AperFunction*%
%TD*%
%TA.AperFunction,Conductor*%
%TO.N,_1_8*%
G36*
X116638767Y-53973591D02*
G01*
X116639357Y-53973856D01*
X117995918Y-54627595D01*
X118001883Y-54634274D01*
X118002539Y-54638135D01*
X118002539Y-54873417D01*
X117999112Y-54881690D01*
X117995893Y-54883969D01*
X116639343Y-55533754D01*
X116630402Y-55534237D01*
X116623737Y-55528256D01*
X116623484Y-55527691D01*
X116303802Y-54758275D01*
X116303793Y-54749320D01*
X116303802Y-54749297D01*
X116349988Y-54638135D01*
X116623473Y-53979906D01*
X116629812Y-53973582D01*
X116638767Y-53973591D01*
G37*
%TD.AperFunction*%
%TD*%
%TA.AperFunction,Conductor*%
%TO.N,_1_17*%
G36*
X131222135Y-53979317D02*
G01*
X131222400Y-53979907D01*
X131542071Y-54749297D01*
X131542080Y-54758252D01*
X131542071Y-54758275D01*
X131222389Y-55527691D01*
X131216050Y-55534016D01*
X131207095Y-55534007D01*
X131206530Y-55533754D01*
X129849981Y-54883969D01*
X129844000Y-54877304D01*
X129843335Y-54873417D01*
X129843335Y-54638135D01*
X129846762Y-54629862D01*
X129849954Y-54627595D01*
X131206517Y-53973855D01*
X131215456Y-53973352D01*
X131222135Y-53979317D01*
G37*
%TD.AperFunction*%
%TD*%
%TA.AperFunction,Conductor*%
%TO.N,P18*%
G36*
X126716908Y-54102287D02*
G01*
X127113003Y-54282093D01*
X127327729Y-54379567D01*
X127333846Y-54386107D01*
X127333713Y-54394674D01*
X127187495Y-54749986D01*
X127181177Y-54756332D01*
X127181127Y-54756353D01*
X126825870Y-54902544D01*
X126816916Y-54902523D01*
X126810743Y-54896513D01*
X126585591Y-54394674D01*
X126535080Y-54282092D01*
X126534821Y-54273142D01*
X126537530Y-54268984D01*
X126703851Y-54104619D01*
X126712143Y-54101242D01*
X126716908Y-54102287D01*
G37*
%TD.AperFunction*%
%TD*%
%TA.AperFunction,Conductor*%
%TO.N,P5*%
G36*
X121028915Y-54605066D02*
G01*
X121035107Y-54611118D01*
X121308584Y-55227218D01*
X121308808Y-55236170D01*
X121306114Y-55240287D01*
X121139793Y-55404651D01*
X121131500Y-55408029D01*
X121126694Y-55406965D01*
X120518089Y-55128024D01*
X120511996Y-55121462D01*
X120512143Y-55112937D01*
X120658379Y-54757583D01*
X120664695Y-54751239D01*
X121019961Y-54605045D01*
X121028915Y-54605066D01*
G37*
%TD.AperFunction*%
%TD*%
%TA.AperFunction,Conductor*%
%TO.N,_1_9*%
G36*
X116638767Y-56513591D02*
G01*
X116639357Y-56513856D01*
X117995918Y-57167595D01*
X118001883Y-57174274D01*
X118002539Y-57178135D01*
X118002539Y-57413417D01*
X117999112Y-57421690D01*
X117995893Y-57423969D01*
X116639343Y-58073754D01*
X116630402Y-58074237D01*
X116623737Y-58068256D01*
X116623484Y-58067691D01*
X116303802Y-57298275D01*
X116303793Y-57289320D01*
X116303802Y-57289297D01*
X116349988Y-57178135D01*
X116623473Y-56519906D01*
X116629812Y-56513582D01*
X116638767Y-56513591D01*
G37*
%TD.AperFunction*%
%TD*%
%TA.AperFunction,Conductor*%
%TO.N,_1_16*%
G36*
X131222135Y-56519317D02*
G01*
X131222400Y-56519907D01*
X131542071Y-57289297D01*
X131542080Y-57298252D01*
X131542071Y-57298275D01*
X131222389Y-58067691D01*
X131216050Y-58074016D01*
X131207095Y-58074007D01*
X131206530Y-58073754D01*
X129849981Y-57423969D01*
X129844000Y-57417304D01*
X129843335Y-57413417D01*
X129843335Y-57178135D01*
X129846762Y-57169862D01*
X129849954Y-57167595D01*
X131206517Y-56513855D01*
X131215456Y-56513352D01*
X131222135Y-56519317D01*
G37*
%TD.AperFunction*%
%TD*%
%TA.AperFunction,Conductor*%
%TO.N,P15*%
G36*
X126716908Y-56642287D02*
G01*
X127113003Y-56822093D01*
X127327729Y-56919567D01*
X127333846Y-56926107D01*
X127333713Y-56934674D01*
X127187495Y-57289986D01*
X127181177Y-57296332D01*
X127181127Y-57296353D01*
X126825870Y-57442544D01*
X126816916Y-57442523D01*
X126810743Y-57436513D01*
X126585591Y-56934674D01*
X126535080Y-56822092D01*
X126534821Y-56813142D01*
X126537530Y-56808984D01*
X126703851Y-56644619D01*
X126712143Y-56641242D01*
X126716908Y-56642287D01*
G37*
%TD.AperFunction*%
%TD*%
%TA.AperFunction,Conductor*%
%TO.N,P6*%
G36*
X121028915Y-57145066D02*
G01*
X121035107Y-57151118D01*
X121308584Y-57767218D01*
X121308808Y-57776170D01*
X121306114Y-57780287D01*
X121139793Y-57944651D01*
X121131500Y-57948029D01*
X121126694Y-57946965D01*
X120518089Y-57668024D01*
X120511996Y-57661462D01*
X120512143Y-57652937D01*
X120658379Y-57297583D01*
X120664695Y-57291239D01*
X121019961Y-57145045D01*
X121028915Y-57145066D01*
G37*
%TD.AperFunction*%
%TD*%
%TA.AperFunction,Conductor*%
%TO.N,_1_10*%
G36*
X116638767Y-59053591D02*
G01*
X116639357Y-59053856D01*
X117995918Y-59707595D01*
X118001883Y-59714274D01*
X118002539Y-59718135D01*
X118002539Y-59953417D01*
X117999112Y-59961690D01*
X117995893Y-59963969D01*
X116639343Y-60613754D01*
X116630402Y-60614237D01*
X116623737Y-60608256D01*
X116623484Y-60607691D01*
X116303802Y-59838275D01*
X116303793Y-59829320D01*
X116303802Y-59829297D01*
X116349988Y-59718135D01*
X116623473Y-59059906D01*
X116629812Y-59053582D01*
X116638767Y-59053591D01*
G37*
%TD.AperFunction*%
%TD*%
%TA.AperFunction,Conductor*%
%TO.N,_1_15*%
G36*
X131222135Y-59059317D02*
G01*
X131222400Y-59059907D01*
X131542071Y-59829297D01*
X131542080Y-59838252D01*
X131542071Y-59838275D01*
X131222389Y-60607691D01*
X131216050Y-60614016D01*
X131207095Y-60614007D01*
X131206530Y-60613754D01*
X129849981Y-59963969D01*
X129844000Y-59957304D01*
X129843335Y-59953417D01*
X129843335Y-59718135D01*
X129846762Y-59709862D01*
X129849954Y-59707595D01*
X131206517Y-59053855D01*
X131215456Y-59053352D01*
X131222135Y-59059317D01*
G37*
%TD.AperFunction*%
%TD*%
%TA.AperFunction,Conductor*%
%TO.N,P14*%
G36*
X126716908Y-59182287D02*
G01*
X127113003Y-59362093D01*
X127327729Y-59459567D01*
X127333846Y-59466107D01*
X127333713Y-59474674D01*
X127187495Y-59829986D01*
X127181177Y-59836332D01*
X127181127Y-59836353D01*
X126825870Y-59982544D01*
X126816916Y-59982523D01*
X126810743Y-59976513D01*
X126585591Y-59474674D01*
X126535080Y-59362092D01*
X126534821Y-59353142D01*
X126537530Y-59348984D01*
X126703851Y-59184619D01*
X126712143Y-59181242D01*
X126716908Y-59182287D01*
G37*
%TD.AperFunction*%
%TD*%
%TA.AperFunction,Conductor*%
%TO.N,P7*%
G36*
X121028915Y-59685066D02*
G01*
X121035107Y-59691118D01*
X121308584Y-60307218D01*
X121308808Y-60316170D01*
X121306114Y-60320287D01*
X121139793Y-60484651D01*
X121131500Y-60488029D01*
X121126694Y-60486965D01*
X120518089Y-60208024D01*
X120511996Y-60201462D01*
X120512143Y-60192937D01*
X120658379Y-59837583D01*
X120664695Y-59831239D01*
X121019961Y-59685045D01*
X121028915Y-59685066D01*
G37*
%TD.AperFunction*%
%TD*%
%TA.AperFunction,Conductor*%
%TO.N,_1_11*%
G36*
X116638767Y-61593591D02*
G01*
X116639357Y-61593856D01*
X117995918Y-62247595D01*
X118001883Y-62254274D01*
X118002539Y-62258135D01*
X118002539Y-62493417D01*
X117999112Y-62501690D01*
X117995893Y-62503969D01*
X116639343Y-63153754D01*
X116630402Y-63154237D01*
X116623737Y-63148256D01*
X116623484Y-63147691D01*
X116303802Y-62378275D01*
X116303793Y-62369320D01*
X116303802Y-62369297D01*
X116349988Y-62258135D01*
X116623473Y-61599906D01*
X116629812Y-61593582D01*
X116638767Y-61593591D01*
G37*
%TD.AperFunction*%
%TD*%
%TA.AperFunction,Conductor*%
%TO.N,_1_14*%
G36*
X131222135Y-61599317D02*
G01*
X131222400Y-61599907D01*
X131542071Y-62369297D01*
X131542080Y-62378252D01*
X131542071Y-62378275D01*
X131222389Y-63147691D01*
X131216050Y-63154016D01*
X131207095Y-63154007D01*
X131206530Y-63153754D01*
X129849981Y-62503969D01*
X129844000Y-62497304D01*
X129843335Y-62493417D01*
X129843335Y-62258135D01*
X129846762Y-62249862D01*
X129849954Y-62247595D01*
X131206517Y-61593855D01*
X131215456Y-61593352D01*
X131222135Y-61599317D01*
G37*
%TD.AperFunction*%
%TD*%
%TA.AperFunction,Conductor*%
%TO.N,P16*%
G36*
X126716908Y-61722287D02*
G01*
X127113003Y-61902093D01*
X127327729Y-61999567D01*
X127333846Y-62006107D01*
X127333713Y-62014674D01*
X127187495Y-62369986D01*
X127181177Y-62376332D01*
X127181127Y-62376353D01*
X126825870Y-62522544D01*
X126816916Y-62522523D01*
X126810743Y-62516513D01*
X126585591Y-62014674D01*
X126535080Y-61902092D01*
X126534821Y-61893142D01*
X126537530Y-61888984D01*
X126703851Y-61724619D01*
X126712143Y-61721242D01*
X126716908Y-61722287D01*
G37*
%TD.AperFunction*%
%TD*%
%TA.AperFunction,Conductor*%
%TO.N,P8*%
G36*
X121028915Y-62225066D02*
G01*
X121035107Y-62231118D01*
X121308584Y-62847218D01*
X121308808Y-62856170D01*
X121306114Y-62860287D01*
X121139793Y-63024651D01*
X121131500Y-63028029D01*
X121126694Y-63026965D01*
X120518089Y-62748024D01*
X120511996Y-62741462D01*
X120512143Y-62732937D01*
X120658379Y-62377583D01*
X120664695Y-62371239D01*
X121019961Y-62225045D01*
X121028915Y-62225066D01*
G37*
%TD.AperFunction*%
%TD*%
%TA.AperFunction,Conductor*%
%TO.N,_1_12*%
G36*
X116638767Y-64133591D02*
G01*
X116639357Y-64133856D01*
X117995918Y-64787595D01*
X118001883Y-64794274D01*
X118002539Y-64798135D01*
X118002539Y-65033417D01*
X117999112Y-65041690D01*
X117995893Y-65043969D01*
X116639343Y-65693754D01*
X116630402Y-65694237D01*
X116623737Y-65688256D01*
X116623484Y-65687691D01*
X116303802Y-64918275D01*
X116303793Y-64909320D01*
X116303802Y-64909297D01*
X116349988Y-64798135D01*
X116623473Y-64139906D01*
X116629812Y-64133582D01*
X116638767Y-64133591D01*
G37*
%TD.AperFunction*%
%TD*%
%TA.AperFunction,Conductor*%
%TO.N,_1_13*%
G36*
X131222135Y-64139317D02*
G01*
X131222400Y-64139907D01*
X131542071Y-64909297D01*
X131542080Y-64918252D01*
X131542071Y-64918275D01*
X131222389Y-65687691D01*
X131216050Y-65694016D01*
X131207095Y-65694007D01*
X131206530Y-65693754D01*
X129849981Y-65043969D01*
X129844000Y-65037304D01*
X129843335Y-65033417D01*
X129843335Y-64798135D01*
X129846762Y-64789862D01*
X129849954Y-64787595D01*
X131206517Y-64133855D01*
X131215456Y-64133352D01*
X131222135Y-64139317D01*
G37*
%TD.AperFunction*%
%TD*%
%TA.AperFunction,Conductor*%
%TO.N,P10*%
G36*
X126716908Y-64262287D02*
G01*
X127113003Y-64442093D01*
X127327729Y-64539567D01*
X127333846Y-64546107D01*
X127333713Y-64554674D01*
X127187495Y-64909986D01*
X127181177Y-64916332D01*
X127181127Y-64916353D01*
X126825870Y-65062544D01*
X126816916Y-65062523D01*
X126810743Y-65056513D01*
X126585591Y-64554674D01*
X126535080Y-64442092D01*
X126534821Y-64433142D01*
X126537530Y-64428984D01*
X126703851Y-64264619D01*
X126712143Y-64261242D01*
X126716908Y-64262287D01*
G37*
%TD.AperFunction*%
%TD*%
%TA.AperFunction,Conductor*%
%TO.N,P9*%
G36*
X121028915Y-64765066D02*
G01*
X121035107Y-64771118D01*
X121308584Y-65387218D01*
X121308808Y-65396170D01*
X121306114Y-65400287D01*
X121139793Y-65564651D01*
X121131500Y-65568029D01*
X121126694Y-65566965D01*
X120518089Y-65288024D01*
X120511996Y-65281462D01*
X120512143Y-65272937D01*
X120658379Y-64917583D01*
X120664695Y-64911239D01*
X121019961Y-64765045D01*
X121028915Y-64765066D01*
G37*
%TD.AperFunction*%
%TD*%
%TA.AperFunction,Conductor*%
%TO.N,DISP1_1*%
G36*
X120238849Y-70907213D02*
G01*
X120241123Y-70910420D01*
X120892887Y-72267372D01*
X120893379Y-72276314D01*
X120887406Y-72282985D01*
X120886829Y-72283243D01*
X120117426Y-72602920D01*
X120108471Y-72602929D01*
X120108448Y-72602920D01*
X119339044Y-72283243D01*
X119332719Y-72276904D01*
X119332728Y-72267949D01*
X119332986Y-72267372D01*
X119984751Y-70910420D01*
X119991422Y-70904447D01*
X119995298Y-70903786D01*
X120230576Y-70903786D01*
X120238849Y-70907213D01*
G37*
%TD.AperFunction*%
%TD*%
%TA.AperFunction,Conductor*%
%TO.N,DISP1_1*%
G36*
X120121195Y-70861071D02*
G01*
X120340819Y-71081428D01*
X120406581Y-71147409D01*
X120409994Y-71155687D01*
X120408400Y-71161563D01*
X120241323Y-71447981D01*
X120234195Y-71453401D01*
X120231217Y-71453786D01*
X119994657Y-71453786D01*
X119986384Y-71450359D01*
X119984551Y-71447981D01*
X119934427Y-71362055D01*
X119817472Y-71161561D01*
X119816264Y-71152690D01*
X119819290Y-71147410D01*
X120104651Y-70861099D01*
X120112918Y-70857659D01*
X120121195Y-70861071D01*
G37*
%TD.AperFunction*%
%TD*%
%TA.AperFunction,Conductor*%
%TO.N,DISP1_2*%
G36*
X122661195Y-70861071D02*
G01*
X122880819Y-71081428D01*
X122946581Y-71147409D01*
X122949994Y-71155687D01*
X122948400Y-71161563D01*
X122781323Y-71447981D01*
X122774195Y-71453401D01*
X122771217Y-71453786D01*
X122534657Y-71453786D01*
X122526384Y-71450359D01*
X122524551Y-71447981D01*
X122474427Y-71362055D01*
X122357472Y-71161561D01*
X122356264Y-71152690D01*
X122359290Y-71147410D01*
X122644651Y-70861099D01*
X122652918Y-70857659D01*
X122661195Y-70861071D01*
G37*
%TD.AperFunction*%
%TD*%
%TA.AperFunction,Conductor*%
%TO.N,DISP1_2*%
G36*
X122778849Y-70907213D02*
G01*
X122781123Y-70910420D01*
X123432887Y-72267372D01*
X123433379Y-72276314D01*
X123427406Y-72282985D01*
X123426829Y-72283243D01*
X122657426Y-72602920D01*
X122648471Y-72602929D01*
X122648448Y-72602920D01*
X121879044Y-72283243D01*
X121872719Y-72276904D01*
X121872728Y-72267949D01*
X121872986Y-72267372D01*
X122524751Y-70910420D01*
X122531422Y-70904447D01*
X122535298Y-70903786D01*
X122770576Y-70903786D01*
X122778849Y-70907213D01*
G37*
%TD.AperFunction*%
%TD*%
%TA.AperFunction,Conductor*%
%TO.N,DISP1_3*%
G36*
X125318849Y-70907213D02*
G01*
X125321123Y-70910420D01*
X125972887Y-72267372D01*
X125973379Y-72276314D01*
X125967406Y-72282985D01*
X125966829Y-72283243D01*
X125197426Y-72602920D01*
X125188471Y-72602929D01*
X125188448Y-72602920D01*
X124419044Y-72283243D01*
X124412719Y-72276904D01*
X124412728Y-72267949D01*
X124412986Y-72267372D01*
X125064751Y-70910420D01*
X125071422Y-70904447D01*
X125075298Y-70903786D01*
X125310576Y-70903786D01*
X125318849Y-70907213D01*
G37*
%TD.AperFunction*%
%TD*%
%TA.AperFunction,Conductor*%
%TO.N,DISP1_3*%
G36*
X125201195Y-70861071D02*
G01*
X125420819Y-71081428D01*
X125486581Y-71147409D01*
X125489994Y-71155687D01*
X125488400Y-71161563D01*
X125321323Y-71447981D01*
X125314195Y-71453401D01*
X125311217Y-71453786D01*
X125074657Y-71453786D01*
X125066384Y-71450359D01*
X125064551Y-71447981D01*
X125014427Y-71362055D01*
X124897472Y-71161561D01*
X124896264Y-71152690D01*
X124899290Y-71147410D01*
X125184651Y-70861099D01*
X125192918Y-70857659D01*
X125201195Y-70861071D01*
G37*
%TD.AperFunction*%
%TD*%
%TA.AperFunction,Conductor*%
%TO.N,DISP1_4*%
G36*
X127741195Y-70861071D02*
G01*
X127960819Y-71081428D01*
X128026581Y-71147409D01*
X128029994Y-71155687D01*
X128028400Y-71161563D01*
X127861323Y-71447981D01*
X127854195Y-71453401D01*
X127851217Y-71453786D01*
X127614657Y-71453786D01*
X127606384Y-71450359D01*
X127604551Y-71447981D01*
X127554427Y-71362055D01*
X127437472Y-71161561D01*
X127436264Y-71152690D01*
X127439290Y-71147410D01*
X127724651Y-70861099D01*
X127732918Y-70857659D01*
X127741195Y-70861071D01*
G37*
%TD.AperFunction*%
%TD*%
%TA.AperFunction,Conductor*%
%TO.N,DISP1_4*%
G36*
X127858849Y-70907213D02*
G01*
X127861123Y-70910420D01*
X128512887Y-72267372D01*
X128513379Y-72276314D01*
X128507406Y-72282985D01*
X128506829Y-72283243D01*
X127737426Y-72602920D01*
X127728471Y-72602929D01*
X127728448Y-72602920D01*
X126959044Y-72283243D01*
X126952719Y-72276904D01*
X126952728Y-72267949D01*
X126952986Y-72267372D01*
X127604751Y-70910420D01*
X127611422Y-70904447D01*
X127615298Y-70903786D01*
X127850576Y-70903786D01*
X127858849Y-70907213D01*
G37*
%TD.AperFunction*%
%TD*%
M02*
