%TF.GenerationSoftware,KiCad,Pcbnew,8.0.6*%
%TF.CreationDate,2024-12-06T19:51:08+01:00*%
%TF.ProjectId,keyboard_pcb,6b657962-6f61-4726-945f-7063622e6b69,0.0.3*%
%TF.SameCoordinates,Original*%
%TF.FileFunction,Profile,NP*%
%FSLAX46Y46*%
G04 Gerber Fmt 4.6, Leading zero omitted, Abs format (unit mm)*
G04 Created by KiCad (PCBNEW 8.0.6) date 2024-12-06 19:51:08*
%MOMM*%
%LPD*%
G01*
G04 APERTURE LIST*
%TA.AperFunction,Profile*%
%ADD10C,0.150000*%
%TD*%
G04 APERTURE END LIST*
D10*
X137560791Y-88277694D02*
X145319224Y-90953770D01*
X146557546Y-93497245D02*
X140401993Y-111323720D01*
X137858738Y-112561402D02*
X121825413Y-107025030D01*
X121657391Y-106975136D02*
X118441782Y-106171776D01*
X118287974Y-106139711D02*
X103441158Y-103648546D01*
X103228782Y-103624491D02*
X100077175Y-103437304D01*
X99958596Y-103433786D02*
X82967937Y-103433786D01*
X80967937Y-101433786D02*
X80967937Y-84288286D01*
X78967937Y-82288286D02*
X73442937Y-82288286D01*
X71442937Y-80288286D02*
X71442937Y-78001786D01*
X69442937Y-76001786D02*
X58202937Y-76001786D01*
X56202937Y-78001786D02*
X56202937Y-79335786D01*
X54202937Y-81335786D02*
X39152937Y-81335786D01*
X37152937Y-83335786D02*
X37152937Y-86955786D01*
X35152937Y-88955786D02*
X16292937Y-88955786D01*
X14292937Y-86955786D02*
X14292937Y-29995786D01*
X16292937Y-27995786D02*
X31342937Y-27995786D01*
X33342937Y-25995786D02*
X33342937Y-22375786D01*
X35342937Y-20375786D02*
X50392937Y-20375786D01*
X52392937Y-18375786D02*
X52392937Y-17041786D01*
X54392937Y-15041786D02*
X73252937Y-15041786D01*
X75252937Y-17041786D02*
X75252937Y-19328286D01*
X77252937Y-21328286D02*
X91513197Y-21328286D01*
X92993077Y-21982940D02*
X94302937Y-23423786D01*
X94302937Y-23423786D02*
X110211869Y-23423786D01*
X112000723Y-24529359D02*
X112800151Y-26128213D01*
X114589005Y-27233786D02*
X134212937Y-27233786D01*
X136212937Y-29233786D02*
X136212937Y-86387005D01*
X145319224Y-90953770D02*
G75*
G02*
X146557555Y-93497248I-652187J-1890716D01*
G01*
X140401993Y-111323720D02*
G75*
G02*
X137858753Y-112561359I-1890456J652834D01*
G01*
X121657391Y-106975136D02*
G75*
G02*
X121825414Y-107025028I-484854J-1940750D01*
G01*
X118287974Y-106139711D02*
G75*
G02*
X118441783Y-106171774I-331037J-1972975D01*
G01*
X103228782Y-103624491D02*
G75*
G02*
X103441158Y-103648549I-118645J-1996795D01*
G01*
X99958596Y-103433786D02*
G75*
G02*
X100077175Y-103437306I-59J-2000900D01*
G01*
X82967937Y-103433786D02*
G75*
G02*
X80967937Y-101433786I0J2000000D01*
G01*
X78967937Y-82288286D02*
G75*
G02*
X80967937Y-84288286I0J-2000000D01*
G01*
X73442937Y-82288286D02*
G75*
G02*
X71442937Y-80288286I0J2000000D01*
G01*
X69442937Y-76001786D02*
G75*
G02*
X71442937Y-78001786I0J-2000000D01*
G01*
X56202937Y-78001786D02*
G75*
G02*
X58202937Y-76001786I2000000J0D01*
G01*
X56202937Y-79335786D02*
G75*
G02*
X54202937Y-81335786I-2000000J0D01*
G01*
X37152937Y-83335786D02*
G75*
G02*
X39152937Y-81335786I2000000J0D01*
G01*
X37152937Y-86955786D02*
G75*
G02*
X35152937Y-88955786I-2000000J0D01*
G01*
X16292937Y-88955786D02*
G75*
G02*
X14292937Y-86955786I-1J1999999D01*
G01*
X14292937Y-29995786D02*
G75*
G02*
X16292937Y-27995786I1999999J1D01*
G01*
X33342937Y-25995786D02*
G75*
G02*
X31342937Y-27995786I-2000000J0D01*
G01*
X33342937Y-22375786D02*
G75*
G02*
X35342937Y-20375786I2000000J0D01*
G01*
X52392937Y-18375786D02*
G75*
G02*
X50392937Y-20375786I-2000000J0D01*
G01*
X52392937Y-17041786D02*
G75*
G02*
X54392937Y-15041786I2000000J0D01*
G01*
X73252937Y-15041786D02*
G75*
G02*
X75252937Y-17041786I0J-2000000D01*
G01*
X77252937Y-21328286D02*
G75*
G02*
X75252937Y-19328286I0J2000000D01*
G01*
X91513197Y-21328286D02*
G75*
G02*
X92993099Y-21982920I40J-2000000D01*
G01*
X110211869Y-23423786D02*
G75*
G02*
X112000698Y-24529372I-32J-2000000D01*
G01*
X114589005Y-27233786D02*
G75*
G02*
X112800176Y-26128200I32J2000000D01*
G01*
X134212937Y-27233786D02*
G75*
G02*
X136212937Y-29233786I0J-2000000D01*
G01*
X137560791Y-88277694D02*
G75*
G02*
X136212919Y-86387005I652146J1890708D01*
G01*
M02*
