%TF.GenerationSoftware,KiCad,Pcbnew,8.0.6*%
%TF.CreationDate,2024-12-06T19:51:08+01:00*%
%TF.ProjectId,keyboard_pcb,6b657962-6f61-4726-945f-7063622e6b69,0.0.3*%
%TF.SameCoordinates,Original*%
%TF.FileFunction,Legend,Bot*%
%TF.FilePolarity,Positive*%
%FSLAX46Y46*%
G04 Gerber Fmt 4.6, Leading zero omitted, Abs format (unit mm)*
G04 Created by KiCad (PCBNEW 8.0.6) date 2024-12-06 19:51:08*
%MOMM*%
%LPD*%
G01*
G04 APERTURE LIST*
%ADD10C,0.150000*%
%ADD11C,0.100000*%
%ADD12C,0.120000*%
G04 APERTURE END LIST*
D10*
X34433776Y-86028224D02*
X33767110Y-86028224D01*
X33767110Y-86028224D02*
X33814729Y-86123462D01*
X33814729Y-86123462D02*
X33909967Y-86266319D01*
X33909967Y-86266319D02*
X34052824Y-86361557D01*
X34148062Y-86171081D02*
X34148062Y-86504414D01*
X34148062Y-86504414D02*
X34148062Y-86599652D01*
X34148062Y-86599652D02*
X34195681Y-86742509D01*
X34195681Y-86742509D02*
X34290919Y-86980605D01*
X33338538Y-86218700D02*
X32767110Y-86218700D01*
X33052824Y-85932986D02*
X33052824Y-86932986D01*
X33052824Y-86932986D02*
X33195681Y-86885366D01*
X32909967Y-86409176D02*
X32767110Y-86790128D01*
X33243300Y-86409176D02*
X33290919Y-86552033D01*
X33290919Y-86552033D02*
X33338538Y-86647271D01*
X33338538Y-86647271D02*
X33386157Y-86790128D01*
X32814729Y-86028224D02*
X32719491Y-86123462D01*
X32671872Y-85980605D02*
X32576634Y-86075843D01*
X32290919Y-86171081D02*
X31719491Y-86171081D01*
X31719491Y-86171081D02*
X31767110Y-86885366D01*
X31767110Y-86885366D02*
X31909967Y-86790128D01*
X32052824Y-85837747D02*
X32052824Y-86171081D01*
X32052824Y-86171081D02*
X32052824Y-86409176D01*
X32052824Y-86409176D02*
X32100443Y-86599652D01*
X32100443Y-86599652D02*
X32195681Y-86742509D01*
X32195681Y-86742509D02*
X32290919Y-86885366D01*
X30767110Y-86218700D02*
X30671872Y-86313938D01*
X30624253Y-86171081D02*
X30529015Y-86266319D01*
X30957586Y-85885366D02*
X30957586Y-86932986D01*
X30957586Y-86313938D02*
X30671872Y-86552033D01*
X29529014Y-86313938D02*
X29290919Y-86980605D01*
X29290919Y-86980605D02*
X29052824Y-86313938D01*
X28481395Y-85980605D02*
X28386157Y-85980605D01*
X28386157Y-85980605D02*
X28290919Y-86028224D01*
X28290919Y-86028224D02*
X28243300Y-86075843D01*
X28243300Y-86075843D02*
X28195681Y-86171081D01*
X28195681Y-86171081D02*
X28148062Y-86361557D01*
X28148062Y-86361557D02*
X28148062Y-86599652D01*
X28148062Y-86599652D02*
X28195681Y-86790128D01*
X28195681Y-86790128D02*
X28243300Y-86885366D01*
X28243300Y-86885366D02*
X28290919Y-86932986D01*
X28290919Y-86932986D02*
X28386157Y-86980605D01*
X28386157Y-86980605D02*
X28481395Y-86980605D01*
X28481395Y-86980605D02*
X28576633Y-86932986D01*
X28576633Y-86932986D02*
X28624252Y-86885366D01*
X28624252Y-86885366D02*
X28671871Y-86790128D01*
X28671871Y-86790128D02*
X28719490Y-86599652D01*
X28719490Y-86599652D02*
X28719490Y-86361557D01*
X28719490Y-86361557D02*
X28671871Y-86171081D01*
X28671871Y-86171081D02*
X28624252Y-86075843D01*
X28624252Y-86075843D02*
X28576633Y-86028224D01*
X28576633Y-86028224D02*
X28481395Y-85980605D01*
X27719490Y-86885366D02*
X27671871Y-86932986D01*
X27671871Y-86932986D02*
X27719490Y-86980605D01*
X27719490Y-86980605D02*
X27767109Y-86932986D01*
X27767109Y-86932986D02*
X27719490Y-86885366D01*
X27719490Y-86885366D02*
X27719490Y-86980605D01*
X27338538Y-85980605D02*
X26719491Y-85980605D01*
X26719491Y-85980605D02*
X27052824Y-86361557D01*
X27052824Y-86361557D02*
X26909967Y-86361557D01*
X26909967Y-86361557D02*
X26814729Y-86409176D01*
X26814729Y-86409176D02*
X26767110Y-86456795D01*
X26767110Y-86456795D02*
X26719491Y-86552033D01*
X26719491Y-86552033D02*
X26719491Y-86790128D01*
X26719491Y-86790128D02*
X26767110Y-86885366D01*
X26767110Y-86885366D02*
X26814729Y-86932986D01*
X26814729Y-86932986D02*
X26909967Y-86980605D01*
X26909967Y-86980605D02*
X27195681Y-86980605D01*
X27195681Y-86980605D02*
X27290919Y-86932986D01*
X27290919Y-86932986D02*
X27338538Y-86885366D01*
X126994365Y-31191938D02*
X126994365Y-32191938D01*
X126994365Y-31239557D02*
X126899127Y-31191938D01*
X126899127Y-31191938D02*
X126708651Y-31191938D01*
X126708651Y-31191938D02*
X126613413Y-31239557D01*
X126613413Y-31239557D02*
X126565794Y-31287176D01*
X126565794Y-31287176D02*
X126518175Y-31382414D01*
X126518175Y-31382414D02*
X126518175Y-31668128D01*
X126518175Y-31668128D02*
X126565794Y-31763366D01*
X126565794Y-31763366D02*
X126613413Y-31810986D01*
X126613413Y-31810986D02*
X126708651Y-31858605D01*
X126708651Y-31858605D02*
X126899127Y-31858605D01*
X126899127Y-31858605D02*
X126994365Y-31810986D01*
X126089603Y-31858605D02*
X126089603Y-31191938D01*
X126089603Y-31382414D02*
X126041984Y-31287176D01*
X126041984Y-31287176D02*
X125994365Y-31239557D01*
X125994365Y-31239557D02*
X125899127Y-31191938D01*
X125899127Y-31191938D02*
X125803889Y-31191938D01*
X125327698Y-31858605D02*
X125422936Y-31810986D01*
X125422936Y-31810986D02*
X125470555Y-31763366D01*
X125470555Y-31763366D02*
X125518174Y-31668128D01*
X125518174Y-31668128D02*
X125518174Y-31382414D01*
X125518174Y-31382414D02*
X125470555Y-31287176D01*
X125470555Y-31287176D02*
X125422936Y-31239557D01*
X125422936Y-31239557D02*
X125327698Y-31191938D01*
X125327698Y-31191938D02*
X125184841Y-31191938D01*
X125184841Y-31191938D02*
X125089603Y-31239557D01*
X125089603Y-31239557D02*
X125041984Y-31287176D01*
X125041984Y-31287176D02*
X124994365Y-31382414D01*
X124994365Y-31382414D02*
X124994365Y-31668128D01*
X124994365Y-31668128D02*
X125041984Y-31763366D01*
X125041984Y-31763366D02*
X125089603Y-31810986D01*
X125089603Y-31810986D02*
X125184841Y-31858605D01*
X125184841Y-31858605D02*
X125327698Y-31858605D01*
X124565793Y-31858605D02*
X124565793Y-31191938D01*
X124565793Y-31287176D02*
X124518174Y-31239557D01*
X124518174Y-31239557D02*
X124422936Y-31191938D01*
X124422936Y-31191938D02*
X124280079Y-31191938D01*
X124280079Y-31191938D02*
X124184841Y-31239557D01*
X124184841Y-31239557D02*
X124137222Y-31334795D01*
X124137222Y-31334795D02*
X124137222Y-31858605D01*
X124137222Y-31334795D02*
X124089603Y-31239557D01*
X124089603Y-31239557D02*
X123994365Y-31191938D01*
X123994365Y-31191938D02*
X123851508Y-31191938D01*
X123851508Y-31191938D02*
X123756269Y-31239557D01*
X123756269Y-31239557D02*
X123708650Y-31334795D01*
X123708650Y-31334795D02*
X123708650Y-31858605D01*
X123232460Y-31858605D02*
X123232460Y-31191938D01*
X123232460Y-30858605D02*
X123280079Y-30906224D01*
X123280079Y-30906224D02*
X123232460Y-30953843D01*
X123232460Y-30953843D02*
X123184841Y-30906224D01*
X123184841Y-30906224D02*
X123232460Y-30858605D01*
X123232460Y-30858605D02*
X123232460Y-30953843D01*
X122327699Y-31810986D02*
X122422937Y-31858605D01*
X122422937Y-31858605D02*
X122613413Y-31858605D01*
X122613413Y-31858605D02*
X122708651Y-31810986D01*
X122708651Y-31810986D02*
X122756270Y-31763366D01*
X122756270Y-31763366D02*
X122803889Y-31668128D01*
X122803889Y-31668128D02*
X122803889Y-31382414D01*
X122803889Y-31382414D02*
X122756270Y-31287176D01*
X122756270Y-31287176D02*
X122708651Y-31239557D01*
X122708651Y-31239557D02*
X122613413Y-31191938D01*
X122613413Y-31191938D02*
X122422937Y-31191938D01*
X122422937Y-31191938D02*
X122327699Y-31239557D01*
X121899127Y-31858605D02*
X121899127Y-31191938D01*
X121899127Y-31382414D02*
X121851508Y-31287176D01*
X121851508Y-31287176D02*
X121803889Y-31239557D01*
X121803889Y-31239557D02*
X121708651Y-31191938D01*
X121708651Y-31191938D02*
X121613413Y-31191938D01*
X121137222Y-31858605D02*
X121232460Y-31810986D01*
X121232460Y-31810986D02*
X121280079Y-31763366D01*
X121280079Y-31763366D02*
X121327698Y-31668128D01*
X121327698Y-31668128D02*
X121327698Y-31382414D01*
X121327698Y-31382414D02*
X121280079Y-31287176D01*
X121280079Y-31287176D02*
X121232460Y-31239557D01*
X121232460Y-31239557D02*
X121137222Y-31191938D01*
X121137222Y-31191938D02*
X120994365Y-31191938D01*
X120994365Y-31191938D02*
X120899127Y-31239557D01*
X120899127Y-31239557D02*
X120851508Y-31287176D01*
X120851508Y-31287176D02*
X120803889Y-31382414D01*
X120803889Y-31382414D02*
X120803889Y-31668128D01*
X120803889Y-31668128D02*
X120851508Y-31763366D01*
X120851508Y-31763366D02*
X120899127Y-31810986D01*
X120899127Y-31810986D02*
X120994365Y-31858605D01*
X120994365Y-31858605D02*
X121137222Y-31858605D01*
X131970556Y-67858605D02*
X132446746Y-67858605D01*
X132446746Y-67858605D02*
X132446746Y-66858605D01*
X131637222Y-67763366D02*
X131589603Y-67810986D01*
X131589603Y-67810986D02*
X131637222Y-67858605D01*
X131637222Y-67858605D02*
X131684841Y-67810986D01*
X131684841Y-67810986D02*
X131637222Y-67763366D01*
X131637222Y-67763366D02*
X131637222Y-67858605D01*
X130446746Y-67810986D02*
X130303889Y-67858605D01*
X130303889Y-67858605D02*
X130065794Y-67858605D01*
X130065794Y-67858605D02*
X129970556Y-67810986D01*
X129970556Y-67810986D02*
X129922937Y-67763366D01*
X129922937Y-67763366D02*
X129875318Y-67668128D01*
X129875318Y-67668128D02*
X129875318Y-67572890D01*
X129875318Y-67572890D02*
X129922937Y-67477652D01*
X129922937Y-67477652D02*
X129970556Y-67430033D01*
X129970556Y-67430033D02*
X130065794Y-67382414D01*
X130065794Y-67382414D02*
X130256270Y-67334795D01*
X130256270Y-67334795D02*
X130351508Y-67287176D01*
X130351508Y-67287176D02*
X130399127Y-67239557D01*
X130399127Y-67239557D02*
X130446746Y-67144319D01*
X130446746Y-67144319D02*
X130446746Y-67049081D01*
X130446746Y-67049081D02*
X130399127Y-66953843D01*
X130399127Y-66953843D02*
X130351508Y-66906224D01*
X130351508Y-66906224D02*
X130256270Y-66858605D01*
X130256270Y-66858605D02*
X130018175Y-66858605D01*
X130018175Y-66858605D02*
X129875318Y-66906224D01*
X129446746Y-67858605D02*
X129446746Y-67191938D01*
X129446746Y-66858605D02*
X129494365Y-66906224D01*
X129494365Y-66906224D02*
X129446746Y-66953843D01*
X129446746Y-66953843D02*
X129399127Y-66906224D01*
X129399127Y-66906224D02*
X129446746Y-66858605D01*
X129446746Y-66858605D02*
X129446746Y-66953843D01*
X128541985Y-67858605D02*
X128541985Y-66858605D01*
X128541985Y-67810986D02*
X128637223Y-67858605D01*
X128637223Y-67858605D02*
X128827699Y-67858605D01*
X128827699Y-67858605D02*
X128922937Y-67810986D01*
X128922937Y-67810986D02*
X128970556Y-67763366D01*
X128970556Y-67763366D02*
X129018175Y-67668128D01*
X129018175Y-67668128D02*
X129018175Y-67382414D01*
X129018175Y-67382414D02*
X128970556Y-67287176D01*
X128970556Y-67287176D02*
X128922937Y-67239557D01*
X128922937Y-67239557D02*
X128827699Y-67191938D01*
X128827699Y-67191938D02*
X128637223Y-67191938D01*
X128637223Y-67191938D02*
X128541985Y-67239557D01*
X127684842Y-67810986D02*
X127780080Y-67858605D01*
X127780080Y-67858605D02*
X127970556Y-67858605D01*
X127970556Y-67858605D02*
X128065794Y-67810986D01*
X128065794Y-67810986D02*
X128113413Y-67715747D01*
X128113413Y-67715747D02*
X128113413Y-67334795D01*
X128113413Y-67334795D02*
X128065794Y-67239557D01*
X128065794Y-67239557D02*
X127970556Y-67191938D01*
X127970556Y-67191938D02*
X127780080Y-67191938D01*
X127780080Y-67191938D02*
X127684842Y-67239557D01*
X127684842Y-67239557D02*
X127637223Y-67334795D01*
X127637223Y-67334795D02*
X127637223Y-67430033D01*
X127637223Y-67430033D02*
X128113413Y-67525271D01*
X126446746Y-67477652D02*
X125684842Y-67477652D01*
X124161032Y-66858605D02*
X124161032Y-67572890D01*
X124161032Y-67572890D02*
X124208651Y-67715747D01*
X124208651Y-67715747D02*
X124303889Y-67810986D01*
X124303889Y-67810986D02*
X124446746Y-67858605D01*
X124446746Y-67858605D02*
X124541984Y-67858605D01*
X123256270Y-67191938D02*
X123256270Y-67858605D01*
X123684841Y-67191938D02*
X123684841Y-67715747D01*
X123684841Y-67715747D02*
X123637222Y-67810986D01*
X123637222Y-67810986D02*
X123541984Y-67858605D01*
X123541984Y-67858605D02*
X123399127Y-67858605D01*
X123399127Y-67858605D02*
X123303889Y-67810986D01*
X123303889Y-67810986D02*
X123256270Y-67763366D01*
X122780079Y-67858605D02*
X122780079Y-67191938D01*
X122780079Y-67287176D02*
X122732460Y-67239557D01*
X122732460Y-67239557D02*
X122637222Y-67191938D01*
X122637222Y-67191938D02*
X122494365Y-67191938D01*
X122494365Y-67191938D02*
X122399127Y-67239557D01*
X122399127Y-67239557D02*
X122351508Y-67334795D01*
X122351508Y-67334795D02*
X122351508Y-67858605D01*
X122351508Y-67334795D02*
X122303889Y-67239557D01*
X122303889Y-67239557D02*
X122208651Y-67191938D01*
X122208651Y-67191938D02*
X122065794Y-67191938D01*
X122065794Y-67191938D02*
X121970555Y-67239557D01*
X121970555Y-67239557D02*
X121922936Y-67334795D01*
X121922936Y-67334795D02*
X121922936Y-67858605D01*
X121446746Y-67191938D02*
X121446746Y-68191938D01*
X121446746Y-67239557D02*
X121351508Y-67191938D01*
X121351508Y-67191938D02*
X121161032Y-67191938D01*
X121161032Y-67191938D02*
X121065794Y-67239557D01*
X121065794Y-67239557D02*
X121018175Y-67287176D01*
X121018175Y-67287176D02*
X120970556Y-67382414D01*
X120970556Y-67382414D02*
X120970556Y-67668128D01*
X120970556Y-67668128D02*
X121018175Y-67763366D01*
X121018175Y-67763366D02*
X121065794Y-67810986D01*
X121065794Y-67810986D02*
X121161032Y-67858605D01*
X121161032Y-67858605D02*
X121351508Y-67858605D01*
X121351508Y-67858605D02*
X121446746Y-67810986D01*
X120161032Y-67810986D02*
X120256270Y-67858605D01*
X120256270Y-67858605D02*
X120446746Y-67858605D01*
X120446746Y-67858605D02*
X120541984Y-67810986D01*
X120541984Y-67810986D02*
X120589603Y-67715747D01*
X120589603Y-67715747D02*
X120589603Y-67334795D01*
X120589603Y-67334795D02*
X120541984Y-67239557D01*
X120541984Y-67239557D02*
X120446746Y-67191938D01*
X120446746Y-67191938D02*
X120256270Y-67191938D01*
X120256270Y-67191938D02*
X120161032Y-67239557D01*
X120161032Y-67239557D02*
X120113413Y-67334795D01*
X120113413Y-67334795D02*
X120113413Y-67430033D01*
X120113413Y-67430033D02*
X120589603Y-67525271D01*
X119684841Y-67858605D02*
X119684841Y-67191938D01*
X119684841Y-67382414D02*
X119637222Y-67287176D01*
X119637222Y-67287176D02*
X119589603Y-67239557D01*
X119589603Y-67239557D02*
X119494365Y-67191938D01*
X119494365Y-67191938D02*
X119399127Y-67191938D01*
X118303888Y-67858605D02*
X118303888Y-66858605D01*
X118303888Y-67334795D02*
X117732460Y-67334795D01*
X117732460Y-67858605D02*
X117732460Y-66858605D01*
X116875317Y-67810986D02*
X116970555Y-67858605D01*
X116970555Y-67858605D02*
X117161031Y-67858605D01*
X117161031Y-67858605D02*
X117256269Y-67810986D01*
X117256269Y-67810986D02*
X117303888Y-67715747D01*
X117303888Y-67715747D02*
X117303888Y-67334795D01*
X117303888Y-67334795D02*
X117256269Y-67239557D01*
X117256269Y-67239557D02*
X117161031Y-67191938D01*
X117161031Y-67191938D02*
X116970555Y-67191938D01*
X116970555Y-67191938D02*
X116875317Y-67239557D01*
X116875317Y-67239557D02*
X116827698Y-67334795D01*
X116827698Y-67334795D02*
X116827698Y-67430033D01*
X116827698Y-67430033D02*
X117303888Y-67525271D01*
X116399126Y-67858605D02*
X116399126Y-67191938D01*
X116399126Y-67382414D02*
X116351507Y-67287176D01*
X116351507Y-67287176D02*
X116303888Y-67239557D01*
X116303888Y-67239557D02*
X116208650Y-67191938D01*
X116208650Y-67191938D02*
X116113412Y-67191938D01*
X115399126Y-67810986D02*
X115494364Y-67858605D01*
X115494364Y-67858605D02*
X115684840Y-67858605D01*
X115684840Y-67858605D02*
X115780078Y-67810986D01*
X115780078Y-67810986D02*
X115827697Y-67715747D01*
X115827697Y-67715747D02*
X115827697Y-67334795D01*
X115827697Y-67334795D02*
X115780078Y-67239557D01*
X115780078Y-67239557D02*
X115684840Y-67191938D01*
X115684840Y-67191938D02*
X115494364Y-67191938D01*
X115494364Y-67191938D02*
X115399126Y-67239557D01*
X115399126Y-67239557D02*
X115351507Y-67334795D01*
X115351507Y-67334795D02*
X115351507Y-67430033D01*
X115351507Y-67430033D02*
X115827697Y-67525271D01*
X120184841Y-68406224D02*
X120280079Y-68358605D01*
X120280079Y-68358605D02*
X120422936Y-68358605D01*
X120422936Y-68358605D02*
X120565793Y-68406224D01*
X120565793Y-68406224D02*
X120661031Y-68501462D01*
X120661031Y-68501462D02*
X120708650Y-68596700D01*
X120708650Y-68596700D02*
X120756269Y-68787176D01*
X120756269Y-68787176D02*
X120756269Y-68930033D01*
X120756269Y-68930033D02*
X120708650Y-69120509D01*
X120708650Y-69120509D02*
X120661031Y-69215747D01*
X120661031Y-69215747D02*
X120565793Y-69310986D01*
X120565793Y-69310986D02*
X120422936Y-69358605D01*
X120422936Y-69358605D02*
X120327698Y-69358605D01*
X120327698Y-69358605D02*
X120184841Y-69310986D01*
X120184841Y-69310986D02*
X120137222Y-69263366D01*
X120137222Y-69263366D02*
X120137222Y-68930033D01*
X120137222Y-68930033D02*
X120327698Y-68930033D01*
X119708650Y-69358605D02*
X119708650Y-68358605D01*
X119708650Y-68358605D02*
X119137222Y-69358605D01*
X119137222Y-69358605D02*
X119137222Y-68358605D01*
X118661031Y-69358605D02*
X118661031Y-68358605D01*
X118661031Y-68358605D02*
X118422936Y-68358605D01*
X118422936Y-68358605D02*
X118280079Y-68406224D01*
X118280079Y-68406224D02*
X118184841Y-68501462D01*
X118184841Y-68501462D02*
X118137222Y-68596700D01*
X118137222Y-68596700D02*
X118089603Y-68787176D01*
X118089603Y-68787176D02*
X118089603Y-68930033D01*
X118089603Y-68930033D02*
X118137222Y-69120509D01*
X118137222Y-69120509D02*
X118184841Y-69215747D01*
X118184841Y-69215747D02*
X118280079Y-69310986D01*
X118280079Y-69310986D02*
X118422936Y-69358605D01*
X118422936Y-69358605D02*
X118661031Y-69358605D01*
X123756269Y-68358605D02*
X123422936Y-69358605D01*
X123422936Y-69358605D02*
X123089603Y-68358605D01*
X122184841Y-69263366D02*
X122232460Y-69310986D01*
X122232460Y-69310986D02*
X122375317Y-69358605D01*
X122375317Y-69358605D02*
X122470555Y-69358605D01*
X122470555Y-69358605D02*
X122613412Y-69310986D01*
X122613412Y-69310986D02*
X122708650Y-69215747D01*
X122708650Y-69215747D02*
X122756269Y-69120509D01*
X122756269Y-69120509D02*
X122803888Y-68930033D01*
X122803888Y-68930033D02*
X122803888Y-68787176D01*
X122803888Y-68787176D02*
X122756269Y-68596700D01*
X122756269Y-68596700D02*
X122708650Y-68501462D01*
X122708650Y-68501462D02*
X122613412Y-68406224D01*
X122613412Y-68406224D02*
X122470555Y-68358605D01*
X122470555Y-68358605D02*
X122375317Y-68358605D01*
X122375317Y-68358605D02*
X122232460Y-68406224D01*
X122232460Y-68406224D02*
X122184841Y-68453843D01*
X121184841Y-69263366D02*
X121232460Y-69310986D01*
X121232460Y-69310986D02*
X121375317Y-69358605D01*
X121375317Y-69358605D02*
X121470555Y-69358605D01*
X121470555Y-69358605D02*
X121613412Y-69310986D01*
X121613412Y-69310986D02*
X121708650Y-69215747D01*
X121708650Y-69215747D02*
X121756269Y-69120509D01*
X121756269Y-69120509D02*
X121803888Y-68930033D01*
X121803888Y-68930033D02*
X121803888Y-68787176D01*
X121803888Y-68787176D02*
X121756269Y-68596700D01*
X121756269Y-68596700D02*
X121708650Y-68501462D01*
X121708650Y-68501462D02*
X121613412Y-68406224D01*
X121613412Y-68406224D02*
X121470555Y-68358605D01*
X121470555Y-68358605D02*
X121375317Y-68358605D01*
X121375317Y-68358605D02*
X121232460Y-68406224D01*
X121232460Y-68406224D02*
X121184841Y-68453843D01*
X126613412Y-69310986D02*
X126470555Y-69358605D01*
X126470555Y-69358605D02*
X126232460Y-69358605D01*
X126232460Y-69358605D02*
X126137222Y-69310986D01*
X126137222Y-69310986D02*
X126089603Y-69263366D01*
X126089603Y-69263366D02*
X126041984Y-69168128D01*
X126041984Y-69168128D02*
X126041984Y-69072890D01*
X126041984Y-69072890D02*
X126089603Y-68977652D01*
X126089603Y-68977652D02*
X126137222Y-68930033D01*
X126137222Y-68930033D02*
X126232460Y-68882414D01*
X126232460Y-68882414D02*
X126422936Y-68834795D01*
X126422936Y-68834795D02*
X126518174Y-68787176D01*
X126518174Y-68787176D02*
X126565793Y-68739557D01*
X126565793Y-68739557D02*
X126613412Y-68644319D01*
X126613412Y-68644319D02*
X126613412Y-68549081D01*
X126613412Y-68549081D02*
X126565793Y-68453843D01*
X126565793Y-68453843D02*
X126518174Y-68406224D01*
X126518174Y-68406224D02*
X126422936Y-68358605D01*
X126422936Y-68358605D02*
X126184841Y-68358605D01*
X126184841Y-68358605D02*
X126041984Y-68406224D01*
X125041984Y-69263366D02*
X125089603Y-69310986D01*
X125089603Y-69310986D02*
X125232460Y-69358605D01*
X125232460Y-69358605D02*
X125327698Y-69358605D01*
X125327698Y-69358605D02*
X125470555Y-69310986D01*
X125470555Y-69310986D02*
X125565793Y-69215747D01*
X125565793Y-69215747D02*
X125613412Y-69120509D01*
X125613412Y-69120509D02*
X125661031Y-68930033D01*
X125661031Y-68930033D02*
X125661031Y-68787176D01*
X125661031Y-68787176D02*
X125613412Y-68596700D01*
X125613412Y-68596700D02*
X125565793Y-68501462D01*
X125565793Y-68501462D02*
X125470555Y-68406224D01*
X125470555Y-68406224D02*
X125327698Y-68358605D01*
X125327698Y-68358605D02*
X125232460Y-68358605D01*
X125232460Y-68358605D02*
X125089603Y-68406224D01*
X125089603Y-68406224D02*
X125041984Y-68453843D01*
X124137222Y-69358605D02*
X124613412Y-69358605D01*
X124613412Y-69358605D02*
X124613412Y-68358605D01*
X129637222Y-69310986D02*
X129494365Y-69358605D01*
X129494365Y-69358605D02*
X129256270Y-69358605D01*
X129256270Y-69358605D02*
X129161032Y-69310986D01*
X129161032Y-69310986D02*
X129113413Y-69263366D01*
X129113413Y-69263366D02*
X129065794Y-69168128D01*
X129065794Y-69168128D02*
X129065794Y-69072890D01*
X129065794Y-69072890D02*
X129113413Y-68977652D01*
X129113413Y-68977652D02*
X129161032Y-68930033D01*
X129161032Y-68930033D02*
X129256270Y-68882414D01*
X129256270Y-68882414D02*
X129446746Y-68834795D01*
X129446746Y-68834795D02*
X129541984Y-68787176D01*
X129541984Y-68787176D02*
X129589603Y-68739557D01*
X129589603Y-68739557D02*
X129637222Y-68644319D01*
X129637222Y-68644319D02*
X129637222Y-68549081D01*
X129637222Y-68549081D02*
X129589603Y-68453843D01*
X129589603Y-68453843D02*
X129541984Y-68406224D01*
X129541984Y-68406224D02*
X129446746Y-68358605D01*
X129446746Y-68358605D02*
X129208651Y-68358605D01*
X129208651Y-68358605D02*
X129065794Y-68406224D01*
X128637222Y-69358605D02*
X128637222Y-68358605D01*
X128637222Y-68358605D02*
X128399127Y-68358605D01*
X128399127Y-68358605D02*
X128256270Y-68406224D01*
X128256270Y-68406224D02*
X128161032Y-68501462D01*
X128161032Y-68501462D02*
X128113413Y-68596700D01*
X128113413Y-68596700D02*
X128065794Y-68787176D01*
X128065794Y-68787176D02*
X128065794Y-68930033D01*
X128065794Y-68930033D02*
X128113413Y-69120509D01*
X128113413Y-69120509D02*
X128161032Y-69215747D01*
X128161032Y-69215747D02*
X128256270Y-69310986D01*
X128256270Y-69310986D02*
X128399127Y-69358605D01*
X128399127Y-69358605D02*
X128637222Y-69358605D01*
X127684841Y-69072890D02*
X127208651Y-69072890D01*
X127780079Y-69358605D02*
X127446746Y-68358605D01*
X127446746Y-68358605D02*
X127113413Y-69358605D01*
D11*
X116149046Y-29544262D02*
X115815713Y-29544262D01*
X115910951Y-29544262D02*
X115863332Y-29568072D01*
X115863332Y-29568072D02*
X115839522Y-29591881D01*
X115839522Y-29591881D02*
X115815713Y-29639500D01*
X115815713Y-29639500D02*
X115815713Y-29687119D01*
X116125237Y-30044262D02*
X116149046Y-29996643D01*
X116149046Y-29996643D02*
X116149046Y-29901405D01*
X116149046Y-29901405D02*
X116125237Y-29853786D01*
X116125237Y-29853786D02*
X116077617Y-29829977D01*
X116077617Y-29829977D02*
X115887141Y-29829977D01*
X115887141Y-29829977D02*
X115839522Y-29853786D01*
X115839522Y-29853786D02*
X115815713Y-29901405D01*
X115815713Y-29901405D02*
X115815713Y-29996643D01*
X115815713Y-29996643D02*
X115839522Y-30044262D01*
X115839522Y-30044262D02*
X115887141Y-30068072D01*
X115887141Y-30068072D02*
X115934760Y-30068072D01*
X115934760Y-30068072D02*
X115982379Y-29829977D01*
X116125237Y-30258548D02*
X116149046Y-30306167D01*
X116149046Y-30306167D02*
X116149046Y-30401405D01*
X116149046Y-30401405D02*
X116125237Y-30449024D01*
X116125237Y-30449024D02*
X116077617Y-30472833D01*
X116077617Y-30472833D02*
X116053808Y-30472833D01*
X116053808Y-30472833D02*
X116006189Y-30449024D01*
X116006189Y-30449024D02*
X115982379Y-30401405D01*
X115982379Y-30401405D02*
X115982379Y-30329976D01*
X115982379Y-30329976D02*
X115958570Y-30282357D01*
X115958570Y-30282357D02*
X115910951Y-30258548D01*
X115910951Y-30258548D02*
X115887141Y-30258548D01*
X115887141Y-30258548D02*
X115839522Y-30282357D01*
X115839522Y-30282357D02*
X115815713Y-30329976D01*
X115815713Y-30329976D02*
X115815713Y-30401405D01*
X115815713Y-30401405D02*
X115839522Y-30449024D01*
X116125237Y-30877595D02*
X116149046Y-30829976D01*
X116149046Y-30829976D02*
X116149046Y-30734738D01*
X116149046Y-30734738D02*
X116125237Y-30687119D01*
X116125237Y-30687119D02*
X116077617Y-30663310D01*
X116077617Y-30663310D02*
X115887141Y-30663310D01*
X115887141Y-30663310D02*
X115839522Y-30687119D01*
X115839522Y-30687119D02*
X115815713Y-30734738D01*
X115815713Y-30734738D02*
X115815713Y-30829976D01*
X115815713Y-30829976D02*
X115839522Y-30877595D01*
X115839522Y-30877595D02*
X115887141Y-30901405D01*
X115887141Y-30901405D02*
X115934760Y-30901405D01*
X115934760Y-30901405D02*
X115982379Y-30663310D01*
X115815713Y-31044262D02*
X115815713Y-31234738D01*
X115649046Y-31115690D02*
X116077617Y-31115690D01*
X116077617Y-31115690D02*
X116125237Y-31139500D01*
X116125237Y-31139500D02*
X116149046Y-31187119D01*
X116149046Y-31187119D02*
X116149046Y-31234738D01*
X132982460Y-78989419D02*
X133363413Y-78989419D01*
X133172936Y-79179895D02*
X133172936Y-78798943D01*
X132982460Y-80989419D02*
X133363413Y-80989419D01*
D12*
%TO.C,D1*%
X17272937Y-83385786D02*
X19172937Y-83385786D01*
X17272937Y-83385786D02*
X17272937Y-79725786D01*
X19172937Y-83385786D02*
X19172937Y-79725786D01*
%TO.C,D2*%
X17272937Y-64335786D02*
X19172937Y-64335786D01*
X17272937Y-64335786D02*
X17272937Y-60675786D01*
X19172937Y-64335786D02*
X19172937Y-60675786D01*
%TO.C,D3*%
X17272937Y-45285786D02*
X19172937Y-45285786D01*
X17272937Y-45285786D02*
X17272937Y-41625786D01*
X19172937Y-45285786D02*
X19172937Y-41625786D01*
%TO.C,D4*%
X36322937Y-75765786D02*
X38222937Y-75765786D01*
X36322937Y-75765786D02*
X36322937Y-72105786D01*
X38222937Y-75765786D02*
X38222937Y-72105786D01*
%TO.C,D5*%
X36322937Y-56715786D02*
X38222937Y-56715786D01*
X36322937Y-56715786D02*
X36322937Y-53055786D01*
X38222937Y-56715786D02*
X38222937Y-53055786D01*
%TO.C,D6*%
X36322937Y-37665786D02*
X38222937Y-37665786D01*
X36322937Y-37665786D02*
X36322937Y-34005786D01*
X38222937Y-37665786D02*
X38222937Y-34005786D01*
%TO.C,D7*%
X55372937Y-70431786D02*
X57272937Y-70431786D01*
X55372937Y-70431786D02*
X55372937Y-66771786D01*
X57272937Y-70431786D02*
X57272937Y-66771786D01*
%TO.C,D8*%
X55372937Y-51381786D02*
X57272937Y-51381786D01*
X55372937Y-51381786D02*
X55372937Y-47721786D01*
X57272937Y-51381786D02*
X57272937Y-47721786D01*
%TO.C,D9*%
X55372937Y-32331786D02*
X57272937Y-32331786D01*
X55372937Y-32331786D02*
X55372937Y-28671786D01*
X57272937Y-32331786D02*
X57272937Y-28671786D01*
%TO.C,D10*%
X74422937Y-76718286D02*
X76322937Y-76718286D01*
X74422937Y-76718286D02*
X74422937Y-73058286D01*
X76322937Y-76718286D02*
X76322937Y-73058286D01*
%TO.C,D11*%
X74422937Y-57668286D02*
X76322937Y-57668286D01*
X74422937Y-57668286D02*
X74422937Y-54008286D01*
X76322937Y-57668286D02*
X76322937Y-54008286D01*
%TO.C,D12*%
X74422937Y-38618286D02*
X76322937Y-38618286D01*
X74422937Y-38618286D02*
X74422937Y-34958286D01*
X76322937Y-38618286D02*
X76322937Y-34958286D01*
%TO.C,D13*%
X93472937Y-78813786D02*
X95372937Y-78813786D01*
X93472937Y-78813786D02*
X93472937Y-75153786D01*
X95372937Y-78813786D02*
X95372937Y-75153786D01*
%TO.C,D14*%
X93472937Y-59763786D02*
X95372937Y-59763786D01*
X93472937Y-59763786D02*
X93472937Y-56103786D01*
X95372937Y-59763786D02*
X95372937Y-56103786D01*
%TO.C,D15*%
X93472937Y-40713786D02*
X95372937Y-40713786D01*
X93472937Y-40713786D02*
X93472937Y-37053786D01*
X95372937Y-40713786D02*
X95372937Y-37053786D01*
%TO.C,D16*%
X83947937Y-97863786D02*
X85847937Y-97863786D01*
X83947937Y-97863786D02*
X83947937Y-94203786D01*
X85847937Y-97863786D02*
X85847937Y-94203786D01*
%TO.C,D17*%
X103438769Y-98000280D02*
X105312575Y-98314689D01*
X103438769Y-98000280D02*
X104044418Y-94390739D01*
X105312575Y-98314689D02*
X105918224Y-94705147D01*
%TO.C,D18*%
X122775962Y-101460539D02*
X124571907Y-102080686D01*
X122775962Y-101460539D02*
X123970561Y-98000982D01*
X124571907Y-102080686D02*
X125766506Y-98621129D01*
D10*
%TO.C,S1*%
X24222937Y-69325786D02*
X23722937Y-69825786D01*
X27222937Y-69325786D02*
X24222937Y-69325786D01*
X27722937Y-69825786D02*
X27222937Y-69325786D01*
X27722937Y-69825786D02*
X27722937Y-70745786D01*
X28242937Y-71325786D02*
X32722937Y-71325786D01*
X32722937Y-71325786D02*
X32722937Y-71925786D01*
X28242937Y-71325786D02*
G75*
G02*
X27722937Y-70745786I30000J550000D01*
G01*
X24222937Y-73825786D02*
X23722937Y-73325786D01*
X26522937Y-73825786D02*
X24222937Y-73825786D01*
X28222937Y-76025786D02*
X28222937Y-75325786D01*
X32722937Y-76025786D02*
X28222937Y-76025786D01*
X32722937Y-75525786D02*
X32722937Y-76025786D01*
X26522937Y-73825786D02*
G75*
G02*
X28222937Y-75305786I110000J-1590000D01*
G01*
%TO.C,S2*%
X24222937Y-50275786D02*
X23722937Y-50775786D01*
X27222937Y-50275786D02*
X24222937Y-50275786D01*
X27722937Y-50775786D02*
X27222937Y-50275786D01*
X27722937Y-50775786D02*
X27722937Y-51695786D01*
X28242937Y-52275786D02*
X32722937Y-52275786D01*
X32722937Y-52275786D02*
X32722937Y-52875786D01*
X28242937Y-52275786D02*
G75*
G02*
X27722937Y-51695786I30000J550000D01*
G01*
X24222937Y-54775786D02*
X23722937Y-54275786D01*
X26522937Y-54775786D02*
X24222937Y-54775786D01*
X28222937Y-56975786D02*
X28222937Y-56275786D01*
X32722937Y-56975786D02*
X28222937Y-56975786D01*
X32722937Y-56475786D02*
X32722937Y-56975786D01*
X26522937Y-54775786D02*
G75*
G02*
X28222937Y-56255786I110000J-1590000D01*
G01*
%TO.C,S3*%
X24222937Y-31225786D02*
X23722937Y-31725786D01*
X27222937Y-31225786D02*
X24222937Y-31225786D01*
X27722937Y-31725786D02*
X27222937Y-31225786D01*
X27722937Y-31725786D02*
X27722937Y-32645786D01*
X28242937Y-33225786D02*
X32722937Y-33225786D01*
X32722937Y-33225786D02*
X32722937Y-33825786D01*
X28242937Y-33225786D02*
G75*
G02*
X27722937Y-32645786I30000J550000D01*
G01*
X24222937Y-35725786D02*
X23722937Y-35225786D01*
X26522937Y-35725786D02*
X24222937Y-35725786D01*
X28222937Y-37925786D02*
X28222937Y-37225786D01*
X32722937Y-37925786D02*
X28222937Y-37925786D01*
X32722937Y-37425786D02*
X32722937Y-37925786D01*
X26522937Y-35725786D02*
G75*
G02*
X28222937Y-37205786I110000J-1590000D01*
G01*
%TO.C,S4*%
X43272937Y-61705786D02*
X42772937Y-62205786D01*
X46272937Y-61705786D02*
X43272937Y-61705786D01*
X46772937Y-62205786D02*
X46272937Y-61705786D01*
X46772937Y-62205786D02*
X46772937Y-63125786D01*
X47292937Y-63705786D02*
X51772937Y-63705786D01*
X51772937Y-63705786D02*
X51772937Y-64305786D01*
X47292937Y-63705786D02*
G75*
G02*
X46772937Y-63125786I30000J550000D01*
G01*
X43272937Y-66205786D02*
X42772937Y-65705786D01*
X45572937Y-66205786D02*
X43272937Y-66205786D01*
X47272937Y-68405786D02*
X47272937Y-67705786D01*
X51772937Y-68405786D02*
X47272937Y-68405786D01*
X51772937Y-67905786D02*
X51772937Y-68405786D01*
X45572937Y-66205786D02*
G75*
G02*
X47272937Y-67685786I110000J-1590000D01*
G01*
%TO.C,S5*%
X43272937Y-42655786D02*
X42772937Y-43155786D01*
X46272937Y-42655786D02*
X43272937Y-42655786D01*
X46772937Y-43155786D02*
X46272937Y-42655786D01*
X46772937Y-43155786D02*
X46772937Y-44075786D01*
X47292937Y-44655786D02*
X51772937Y-44655786D01*
X51772937Y-44655786D02*
X51772937Y-45255786D01*
X47292937Y-44655786D02*
G75*
G02*
X46772937Y-44075786I30000J550000D01*
G01*
X43272937Y-47155786D02*
X42772937Y-46655786D01*
X45572937Y-47155786D02*
X43272937Y-47155786D01*
X47272937Y-49355786D02*
X47272937Y-48655786D01*
X51772937Y-49355786D02*
X47272937Y-49355786D01*
X51772937Y-48855786D02*
X51772937Y-49355786D01*
X45572937Y-47155786D02*
G75*
G02*
X47272937Y-48635786I110000J-1590000D01*
G01*
%TO.C,S6*%
X43272937Y-23605786D02*
X42772937Y-24105786D01*
X46272937Y-23605786D02*
X43272937Y-23605786D01*
X46772937Y-24105786D02*
X46272937Y-23605786D01*
X46772937Y-24105786D02*
X46772937Y-25025786D01*
X47292937Y-25605786D02*
X51772937Y-25605786D01*
X51772937Y-25605786D02*
X51772937Y-26205786D01*
X47292937Y-25605786D02*
G75*
G02*
X46772937Y-25025786I30000J550000D01*
G01*
X43272937Y-28105786D02*
X42772937Y-27605786D01*
X45572937Y-28105786D02*
X43272937Y-28105786D01*
X47272937Y-30305786D02*
X47272937Y-29605786D01*
X51772937Y-30305786D02*
X47272937Y-30305786D01*
X51772937Y-29805786D02*
X51772937Y-30305786D01*
X45572937Y-28105786D02*
G75*
G02*
X47272937Y-29585786I110000J-1590000D01*
G01*
%TO.C,S7*%
X62322937Y-56371786D02*
X61822937Y-56871786D01*
X65322937Y-56371786D02*
X62322937Y-56371786D01*
X65822937Y-56871786D02*
X65322937Y-56371786D01*
X65822937Y-56871786D02*
X65822937Y-57791786D01*
X66342937Y-58371786D02*
X70822937Y-58371786D01*
X70822937Y-58371786D02*
X70822937Y-58971786D01*
X66342937Y-58371786D02*
G75*
G02*
X65822937Y-57791786I30000J550000D01*
G01*
X62322937Y-60871786D02*
X61822937Y-60371786D01*
X64622937Y-60871786D02*
X62322937Y-60871786D01*
X66322937Y-63071786D02*
X66322937Y-62371786D01*
X70822937Y-63071786D02*
X66322937Y-63071786D01*
X70822937Y-62571786D02*
X70822937Y-63071786D01*
X64622937Y-60871786D02*
G75*
G02*
X66322937Y-62351786I110000J-1590000D01*
G01*
%TO.C,S8*%
X62322937Y-37321786D02*
X61822937Y-37821786D01*
X65322937Y-37321786D02*
X62322937Y-37321786D01*
X65822937Y-37821786D02*
X65322937Y-37321786D01*
X65822937Y-37821786D02*
X65822937Y-38741786D01*
X66342937Y-39321786D02*
X70822937Y-39321786D01*
X70822937Y-39321786D02*
X70822937Y-39921786D01*
X66342937Y-39321786D02*
G75*
G02*
X65822937Y-38741786I30000J550000D01*
G01*
X62322937Y-41821786D02*
X61822937Y-41321786D01*
X64622937Y-41821786D02*
X62322937Y-41821786D01*
X66322937Y-44021786D02*
X66322937Y-43321786D01*
X70822937Y-44021786D02*
X66322937Y-44021786D01*
X70822937Y-43521786D02*
X70822937Y-44021786D01*
X64622937Y-41821786D02*
G75*
G02*
X66322937Y-43301786I110000J-1590000D01*
G01*
%TO.C,S9*%
X62322937Y-18271786D02*
X61822937Y-18771786D01*
X65322937Y-18271786D02*
X62322937Y-18271786D01*
X65822937Y-18771786D02*
X65322937Y-18271786D01*
X65822937Y-18771786D02*
X65822937Y-19691786D01*
X66342937Y-20271786D02*
X70822937Y-20271786D01*
X70822937Y-20271786D02*
X70822937Y-20871786D01*
X66342937Y-20271786D02*
G75*
G02*
X65822937Y-19691786I30000J550000D01*
G01*
X62322937Y-22771786D02*
X61822937Y-22271786D01*
X64622937Y-22771786D02*
X62322937Y-22771786D01*
X66322937Y-24971786D02*
X66322937Y-24271786D01*
X70822937Y-24971786D02*
X66322937Y-24971786D01*
X70822937Y-24471786D02*
X70822937Y-24971786D01*
X64622937Y-22771786D02*
G75*
G02*
X66322937Y-24251786I110000J-1590000D01*
G01*
%TO.C,S10*%
X81372937Y-62658286D02*
X80872937Y-63158286D01*
X84372937Y-62658286D02*
X81372937Y-62658286D01*
X84872937Y-63158286D02*
X84372937Y-62658286D01*
X84872937Y-63158286D02*
X84872937Y-64078286D01*
X85392937Y-64658286D02*
X89872937Y-64658286D01*
X89872937Y-64658286D02*
X89872937Y-65258286D01*
X85392937Y-64658286D02*
G75*
G02*
X84872937Y-64078286I30000J550000D01*
G01*
X81372937Y-67158286D02*
X80872937Y-66658286D01*
X83672937Y-67158286D02*
X81372937Y-67158286D01*
X85372937Y-69358286D02*
X85372937Y-68658286D01*
X89872937Y-69358286D02*
X85372937Y-69358286D01*
X89872937Y-68858286D02*
X89872937Y-69358286D01*
X83672937Y-67158286D02*
G75*
G02*
X85372937Y-68638286I110000J-1590000D01*
G01*
%TO.C,S11*%
X81372937Y-43608286D02*
X80872937Y-44108286D01*
X84372937Y-43608286D02*
X81372937Y-43608286D01*
X84872937Y-44108286D02*
X84372937Y-43608286D01*
X84872937Y-44108286D02*
X84872937Y-45028286D01*
X85392937Y-45608286D02*
X89872937Y-45608286D01*
X89872937Y-45608286D02*
X89872937Y-46208286D01*
X85392937Y-45608286D02*
G75*
G02*
X84872937Y-45028286I30000J550000D01*
G01*
X81372937Y-48108286D02*
X80872937Y-47608286D01*
X83672937Y-48108286D02*
X81372937Y-48108286D01*
X85372937Y-50308286D02*
X85372937Y-49608286D01*
X89872937Y-50308286D02*
X85372937Y-50308286D01*
X89872937Y-49808286D02*
X89872937Y-50308286D01*
X83672937Y-48108286D02*
G75*
G02*
X85372937Y-49588286I110000J-1590000D01*
G01*
%TO.C,S12*%
X81372937Y-24558286D02*
X80872937Y-25058286D01*
X84372937Y-24558286D02*
X81372937Y-24558286D01*
X84872937Y-25058286D02*
X84372937Y-24558286D01*
X84872937Y-25058286D02*
X84872937Y-25978286D01*
X85392937Y-26558286D02*
X89872937Y-26558286D01*
X89872937Y-26558286D02*
X89872937Y-27158286D01*
X85392937Y-26558286D02*
G75*
G02*
X84872937Y-25978286I30000J550000D01*
G01*
X81372937Y-29058286D02*
X80872937Y-28558286D01*
X83672937Y-29058286D02*
X81372937Y-29058286D01*
X85372937Y-31258286D02*
X85372937Y-30558286D01*
X89872937Y-31258286D02*
X85372937Y-31258286D01*
X89872937Y-30758286D02*
X89872937Y-31258286D01*
X83672937Y-29058286D02*
G75*
G02*
X85372937Y-30538286I110000J-1590000D01*
G01*
%TO.C,S13*%
X100422937Y-64753786D02*
X99922937Y-65253786D01*
X103422937Y-64753786D02*
X100422937Y-64753786D01*
X103922937Y-65253786D02*
X103422937Y-64753786D01*
X103922937Y-65253786D02*
X103922937Y-66173786D01*
X104442937Y-66753786D02*
X108922937Y-66753786D01*
X108922937Y-66753786D02*
X108922937Y-67353786D01*
X104442937Y-66753786D02*
G75*
G02*
X103922937Y-66173786I30000J550000D01*
G01*
X100422937Y-69253786D02*
X99922937Y-68753786D01*
X102722937Y-69253786D02*
X100422937Y-69253786D01*
X104422937Y-71453786D02*
X104422937Y-70753786D01*
X108922937Y-71453786D02*
X104422937Y-71453786D01*
X108922937Y-70953786D02*
X108922937Y-71453786D01*
X102722937Y-69253786D02*
G75*
G02*
X104422937Y-70733786I110000J-1590000D01*
G01*
%TO.C,S14*%
X100422937Y-45703786D02*
X99922937Y-46203786D01*
X103422937Y-45703786D02*
X100422937Y-45703786D01*
X103922937Y-46203786D02*
X103422937Y-45703786D01*
X103922937Y-46203786D02*
X103922937Y-47123786D01*
X104442937Y-47703786D02*
X108922937Y-47703786D01*
X108922937Y-47703786D02*
X108922937Y-48303786D01*
X104442937Y-47703786D02*
G75*
G02*
X103922937Y-47123786I30000J550000D01*
G01*
X100422937Y-50203786D02*
X99922937Y-49703786D01*
X102722937Y-50203786D02*
X100422937Y-50203786D01*
X104422937Y-52403786D02*
X104422937Y-51703786D01*
X108922937Y-52403786D02*
X104422937Y-52403786D01*
X108922937Y-51903786D02*
X108922937Y-52403786D01*
X102722937Y-50203786D02*
G75*
G02*
X104422937Y-51683786I110000J-1590000D01*
G01*
%TO.C,S15*%
X100422937Y-26653786D02*
X99922937Y-27153786D01*
X103422937Y-26653786D02*
X100422937Y-26653786D01*
X103922937Y-27153786D02*
X103422937Y-26653786D01*
X103922937Y-27153786D02*
X103922937Y-28073786D01*
X104442937Y-28653786D02*
X108922937Y-28653786D01*
X108922937Y-28653786D02*
X108922937Y-29253786D01*
X104442937Y-28653786D02*
G75*
G02*
X103922937Y-28073786I30000J550000D01*
G01*
X100422937Y-31153786D02*
X99922937Y-30653786D01*
X102722937Y-31153786D02*
X100422937Y-31153786D01*
X104422937Y-33353786D02*
X104422937Y-32653786D01*
X108922937Y-33353786D02*
X104422937Y-33353786D01*
X108922937Y-32853786D02*
X108922937Y-33353786D01*
X102722937Y-31153786D02*
G75*
G02*
X104422937Y-32633786I110000J-1590000D01*
G01*
%TO.C,S16*%
X90897937Y-83803786D02*
X90397937Y-84303786D01*
X93897937Y-83803786D02*
X90897937Y-83803786D01*
X94397937Y-84303786D02*
X93897937Y-83803786D01*
X94397937Y-84303786D02*
X94397937Y-85223786D01*
X94917937Y-85803786D02*
X99397937Y-85803786D01*
X99397937Y-85803786D02*
X99397937Y-86403786D01*
X94917937Y-85803786D02*
G75*
G02*
X94397937Y-85223786I30000J550000D01*
G01*
X90897937Y-88303786D02*
X90397937Y-87803786D01*
X93197937Y-88303786D02*
X90897937Y-88303786D01*
X94897937Y-90503786D02*
X94897937Y-89803786D01*
X99397937Y-90503786D02*
X94897937Y-90503786D01*
X99397937Y-90003786D02*
X99397937Y-90503786D01*
X93197937Y-88303786D02*
G75*
G02*
X94897937Y-89783786I110000J-1590000D01*
G01*
%TO.C,S17*%
X112619573Y-85284190D02*
X112043727Y-85694558D01*
X115578213Y-85780624D02*
X112619573Y-85284190D01*
X115988581Y-86356470D02*
X115578213Y-85780624D01*
X115988581Y-86356470D02*
X115836341Y-87263786D01*
X116253195Y-87921839D02*
X120671432Y-88663180D01*
X120671432Y-88663180D02*
X120572145Y-89254908D01*
X116253195Y-87921839D02*
G75*
G02*
X115836341Y-87263786I120599J537453D01*
G01*
X111874922Y-89722151D02*
X111464554Y-89146305D01*
X114143213Y-90102750D02*
X111874922Y-89722151D01*
X115455725Y-92553733D02*
X115571559Y-91863383D01*
X119893685Y-93298383D02*
X115455725Y-92553733D01*
X119976424Y-92805277D02*
X119893685Y-93298383D01*
X114143213Y-90102750D02*
G75*
G02*
X115574869Y-91843659I-154626J-1586282D01*
G01*
%TO.C,S18*%
X133934427Y-90438979D02*
X133298613Y-90748399D01*
X136770129Y-91418158D02*
X133934427Y-90438979D01*
X137079549Y-92053972D02*
X136770129Y-91418158D01*
X137079549Y-92053972D02*
X136779268Y-92923587D01*
X137081481Y-93641547D02*
X141316130Y-95103789D01*
X141316130Y-95103789D02*
X141120294Y-95670929D01*
X137081481Y-93641547D02*
G75*
G02*
X136779268Y-92923587I207874J510087D01*
G01*
X132465658Y-94692532D02*
X132156237Y-94056718D01*
X134639696Y-95443236D02*
X132465658Y-94692532D01*
X135528529Y-98077620D02*
X135757004Y-97415956D01*
X139782082Y-99546389D02*
X135528529Y-98077620D01*
X139945279Y-99073772D02*
X139782082Y-99546389D01*
X134639696Y-95443236D02*
G75*
G02*
X135763533Y-97397051I-414989J-1538826D01*
G01*
%TO.C,*%
X115032937Y-66183786D02*
X132812937Y-66183786D01*
X132812937Y-66183786D02*
X132812937Y-33163786D01*
X132812937Y-33163786D02*
X127732937Y-33163786D01*
X127732937Y-33163786D02*
X127732937Y-30623786D01*
X127732937Y-30623786D02*
X120112937Y-30623786D01*
X120112937Y-30623786D02*
X120112937Y-33163786D01*
X120112937Y-33163786D02*
X115032937Y-33163786D01*
X115032937Y-33163786D02*
X115032937Y-66183786D01*
D12*
%TO.C,DISP1*%
X129062937Y-71273786D02*
X129062937Y-73933786D01*
X129062937Y-71273786D02*
X118782937Y-71273786D01*
X129062937Y-73933786D02*
X118782937Y-73933786D01*
X118782937Y-71273786D02*
X118782937Y-73933786D01*
D11*
%TO.C,S19*%
X113922937Y-29353786D02*
X113922937Y-28353786D01*
X113922937Y-28353786D02*
X117922937Y-28353786D01*
X117922937Y-28353786D02*
X117922937Y-29353786D01*
X113922937Y-31353786D02*
X113922937Y-32353786D01*
X113922937Y-32353786D02*
X117922937Y-32353786D01*
X117922937Y-32353786D02*
X117922937Y-31353786D01*
D12*
%TO.C,_2*%
X133382937Y-76893786D02*
X125562937Y-76893786D01*
X131782937Y-76893786D02*
X131782937Y-77813786D01*
X125562937Y-76893786D02*
X125562937Y-83013786D01*
X129422937Y-77653786D02*
X127822937Y-77653786D01*
X127822937Y-77653786D02*
X127822937Y-78653786D01*
X133382937Y-77813786D02*
X133382937Y-76893786D01*
X131782937Y-77813786D02*
X133382937Y-77813786D01*
X131782937Y-78093786D02*
X131782937Y-77813786D01*
X131782937Y-78093786D02*
X132997937Y-78093786D01*
X127822937Y-78153786D02*
X125562937Y-78153786D01*
X129422937Y-78653786D02*
X129422937Y-77653786D01*
X127822937Y-78653786D02*
X129422937Y-78653786D01*
X127822937Y-78653786D02*
X125562937Y-78653786D01*
X129922937Y-79453786D02*
X129922937Y-80453786D01*
X125562937Y-79453786D02*
X129922937Y-79453786D01*
X129922937Y-80453786D02*
X125562937Y-80453786D01*
X129422937Y-81253786D02*
X129422937Y-82253786D01*
X127822937Y-81253786D02*
X129422937Y-81253786D01*
X133382937Y-82093786D02*
X131782937Y-82093786D01*
X131782937Y-82093786D02*
X131782937Y-81813786D01*
X129422937Y-82253786D02*
X127822937Y-82253786D01*
X127822937Y-82253786D02*
X127822937Y-81253786D01*
X133382937Y-83013786D02*
X133382937Y-82093786D01*
X131782937Y-83013786D02*
X131782937Y-82093786D01*
X125562937Y-83013786D02*
X133382937Y-83013786D01*
%TD*%
M02*
