M48
; DRILL file {KiCad 8.0.6} date 2024-12-06T19:50:59+0100
; FORMAT={-:-/ absolute / inch / decimal}
; #@! TF.CreationDate,2024-12-06T19:50:59+01:00
; #@! TF.GenerationSoftware,Kicad,Pcbnew,8.0.6
; #@! TF.FileFunction,NonPlated,1,2,NPTH
FMAT,2
INCH
; #@! TA.AperFunction,NonPlated,NPTH,ComponentDrill
T1C0.0354
; #@! TA.AperFunction,NonPlated,NPTH,ComponentDrill
T2C0.0748
; #@! TA.AperFunction,NonPlated,NPTH,ComponentDrill
T3C0.1181
; #@! TA.AperFunction,NonPlated,NPTH,ComponentDrill
T4C0.1969
%
G90
G05
T1
X4.8198Y-1.1427
X4.8198Y-1.1427
X4.9379Y-1.1427
X4.9379Y-1.1427
T2
X0.7962Y-1.5522
X0.7962Y-2.3022
X0.7962Y-3.0522
X1.2292Y-1.5522
X1.2292Y-2.3022
X1.2292Y-3.0522
X1.5462Y-1.2522
X1.5462Y-2.0022
X1.5462Y-2.7522
X1.9792Y-1.2522
X1.9792Y-2.0022
X1.9792Y-2.7522
X2.2962Y-1.0422
X2.2962Y-1.7922
X2.2962Y-2.5422
X2.7292Y-1.0422
X2.7292Y-1.7922
X2.7292Y-2.5422
X3.0462Y-1.2897
X3.0462Y-2.0397
X3.0462Y-2.7897
X3.4212Y-3.6222
X3.4792Y-1.2897
X3.4792Y-2.0397
X3.4792Y-2.7897
X3.7962Y-1.3722
X3.7962Y-2.1222
X3.7962Y-2.8722
X3.8542Y-3.6222
X4.2251Y-3.65
X4.2292Y-1.3722
X4.2292Y-2.1222
X4.2292Y-2.8722
X4.6522Y-3.7216
X5.0188Y-3.8143
X5.4281Y-3.9557
T3
X0.8159Y-1.4046
X0.8159Y-2.1546
X0.8159Y-2.9046
X1.0127Y-1.3179
X1.0127Y-2.0679
X1.0127Y-2.8179
X1.2096Y-1.4046
X1.2096Y-2.1546
X1.2096Y-2.9046
X1.5659Y-1.1046
X1.5659Y-1.8546
X1.5659Y-2.6046
X1.7627Y-1.0179
X1.7627Y-1.7679
X1.7627Y-2.5179
X1.9596Y-1.1046
X1.9596Y-1.8546
X1.9596Y-2.6046
X2.3159Y-0.8946
X2.3159Y-1.6446
X2.3159Y-2.3946
X2.5127Y-0.8079
X2.5127Y-1.5579
X2.5127Y-2.3079
X2.7096Y-0.8946
X2.7096Y-1.6446
X2.7096Y-2.3946
X3.0659Y-1.1421
X3.0659Y-1.8921
X3.0659Y-2.6421
X3.2627Y-1.0554
X3.2627Y-1.8054
X3.2627Y-2.5554
X3.4409Y-3.4746
X3.4596Y-1.1421
X3.4596Y-1.8921
X3.4596Y-2.6421
X3.6377Y-3.3879
X3.8159Y-1.2246
X3.8159Y-1.9746
X3.8159Y-2.7246
X3.8346Y-3.4746
X4.0127Y-1.1379
X4.0127Y-1.8879
X4.0127Y-2.6379
X4.2096Y-1.2246
X4.2096Y-1.9746
X4.2096Y-2.7246
X4.269Y-3.5076
X4.4774Y-3.4548
X4.6572Y-3.5728
X5.0856Y-3.6812
X5.2999Y-3.6636
X5.4577Y-3.8097
T4
X1.0127Y-1.5522
X1.0127Y-2.3022
X1.0127Y-3.0522
X1.7627Y-1.2522
X1.7627Y-2.0022
X1.7627Y-2.7522
X2.5127Y-1.0422
X2.5127Y-1.7922
X2.5127Y-2.5422
X3.2627Y-1.2897
X3.2627Y-2.0397
X3.2627Y-2.7897
X3.6377Y-3.6222
X4.0127Y-1.3722
X4.0127Y-2.1222
X4.0127Y-2.8722
X4.4387Y-3.6858
X5.2235Y-3.885
M30
