M48
; DRILL file {KiCad 8.0.6} date 2024-12-06T19:50:59+0100
; FORMAT={-:-/ absolute / inch / decimal}
; #@! TF.CreationDate,2024-12-06T19:50:59+01:00
; #@! TF.GenerationSoftware,Kicad,Pcbnew,8.0.6
; #@! TF.FileFunction,Plated,1,2,PTH
FMAT,2
INCH
; #@! TA.AperFunction,Plated,PTH,ViaDrill
T1C0.0118
; #@! TA.AperFunction,Plated,PTH,ComponentDrill
T2C0.0118
; #@! TA.AperFunction,Plated,PTH,ComponentDrill
T3C0.0157
; #@! TA.AperFunction,Plated,PTH,ComponentDrill
T4C0.0295
; #@! TA.AperFunction,Plated,PTH,ComponentDrill
T5C0.0394
; #@! TA.AperFunction,Plated,PTH,ComponentDrill
T6C0.0630
; #@! TA.AperFunction,Plated,PTH,ComponentDrill
T7C0.0866
%
G90
G05
T1
X0.8887Y-2.4613
X0.9543Y-2.6719
X0.9641Y-1.9543
X0.9989Y-2.6955
X1.0001Y-1.1774
X1.0096Y-1.1471
X1.0107Y-1.9679
X1.6338Y-2.329
X1.6796Y-1.6317
X1.7446Y-0.8546
X1.7509Y-2.3666
X1.7588Y-1.6648
X1.7639Y-0.8794
X1.7755Y-2.3933
X2.3887Y-2.1534
X2.4718Y-1.4309
X2.4859Y-0.6754
X2.5194Y-0.699
X2.5226Y-2.1971
X2.5324Y-1.4479
X2.5517Y-2.1652
X3.1387Y-2.3935
X3.2178Y-1.6695
X3.2454Y-0.9199
X3.2623Y-2.4479
X3.2816Y-1.6931
X3.2879Y-0.9435
X3.3887Y-2.4656
X3.5415Y-3.2683
X3.6564Y-3.29
X3.8887Y-2.4904
X3.93Y-1.7943
X3.9643Y-2.5349
X3.9686Y-1.0053
X4.0182Y-1.029
X4.023Y-2.5364
X4.0281Y-1.7857
X4.2115Y-2.4798
X4.2391Y-2.4498
X4.2874Y-2.4219
X4.3041Y-2.3951
X4.3367Y-2.3707
X4.4584Y-3.3487
X4.6046Y-3.3587
X4.8761Y-2.7534
X4.8765Y-1.2656
X4.9385Y-2.7061
X4.9537Y-1.2715
X4.98Y-2.7534
X5.0312Y-2.7226
X5.2934Y-3.0569
X5.3855Y-3.5742
X5.4659Y-3.627
T2
X0.7174Y-1.6388
X0.7174Y-1.749
X0.7174Y-2.3888
X0.7174Y-2.499
X0.7174Y-3.1388
X0.7174Y-3.249
X1.4674Y-1.3388
X1.4674Y-1.449
X1.4674Y-2.0888
X1.4674Y-2.199
X1.4674Y-2.8388
X1.4674Y-2.949
X2.2174Y-1.1288
X2.2174Y-1.239
X2.2174Y-1.8788
X2.2174Y-1.989
X2.2174Y-2.6288
X2.2174Y-2.739
X2.9674Y-1.3763
X2.9674Y-1.4865
X2.9674Y-2.1263
X2.9674Y-2.2365
X2.9674Y-2.8763
X2.9674Y-2.9865
X3.3424Y-3.7088
X3.3424Y-3.819
X3.7174Y-1.4588
X3.7174Y-1.569
X3.7174Y-2.2088
X3.7174Y-2.319
X3.7174Y-2.9588
X3.7174Y-3.069
X4.1149Y-3.8311
X4.1331Y-3.7224
X4.4852Y-1.195
X4.6426Y-1.195
X4.8801Y-3.9747
X4.9161Y-3.8705
T3
X4.7504Y-1.3557
X4.7504Y-1.4557
X4.7504Y-1.5557
X4.7504Y-1.6557
X4.7504Y-1.7557
X4.7504Y-1.8557
X4.7504Y-1.9557
X4.7504Y-2.0557
X4.7504Y-2.1557
X4.7504Y-2.2557
X4.7504Y-2.3557
X4.7504Y-2.4557
X4.7504Y-2.5557
X5.0073Y-1.3557
X5.0073Y-1.4557
X5.0073Y-1.5557
X5.0073Y-1.6557
X5.0073Y-1.7557
X5.0073Y-1.8557
X5.0073Y-1.9557
X5.0073Y-2.0557
X5.0073Y-2.1557
X5.0073Y-2.2557
X5.0073Y-2.3557
X5.0073Y-2.4557
X5.0073Y-2.5557
T4
X5.1938Y-3.1084
X5.1938Y-3.1872
T5
X4.5789Y-1.3557
X4.5789Y-1.4557
X4.5789Y-1.5557
X4.5789Y-1.6557
X4.5789Y-1.7557
X4.5789Y-1.8557
X4.5789Y-1.9557
X4.5789Y-2.0557
X4.5789Y-2.1557
X4.5789Y-2.2557
X4.5789Y-2.3557
X4.5789Y-2.4557
X4.5789Y-2.5557
X4.7289Y-2.8584
X4.8289Y-2.8584
X4.9289Y-2.8584
X5.0289Y-2.8584
X5.1789Y-1.3557
X5.1789Y-1.4557
X5.1789Y-1.5557
X5.1789Y-1.6557
X5.1789Y-1.7557
X5.1789Y-1.8557
X5.1789Y-1.9557
X5.1789Y-2.0557
X5.1789Y-2.1557
X5.1789Y-2.2557
X5.1789Y-2.3557
X5.1789Y-2.4557
X5.1789Y-2.5557
T6
X0.8159Y-1.755
X0.8159Y-2.505
X0.8159Y-3.255
X1.2096Y-1.755
X1.2096Y-2.505
X1.2096Y-3.255
X1.5659Y-1.455
X1.5659Y-2.205
X1.5659Y-2.955
X1.9596Y-1.455
X1.9596Y-2.205
X1.9596Y-2.955
X2.3159Y-1.245
X2.3159Y-1.995
X2.3159Y-2.745
X2.7096Y-1.245
X2.7096Y-1.995
X2.7096Y-2.745
X3.0659Y-1.4925
X3.0659Y-2.2425
X3.0659Y-2.9925
X3.4409Y-3.825
X3.4596Y-1.4925
X3.4596Y-2.2425
X3.4596Y-2.9925
X3.8159Y-1.575
X3.8159Y-2.325
X3.8159Y-3.075
X3.8346Y-3.825
X4.2096Y-1.575
X4.2096Y-2.325
X4.2096Y-3.075
X4.211Y-3.8532
X4.5992Y-3.9183
X4.9712Y-4.0124
X5.3434Y-4.1409
T7
X1.4143Y-1.6219
X1.4143Y-2.3719
X3.6377Y-1.7059
X3.6377Y-2.4559
X4.5245Y-2.8722
X5.2332Y-2.8722
M30
