%TF.GenerationSoftware,KiCad,Pcbnew,8.0.6*%
%TF.CreationDate,2024-12-06T19:51:08+01:00*%
%TF.ProjectId,keyboard_pcb,6b657962-6f61-4726-945f-7063622e6b69,0.0.3*%
%TF.SameCoordinates,Original*%
%TF.FileFunction,Copper,L2,Bot*%
%TF.FilePolarity,Positive*%
%FSLAX46Y46*%
G04 Gerber Fmt 4.6, Leading zero omitted, Abs format (unit mm)*
G04 Created by KiCad (PCBNEW 8.0.6) date 2024-12-06 19:51:08*
%MOMM*%
%LPD*%
G01*
G04 APERTURE LIST*
G04 Aperture macros list*
%AMRoundRect*
0 Rectangle with rounded corners*
0 $1 Rounding radius*
0 $2 $3 $4 $5 $6 $7 $8 $9 X,Y pos of 4 corners*
0 Add a 4 corners polygon primitive as box body*
4,1,4,$2,$3,$4,$5,$6,$7,$8,$9,$2,$3,0*
0 Add four circle primitives for the rounded corners*
1,1,$1+$1,$2,$3*
1,1,$1+$1,$4,$5*
1,1,$1+$1,$6,$7*
1,1,$1+$1,$8,$9*
0 Add four rect primitives between the rounded corners*
20,1,$1+$1,$2,$3,$4,$5,0*
20,1,$1+$1,$4,$5,$6,$7,0*
20,1,$1+$1,$6,$7,$8,$9,0*
20,1,$1+$1,$8,$9,$2,$3,0*%
%AMRotRect*
0 Rectangle, with rotation*
0 The origin of the aperture is its center*
0 $1 length*
0 $2 width*
0 $3 Rotation angle, in degrees counterclockwise*
0 Add horizontal line*
21,1,$1,$2,0,0,$3*%
%AMOutline5P*
0 Free polygon, 5 corners , with rotation*
0 The origin of the aperture is its center*
0 number of corners: always 5*
0 $1 to $10 corner X, Y*
0 $11 Rotation angle, in degrees counterclockwise*
0 create outline with 5 corners*
4,1,5,$1,$2,$3,$4,$5,$6,$7,$8,$9,$10,$1,$2,$11*%
%AMOutline6P*
0 Free polygon, 6 corners , with rotation*
0 The origin of the aperture is its center*
0 number of corners: always 6*
0 $1 to $12 corner X, Y*
0 $13 Rotation angle, in degrees counterclockwise*
0 create outline with 6 corners*
4,1,6,$1,$2,$3,$4,$5,$6,$7,$8,$9,$10,$11,$12,$1,$2,$13*%
%AMOutline7P*
0 Free polygon, 7 corners , with rotation*
0 The origin of the aperture is its center*
0 number of corners: always 7*
0 $1 to $14 corner X, Y*
0 $15 Rotation angle, in degrees counterclockwise*
0 create outline with 7 corners*
4,1,7,$1,$2,$3,$4,$5,$6,$7,$8,$9,$10,$11,$12,$13,$14,$1,$2,$15*%
%AMOutline8P*
0 Free polygon, 8 corners , with rotation*
0 The origin of the aperture is its center*
0 number of corners: always 8*
0 $1 to $16 corner X, Y*
0 $17 Rotation angle, in degrees counterclockwise*
0 create outline with 8 corners*
4,1,8,$1,$2,$3,$4,$5,$6,$7,$8,$9,$10,$11,$12,$13,$14,$15,$16,$1,$2,$17*%
%AMFreePoly0*
4,1,6,0.250000,0.000000,-0.250000,-0.625000,-0.500000,-0.625000,-0.500000,0.625000,-0.250000,0.625000,0.250000,0.000000,0.250000,0.000000,$1*%
%AMFreePoly1*
4,1,6,0.500000,-0.625000,-0.650000,-0.625000,-0.150000,0.000000,-0.650000,0.625000,0.500000,0.625000,0.500000,-0.625000,0.500000,-0.625000,$1*%
G04 Aperture macros list end*
%TA.AperFunction,ComponentPad*%
%ADD10R,1.200000X1.200000*%
%TD*%
%TA.AperFunction,ComponentPad*%
%ADD11RotRect,1.200000X1.200000X80.475000*%
%TD*%
%TA.AperFunction,ComponentPad*%
%ADD12RotRect,1.200000X1.200000X70.950000*%
%TD*%
%TA.AperFunction,ComponentPad*%
%ADD13C,1.900000*%
%TD*%
%TA.AperFunction,SMDPad,CuDef*%
%ADD14Outline5P,-1.300000X1.300000X1.300000X1.300000X1.300000X-1.300000X-0.117000X-1.300000X-1.300000X-0.117000X0.000000*%
%TD*%
%TA.AperFunction,SMDPad,CuDef*%
%ADD15R,2.600000X2.600000*%
%TD*%
%TA.AperFunction,SMDPad,CuDef*%
%ADD16Outline5P,-1.300000X1.300000X1.300000X1.300000X1.300000X-1.300000X-0.117000X-1.300000X-1.300000X-0.117000X350.475000*%
%TD*%
%TA.AperFunction,SMDPad,CuDef*%
%ADD17RotRect,2.600000X2.600000X350.475000*%
%TD*%
%TA.AperFunction,SMDPad,CuDef*%
%ADD18Outline5P,-1.300000X1.300000X1.300000X1.300000X1.300000X-1.300000X-0.117000X-1.300000X-1.300000X-0.117000X340.950000*%
%TD*%
%TA.AperFunction,SMDPad,CuDef*%
%ADD19RotRect,2.600000X2.600000X340.950000*%
%TD*%
%TA.AperFunction,ComponentPad*%
%ADD20O,1.700000X1.700000*%
%TD*%
%TA.AperFunction,ComponentPad*%
%ADD21C,0.800000*%
%TD*%
%TA.AperFunction,SMDPad,CuDef*%
%ADD22FreePoly0,0.000000*%
%TD*%
%TA.AperFunction,SMDPad,CuDef*%
%ADD23FreePoly1,0.000000*%
%TD*%
%TA.AperFunction,SMDPad,CuDef*%
%ADD24FreePoly0,180.000000*%
%TD*%
%TA.AperFunction,SMDPad,CuDef*%
%ADD25FreePoly1,180.000000*%
%TD*%
%TA.AperFunction,SMDPad,CuDef*%
%ADD26R,0.700000X1.500000*%
%TD*%
%TA.AperFunction,SMDPad,CuDef*%
%ADD27R,1.000000X0.800000*%
%TD*%
%TA.AperFunction,SMDPad,CuDef*%
%ADD28R,1.200000X0.600000*%
%TD*%
%TA.AperFunction,ComponentPad*%
%ADD29R,1.300000X1.000000*%
%TD*%
%TA.AperFunction,ComponentPad*%
%ADD30C,2.600000*%
%TD*%
%TA.AperFunction,ComponentPad*%
%ADD31RoundRect,0.250000X-0.625000X0.350000X-0.625000X-0.350000X0.625000X-0.350000X0.625000X0.350000X0*%
%TD*%
%TA.AperFunction,ComponentPad*%
%ADD32O,1.750000X1.200000*%
%TD*%
%TA.AperFunction,ViaPad*%
%ADD33C,0.600000*%
%TD*%
%TA.AperFunction,Conductor*%
%ADD34C,0.200000*%
%TD*%
%TA.AperFunction,Conductor*%
%ADD35C,0.250000*%
%TD*%
G04 APERTURE END LIST*
D10*
%TO.P,D1,1*%
%TO.N,P4*%
X18222937Y-82525786D03*
%TO.P,D1,2*%
X18222937Y-79725786D03*
%TD*%
%TO.P,D2,1*%
%TO.N,P3*%
X18222937Y-63475786D03*
%TO.P,D2,2*%
X18222937Y-60675786D03*
%TD*%
%TO.P,D3,1*%
%TO.N,P2*%
X18222937Y-44425786D03*
%TO.P,D3,2*%
X18222937Y-41625786D03*
%TD*%
%TO.P,D4,1*%
%TO.N,P4*%
X37272937Y-74905786D03*
%TO.P,D4,2*%
X37272937Y-72105786D03*
%TD*%
%TO.P,D5,1*%
%TO.N,P3*%
X37272937Y-55855786D03*
%TO.P,D5,2*%
X37272937Y-53055786D03*
%TD*%
%TO.P,D6,1*%
%TO.N,P2*%
X37272937Y-36805786D03*
%TO.P,D6,2*%
X37272937Y-34005786D03*
%TD*%
%TO.P,D7,1*%
%TO.N,P4*%
X56322937Y-69571786D03*
%TO.P,D7,2*%
X56322937Y-66771786D03*
%TD*%
%TO.P,D8,1*%
%TO.N,P3*%
X56322937Y-50521786D03*
%TO.P,D8,2*%
X56322937Y-47721786D03*
%TD*%
%TO.P,D9,1*%
%TO.N,P2*%
X56322937Y-31471786D03*
%TO.P,D9,2*%
X56322937Y-28671786D03*
%TD*%
%TO.P,D10,1*%
%TO.N,P4*%
X75372937Y-75858286D03*
%TO.P,D10,2*%
X75372937Y-73058286D03*
%TD*%
%TO.P,D11,1*%
%TO.N,P3*%
X75372937Y-56808286D03*
%TO.P,D11,2*%
X75372937Y-54008286D03*
%TD*%
%TO.P,D12,1*%
%TO.N,P2*%
X75372937Y-37758286D03*
%TO.P,D12,2*%
X75372937Y-34958286D03*
%TD*%
%TO.P,D13,1*%
%TO.N,P4*%
X94422937Y-77953786D03*
%TO.P,D13,2*%
X94422937Y-75153786D03*
%TD*%
%TO.P,D14,1*%
%TO.N,P3*%
X94422937Y-58903786D03*
%TO.P,D14,2*%
X94422937Y-56103786D03*
%TD*%
%TO.P,D15,1*%
%TO.N,P2*%
X94422937Y-39853786D03*
%TO.P,D15,2*%
X94422937Y-37053786D03*
%TD*%
%TO.P,D16,1*%
%TO.N,P5*%
X84897937Y-97003786D03*
%TO.P,D16,2*%
X84897937Y-94203786D03*
%TD*%
D11*
%TO.P,D17,1*%
%TO.N,P5*%
X104517983Y-97309341D03*
%TO.P,D17,2*%
X104981321Y-94547943D03*
%TD*%
D12*
%TO.P,D18,1*%
%TO.N,P5*%
X123954633Y-100957711D03*
%TO.P,D18,2*%
X124868533Y-98311055D03*
%TD*%
D13*
%TO.P,S1,*%
%TO.N,*%
X30722937Y-82675786D03*
X20722937Y-82675786D03*
D14*
%TO.P,S1,1*%
%TO.N,P10*%
X22447937Y-71575786D03*
D15*
%TO.P,S1,2*%
%TO.N,P4*%
X33997937Y-73775786D03*
%TD*%
D13*
%TO.P,S2,*%
%TO.N,*%
X30722937Y-63625786D03*
X20722937Y-63625786D03*
D14*
%TO.P,S2,1*%
%TO.N,P10*%
X22447937Y-52525786D03*
D15*
%TO.P,S2,2*%
%TO.N,P3*%
X33997937Y-54725786D03*
%TD*%
D13*
%TO.P,S3,*%
%TO.N,*%
X30722937Y-44575786D03*
X20722937Y-44575786D03*
D14*
%TO.P,S3,1*%
%TO.N,P10*%
X22447937Y-33475786D03*
D15*
%TO.P,S3,2*%
%TO.N,P2*%
X33997937Y-35675786D03*
%TD*%
D13*
%TO.P,S4,*%
%TO.N,*%
X49772937Y-75055786D03*
X39772937Y-75055786D03*
D14*
%TO.P,S4,1*%
%TO.N,P16*%
X41497937Y-63955786D03*
D15*
%TO.P,S4,2*%
%TO.N,P4*%
X53047937Y-66155786D03*
%TD*%
D13*
%TO.P,S5,*%
%TO.N,*%
X49772937Y-56005786D03*
X39772937Y-56005786D03*
D14*
%TO.P,S5,1*%
%TO.N,P16*%
X41497937Y-44905786D03*
D15*
%TO.P,S5,2*%
%TO.N,P3*%
X53047937Y-47105786D03*
%TD*%
D13*
%TO.P,S6,*%
%TO.N,*%
X49772937Y-36955786D03*
X39772937Y-36955786D03*
D14*
%TO.P,S6,1*%
%TO.N,P16*%
X41497937Y-25855786D03*
D15*
%TO.P,S6,2*%
%TO.N,P2*%
X53047937Y-28055786D03*
%TD*%
D13*
%TO.P,S7,*%
%TO.N,*%
X68822937Y-69721786D03*
X58822937Y-69721786D03*
D14*
%TO.P,S7,1*%
%TO.N,P14*%
X60547937Y-58621786D03*
D15*
%TO.P,S7,2*%
%TO.N,P4*%
X72097937Y-60821786D03*
%TD*%
D13*
%TO.P,S8,*%
%TO.N,*%
X68822937Y-50671786D03*
X58822937Y-50671786D03*
D14*
%TO.P,S8,1*%
%TO.N,P14*%
X60547937Y-39571786D03*
D15*
%TO.P,S8,2*%
%TO.N,P3*%
X72097937Y-41771786D03*
%TD*%
D13*
%TO.P,S9,*%
%TO.N,*%
X68822937Y-31621786D03*
X58822937Y-31621786D03*
D14*
%TO.P,S9,1*%
%TO.N,P14*%
X60547937Y-20521786D03*
D15*
%TO.P,S9,2*%
%TO.N,P2*%
X72097937Y-22721786D03*
%TD*%
D13*
%TO.P,S10,*%
%TO.N,*%
X87872937Y-76008286D03*
X77872937Y-76008286D03*
D14*
%TO.P,S10,1*%
%TO.N,P15*%
X79597937Y-64908286D03*
D15*
%TO.P,S10,2*%
%TO.N,P4*%
X91147937Y-67108286D03*
%TD*%
D13*
%TO.P,S11,*%
%TO.N,*%
X87872937Y-56958286D03*
X77872937Y-56958286D03*
D14*
%TO.P,S11,1*%
%TO.N,P15*%
X79597937Y-45858286D03*
D15*
%TO.P,S11,2*%
%TO.N,P3*%
X91147937Y-48058286D03*
%TD*%
D13*
%TO.P,S12,*%
%TO.N,*%
X87872937Y-37908286D03*
X77872937Y-37908286D03*
D14*
%TO.P,S12,1*%
%TO.N,P15*%
X79597937Y-26808286D03*
D15*
%TO.P,S12,2*%
%TO.N,P2*%
X91147937Y-29008286D03*
%TD*%
D13*
%TO.P,S13,*%
%TO.N,*%
X106922937Y-78103786D03*
X96922937Y-78103786D03*
D14*
%TO.P,S13,1*%
%TO.N,P18*%
X98647937Y-67003786D03*
D15*
%TO.P,S13,2*%
%TO.N,P4*%
X110197937Y-69203786D03*
%TD*%
D13*
%TO.P,S14,*%
%TO.N,*%
X106922937Y-59053786D03*
X96922937Y-59053786D03*
D14*
%TO.P,S14,1*%
%TO.N,P18*%
X98647937Y-47953786D03*
D15*
%TO.P,S14,2*%
%TO.N,P3*%
X110197937Y-50153786D03*
%TD*%
D13*
%TO.P,S15,*%
%TO.N,*%
X106922937Y-40003786D03*
X96922937Y-40003786D03*
D14*
%TO.P,S15,1*%
%TO.N,P18*%
X98647937Y-28903786D03*
D15*
%TO.P,S15,2*%
%TO.N,P2*%
X110197937Y-31103786D03*
%TD*%
D13*
%TO.P,S16,*%
%TO.N,*%
X97397937Y-97153786D03*
X87397937Y-97153786D03*
D14*
%TO.P,S16,1*%
%TO.N,P14*%
X89122937Y-86053786D03*
D15*
%TO.P,S16,2*%
%TO.N,P5*%
X100672937Y-88253786D03*
%TD*%
D13*
%TO.P,S17,*%
%TO.N,*%
X116820830Y-99525747D03*
X106958695Y-97870968D03*
D16*
%TO.P,S17,1*%
%TO.N,P15*%
X110496719Y-87209447D03*
D17*
%TO.P,S17,2*%
%TO.N,P5*%
X121523433Y-91290387D03*
%TD*%
D13*
%TO.P,S18,*%
%TO.N,*%
X135721100Y-105179409D03*
X126268759Y-101915478D03*
D18*
%TO.P,S18,1*%
%TO.N,P18*%
X131522252Y-91986408D03*
D19*
%TO.P,S18,2*%
%TO.N,P5*%
X141721641Y-97835763D03*
%TD*%
D20*
%TO.P,,0*%
%TO.N,_1_0*%
X116302937Y-34433786D03*
%TO.P,,25*%
%TO.N,_1_25*%
X131542937Y-34433786D03*
%TO.P,,1*%
%TO.N,_1_1*%
X116302937Y-36973786D03*
%TO.P,,24*%
%TO.N,_1_24*%
X131542937Y-36973786D03*
%TO.P,,2*%
%TO.N,_1_2*%
X116302937Y-39513786D03*
%TO.P,,23*%
%TO.N,_1_23*%
X131542937Y-39513786D03*
%TO.P,,3*%
%TO.N,_1_3*%
X116302937Y-42053786D03*
%TO.P,,22*%
%TO.N,_1_22*%
X131542937Y-42053786D03*
%TO.P,,4*%
%TO.N,_1_4*%
X116302937Y-44593786D03*
%TO.P,,21*%
%TO.N,_1_21*%
X131542937Y-44593786D03*
%TO.P,,5*%
%TO.N,_1_5*%
X116302937Y-47133786D03*
%TO.P,,20*%
%TO.N,_1_20*%
X131542937Y-47133786D03*
%TO.P,,6*%
%TO.N,_1_6*%
X116302937Y-49673786D03*
%TO.P,,19*%
%TO.N,_1_19*%
X131542937Y-49673786D03*
%TO.P,,7*%
%TO.N,_1_7*%
X116302937Y-52213786D03*
%TO.P,,18*%
%TO.N,_1_18*%
X131542937Y-52213786D03*
%TO.P,,8*%
%TO.N,_1_8*%
X116302937Y-54753786D03*
%TO.P,,17*%
%TO.N,_1_17*%
X131542937Y-54753786D03*
%TO.P,,9*%
%TO.N,_1_9*%
X116302937Y-57293786D03*
%TO.P,,16*%
%TO.N,_1_16*%
X131542937Y-57293786D03*
%TO.P,,10*%
%TO.N,_1_10*%
X116302937Y-59833786D03*
%TO.P,,15*%
%TO.N,_1_15*%
X131542937Y-59833786D03*
%TO.P,,11*%
%TO.N,_1_11*%
X116302937Y-62373786D03*
%TO.P,,14*%
%TO.N,_1_14*%
X131542937Y-62373786D03*
%TO.P,,12*%
%TO.N,_1_12*%
X116302937Y-64913786D03*
%TO.P,,13*%
%TO.N,_1_13*%
X131542937Y-64913786D03*
D21*
%TO.P,,0*%
%TO.N,B-*%
X120660937Y-34433786D03*
D22*
%TO.N,_1_0*%
X118302937Y-34433786D03*
D23*
%TO.N,B-*%
X119147937Y-34433786D03*
D21*
%TO.P,,25*%
%TO.N,B+*%
X127184937Y-34433786D03*
D24*
%TO.N,_1_25*%
X129542937Y-34433786D03*
D25*
%TO.N,B+*%
X128697937Y-34433786D03*
D21*
%TO.P,,1*%
%TO.N,P1*%
X120660937Y-36973786D03*
D22*
%TO.N,_1_1*%
X118302937Y-36973786D03*
D23*
%TO.N,P1*%
X119147937Y-36973786D03*
D21*
%TO.P,,24*%
%TO.N,RAW*%
X127184937Y-36973786D03*
D24*
%TO.N,_1_24*%
X129542937Y-36973786D03*
D25*
%TO.N,RAW*%
X128697937Y-36973786D03*
D21*
%TO.P,,2*%
%TO.N,P0*%
X120660937Y-39513786D03*
D22*
%TO.N,_1_2*%
X118302937Y-39513786D03*
D23*
%TO.N,P0*%
X119147937Y-39513786D03*
D21*
%TO.P,,23*%
%TO.N,GND*%
X127184937Y-39513786D03*
D24*
%TO.N,_1_23*%
X129542937Y-39513786D03*
D25*
%TO.N,GND*%
X128697937Y-39513786D03*
D21*
%TO.P,,3*%
X120660937Y-42053786D03*
D22*
%TO.N,_1_3*%
X118302937Y-42053786D03*
D23*
%TO.N,GND*%
X119147937Y-42053786D03*
D21*
%TO.P,,22*%
%TO.N,RST*%
X127184937Y-42053786D03*
D24*
%TO.N,_1_22*%
X129542937Y-42053786D03*
D25*
%TO.N,RST*%
X128697937Y-42053786D03*
D21*
%TO.P,,4*%
%TO.N,GND*%
X120660937Y-44593786D03*
D22*
%TO.N,_1_4*%
X118302937Y-44593786D03*
D23*
%TO.N,GND*%
X119147937Y-44593786D03*
D21*
%TO.P,,21*%
%TO.N,VCC*%
X127184937Y-44593786D03*
D24*
%TO.N,_1_21*%
X129542937Y-44593786D03*
D25*
%TO.N,VCC*%
X128697937Y-44593786D03*
D21*
%TO.P,,5*%
%TO.N,P2*%
X120660937Y-47133786D03*
D22*
%TO.N,_1_5*%
X118302937Y-47133786D03*
D23*
%TO.N,P2*%
X119147937Y-47133786D03*
D21*
%TO.P,,20*%
%TO.N,P21*%
X127184937Y-47133786D03*
D24*
%TO.N,_1_20*%
X129542937Y-47133786D03*
D25*
%TO.N,P21*%
X128697937Y-47133786D03*
D21*
%TO.P,,6*%
%TO.N,P3*%
X120660937Y-49673786D03*
D22*
%TO.N,_1_6*%
X118302937Y-49673786D03*
D23*
%TO.N,P3*%
X119147937Y-49673786D03*
D21*
%TO.P,,19*%
%TO.N,P20*%
X127184937Y-49673786D03*
D24*
%TO.N,_1_19*%
X129542937Y-49673786D03*
D25*
%TO.N,P20*%
X128697937Y-49673786D03*
D21*
%TO.P,,7*%
%TO.N,P4*%
X120660937Y-52213786D03*
D22*
%TO.N,_1_7*%
X118302937Y-52213786D03*
D23*
%TO.N,P4*%
X119147937Y-52213786D03*
D21*
%TO.P,,18*%
%TO.N,P19*%
X127184937Y-52213786D03*
D24*
%TO.N,_1_18*%
X129542937Y-52213786D03*
D25*
%TO.N,P19*%
X128697937Y-52213786D03*
D21*
%TO.P,,8*%
%TO.N,P5*%
X120660937Y-54753786D03*
D22*
%TO.N,_1_8*%
X118302937Y-54753786D03*
D23*
%TO.N,P5*%
X119147937Y-54753786D03*
D21*
%TO.P,,17*%
%TO.N,P18*%
X127184937Y-54753786D03*
D24*
%TO.N,_1_17*%
X129542937Y-54753786D03*
D25*
%TO.N,P18*%
X128697937Y-54753786D03*
D21*
%TO.P,,9*%
%TO.N,P6*%
X120660937Y-57293786D03*
D22*
%TO.N,_1_9*%
X118302937Y-57293786D03*
D23*
%TO.N,P6*%
X119147937Y-57293786D03*
D21*
%TO.P,,16*%
%TO.N,P15*%
X127184937Y-57293786D03*
D24*
%TO.N,_1_16*%
X129542937Y-57293786D03*
D25*
%TO.N,P15*%
X128697937Y-57293786D03*
D21*
%TO.P,,10*%
%TO.N,P7*%
X120660937Y-59833786D03*
D22*
%TO.N,_1_10*%
X118302937Y-59833786D03*
D23*
%TO.N,P7*%
X119147937Y-59833786D03*
D21*
%TO.P,,15*%
%TO.N,P14*%
X127184937Y-59833786D03*
D24*
%TO.N,_1_15*%
X129542937Y-59833786D03*
D25*
%TO.N,P14*%
X128697937Y-59833786D03*
D21*
%TO.P,,11*%
%TO.N,P8*%
X120660937Y-62373786D03*
D22*
%TO.N,_1_11*%
X118302937Y-62373786D03*
D23*
%TO.N,P8*%
X119147937Y-62373786D03*
D21*
%TO.P,,14*%
%TO.N,P16*%
X127184937Y-62373786D03*
D24*
%TO.N,_1_14*%
X129542937Y-62373786D03*
D25*
%TO.N,P16*%
X128697937Y-62373786D03*
D21*
%TO.P,,12*%
%TO.N,P9*%
X120660937Y-64913786D03*
D22*
%TO.N,_1_12*%
X118302937Y-64913786D03*
D23*
%TO.N,P9*%
X119147937Y-64913786D03*
D21*
%TO.P,,13*%
%TO.N,P10*%
X127184937Y-64913786D03*
D24*
%TO.N,_1_13*%
X129542937Y-64913786D03*
D25*
%TO.N,P10*%
X128697937Y-64913786D03*
%TD*%
D26*
%TO.P,T1,1*%
%TO.N,pos*%
X121672937Y-30783786D03*
%TO.P,T1,2*%
%TO.N,B+*%
X124672937Y-30783786D03*
D27*
%TO.P,T1,*%
%TO.N,*%
X120272937Y-27923786D03*
X127572937Y-27923786D03*
X127572937Y-30133786D03*
X120272937Y-30133786D03*
%TD*%
D28*
%TO.P,DISP1,24*%
%TO.N,GND*%
X127732937Y-69953786D03*
%TO.P,DISP1,25*%
%TO.N,VCC*%
X125192937Y-69953786D03*
%TO.P,DISP1,26*%
%TO.N,P20*%
X122652937Y-69953786D03*
%TO.P,DISP1,27*%
%TO.N,P19*%
X120112937Y-69953786D03*
%TO.P,DISP1,20*%
%TO.N,DISP1_4*%
X127732937Y-70853786D03*
%TO.P,DISP1,21*%
%TO.N,DISP1_3*%
X125192937Y-70853786D03*
%TO.P,DISP1,22*%
%TO.N,DISP1_2*%
X122652937Y-70853786D03*
%TO.P,DISP1,23*%
%TO.N,DISP1_1*%
X120112937Y-70853786D03*
D20*
%TO.P,DISP1,1*%
X120112937Y-72603786D03*
%TO.P,DISP1,2*%
%TO.N,DISP1_2*%
X122652937Y-72603786D03*
%TO.P,DISP1,3*%
%TO.N,DISP1_3*%
X125192937Y-72603786D03*
%TO.P,DISP1,4*%
%TO.N,DISP1_4*%
X127732937Y-72603786D03*
%TD*%
D29*
%TO.P,S19,1*%
%TO.N,RST*%
X113922937Y-30353786D03*
%TO.P,S19,2*%
%TO.N,GND*%
X117922937Y-30353786D03*
%TD*%
D30*
%TO.P,H1,*%
%TO.N,*%
X35922937Y-41195786D03*
%TD*%
%TO.P,H2,*%
%TO.N,*%
X35922937Y-60245786D03*
%TD*%
%TO.P,H3,*%
%TO.N,*%
X92397937Y-43331036D03*
%TD*%
%TO.P,H4,*%
%TO.N,*%
X92397937Y-62381036D03*
%TD*%
%TO.P,H5,*%
%TO.N,*%
X114922937Y-72953786D03*
%TD*%
%TO.P,H6,*%
%TO.N,*%
X132922937Y-72953786D03*
%TD*%
D31*
%TO.P,_2,1*%
%TO.N,pos*%
X131922937Y-78953786D03*
D32*
%TO.P,_2,2*%
%TO.N,B-*%
X131922937Y-80953786D03*
%TD*%
D33*
%TO.N,B-*%
X134452937Y-77645786D03*
%TO.N,P14*%
X108901045Y-61515500D03*
%TO.N,P10*%
X110152937Y-60215786D03*
%TO.N,P16*%
X109322937Y-60835786D03*
%TO.N,P15*%
X107672937Y-62225786D03*
%TO.N,P18*%
X106972937Y-62985786D03*
X98772937Y-63255786D03*
%TO.N,P15*%
X79722937Y-60795786D03*
%TO.N,P14*%
X60672937Y-54695786D03*
%TO.N,P16*%
X41497937Y-59155786D03*
%TO.N,P10*%
X22572937Y-62515786D03*
%TO.N,GND*%
X127792937Y-69153784D03*
%TO.N,VCC*%
X123852937Y-69935786D03*
%TO.N,P20*%
X126492937Y-69935786D03*
%TO.N,P19*%
X125437937Y-68735786D03*
%TO.N,B+*%
X123862937Y-32145786D03*
%TO.N,pos*%
X125822937Y-32295786D03*
%TO.N,P18*%
X136792937Y-90785786D03*
%TO.N,P5*%
X138832937Y-92125786D03*
%TO.N,P15*%
X113242937Y-85055786D03*
%TO.N,P5*%
X116956515Y-85312208D03*
%TO.N,P14*%
X92872937Y-83565786D03*
%TO.N,P5*%
X89952937Y-83015786D03*
%TO.N,P15*%
X82862937Y-62175786D03*
%TO.N,P4*%
X86072937Y-62625786D03*
%TO.N,P14*%
X64072937Y-55805786D03*
%TO.N,P4*%
X64812937Y-54995786D03*
%TO.N,P16*%
X45097937Y-60790786D03*
%TO.N,P4*%
X44472937Y-60110786D03*
X24238256Y-67865786D03*
%TO.N,P10*%
X25372937Y-68465786D03*
%TO.N,P3*%
X24487028Y-49638165D03*
%TO.N,P10*%
X25672937Y-49985786D03*
%TO.N,P3*%
X42662937Y-41445786D03*
%TO.N,P16*%
X44672937Y-42285786D03*
%TO.N,P3*%
X62782937Y-36345786D03*
%TO.N,P14*%
X64322937Y-36775786D03*
%TO.N,P3*%
X81732937Y-42405786D03*
%TO.N,P15*%
X83352937Y-43005786D03*
%TO.N,P4*%
X100693672Y-64386521D03*
%TO.N,P18*%
X102182937Y-64425786D03*
%TO.N,P3*%
X99822937Y-45575786D03*
%TO.N,P18*%
X102312937Y-45355786D03*
%TO.N,P2*%
X100802937Y-25535786D03*
%TO.N,P18*%
X102062937Y-26135786D03*
%TO.N,P2*%
X82432937Y-23365786D03*
%TO.N,P15*%
X83512937Y-23965786D03*
%TO.N,P2*%
X63142937Y-17155786D03*
%TO.N,P14*%
X63992937Y-17755786D03*
%TO.N,P2*%
X44312937Y-21705786D03*
%TO.N,P16*%
X44804091Y-22337270D03*
%TO.N,P2*%
X25642937Y-29135786D03*
%TO.N,P10*%
X25402937Y-29905786D03*
%TD*%
D34*
%TO.N,P5*%
X116956515Y-85312208D02*
X117239359Y-85312208D01*
X117239359Y-85312208D02*
X121523433Y-89596282D01*
X121523433Y-89596282D02*
X121523433Y-91290387D01*
X95384937Y-82965786D02*
X100672937Y-88253786D01*
X89952937Y-83015786D02*
X90002937Y-82965786D01*
X90002937Y-82965786D02*
X95384937Y-82965786D01*
%TO.N,P14*%
X60547937Y-58621786D02*
X63647937Y-61721786D01*
X66672937Y-71541962D02*
X73366761Y-78235786D01*
X63647937Y-61721786D02*
X65003446Y-61721786D01*
X89122937Y-82235786D02*
X89122937Y-86053786D01*
X65003446Y-61721786D02*
X66672937Y-63391277D01*
X73366761Y-78235786D02*
X85122937Y-78235786D01*
X66672937Y-63391277D02*
X66672937Y-71541962D01*
X85122937Y-78235786D02*
X89122937Y-82235786D01*
%TO.N,P3*%
X99822937Y-45575786D02*
X100642937Y-44755786D01*
X100642937Y-44755786D02*
X106732937Y-44755786D01*
X106732937Y-44755786D02*
X110197937Y-48220786D01*
X110197937Y-48220786D02*
X110197937Y-50153786D01*
%TO.N,P15*%
X79597937Y-45858286D02*
X79597937Y-43930786D01*
X79597937Y-43930786D02*
X80522937Y-43005786D01*
X80522937Y-43005786D02*
X83352937Y-43005786D01*
X79597937Y-26808286D02*
X79722937Y-26933286D01*
X79722937Y-45552257D02*
X79416908Y-45858286D01*
X79722937Y-26933286D02*
X79722937Y-45552257D01*
X79416908Y-45858286D02*
X79597937Y-45858286D01*
%TO.N,P3*%
X81732937Y-42405786D02*
X87252937Y-42405786D01*
X87252937Y-42405786D02*
X91147937Y-46300786D01*
X91147937Y-46300786D02*
X91147937Y-48058286D01*
%TO.N,P4*%
X72097937Y-60821786D02*
X72097937Y-57050786D01*
X70042937Y-54995786D02*
X64812937Y-54995786D01*
X72097937Y-57050786D02*
X70042937Y-54995786D01*
%TO.N,P2*%
X82432937Y-23365786D02*
X87742937Y-23365786D01*
X87742937Y-23365786D02*
X91147937Y-26770786D01*
X91147937Y-26770786D02*
X91147937Y-29008286D01*
X100802937Y-25535786D02*
X106312937Y-25535786D01*
X106312937Y-25535786D02*
X110197937Y-29420786D01*
X110197937Y-29420786D02*
X110197937Y-31103786D01*
%TO.N,P3*%
X72097937Y-41771786D02*
X72097937Y-39660786D01*
X72097937Y-39660786D02*
X68612937Y-36175786D01*
X62952937Y-36175786D02*
X62782937Y-36345786D01*
X68612937Y-36175786D02*
X62952937Y-36175786D01*
X42662937Y-41445786D02*
X49502937Y-41445786D01*
X49502937Y-41445786D02*
X53047937Y-44990786D01*
X53047937Y-44990786D02*
X53047937Y-47105786D01*
X24487028Y-49638165D02*
X24769407Y-49355786D01*
X24769407Y-49355786D02*
X30782937Y-49355786D01*
X33997937Y-52570786D02*
X33997937Y-54725786D01*
X30782937Y-49355786D02*
X33997937Y-52570786D01*
%TO.N,P4*%
X44472937Y-60110786D02*
X50497937Y-60110786D01*
X50497937Y-60110786D02*
X53047937Y-62660786D01*
X53047937Y-62660786D02*
X53047937Y-66155786D01*
%TO.N,P15*%
X79597937Y-64908286D02*
X82697937Y-68008286D01*
X82697937Y-68008286D02*
X85005437Y-68008286D01*
X85005437Y-68008286D02*
X86412937Y-69415786D01*
X108768716Y-87209447D02*
X110496719Y-87209447D01*
X86412937Y-69415786D02*
X90975055Y-69415786D01*
X90975055Y-69415786D02*
X108768716Y-87209447D01*
%TO.N,P18*%
X116598623Y-84105786D02*
X121986025Y-89493188D01*
X98772937Y-67128786D02*
X98772937Y-76647982D01*
X98647937Y-67003786D02*
X98772937Y-67128786D01*
X106230741Y-84105786D02*
X116598623Y-84105786D01*
X98772937Y-76647982D02*
X106230741Y-84105786D01*
X129029032Y-89493188D02*
X131522252Y-91986408D01*
X121986025Y-89493188D02*
X129029032Y-89493188D01*
%TO.N,B-*%
X134452937Y-79915786D02*
X133414937Y-80953786D01*
X133414937Y-80953786D02*
X131922937Y-80953786D01*
X134452937Y-77645786D02*
X134452937Y-79915786D01*
%TO.N,P19*%
X125437937Y-68735786D02*
X125237937Y-68535786D01*
X120112937Y-69305786D02*
X120112937Y-69953786D01*
X125237937Y-68535786D02*
X120882937Y-68535786D01*
X120882937Y-68535786D02*
X120112937Y-69305786D01*
%TO.N,P20*%
X126492937Y-69935786D02*
X126492937Y-69745786D01*
X126492937Y-69745786D02*
X126082937Y-69335786D01*
X126082937Y-69335786D02*
X123270937Y-69335786D01*
X123270937Y-69335786D02*
X122652937Y-69953786D01*
X126492937Y-69935786D02*
X126492937Y-69305786D01*
X126492937Y-69305786D02*
X127942937Y-67855786D01*
X133072937Y-65010132D02*
X133072937Y-51565786D01*
X127942937Y-67855786D02*
X130227283Y-67855786D01*
X133072937Y-51565786D02*
X132330937Y-50823786D01*
X130227283Y-67855786D02*
X133072937Y-65010132D01*
X132330937Y-50823786D02*
X128334937Y-50823786D01*
X128334937Y-50823786D02*
X127184937Y-49673786D01*
%TO.N,GND*%
X127792937Y-69153784D02*
X127792937Y-68585786D01*
X127792937Y-68585786D02*
X128122937Y-68255786D01*
X128122937Y-68255786D02*
X130392969Y-68255786D01*
X129847937Y-40663786D02*
X128697937Y-39513786D01*
X130392969Y-68255786D02*
X133472937Y-65175818D01*
X133472937Y-65175818D02*
X133472937Y-42357440D01*
X133472937Y-42357440D02*
X131779283Y-40663786D01*
X131779283Y-40663786D02*
X129847937Y-40663786D01*
X127792937Y-69153784D02*
X127792937Y-69893786D01*
X127792937Y-69893786D02*
X127732937Y-69953786D01*
%TO.N,P15*%
X107672937Y-62225786D02*
X108301045Y-61597678D01*
X108301045Y-60087777D02*
X109573036Y-58815786D01*
X108301045Y-61597678D02*
X108301045Y-60087777D01*
X109573036Y-58815786D02*
X114082937Y-58815786D01*
X115834591Y-56135786D02*
X126026937Y-56135786D01*
X114082937Y-58815786D02*
X114872937Y-58025786D01*
X114872937Y-58025786D02*
X114872937Y-57097440D01*
X114872937Y-57097440D02*
X115834591Y-56135786D01*
X126026937Y-56135786D02*
X127184937Y-57293786D01*
%TO.N,P18*%
X106972937Y-62985786D02*
X106972937Y-62077257D01*
X106972937Y-62077257D02*
X107901045Y-61149149D01*
X107901045Y-61149149D02*
X107901045Y-59922091D01*
X109407350Y-58415786D02*
X113912937Y-58415786D01*
X107901045Y-59922091D02*
X109407350Y-58415786D01*
X113912937Y-58415786D02*
X114472937Y-57855786D01*
X114472937Y-57855786D02*
X114472937Y-54957440D01*
X114472937Y-54957440D02*
X115826591Y-53603786D01*
X115826591Y-53603786D02*
X126034937Y-53603786D01*
X126034937Y-53603786D02*
X127184937Y-54753786D01*
%TO.N,P10*%
X110152937Y-60215786D02*
X110352937Y-60015786D01*
X114922937Y-62620132D02*
X115826591Y-63523786D01*
X110352937Y-60015786D02*
X114277251Y-60015786D01*
X114277251Y-60015786D02*
X114922937Y-60661472D01*
X125794937Y-63523786D02*
X127184937Y-64913786D01*
X114922937Y-60661472D02*
X114922937Y-62620132D01*
X115826591Y-63523786D02*
X125794937Y-63523786D01*
%TO.N,P4*%
X100693672Y-64386521D02*
X101254407Y-63825786D01*
X101254407Y-63825786D02*
X107412937Y-63825786D01*
X107412937Y-63825786D02*
X110197937Y-66610786D01*
X110197937Y-66610786D02*
X110197937Y-69203786D01*
%TO.N,P14*%
X108901045Y-61515500D02*
X108901045Y-61262423D01*
X108901045Y-61262423D02*
X108722937Y-61084315D01*
X109738722Y-59215786D02*
X114302937Y-59215786D01*
X125986937Y-58635786D02*
X127184937Y-59833786D01*
X108722937Y-61084315D02*
X108722937Y-60231571D01*
X108722937Y-60231571D02*
X109738722Y-59215786D01*
X114302937Y-59215786D02*
X114882937Y-58635786D01*
X114882937Y-58635786D02*
X125986937Y-58635786D01*
%TO.N,P16*%
X109322937Y-60197257D02*
X109904408Y-59615786D01*
X115922937Y-61095786D02*
X125906937Y-61095786D01*
X109904408Y-59615786D02*
X114442937Y-59615786D01*
X125906937Y-61095786D02*
X127184937Y-62373786D01*
X114442937Y-59615786D02*
X115922937Y-61095786D01*
X109322937Y-60835786D02*
X109322937Y-60197257D01*
%TO.N,P18*%
X98772937Y-63255786D02*
X98772937Y-48078786D01*
%TO.N,P15*%
X79722937Y-60795786D02*
X79722937Y-45983286D01*
%TO.N,P4*%
X90555437Y-67108286D02*
X91147937Y-67108286D01*
X86072937Y-62625786D02*
X90555437Y-67108286D01*
%TO.N,P14*%
X60672937Y-54695786D02*
X60672937Y-58496786D01*
%TO.N,P16*%
X41497937Y-59155786D02*
X41497937Y-50100277D01*
%TO.N,P10*%
X22572937Y-62515786D02*
X22572937Y-52650786D01*
%TO.N,VCC*%
X125174937Y-69935786D02*
X125192937Y-69953786D01*
X123852937Y-69935786D02*
X125174937Y-69935786D01*
%TO.N,pos*%
X121672937Y-30783786D02*
X121672937Y-31183786D01*
X121672937Y-31183786D02*
X123244937Y-32755786D01*
X125362937Y-32755786D02*
X125822937Y-32295786D01*
X123244937Y-32755786D02*
X125362937Y-32755786D01*
%TO.N,B+*%
X124672937Y-30783786D02*
X124672937Y-31335786D01*
X124672937Y-31335786D02*
X123862937Y-32145786D01*
%TO.N,GND*%
X117922937Y-30353786D02*
X121360937Y-33791786D01*
X121360937Y-33791786D02*
X121360937Y-41353786D01*
X121360937Y-41353786D02*
X120660937Y-42053786D01*
%TO.N,P4*%
X24238256Y-67865786D02*
X29802937Y-67865786D01*
X29802937Y-67865786D02*
X33997937Y-72060786D01*
X33997937Y-72060786D02*
X33997937Y-73775786D01*
%TO.N,P10*%
X22447937Y-71575786D02*
X22447937Y-70200786D01*
X22447937Y-70200786D02*
X24182937Y-68465786D01*
X24182937Y-68465786D02*
X25372937Y-68465786D01*
%TO.N,P5*%
X138832937Y-92125786D02*
X139942937Y-92125786D01*
X139942937Y-92125786D02*
X141721641Y-93904490D01*
X141721641Y-93904490D02*
X141721641Y-97835763D01*
%TO.N,P18*%
X136332937Y-90325786D02*
X133182874Y-90325786D01*
X136792937Y-90785786D02*
X136332937Y-90325786D01*
X133182874Y-90325786D02*
X131522252Y-91986408D01*
%TO.N,P15*%
X113242937Y-85055786D02*
X113222937Y-85075786D01*
X110496719Y-85732004D02*
X110496719Y-87209447D01*
X113222937Y-85075786D02*
X111152937Y-85075786D01*
X111152937Y-85075786D02*
X110496719Y-85732004D01*
%TO.N,P18*%
X98647937Y-47953786D02*
X98772937Y-47828786D01*
X98772937Y-47828786D02*
X98772937Y-29028786D01*
X98772937Y-29028786D02*
X98647937Y-28903786D01*
X98647937Y-67003786D02*
X98772937Y-66878786D01*
X98772937Y-66878786D02*
X98772937Y-63255786D01*
X98772937Y-48078786D02*
X98647937Y-47953786D01*
%TO.N,P15*%
X79597937Y-64908286D02*
X79597937Y-64420786D01*
X79597937Y-64420786D02*
X79722937Y-64295786D01*
X79722937Y-64295786D02*
X79722937Y-60795786D01*
X79722937Y-45983286D02*
X79597937Y-45858286D01*
%TO.N,P14*%
X60547937Y-39571786D02*
X60672937Y-39696786D01*
X60672937Y-39696786D02*
X60672937Y-54695786D01*
X60672937Y-58496786D02*
X60547937Y-58621786D01*
X60547937Y-20521786D02*
X60672937Y-20646786D01*
X60672937Y-39446786D02*
X60547937Y-39571786D01*
X60672937Y-20646786D02*
X60672937Y-39446786D01*
%TO.N,P16*%
X41497937Y-44905786D02*
X41622937Y-44780786D01*
X41622937Y-44780786D02*
X41622937Y-25980786D01*
X41622937Y-25980786D02*
X41497937Y-25855786D01*
X41497937Y-63955786D02*
X41497937Y-59155786D01*
X41622937Y-45030786D02*
X41497937Y-44905786D01*
X41497937Y-50100277D02*
X41622937Y-49975277D01*
X41622937Y-49975277D02*
X41622937Y-45030786D01*
%TO.N,P10*%
X22447937Y-71575786D02*
X22572937Y-71450786D01*
X22572937Y-71450786D02*
X22572937Y-62515786D01*
X22572937Y-52650786D02*
X22447937Y-52525786D01*
X22447937Y-33475786D02*
X22572937Y-33600786D01*
X22572937Y-33600786D02*
X22572937Y-52400786D01*
X22572937Y-52400786D02*
X22447937Y-52525786D01*
%TO.N,P14*%
X89122937Y-86053786D02*
X91610937Y-83565786D01*
X91610937Y-83565786D02*
X92872937Y-83565786D01*
%TO.N,P15*%
X79597937Y-64908286D02*
X82330437Y-62175786D01*
X82330437Y-62175786D02*
X82862937Y-62175786D01*
%TO.N,P14*%
X60547937Y-58621786D02*
X60547937Y-57150786D01*
X60547937Y-57150786D02*
X61892937Y-55805786D01*
X61892937Y-55805786D02*
X64072937Y-55805786D01*
%TO.N,P4*%
X64812937Y-54995786D02*
X64792937Y-54995786D01*
X44472937Y-60110786D02*
X47157937Y-60110786D01*
%TO.N,P16*%
X41497937Y-63955786D02*
X41802937Y-63650786D01*
X41802937Y-63650786D02*
X41802937Y-61915786D01*
X41802937Y-61915786D02*
X42927937Y-60790786D01*
X42927937Y-60790786D02*
X45097937Y-60790786D01*
%TO.N,P10*%
X22447937Y-52525786D02*
X24987937Y-49985786D01*
X24987937Y-49985786D02*
X25672937Y-49985786D01*
%TO.N,P16*%
X44672937Y-42285786D02*
X42802937Y-42285786D01*
X42802937Y-42285786D02*
X41497937Y-43590786D01*
X41497937Y-43590786D02*
X41497937Y-44905786D01*
%TO.N,P14*%
X60547937Y-39571786D02*
X63343937Y-36775786D01*
X63343937Y-36775786D02*
X64322937Y-36775786D01*
%TO.N,P18*%
X101502937Y-64425786D02*
X98924937Y-67003786D01*
X102182937Y-64425786D02*
X101502937Y-64425786D01*
X98924937Y-67003786D02*
X98647937Y-67003786D01*
X98647937Y-47953786D02*
X101245937Y-45355786D01*
X101245937Y-45355786D02*
X102312937Y-45355786D01*
X102062937Y-26135786D02*
X100322937Y-26135786D01*
X98647937Y-27810786D02*
X98647937Y-28903786D01*
X100322937Y-26135786D02*
X98647937Y-27810786D01*
%TO.N,P15*%
X79597937Y-25230786D02*
X79597937Y-26808286D01*
X83512937Y-23965786D02*
X80862937Y-23965786D01*
X80862937Y-23965786D02*
X79597937Y-25230786D01*
%TO.N,P2*%
X63142937Y-17155786D02*
X66531937Y-17155786D01*
X66531937Y-17155786D02*
X72097937Y-22721786D01*
%TO.N,P14*%
X63992937Y-17755786D02*
X61182937Y-17755786D01*
X61182937Y-17755786D02*
X60547937Y-18390786D01*
X60547937Y-18390786D02*
X60547937Y-20521786D01*
%TO.N,P16*%
X44804091Y-22337270D02*
X42621453Y-22337270D01*
X41497937Y-23460786D02*
X41497937Y-25855786D01*
X42621453Y-22337270D02*
X41497937Y-23460786D01*
%TO.N,P2*%
X53047937Y-25340786D02*
X53047937Y-28055786D01*
X44312937Y-21705786D02*
X49412937Y-21705786D01*
X49412937Y-21705786D02*
X53047937Y-25340786D01*
X33997937Y-35675786D02*
X33997937Y-32320786D01*
X33997937Y-32320786D02*
X30832937Y-29155786D01*
X25692937Y-29155786D02*
X25662937Y-29185786D01*
X30832937Y-29155786D02*
X25692937Y-29155786D01*
%TO.N,P10*%
X22447937Y-33475786D02*
X22447937Y-30480786D01*
X22447937Y-30480786D02*
X22992937Y-29935786D01*
X22992937Y-29935786D02*
X25332937Y-29935786D01*
D35*
%TO.N,_1_0*%
X118302937Y-34435786D02*
X116302937Y-34435786D01*
%TO.N,_1_25*%
X129542937Y-34435786D02*
X131542937Y-34435786D01*
%TO.N,B-*%
X119142937Y-34435786D02*
X120662937Y-34435786D01*
%TO.N,B+*%
X128702937Y-34435786D02*
X127182937Y-34435786D01*
%TO.N,_1_1*%
X118302937Y-36975786D02*
X116302937Y-36975786D01*
%TO.N,_1_24*%
X129542937Y-36975786D02*
X131542937Y-36975786D01*
%TO.N,P1*%
X119142937Y-36975786D02*
X120662937Y-36975786D01*
%TO.N,RAW*%
X128702937Y-36975786D02*
X127182937Y-36975786D01*
%TO.N,_1_2*%
X118302937Y-39515786D02*
X116302937Y-39515786D01*
%TO.N,_1_23*%
X129542937Y-39515786D02*
X131542937Y-39515786D01*
%TO.N,P0*%
X119142937Y-39515786D02*
X120662937Y-39515786D01*
%TO.N,GND*%
X128702937Y-39515786D02*
X127182937Y-39515786D01*
%TO.N,_1_3*%
X118302937Y-42055786D02*
X116302937Y-42055786D01*
%TO.N,_1_22*%
X129542937Y-42055786D02*
X131542937Y-42055786D01*
%TO.N,GND*%
X119142937Y-42055786D02*
X120662937Y-42055786D01*
%TO.N,RST*%
X128702937Y-42055786D02*
X127182937Y-42055786D01*
%TO.N,_1_4*%
X118302937Y-44595786D02*
X116302937Y-44595786D01*
%TO.N,_1_21*%
X129542937Y-44595786D02*
X131542937Y-44595786D01*
%TO.N,GND*%
X119142937Y-44595786D02*
X120662937Y-44595786D01*
%TO.N,VCC*%
X128702937Y-44595786D02*
X127182937Y-44595786D01*
%TO.N,_1_5*%
X118302937Y-47135786D02*
X116302937Y-47135786D01*
%TO.N,_1_20*%
X129542937Y-47135786D02*
X131542937Y-47135786D01*
%TO.N,P2*%
X119142937Y-47135786D02*
X120662937Y-47135786D01*
%TO.N,P21*%
X128702937Y-47135786D02*
X127182937Y-47135786D01*
%TO.N,_1_6*%
X118302937Y-49675786D02*
X116302937Y-49675786D01*
%TO.N,_1_19*%
X129542937Y-49675786D02*
X131542937Y-49675786D01*
%TO.N,P3*%
X119142937Y-49675786D02*
X120662937Y-49675786D01*
%TO.N,P20*%
X128702937Y-49675786D02*
X127182937Y-49675786D01*
%TO.N,_1_7*%
X118302937Y-52215786D02*
X116302937Y-52215786D01*
%TO.N,_1_18*%
X129542937Y-52215786D02*
X131542937Y-52215786D01*
%TO.N,P4*%
X119142937Y-52215786D02*
X120662937Y-52215786D01*
%TO.N,P19*%
X128702937Y-52215786D02*
X127182937Y-52215786D01*
%TO.N,_1_8*%
X118302937Y-54755786D02*
X116302937Y-54755786D01*
%TO.N,_1_17*%
X129542937Y-54755786D02*
X131542937Y-54755786D01*
%TO.N,P5*%
X119142937Y-54755786D02*
X120662937Y-54755786D01*
%TO.N,P18*%
X128702937Y-54755786D02*
X127182937Y-54755786D01*
%TO.N,_1_9*%
X118302937Y-57295786D02*
X116302937Y-57295786D01*
%TO.N,_1_16*%
X129542937Y-57295786D02*
X131542937Y-57295786D01*
%TO.N,P6*%
X119142937Y-57295786D02*
X120662937Y-57295786D01*
%TO.N,P15*%
X128702937Y-57295786D02*
X127182937Y-57295786D01*
%TO.N,_1_10*%
X118302937Y-59835786D02*
X116302937Y-59835786D01*
%TO.N,_1_15*%
X129542937Y-59835786D02*
X131542937Y-59835786D01*
%TO.N,P7*%
X119142937Y-59835786D02*
X120662937Y-59835786D01*
%TO.N,P14*%
X128702937Y-59835786D02*
X127182937Y-59835786D01*
%TO.N,_1_11*%
X118302937Y-62375786D02*
X116302937Y-62375786D01*
%TO.N,_1_14*%
X129542937Y-62375786D02*
X131542937Y-62375786D01*
%TO.N,P8*%
X119142937Y-62375786D02*
X120662937Y-62375786D01*
%TO.N,P16*%
X128702937Y-62375786D02*
X127182937Y-62375786D01*
%TO.N,_1_12*%
X118302937Y-64915786D02*
X116302937Y-64915786D01*
%TO.N,_1_13*%
X129542937Y-64915786D02*
X131542937Y-64915786D01*
%TO.N,P9*%
X119142937Y-64915786D02*
X120662937Y-64915786D01*
%TO.N,P10*%
X128702937Y-64915786D02*
X127182937Y-64915786D01*
%TO.N,DISP1_1*%
X120112937Y-72603786D02*
X120112937Y-70853786D01*
%TO.N,DISP1_2*%
X122652937Y-72603786D02*
X122652937Y-70853786D01*
%TO.N,DISP1_3*%
X125192937Y-72603786D02*
X125192937Y-70853786D01*
%TO.N,DISP1_4*%
X127732937Y-72603786D02*
X127732937Y-70853786D01*
%TD*%
%TA.AperFunction,Conductor*%
%TO.N,P5*%
G36*
X117176539Y-85108673D02*
G01*
X117527885Y-85460019D01*
X117531312Y-85468292D01*
X117527885Y-85476565D01*
X117398485Y-85605964D01*
X117390288Y-85609391D01*
X116968263Y-85612131D01*
X116959968Y-85608758D01*
X116956487Y-85600507D01*
X116956487Y-85600459D01*
X116956196Y-85476565D01*
X116955819Y-85316385D01*
X116959225Y-85308106D01*
X117160021Y-85108644D01*
X117168305Y-85105246D01*
X117176539Y-85108673D01*
G37*
%TD.AperFunction*%
%TD*%
%TA.AperFunction,Conductor*%
%TO.N,P5*%
G36*
X121160781Y-89092915D02*
G01*
X121745565Y-89677699D01*
X121801514Y-89733648D01*
X121801515Y-89733649D01*
X121801517Y-89733650D01*
X121870033Y-89773208D01*
X121870037Y-89773210D01*
X121918484Y-89786191D01*
X121946460Y-89793687D01*
X121946461Y-89793688D01*
X121947271Y-89793688D01*
X121955040Y-89796640D01*
X122291827Y-90095713D01*
X122295737Y-90103768D01*
X122293858Y-90110852D01*
X121533511Y-91276724D01*
X121526121Y-91281782D01*
X121517320Y-91280133D01*
X121514183Y-91277124D01*
X120462158Y-89801159D01*
X120460147Y-89792433D01*
X120463319Y-89786191D01*
X121011440Y-89225710D01*
X121144235Y-89092915D01*
X121152508Y-89089488D01*
X121160781Y-89092915D01*
G37*
%TD.AperFunction*%
%TD*%
%TA.AperFunction,Conductor*%
%TO.N,P5*%
G36*
X98743609Y-86178650D02*
G01*
X100778874Y-86950646D01*
X100785394Y-86956784D01*
X100786381Y-86962602D01*
X100674497Y-88244707D01*
X100670364Y-88252651D01*
X100663858Y-88255346D01*
X99381753Y-88367230D01*
X99373213Y-88364535D01*
X99369797Y-88359723D01*
X99330206Y-88255346D01*
X98597802Y-86324460D01*
X98598072Y-86315513D01*
X98600465Y-86312044D01*
X98731193Y-86181316D01*
X98739465Y-86177890D01*
X98743609Y-86178650D01*
G37*
%TD.AperFunction*%
%TD*%
%TA.AperFunction,Conductor*%
%TO.N,P5*%
G36*
X90534316Y-82863464D02*
G01*
X90541421Y-82868912D01*
X90542991Y-82874766D01*
X90542991Y-83058410D01*
X90539564Y-83066683D01*
X90536337Y-83068966D01*
X90078841Y-83287644D01*
X90069899Y-83288120D01*
X90063239Y-83282134D01*
X90062999Y-83281599D01*
X89953820Y-83020295D01*
X89953794Y-83011342D01*
X89953799Y-83011328D01*
X90063800Y-82748055D01*
X90070152Y-82741744D01*
X90077620Y-82741265D01*
X90534316Y-82863464D01*
G37*
%TD.AperFunction*%
%TD*%
%TA.AperFunction,Conductor*%
%TO.N,P14*%
G36*
X61847660Y-58511036D02*
G01*
X61851076Y-58515848D01*
X62623071Y-60551108D01*
X62622801Y-60560058D01*
X62620405Y-60563530D01*
X62489681Y-60694254D01*
X62481408Y-60697681D01*
X62477260Y-60696920D01*
X60442000Y-59924925D01*
X60435480Y-59918787D01*
X60434493Y-59912969D01*
X60546376Y-58630864D01*
X60550509Y-58622920D01*
X60557014Y-58620225D01*
X61839121Y-58508341D01*
X61847660Y-58511036D01*
G37*
%TD.AperFunction*%
%TD*%
%TA.AperFunction,Conductor*%
%TO.N,P14*%
G36*
X89225999Y-83757213D02*
G01*
X89226423Y-83757659D01*
X90116423Y-84746549D01*
X90119410Y-84754991D01*
X90117002Y-84761506D01*
X89132213Y-86042717D01*
X89124455Y-86047188D01*
X89115807Y-86044863D01*
X89113661Y-86042717D01*
X88128871Y-84761506D01*
X88126546Y-84752858D01*
X88129450Y-84746549D01*
X89019451Y-83757659D01*
X89027533Y-83753802D01*
X89028148Y-83753786D01*
X89217726Y-83753786D01*
X89225999Y-83757213D01*
G37*
%TD.AperFunction*%
%TD*%
%TA.AperFunction,Conductor*%
%TO.N,P3*%
G36*
X100182276Y-45086598D02*
G01*
X100312124Y-45216446D01*
X100315551Y-45224719D01*
X100314460Y-45229653D01*
X100104814Y-45680456D01*
X100098218Y-45686512D01*
X100089761Y-45686345D01*
X99826752Y-45578349D01*
X99820400Y-45572037D01*
X99820373Y-45571970D01*
X99712377Y-45308961D01*
X99712404Y-45300006D01*
X99718263Y-45293910D01*
X100169071Y-45084261D01*
X100178016Y-45083881D01*
X100182276Y-45086598D01*
G37*
%TD.AperFunction*%
%TD*%
%TA.AperFunction,Conductor*%
%TO.N,P3*%
G36*
X110017400Y-47898202D02*
G01*
X111044060Y-48847062D01*
X111047810Y-48855194D01*
X111045904Y-48862069D01*
X110207002Y-50141742D01*
X110199600Y-50146782D01*
X110190802Y-50145112D01*
X110188490Y-50143119D01*
X109044710Y-48862076D01*
X109041756Y-48853623D01*
X109045206Y-48845969D01*
X109496393Y-48399462D01*
X109867741Y-48031968D01*
X109934463Y-47965244D01*
X110001187Y-47898520D01*
X110009459Y-47895094D01*
X110017400Y-47898202D01*
G37*
%TD.AperFunction*%
%TD*%
%TA.AperFunction,Conductor*%
%TO.N,P15*%
G36*
X79798563Y-43604619D02*
G01*
X79932021Y-43738078D01*
X80753296Y-44550459D01*
X80756768Y-44558713D01*
X80753787Y-44566579D01*
X79607397Y-45847631D01*
X79599326Y-45851511D01*
X79590876Y-45848548D01*
X79588886Y-45846232D01*
X78752163Y-44566580D01*
X78750503Y-44557780D01*
X78754028Y-44551572D01*
X79782364Y-43604286D01*
X79790770Y-43601202D01*
X79798563Y-43604619D01*
G37*
%TD.AperFunction*%
%TD*%
%TA.AperFunction,Conductor*%
%TO.N,P15*%
G36*
X83236578Y-42732836D02*
G01*
X83242440Y-42738934D01*
X83352052Y-43001275D01*
X83352079Y-43010230D01*
X83352052Y-43010297D01*
X83242440Y-43272637D01*
X83236088Y-43278949D01*
X83227631Y-43279115D01*
X83093884Y-43230279D01*
X82760624Y-43108592D01*
X82754028Y-43102536D01*
X82752937Y-43097602D01*
X82752937Y-42913969D01*
X82756364Y-42905696D01*
X82760624Y-42902979D01*
X83227634Y-42732455D01*
X83236578Y-42732836D01*
G37*
%TD.AperFunction*%
%TD*%
%TA.AperFunction,Conductor*%
%TO.N,P15*%
G36*
X79603621Y-26814184D02*
G01*
X80663870Y-28100741D01*
X80666487Y-28109305D01*
X80663768Y-28115745D01*
X79826442Y-29104149D01*
X79818480Y-29108246D01*
X79817515Y-29108286D01*
X79635137Y-29108286D01*
X79626864Y-29104859D01*
X79623437Y-29096586D01*
X79623437Y-28893552D01*
X79593485Y-28666049D01*
X79534095Y-28444400D01*
X79534091Y-28444389D01*
X79446284Y-28232406D01*
X79446281Y-28232398D01*
X79331548Y-28033674D01*
X79191856Y-27851625D01*
X79029598Y-27689367D01*
X78847549Y-27549675D01*
X78756847Y-27497308D01*
X78752401Y-27492729D01*
X78626346Y-27258794D01*
X78625439Y-27249886D01*
X78631097Y-27242945D01*
X78631841Y-27242578D01*
X79589787Y-26810957D01*
X79598736Y-26810684D01*
X79603621Y-26814184D01*
G37*
%TD.AperFunction*%
%TD*%
%TA.AperFunction,Conductor*%
%TO.N,P15*%
G36*
X79825788Y-43561713D02*
G01*
X79826442Y-43562423D01*
X80663768Y-44550826D01*
X80666501Y-44559354D01*
X80663870Y-44565830D01*
X79607620Y-45847535D01*
X79599714Y-45851740D01*
X79591150Y-45849123D01*
X79589079Y-45846906D01*
X78672777Y-44566168D01*
X78670751Y-44557447D01*
X78673833Y-44551280D01*
X79619481Y-43561902D01*
X79627675Y-43558289D01*
X79627939Y-43558286D01*
X79817515Y-43558286D01*
X79825788Y-43561713D01*
G37*
%TD.AperFunction*%
%TD*%
%TA.AperFunction,Conductor*%
%TO.N,P3*%
G36*
X82325250Y-42302979D02*
G01*
X82331846Y-42309035D01*
X82332937Y-42313969D01*
X82332937Y-42497602D01*
X82329510Y-42505875D01*
X82325250Y-42508592D01*
X81858242Y-42679116D01*
X81849295Y-42678735D01*
X81843433Y-42672637D01*
X81733820Y-42410295D01*
X81733794Y-42401342D01*
X81733799Y-42401328D01*
X81843433Y-42138933D01*
X81849785Y-42132622D01*
X81858239Y-42132455D01*
X82325250Y-42302979D01*
G37*
%TD.AperFunction*%
%TD*%
%TA.AperFunction,Conductor*%
%TO.N,P3*%
G36*
X90843249Y-45853296D02*
G01*
X91923503Y-46751864D01*
X91927672Y-46759789D01*
X91926046Y-46766891D01*
X91156521Y-48045899D01*
X91149320Y-48051221D01*
X91140464Y-48049892D01*
X91138058Y-48047972D01*
X89907350Y-46766683D01*
X89904090Y-46758342D01*
X89907641Y-46750180D01*
X90693621Y-45987892D01*
X90827495Y-45854017D01*
X90835767Y-45850591D01*
X90843249Y-45853296D01*
G37*
%TD.AperFunction*%
%TD*%
%TA.AperFunction,Conductor*%
%TO.N,P4*%
G36*
X72200999Y-58525213D02*
G01*
X72201423Y-58525659D01*
X73091423Y-59514549D01*
X73094410Y-59522991D01*
X73092002Y-59529506D01*
X72107213Y-60810717D01*
X72099455Y-60815188D01*
X72090807Y-60812863D01*
X72088661Y-60810717D01*
X71103871Y-59529506D01*
X71101546Y-59520858D01*
X71104450Y-59514549D01*
X71994451Y-58525659D01*
X72002533Y-58521802D01*
X72003148Y-58521786D01*
X72192726Y-58521786D01*
X72200999Y-58525213D01*
G37*
%TD.AperFunction*%
%TD*%
%TA.AperFunction,Conductor*%
%TO.N,P4*%
G36*
X65405250Y-54892979D02*
G01*
X65411846Y-54899035D01*
X65412937Y-54903969D01*
X65412937Y-55087602D01*
X65409510Y-55095875D01*
X65405250Y-55098592D01*
X64938242Y-55269116D01*
X64929295Y-55268735D01*
X64923433Y-55262637D01*
X64813820Y-55000295D01*
X64813794Y-54991342D01*
X64813799Y-54991328D01*
X64923433Y-54728933D01*
X64929785Y-54722622D01*
X64938239Y-54722455D01*
X65405250Y-54892979D01*
G37*
%TD.AperFunction*%
%TD*%
%TA.AperFunction,Conductor*%
%TO.N,P2*%
G36*
X83025250Y-23262979D02*
G01*
X83031846Y-23269035D01*
X83032937Y-23273969D01*
X83032937Y-23457602D01*
X83029510Y-23465875D01*
X83025250Y-23468592D01*
X82558242Y-23639116D01*
X82549295Y-23638735D01*
X82543433Y-23632637D01*
X82433820Y-23370295D01*
X82433794Y-23361342D01*
X82433799Y-23361328D01*
X82543433Y-23098933D01*
X82549785Y-23092622D01*
X82558239Y-23092455D01*
X83025250Y-23262979D01*
G37*
%TD.AperFunction*%
%TD*%
%TA.AperFunction,Conductor*%
%TO.N,P2*%
G36*
X91182286Y-26664594D02*
G01*
X91182703Y-26665033D01*
X92116805Y-27701138D01*
X92119799Y-27709577D01*
X92117478Y-27715988D01*
X91157769Y-28996813D01*
X91150066Y-29001379D01*
X91141390Y-28999160D01*
X91139219Y-28997042D01*
X90129298Y-27716447D01*
X90126866Y-27707829D01*
X90130208Y-27700933D01*
X91033029Y-26797306D01*
X91033033Y-26797302D01*
X91165741Y-26664593D01*
X91174013Y-26661167D01*
X91182286Y-26664594D01*
G37*
%TD.AperFunction*%
%TD*%
%TA.AperFunction,Conductor*%
%TO.N,P2*%
G36*
X101395250Y-25432979D02*
G01*
X101401846Y-25439035D01*
X101402937Y-25443969D01*
X101402937Y-25627602D01*
X101399510Y-25635875D01*
X101395250Y-25638592D01*
X100928242Y-25809116D01*
X100919295Y-25808735D01*
X100913433Y-25802637D01*
X100803820Y-25540295D01*
X100803794Y-25531342D01*
X100803799Y-25531328D01*
X100913433Y-25268933D01*
X100919785Y-25262622D01*
X100928239Y-25262455D01*
X101395250Y-25432979D01*
G37*
%TD.AperFunction*%
%TD*%
%TA.AperFunction,Conductor*%
%TO.N,P2*%
G36*
X109840534Y-28920289D02*
G01*
X110943653Y-29797503D01*
X110947996Y-29805335D01*
X110946497Y-29812522D01*
X110206309Y-31091250D01*
X110199199Y-31096694D01*
X110190322Y-31095515D01*
X110187873Y-31093625D01*
X108917885Y-29812238D01*
X108914495Y-29803950D01*
X108917959Y-29795692D01*
X108918036Y-29795615D01*
X109690942Y-29055212D01*
X109824980Y-28921173D01*
X109833252Y-28917747D01*
X109840534Y-28920289D01*
G37*
%TD.AperFunction*%
%TD*%
%TA.AperFunction,Conductor*%
%TO.N,P3*%
G36*
X72043162Y-39464821D02*
G01*
X72043276Y-39464936D01*
X73015809Y-40464798D01*
X73019121Y-40473118D01*
X73016960Y-40479732D01*
X72107461Y-41760080D01*
X72099877Y-41764840D01*
X72091147Y-41762842D01*
X72088920Y-41760777D01*
X71025841Y-40479994D01*
X71023194Y-40471439D01*
X71026574Y-40464245D01*
X71893586Y-39597853D01*
X71960101Y-39531337D01*
X72026617Y-39464820D01*
X72034889Y-39461394D01*
X72043162Y-39464821D01*
G37*
%TD.AperFunction*%
%TD*%
%TA.AperFunction,Conductor*%
%TO.N,P3*%
G36*
X62795230Y-36046468D02*
G01*
X63312170Y-36075172D01*
X63320240Y-36079052D01*
X63323221Y-36086854D01*
X63323221Y-36270414D01*
X63319794Y-36278687D01*
X63319149Y-36279286D01*
X63003278Y-36550860D01*
X62994770Y-36553655D01*
X62987396Y-36550281D01*
X62785399Y-36349232D01*
X62781953Y-36340967D01*
X62781953Y-36340900D01*
X62782895Y-36058109D01*
X62786349Y-36049850D01*
X62794634Y-36046451D01*
X62795230Y-36046468D01*
G37*
%TD.AperFunction*%
%TD*%
%TA.AperFunction,Conductor*%
%TO.N,P3*%
G36*
X43255250Y-41342979D02*
G01*
X43261846Y-41349035D01*
X43262937Y-41353969D01*
X43262937Y-41537602D01*
X43259510Y-41545875D01*
X43255250Y-41548592D01*
X42788242Y-41719116D01*
X42779295Y-41718735D01*
X42773433Y-41712637D01*
X42663820Y-41450295D01*
X42663794Y-41441342D01*
X42663799Y-41441328D01*
X42773433Y-41178933D01*
X42779785Y-41172622D01*
X42788239Y-41172455D01*
X43255250Y-41342979D01*
G37*
%TD.AperFunction*%
%TD*%
%TA.AperFunction,Conductor*%
%TO.N,P3*%
G36*
X52995980Y-44797659D02*
G01*
X52996067Y-44797747D01*
X53967423Y-45798794D01*
X53970725Y-45807117D01*
X53968559Y-45813724D01*
X53057471Y-47094087D01*
X53049882Y-47098841D01*
X53041155Y-47096837D01*
X53038929Y-47094769D01*
X51977582Y-45813992D01*
X51974942Y-45805436D01*
X51978318Y-45798253D01*
X52846412Y-44930682D01*
X52979435Y-44797658D01*
X52987707Y-44794232D01*
X52995980Y-44797659D01*
G37*
%TD.AperFunction*%
%TD*%
%TA.AperFunction,Conductor*%
%TO.N,P3*%
G36*
X24965128Y-49260103D02*
G01*
X24969896Y-49267682D01*
X24970063Y-49269649D01*
X24970063Y-49452155D01*
X24968008Y-49458778D01*
X24707107Y-49838722D01*
X24699599Y-49843602D01*
X24690839Y-49841744D01*
X24689208Y-49840392D01*
X24489490Y-49641611D01*
X24486044Y-49633346D01*
X24486044Y-49633279D01*
X24486995Y-49348004D01*
X24490449Y-49339742D01*
X24496725Y-49336511D01*
X24956398Y-49258116D01*
X24965128Y-49260103D01*
G37*
%TD.AperFunction*%
%TD*%
%TA.AperFunction,Conductor*%
%TO.N,P3*%
G36*
X33974163Y-52406045D02*
G01*
X33974384Y-52406271D01*
X34933551Y-53418740D01*
X34936753Y-53427103D01*
X34934534Y-53433648D01*
X34007569Y-54714162D01*
X33999942Y-54718854D01*
X33991231Y-54716778D01*
X33989024Y-54714694D01*
X32944814Y-53433976D01*
X32942242Y-53425399D01*
X32945607Y-53418312D01*
X33824696Y-52538967D01*
X33957618Y-52406044D01*
X33965890Y-52402618D01*
X33974163Y-52406045D01*
G37*
%TD.AperFunction*%
%TD*%
%TA.AperFunction,Conductor*%
%TO.N,P4*%
G36*
X45065250Y-60007979D02*
G01*
X45071846Y-60014035D01*
X45072937Y-60018969D01*
X45072937Y-60202602D01*
X45069510Y-60210875D01*
X45065250Y-60213592D01*
X44598242Y-60384116D01*
X44589295Y-60383735D01*
X44583433Y-60377637D01*
X44473820Y-60115295D01*
X44473794Y-60106342D01*
X44473799Y-60106328D01*
X44583433Y-59843933D01*
X44589785Y-59837622D01*
X44598239Y-59837455D01*
X45065250Y-60007979D01*
G37*
%TD.AperFunction*%
%TD*%
%TA.AperFunction,Conductor*%
%TO.N,P4*%
G36*
X53150999Y-63859213D02*
G01*
X53151423Y-63859659D01*
X54041423Y-64848549D01*
X54044410Y-64856991D01*
X54042002Y-64863506D01*
X53057213Y-66144717D01*
X53049455Y-66149188D01*
X53040807Y-66146863D01*
X53038661Y-66144717D01*
X52053871Y-64863506D01*
X52051546Y-64854858D01*
X52054450Y-64848549D01*
X52944451Y-63859659D01*
X52952533Y-63855802D01*
X52953148Y-63855786D01*
X53142726Y-63855786D01*
X53150999Y-63859213D01*
G37*
%TD.AperFunction*%
%TD*%
%TA.AperFunction,Conductor*%
%TO.N,P15*%
G36*
X80897660Y-64797536D02*
G01*
X80901076Y-64802348D01*
X81673071Y-66837608D01*
X81672801Y-66846558D01*
X81670405Y-66850030D01*
X81539681Y-66980754D01*
X81531408Y-66984181D01*
X81527260Y-66983420D01*
X79492000Y-66211425D01*
X79485480Y-66205287D01*
X79484493Y-66199469D01*
X79596376Y-64917364D01*
X79600509Y-64909420D01*
X79607014Y-64906725D01*
X80889121Y-64794841D01*
X80897660Y-64797536D01*
G37*
%TD.AperFunction*%
%TD*%
%TA.AperFunction,Conductor*%
%TO.N,P15*%
G36*
X109388353Y-86013241D02*
G01*
X110491316Y-87203560D01*
X110494426Y-87211957D01*
X110492628Y-87217756D01*
X109926285Y-88115115D01*
X109918972Y-88120283D01*
X109910147Y-88118765D01*
X109909301Y-88118178D01*
X109862614Y-88082616D01*
X109860424Y-88080434D01*
X109750368Y-87937007D01*
X109588110Y-87774749D01*
X109406061Y-87635057D01*
X109207337Y-87520324D01*
X109207329Y-87520320D01*
X109207328Y-87520320D01*
X109026998Y-87445624D01*
X109024385Y-87444122D01*
X108353433Y-86933047D01*
X108348929Y-86925308D01*
X108351216Y-86916650D01*
X108352243Y-86915474D01*
X108483928Y-86783789D01*
X108484500Y-86783256D01*
X109372099Y-86012359D01*
X109380592Y-86009522D01*
X109388353Y-86013241D01*
G37*
%TD.AperFunction*%
%TD*%
%TA.AperFunction,Conductor*%
%TO.N,P18*%
G36*
X98653621Y-67009684D02*
G01*
X99713870Y-68296241D01*
X99716487Y-68304805D01*
X99713768Y-68311245D01*
X98876442Y-69299649D01*
X98868480Y-69303746D01*
X98867515Y-69303786D01*
X98685137Y-69303786D01*
X98676864Y-69300359D01*
X98673437Y-69292086D01*
X98673437Y-69089052D01*
X98643485Y-68861549D01*
X98584095Y-68639900D01*
X98584091Y-68639889D01*
X98496284Y-68427906D01*
X98496281Y-68427898D01*
X98381548Y-68229174D01*
X98241856Y-68047125D01*
X98079598Y-67884867D01*
X97897549Y-67745175D01*
X97806847Y-67692808D01*
X97802401Y-67688229D01*
X97676346Y-67454294D01*
X97675439Y-67445386D01*
X97681097Y-67438445D01*
X97681841Y-67438078D01*
X98639787Y-67006457D01*
X98648736Y-67006184D01*
X98653621Y-67009684D01*
G37*
%TD.AperFunction*%
%TD*%
%TA.AperFunction,Conductor*%
%TO.N,P18*%
G36*
X129869506Y-90187305D02*
G01*
X130711849Y-90332275D01*
X130719420Y-90337055D01*
X130720383Y-90338683D01*
X131512002Y-91964611D01*
X131512543Y-91973550D01*
X131506605Y-91980252D01*
X131498666Y-91981089D01*
X130261101Y-91674137D01*
X130253897Y-91668819D01*
X130253041Y-91667092D01*
X129724955Y-90334844D01*
X129725092Y-90325894D01*
X129727556Y-90322266D01*
X129859260Y-90190562D01*
X129867532Y-90187136D01*
X129869506Y-90187305D01*
G37*
%TD.AperFunction*%
%TD*%
%TA.AperFunction,Conductor*%
%TO.N,B-*%
G36*
X132537942Y-80458012D02*
G01*
X133379654Y-80850635D01*
X133385703Y-80857238D01*
X133386408Y-80861238D01*
X133386408Y-81046333D01*
X133382981Y-81054606D01*
X133379654Y-81056936D01*
X132537945Y-81449558D01*
X132528999Y-81449950D01*
X132525587Y-81448008D01*
X132045080Y-81054606D01*
X131932993Y-80962838D01*
X131928764Y-80954946D01*
X131931353Y-80946374D01*
X131932994Y-80944733D01*
X132525589Y-80459562D01*
X132534159Y-80456974D01*
X132537942Y-80458012D01*
G37*
%TD.AperFunction*%
%TD*%
%TA.AperFunction,Conductor*%
%TO.N,B-*%
G36*
X134719788Y-77756282D02*
G01*
X134726100Y-77762634D01*
X134726267Y-77771091D01*
X134555744Y-78238099D01*
X134549688Y-78244695D01*
X134544754Y-78245786D01*
X134361120Y-78245786D01*
X134352847Y-78242359D01*
X134350130Y-78238099D01*
X134179606Y-77771088D01*
X134179987Y-77762144D01*
X134186084Y-77756282D01*
X134448427Y-77646669D01*
X134457381Y-77646643D01*
X134719788Y-77756282D01*
G37*
%TD.AperFunction*%
%TD*%
%TA.AperFunction,Conductor*%
%TO.N,P19*%
G36*
X120214948Y-69357213D02*
G01*
X120216410Y-69358996D01*
X120407625Y-69645818D01*
X120409363Y-69654603D01*
X120406177Y-69660567D01*
X120121224Y-69946471D01*
X120112956Y-69949912D01*
X120104678Y-69946499D01*
X120104650Y-69946471D01*
X119819696Y-69660567D01*
X119816283Y-69652289D01*
X119818247Y-69645820D01*
X120009464Y-69358996D01*
X120016904Y-69354013D01*
X120019199Y-69353786D01*
X120206675Y-69353786D01*
X120214948Y-69357213D01*
G37*
%TD.AperFunction*%
%TD*%
%TA.AperFunction,Conductor*%
%TO.N,P19*%
G36*
X125434549Y-68439213D02*
G01*
X125437976Y-68447447D01*
X125438920Y-68730900D01*
X125435521Y-68739185D01*
X125435474Y-68739232D01*
X125234131Y-68939630D01*
X125225849Y-68943037D01*
X125217586Y-68939591D01*
X124921072Y-68639203D01*
X124917699Y-68630984D01*
X124917699Y-68447486D01*
X124921126Y-68439213D01*
X124929399Y-68435786D01*
X125426276Y-68435786D01*
X125434549Y-68439213D01*
G37*
%TD.AperFunction*%
%TD*%
%TA.AperFunction,Conductor*%
%TO.N,P20*%
G36*
X126267933Y-69377659D02*
G01*
X126694799Y-69715525D01*
X126699160Y-69723346D01*
X126696712Y-69731960D01*
X126695839Y-69732945D01*
X126497086Y-69933027D01*
X126488824Y-69936481D01*
X126488758Y-69936481D01*
X126202731Y-69935809D01*
X126194465Y-69932363D01*
X126191237Y-69926142D01*
X126119402Y-69518611D01*
X126121340Y-69509870D01*
X126122645Y-69508314D01*
X126252400Y-69378559D01*
X126260672Y-69375133D01*
X126267933Y-69377659D01*
G37*
%TD.AperFunction*%
%TD*%
%TA.AperFunction,Conductor*%
%TO.N,P20*%
G36*
X123100320Y-69376906D02*
G01*
X123232923Y-69509509D01*
X123236265Y-69516373D01*
X123251944Y-69645604D01*
X123249538Y-69654229D01*
X123245566Y-69657475D01*
X122663499Y-69948851D01*
X122654567Y-69949490D01*
X122647800Y-69943626D01*
X122647440Y-69942836D01*
X122532803Y-69663837D01*
X122532828Y-69654882D01*
X122538391Y-69648926D01*
X123086818Y-69374713D01*
X123095747Y-69374079D01*
X123100320Y-69376906D01*
G37*
%TD.AperFunction*%
%TD*%
%TA.AperFunction,Conductor*%
%TO.N,P20*%
G36*
X126593027Y-69339213D02*
G01*
X126595744Y-69343473D01*
X126766267Y-69810480D01*
X126765886Y-69819427D01*
X126759788Y-69825289D01*
X126497448Y-69934901D01*
X126488493Y-69934928D01*
X126488426Y-69934901D01*
X126226085Y-69825289D01*
X126219773Y-69818937D01*
X126219606Y-69810483D01*
X126390130Y-69343472D01*
X126396186Y-69336877D01*
X126401120Y-69335786D01*
X126584754Y-69335786D01*
X126593027Y-69339213D01*
G37*
%TD.AperFunction*%
%TD*%
%TA.AperFunction,Conductor*%
%TO.N,P20*%
G36*
X127552625Y-49525185D02*
G01*
X127558942Y-49531529D01*
X127818363Y-50161548D01*
X127818344Y-50170503D01*
X127815817Y-50174276D01*
X127685427Y-50304666D01*
X127677154Y-50308093D01*
X127672699Y-50307212D01*
X127042680Y-50047791D01*
X127036335Y-50041472D01*
X127036315Y-50032521D01*
X127182374Y-49677588D01*
X127188690Y-49671243D01*
X127543672Y-49525164D01*
X127552625Y-49525185D01*
G37*
%TD.AperFunction*%
%TD*%
%TA.AperFunction,Conductor*%
%TO.N,GND*%
G36*
X127753431Y-68502255D02*
G01*
X127757181Y-68504772D01*
X127884773Y-68632364D01*
X127887154Y-68635802D01*
X128065108Y-69027977D01*
X128065406Y-69036927D01*
X128059289Y-69043466D01*
X128058945Y-69043616D01*
X127796732Y-69152619D01*
X127787777Y-69152630D01*
X127787747Y-69152617D01*
X127702924Y-69117176D01*
X127526580Y-69043494D01*
X127520268Y-69037142D01*
X127520294Y-69028190D01*
X127738118Y-68508521D01*
X127744476Y-68502217D01*
X127753431Y-68502255D01*
G37*
%TD.AperFunction*%
%TD*%
%TA.AperFunction,Conductor*%
%TO.N,GND*%
G36*
X127894422Y-69357213D02*
G01*
X127896306Y-69359678D01*
X128059814Y-69645629D01*
X128060946Y-69654512D01*
X128057522Y-69660100D01*
X127741628Y-69946894D01*
X127733199Y-69949917D01*
X127725100Y-69946096D01*
X127725074Y-69946067D01*
X127468035Y-69661037D01*
X127465040Y-69652598D01*
X127467459Y-69646056D01*
X127689424Y-69358338D01*
X127697191Y-69353882D01*
X127698688Y-69353786D01*
X127886149Y-69353786D01*
X127894422Y-69357213D01*
G37*
%TD.AperFunction*%
%TD*%
%TA.AperFunction,Conductor*%
%TO.N,GND*%
G36*
X128059788Y-69264280D02*
G01*
X128066100Y-69270632D01*
X128066267Y-69279089D01*
X127895744Y-69746097D01*
X127889688Y-69752693D01*
X127884754Y-69753784D01*
X127701120Y-69753784D01*
X127692847Y-69750357D01*
X127690130Y-69746097D01*
X127519606Y-69279086D01*
X127519987Y-69270142D01*
X127526084Y-69264280D01*
X127788427Y-69154667D01*
X127797381Y-69154641D01*
X128059788Y-69264280D01*
G37*
%TD.AperFunction*%
%TD*%
%TA.AperFunction,Conductor*%
%TO.N,P15*%
G36*
X108032276Y-61736598D02*
G01*
X108162124Y-61866446D01*
X108165551Y-61874719D01*
X108164460Y-61879653D01*
X107954814Y-62330456D01*
X107948218Y-62336512D01*
X107939761Y-62336345D01*
X107676752Y-62228349D01*
X107670400Y-62222037D01*
X107670373Y-62221970D01*
X107562377Y-61958961D01*
X107562404Y-61950006D01*
X107568263Y-61943910D01*
X108019071Y-61734261D01*
X108028016Y-61733881D01*
X108032276Y-61736598D01*
G37*
%TD.AperFunction*%
%TD*%
%TA.AperFunction,Conductor*%
%TO.N,P15*%
G36*
X126697170Y-56660358D02*
G01*
X127265881Y-56894533D01*
X127327193Y-56919780D01*
X127333538Y-56926099D01*
X127333558Y-56935051D01*
X127187500Y-57289981D01*
X127181182Y-57296328D01*
X127181132Y-57296349D01*
X126826202Y-57442407D01*
X126817248Y-57442386D01*
X126810931Y-57436042D01*
X126750788Y-57289981D01*
X126551510Y-56806021D01*
X126551529Y-56797068D01*
X126554053Y-56793298D01*
X126684447Y-56662904D01*
X126692719Y-56659478D01*
X126697170Y-56660358D01*
G37*
%TD.AperFunction*%
%TD*%
%TA.AperFunction,Conductor*%
%TO.N,P18*%
G36*
X107073027Y-62389213D02*
G01*
X107075744Y-62393473D01*
X107246267Y-62860480D01*
X107245886Y-62869427D01*
X107239788Y-62875289D01*
X106977448Y-62984901D01*
X106968493Y-62984928D01*
X106968426Y-62984901D01*
X106706085Y-62875289D01*
X106699773Y-62868937D01*
X106699606Y-62860483D01*
X106870130Y-62393472D01*
X106876186Y-62386877D01*
X106881120Y-62385786D01*
X107064754Y-62385786D01*
X107073027Y-62389213D01*
G37*
%TD.AperFunction*%
%TD*%
%TA.AperFunction,Conductor*%
%TO.N,P18*%
G36*
X126697170Y-54120358D02*
G01*
X127265881Y-54354533D01*
X127327193Y-54379780D01*
X127333538Y-54386099D01*
X127333558Y-54395051D01*
X127187500Y-54749981D01*
X127181182Y-54756328D01*
X127181132Y-54756349D01*
X126826202Y-54902407D01*
X126817248Y-54902386D01*
X126810931Y-54896042D01*
X126750788Y-54749981D01*
X126551510Y-54266021D01*
X126551529Y-54257068D01*
X126554053Y-54253298D01*
X126684447Y-54122904D01*
X126692719Y-54119478D01*
X126697170Y-54120358D01*
G37*
%TD.AperFunction*%
%TD*%
%TA.AperFunction,Conductor*%
%TO.N,P10*%
G36*
X110669748Y-59919713D02*
G01*
X110673175Y-59927986D01*
X110673175Y-60110984D01*
X110669802Y-60119203D01*
X110373323Y-60419556D01*
X110365072Y-60423037D01*
X110356777Y-60419664D01*
X110356742Y-60419630D01*
X110155399Y-60219232D01*
X110151953Y-60210967D01*
X110151953Y-60210900D01*
X110152896Y-59927947D01*
X110156350Y-59919685D01*
X110164596Y-59916286D01*
X110661475Y-59916286D01*
X110669748Y-59919713D01*
G37*
%TD.AperFunction*%
%TD*%
%TA.AperFunction,Conductor*%
%TO.N,P10*%
G36*
X126697170Y-64280358D02*
G01*
X127265881Y-64514533D01*
X127327193Y-64539780D01*
X127333538Y-64546099D01*
X127333558Y-64555051D01*
X127187500Y-64909981D01*
X127181182Y-64916328D01*
X127181132Y-64916349D01*
X126826202Y-65062407D01*
X126817248Y-65062386D01*
X126810931Y-65056042D01*
X126750788Y-64909981D01*
X126551510Y-64426021D01*
X126551529Y-64417068D01*
X126554053Y-64413298D01*
X126684447Y-64282904D01*
X126692719Y-64279478D01*
X126697170Y-64280358D01*
G37*
%TD.AperFunction*%
%TD*%
%TA.AperFunction,Conductor*%
%TO.N,P4*%
G36*
X101053011Y-63897333D02*
G01*
X101182859Y-64027181D01*
X101186286Y-64035454D01*
X101185195Y-64040388D01*
X100975549Y-64491191D01*
X100968953Y-64497247D01*
X100960496Y-64497080D01*
X100697487Y-64389084D01*
X100691135Y-64382772D01*
X100691108Y-64382705D01*
X100583112Y-64119696D01*
X100583139Y-64110741D01*
X100588998Y-64104645D01*
X101039806Y-63894996D01*
X101048751Y-63894616D01*
X101053011Y-63897333D01*
G37*
%TD.AperFunction*%
%TD*%
%TA.AperFunction,Conductor*%
%TO.N,P4*%
G36*
X110300999Y-66907213D02*
G01*
X110301423Y-66907659D01*
X111191423Y-67896549D01*
X111194410Y-67904991D01*
X111192002Y-67911506D01*
X110207213Y-69192717D01*
X110199455Y-69197188D01*
X110190807Y-69194863D01*
X110188661Y-69192717D01*
X109203871Y-67911506D01*
X109201546Y-67902858D01*
X109204450Y-67896549D01*
X110094451Y-66907659D01*
X110102533Y-66903802D01*
X110103148Y-66903786D01*
X110292726Y-66903786D01*
X110300999Y-66907213D01*
G37*
%TD.AperFunction*%
%TD*%
%TA.AperFunction,Conductor*%
%TO.N,P14*%
G36*
X108825998Y-60984275D02*
G01*
X108826422Y-60984721D01*
X108854275Y-61015672D01*
X108856217Y-61018633D01*
X108897560Y-61109159D01*
X108991809Y-61217929D01*
X109095980Y-61284875D01*
X109098345Y-61286886D01*
X109105769Y-61295136D01*
X109108756Y-61303578D01*
X109105365Y-61311216D01*
X108904491Y-61513037D01*
X108896226Y-61516483D01*
X108896159Y-61516483D01*
X108613206Y-61515539D01*
X108604944Y-61512085D01*
X108601545Y-61503839D01*
X108601545Y-61503522D01*
X108601555Y-61503043D01*
X108622478Y-60992069D01*
X108626240Y-60983943D01*
X108634168Y-60980848D01*
X108817725Y-60980848D01*
X108825998Y-60984275D01*
G37*
%TD.AperFunction*%
%TD*%
%TA.AperFunction,Conductor*%
%TO.N,P14*%
G36*
X126697170Y-59200358D02*
G01*
X127265881Y-59434533D01*
X127327193Y-59459780D01*
X127333538Y-59466099D01*
X127333558Y-59475051D01*
X127187500Y-59829981D01*
X127181182Y-59836328D01*
X127181132Y-59836349D01*
X126826202Y-59982407D01*
X126817248Y-59982386D01*
X126810931Y-59976042D01*
X126750788Y-59829981D01*
X126551510Y-59346021D01*
X126551529Y-59337068D01*
X126554053Y-59333298D01*
X126684447Y-59202904D01*
X126692719Y-59199478D01*
X126697170Y-59200358D01*
G37*
%TD.AperFunction*%
%TD*%
%TA.AperFunction,Conductor*%
%TO.N,P16*%
G36*
X126697170Y-61740358D02*
G01*
X127265881Y-61974533D01*
X127327193Y-61999780D01*
X127333538Y-62006099D01*
X127333558Y-62015051D01*
X127187500Y-62369981D01*
X127181182Y-62376328D01*
X127181132Y-62376349D01*
X126826202Y-62522407D01*
X126817248Y-62522386D01*
X126810931Y-62516042D01*
X126750788Y-62369981D01*
X126551510Y-61886021D01*
X126551529Y-61877068D01*
X126554053Y-61873298D01*
X126684447Y-61742904D01*
X126692719Y-61739478D01*
X126697170Y-61740358D01*
G37*
%TD.AperFunction*%
%TD*%
%TA.AperFunction,Conductor*%
%TO.N,P16*%
G36*
X109423027Y-60239213D02*
G01*
X109425744Y-60243473D01*
X109596267Y-60710480D01*
X109595886Y-60719427D01*
X109589788Y-60725289D01*
X109327448Y-60834901D01*
X109318493Y-60834928D01*
X109318426Y-60834901D01*
X109056085Y-60725289D01*
X109049773Y-60718937D01*
X109049606Y-60710483D01*
X109220130Y-60243472D01*
X109226186Y-60236877D01*
X109231120Y-60235786D01*
X109414754Y-60235786D01*
X109423027Y-60239213D01*
G37*
%TD.AperFunction*%
%TD*%
%TA.AperFunction,Conductor*%
%TO.N,P18*%
G36*
X98653621Y-47959684D02*
G01*
X99713870Y-49246241D01*
X99716487Y-49254805D01*
X99713768Y-49261245D01*
X98876442Y-50249649D01*
X98868480Y-50253746D01*
X98867515Y-50253786D01*
X98685137Y-50253786D01*
X98676864Y-50250359D01*
X98673437Y-50242086D01*
X98673437Y-50039052D01*
X98643485Y-49811549D01*
X98584095Y-49589900D01*
X98584091Y-49589889D01*
X98496284Y-49377906D01*
X98496281Y-49377898D01*
X98381548Y-49179174D01*
X98241856Y-48997125D01*
X98079598Y-48834867D01*
X97897549Y-48695175D01*
X97806847Y-48642808D01*
X97802401Y-48638229D01*
X97676346Y-48404294D01*
X97675439Y-48395386D01*
X97681097Y-48388445D01*
X97681841Y-48388078D01*
X98639787Y-47956457D01*
X98648736Y-47956184D01*
X98653621Y-47959684D01*
G37*
%TD.AperFunction*%
%TD*%
%TA.AperFunction,Conductor*%
%TO.N,P18*%
G36*
X98873027Y-62659213D02*
G01*
X98875744Y-62663473D01*
X99046267Y-63130480D01*
X99045886Y-63139427D01*
X99039788Y-63145289D01*
X98777448Y-63254901D01*
X98768493Y-63254928D01*
X98768426Y-63254901D01*
X98506085Y-63145289D01*
X98499773Y-63138937D01*
X98499606Y-63130483D01*
X98670130Y-62663472D01*
X98676186Y-62656877D01*
X98681120Y-62655786D01*
X98864754Y-62655786D01*
X98873027Y-62659213D01*
G37*
%TD.AperFunction*%
%TD*%
%TA.AperFunction,Conductor*%
%TO.N,P15*%
G36*
X79603621Y-45864184D02*
G01*
X80663870Y-47150741D01*
X80666487Y-47159305D01*
X80663768Y-47165745D01*
X79826442Y-48154149D01*
X79818480Y-48158246D01*
X79817515Y-48158286D01*
X79635137Y-48158286D01*
X79626864Y-48154859D01*
X79623437Y-48146586D01*
X79623437Y-47943552D01*
X79593485Y-47716049D01*
X79534095Y-47494400D01*
X79534091Y-47494389D01*
X79446284Y-47282406D01*
X79446281Y-47282398D01*
X79331548Y-47083674D01*
X79191856Y-46901625D01*
X79029598Y-46739367D01*
X78847549Y-46599675D01*
X78756847Y-46547308D01*
X78752401Y-46542729D01*
X78626346Y-46308794D01*
X78625439Y-46299886D01*
X78631097Y-46292945D01*
X78631841Y-46292578D01*
X79589787Y-45860957D01*
X79598736Y-45860684D01*
X79603621Y-45864184D01*
G37*
%TD.AperFunction*%
%TD*%
%TA.AperFunction,Conductor*%
%TO.N,P15*%
G36*
X79823027Y-60199213D02*
G01*
X79825744Y-60203473D01*
X79996267Y-60670480D01*
X79995886Y-60679427D01*
X79989788Y-60685289D01*
X79727448Y-60794901D01*
X79718493Y-60794928D01*
X79718426Y-60794901D01*
X79456085Y-60685289D01*
X79449773Y-60678937D01*
X79449606Y-60670483D01*
X79620130Y-60203472D01*
X79626186Y-60196877D01*
X79631120Y-60195786D01*
X79814754Y-60195786D01*
X79823027Y-60199213D01*
G37*
%TD.AperFunction*%
%TD*%
%TA.AperFunction,Conductor*%
%TO.N,P4*%
G36*
X89217061Y-65623528D02*
G01*
X91029414Y-65807306D01*
X91037300Y-65811550D01*
X91039893Y-65817964D01*
X91147797Y-67098938D01*
X91145076Y-67107470D01*
X91138822Y-67111308D01*
X89857164Y-67413419D01*
X89848326Y-67411982D01*
X89843896Y-67407017D01*
X89703509Y-67108993D01*
X89614247Y-66919502D01*
X89613233Y-66916050D01*
X89593485Y-66766048D01*
X89534095Y-66544399D01*
X89446281Y-66332398D01*
X89331548Y-66133674D01*
X89191856Y-65951625D01*
X89129892Y-65889661D01*
X89127583Y-65886377D01*
X89073624Y-65771830D01*
X89073199Y-65762887D01*
X89075934Y-65758575D01*
X89207614Y-65626895D01*
X89215886Y-65623469D01*
X89217061Y-65623528D01*
G37*
%TD.AperFunction*%
%TD*%
%TA.AperFunction,Conductor*%
%TO.N,P4*%
G36*
X86348716Y-62515253D02*
G01*
X86354814Y-62521115D01*
X86564460Y-62971918D01*
X86564841Y-62980865D01*
X86562124Y-62985125D01*
X86432276Y-63114973D01*
X86424003Y-63118400D01*
X86419069Y-63117309D01*
X86125673Y-62980865D01*
X85968265Y-62907662D01*
X85962210Y-62901067D01*
X85962376Y-62892611D01*
X86070373Y-62629600D01*
X86076683Y-62623250D01*
X86339762Y-62515226D01*
X86348716Y-62515253D01*
G37*
%TD.AperFunction*%
%TD*%
%TA.AperFunction,Conductor*%
%TO.N,P14*%
G36*
X60775788Y-56325213D02*
G01*
X60776442Y-56325923D01*
X61613768Y-57314326D01*
X61616501Y-57322854D01*
X61613870Y-57329330D01*
X60557620Y-58611035D01*
X60549714Y-58615240D01*
X60541150Y-58612623D01*
X60539079Y-58610406D01*
X59622777Y-57329668D01*
X59620751Y-57320947D01*
X59623833Y-57314780D01*
X60569481Y-56325402D01*
X60577675Y-56321789D01*
X60577939Y-56321786D01*
X60767515Y-56321786D01*
X60775788Y-56325213D01*
G37*
%TD.AperFunction*%
%TD*%
%TA.AperFunction,Conductor*%
%TO.N,P14*%
G36*
X60939788Y-54806282D02*
G01*
X60946100Y-54812634D01*
X60946267Y-54821091D01*
X60775744Y-55288099D01*
X60769688Y-55294695D01*
X60764754Y-55295786D01*
X60581120Y-55295786D01*
X60572847Y-55292359D01*
X60570130Y-55288099D01*
X60399606Y-54821088D01*
X60399987Y-54812144D01*
X60406084Y-54806282D01*
X60668427Y-54696669D01*
X60677381Y-54696643D01*
X60939788Y-54806282D01*
G37*
%TD.AperFunction*%
%TD*%
%TA.AperFunction,Conductor*%
%TO.N,P16*%
G36*
X41598027Y-58559213D02*
G01*
X41600744Y-58563473D01*
X41771267Y-59030480D01*
X41770886Y-59039427D01*
X41764788Y-59045289D01*
X41502448Y-59154901D01*
X41493493Y-59154928D01*
X41493426Y-59154901D01*
X41231085Y-59045289D01*
X41224773Y-59038937D01*
X41224606Y-59030483D01*
X41395130Y-58563472D01*
X41401186Y-58556877D01*
X41406120Y-58555786D01*
X41589754Y-58555786D01*
X41598027Y-58559213D01*
G37*
%TD.AperFunction*%
%TD*%
%TA.AperFunction,Conductor*%
%TO.N,P10*%
G36*
X22453621Y-52531684D02*
G01*
X23513870Y-53818241D01*
X23516487Y-53826805D01*
X23513768Y-53833245D01*
X22676442Y-54821649D01*
X22668480Y-54825746D01*
X22667515Y-54825786D01*
X22485137Y-54825786D01*
X22476864Y-54822359D01*
X22473437Y-54814086D01*
X22473437Y-54611052D01*
X22443485Y-54383549D01*
X22384095Y-54161900D01*
X22384091Y-54161889D01*
X22296284Y-53949906D01*
X22296281Y-53949898D01*
X22181548Y-53751174D01*
X22041856Y-53569125D01*
X21879598Y-53406867D01*
X21697549Y-53267175D01*
X21606847Y-53214808D01*
X21602401Y-53210229D01*
X21476346Y-52976294D01*
X21475439Y-52967386D01*
X21481097Y-52960445D01*
X21481841Y-52960078D01*
X22439787Y-52528457D01*
X22448736Y-52528184D01*
X22453621Y-52531684D01*
G37*
%TD.AperFunction*%
%TD*%
%TA.AperFunction,Conductor*%
%TO.N,P10*%
G36*
X22673027Y-61919213D02*
G01*
X22675744Y-61923473D01*
X22846267Y-62390480D01*
X22845886Y-62399427D01*
X22839788Y-62405289D01*
X22577448Y-62514901D01*
X22568493Y-62514928D01*
X22568426Y-62514901D01*
X22306085Y-62405289D01*
X22299773Y-62398937D01*
X22299606Y-62390483D01*
X22470130Y-61923472D01*
X22476186Y-61916877D01*
X22481120Y-61915786D01*
X22664754Y-61915786D01*
X22673027Y-61919213D01*
G37*
%TD.AperFunction*%
%TD*%
%TA.AperFunction,Conductor*%
%TO.N,VCC*%
G36*
X124598706Y-69656666D02*
G01*
X124954164Y-69834099D01*
X125172537Y-69943104D01*
X125178409Y-69949865D01*
X125177780Y-69958797D01*
X125172369Y-69964123D01*
X124599039Y-70238914D01*
X124590097Y-70239399D01*
X124587358Y-70238007D01*
X124298013Y-70039272D01*
X124293134Y-70031764D01*
X124292937Y-70029628D01*
X124292937Y-69842372D01*
X124296364Y-69834099D01*
X124298563Y-69832372D01*
X124587420Y-69657132D01*
X124596269Y-69655772D01*
X124598706Y-69656666D01*
G37*
%TD.AperFunction*%
%TD*%
%TA.AperFunction,Conductor*%
%TO.N,VCC*%
G36*
X124445250Y-69832979D02*
G01*
X124451846Y-69839035D01*
X124452937Y-69843969D01*
X124452937Y-70027602D01*
X124449510Y-70035875D01*
X124445250Y-70038592D01*
X123978242Y-70209116D01*
X123969295Y-70208735D01*
X123963433Y-70202637D01*
X123853820Y-69940295D01*
X123853794Y-69931342D01*
X123853799Y-69931328D01*
X123963433Y-69668933D01*
X123969785Y-69662622D01*
X123978239Y-69662455D01*
X124445250Y-69832979D01*
G37*
%TD.AperFunction*%
%TD*%
%TA.AperFunction,Conductor*%
%TO.N,pos*%
G36*
X122020923Y-30691515D02*
G01*
X122026291Y-30698199D01*
X122339035Y-31703812D01*
X122338220Y-31712730D01*
X122336136Y-31715560D01*
X122206440Y-31845256D01*
X122198167Y-31848683D01*
X122191755Y-31846769D01*
X121719016Y-31537023D01*
X121713974Y-31529623D01*
X121713746Y-31527888D01*
X121672756Y-30792525D01*
X121675717Y-30784076D01*
X121681356Y-30780589D01*
X122012041Y-30690386D01*
X122020923Y-30691515D01*
G37*
%TD.AperFunction*%
%TD*%
%TA.AperFunction,Conductor*%
%TO.N,pos*%
G36*
X125556111Y-32185225D02*
G01*
X125719741Y-32252415D01*
X125819121Y-32293222D01*
X125825473Y-32299534D01*
X125825500Y-32299601D01*
X125933496Y-32562610D01*
X125933469Y-32571565D01*
X125927607Y-32577663D01*
X125476804Y-32787309D01*
X125467857Y-32787690D01*
X125463597Y-32784973D01*
X125333749Y-32655125D01*
X125330322Y-32646852D01*
X125331411Y-32641922D01*
X125541061Y-32191113D01*
X125547655Y-32185059D01*
X125556111Y-32185225D01*
G37*
%TD.AperFunction*%
%TD*%
%TA.AperFunction,Conductor*%
%TO.N,B+*%
G36*
X124334855Y-30712479D02*
G01*
X124664921Y-30781261D01*
X124672321Y-30786304D01*
X124674210Y-30791971D01*
X124721050Y-31527484D01*
X124718156Y-31535959D01*
X124716404Y-31537580D01*
X124306281Y-31845880D01*
X124297609Y-31848112D01*
X124290978Y-31844801D01*
X124160993Y-31714816D01*
X124157566Y-31706543D01*
X124157723Y-31704637D01*
X124320940Y-30722016D01*
X124325675Y-30714419D01*
X124334398Y-30712394D01*
X124334855Y-30712479D01*
G37*
%TD.AperFunction*%
%TD*%
%TA.AperFunction,Conductor*%
%TO.N,B+*%
G36*
X124222276Y-31656598D02*
G01*
X124352124Y-31786446D01*
X124355551Y-31794719D01*
X124354460Y-31799653D01*
X124144814Y-32250456D01*
X124138218Y-32256512D01*
X124129761Y-32256345D01*
X123866752Y-32148349D01*
X123860400Y-32142037D01*
X123860373Y-32141970D01*
X123752377Y-31878961D01*
X123752404Y-31870006D01*
X123758263Y-31863910D01*
X124209071Y-31654261D01*
X124218016Y-31653881D01*
X124222276Y-31656598D01*
G37*
%TD.AperFunction*%
%TD*%
%TA.AperFunction,Conductor*%
%TO.N,GND*%
G36*
X118572224Y-30300180D02*
G01*
X118575818Y-30305505D01*
X118844971Y-31129801D01*
X118844281Y-31138730D01*
X118842122Y-31141706D01*
X118711380Y-31272448D01*
X118703107Y-31275875D01*
X118698498Y-31274929D01*
X117726436Y-30858331D01*
X117720182Y-30851922D01*
X117720227Y-30843119D01*
X117919517Y-30359659D01*
X117925837Y-30353318D01*
X117929321Y-30352464D01*
X118563688Y-30297481D01*
X118572224Y-30300180D01*
G37*
%TD.AperFunction*%
%TD*%
%TA.AperFunction,Conductor*%
%TO.N,GND*%
G36*
X121157654Y-41420378D02*
G01*
X121161427Y-41422905D01*
X121291817Y-41553295D01*
X121295244Y-41561568D01*
X121294363Y-41566023D01*
X121034942Y-42196042D01*
X121028623Y-42202387D01*
X121019671Y-42202407D01*
X120664741Y-42056349D01*
X120658394Y-42050031D01*
X120658373Y-42049981D01*
X120512315Y-41695051D01*
X120512336Y-41686097D01*
X120518679Y-41679780D01*
X121148701Y-41420359D01*
X121157654Y-41420378D01*
G37*
%TD.AperFunction*%
%TD*%
%TA.AperFunction,Conductor*%
%TO.N,P4*%
G36*
X24830569Y-67762979D02*
G01*
X24837165Y-67769035D01*
X24838256Y-67773969D01*
X24838256Y-67957602D01*
X24834829Y-67965875D01*
X24830569Y-67968592D01*
X24363561Y-68139116D01*
X24354614Y-68138735D01*
X24348752Y-68132637D01*
X24239139Y-67870295D01*
X24239113Y-67861342D01*
X24239118Y-67861328D01*
X24348752Y-67598933D01*
X24355104Y-67592622D01*
X24363558Y-67592455D01*
X24830569Y-67762979D01*
G37*
%TD.AperFunction*%
%TD*%
%TA.AperFunction,Conductor*%
%TO.N,P4*%
G36*
X33663178Y-71583056D02*
G01*
X34756466Y-72469442D01*
X34760735Y-72477314D01*
X34759181Y-72484465D01*
X34006401Y-73763314D01*
X33999251Y-73768705D01*
X33990383Y-73767462D01*
X33987953Y-73765559D01*
X32981634Y-72736424D01*
X32735015Y-72484213D01*
X32731682Y-72475903D01*
X32735201Y-72467669D01*
X32735264Y-72467608D01*
X33513569Y-71717840D01*
X33647538Y-71583870D01*
X33655810Y-71580444D01*
X33663178Y-71583056D01*
G37*
%TD.AperFunction*%
%TD*%
%TA.AperFunction,Conductor*%
%TO.N,P10*%
G36*
X23038041Y-69482743D02*
G01*
X23172438Y-69617140D01*
X23172976Y-69617715D01*
X23740740Y-70267549D01*
X23743603Y-70276034D01*
X23740202Y-70283520D01*
X22458853Y-71564869D01*
X22450580Y-71568296D01*
X22442307Y-71564869D01*
X22440054Y-71561704D01*
X21820559Y-70285022D01*
X21820030Y-70276083D01*
X21824651Y-70270142D01*
X23023336Y-69481242D01*
X23032131Y-69479557D01*
X23038041Y-69482743D01*
G37*
%TD.AperFunction*%
%TD*%
%TA.AperFunction,Conductor*%
%TO.N,P10*%
G36*
X25256578Y-68192836D02*
G01*
X25262440Y-68198934D01*
X25372052Y-68461275D01*
X25372079Y-68470230D01*
X25372052Y-68470297D01*
X25262440Y-68732637D01*
X25256088Y-68738949D01*
X25247631Y-68739115D01*
X25113884Y-68690279D01*
X24780624Y-68568592D01*
X24774028Y-68562536D01*
X24772937Y-68557602D01*
X24772937Y-68373969D01*
X24776364Y-68365696D01*
X24780624Y-68362979D01*
X25247634Y-68192455D01*
X25256578Y-68192836D01*
G37*
%TD.AperFunction*%
%TD*%
%TA.AperFunction,Conductor*%
%TO.N,P5*%
G36*
X139425250Y-92022979D02*
G01*
X139431846Y-92029035D01*
X139432937Y-92033969D01*
X139432937Y-92217602D01*
X139429510Y-92225875D01*
X139425250Y-92228592D01*
X138958242Y-92399116D01*
X138949295Y-92398735D01*
X138943433Y-92392637D01*
X138833820Y-92130295D01*
X138833794Y-92121342D01*
X138833799Y-92121328D01*
X138943433Y-91858933D01*
X138949785Y-91852622D01*
X138958239Y-91852455D01*
X139425250Y-92022979D01*
G37*
%TD.AperFunction*%
%TD*%
%TA.AperFunction,Conductor*%
%TO.N,P5*%
G36*
X141823664Y-95463870D02*
G01*
X141825116Y-95465637D01*
X142716381Y-96797883D01*
X142718132Y-96806665D01*
X142715055Y-96812535D01*
X141733261Y-97824781D01*
X141725041Y-97828334D01*
X141716716Y-97825034D01*
X141714340Y-97821752D01*
X140920744Y-96190043D01*
X140920209Y-96181107D01*
X140922889Y-96176762D01*
X141467864Y-95618085D01*
X141618198Y-95463973D01*
X141626428Y-95460444D01*
X141626573Y-95460443D01*
X141815391Y-95460443D01*
X141823664Y-95463870D01*
G37*
%TD.AperFunction*%
%TD*%
%TA.AperFunction,Conductor*%
%TO.N,P18*%
G36*
X136446801Y-90294261D02*
G01*
X136897608Y-90503909D01*
X136903663Y-90510504D01*
X136903496Y-90518961D01*
X136795500Y-90781970D01*
X136789188Y-90788322D01*
X136789121Y-90788349D01*
X136526112Y-90896345D01*
X136517157Y-90896318D01*
X136511060Y-90890457D01*
X136301412Y-90439651D01*
X136301032Y-90430706D01*
X136303747Y-90426448D01*
X136433598Y-90296597D01*
X136441870Y-90293171D01*
X136446801Y-90294261D01*
G37*
%TD.AperFunction*%
%TD*%
%TA.AperFunction,Conductor*%
%TO.N,P18*%
G36*
X133274780Y-90230473D02*
G01*
X133279897Y-90237821D01*
X133280168Y-90240324D01*
X133280168Y-90424980D01*
X133280057Y-90426586D01*
X133176224Y-91175729D01*
X133171694Y-91183454D01*
X133169752Y-91184645D01*
X131538073Y-91978226D01*
X131529135Y-91978762D01*
X131522434Y-91972821D01*
X131521256Y-91967701D01*
X131521559Y-90620258D01*
X131524988Y-90611989D01*
X131530753Y-90608836D01*
X133265967Y-90228895D01*
X133274780Y-90230473D01*
G37*
%TD.AperFunction*%
%TD*%
%TA.AperFunction,Conductor*%
%TO.N,P15*%
G36*
X111027059Y-85073373D02*
G01*
X111161341Y-85207655D01*
X111162401Y-85208872D01*
X111843122Y-86109290D01*
X111845378Y-86117956D01*
X111841133Y-86125454D01*
X110507878Y-87200584D01*
X110499287Y-87203109D01*
X110491426Y-87198820D01*
X110489837Y-87196215D01*
X109868904Y-85794542D01*
X109868687Y-85785592D01*
X109873424Y-85779868D01*
X111012610Y-85071708D01*
X111021444Y-85070252D01*
X111027059Y-85073373D01*
G37*
%TD.AperFunction*%
%TD*%
%TA.AperFunction,Conductor*%
%TO.N,P15*%
G36*
X113126334Y-84783062D02*
G01*
X113132611Y-84789343D01*
X113242052Y-85051275D01*
X113242079Y-85060230D01*
X113242052Y-85060297D01*
X113132294Y-85322986D01*
X113125942Y-85329298D01*
X113117866Y-85329597D01*
X112654983Y-85178420D01*
X112648182Y-85172594D01*
X112646915Y-85167298D01*
X112646915Y-84983636D01*
X112650342Y-84975363D01*
X112654175Y-84972811D01*
X113117380Y-84783027D01*
X113126334Y-84783062D01*
G37*
%TD.AperFunction*%
%TD*%
%TA.AperFunction,Conductor*%
%TO.N,P18*%
G36*
X98653621Y-28909684D02*
G01*
X99713870Y-30196241D01*
X99716487Y-30204805D01*
X99713768Y-30211245D01*
X98876442Y-31199649D01*
X98868480Y-31203746D01*
X98867515Y-31203786D01*
X98685137Y-31203786D01*
X98676864Y-31200359D01*
X98673437Y-31192086D01*
X98673437Y-30989052D01*
X98643485Y-30761549D01*
X98584095Y-30539900D01*
X98584091Y-30539889D01*
X98496284Y-30327906D01*
X98496281Y-30327898D01*
X98381548Y-30129174D01*
X98241856Y-29947125D01*
X98079598Y-29784867D01*
X97897549Y-29645175D01*
X97806847Y-29592808D01*
X97802401Y-29588229D01*
X97676346Y-29354294D01*
X97675439Y-29345386D01*
X97681097Y-29338445D01*
X97681841Y-29338078D01*
X98639787Y-28906457D01*
X98648736Y-28906184D01*
X98653621Y-28909684D01*
G37*
%TD.AperFunction*%
%TD*%
%TA.AperFunction,Conductor*%
%TO.N,P18*%
G36*
X98875788Y-45657213D02*
G01*
X98876442Y-45657923D01*
X99713768Y-46646326D01*
X99716501Y-46654854D01*
X99713870Y-46661330D01*
X98657620Y-47943035D01*
X98649714Y-47947240D01*
X98641150Y-47944623D01*
X98639079Y-47942406D01*
X97722777Y-46661668D01*
X97720751Y-46652947D01*
X97723833Y-46646780D01*
X98669481Y-45657402D01*
X98677675Y-45653789D01*
X98677939Y-45653786D01*
X98867515Y-45653786D01*
X98875788Y-45657213D01*
G37*
%TD.AperFunction*%
%TD*%
%TA.AperFunction,Conductor*%
%TO.N,P18*%
G36*
X98875788Y-64707213D02*
G01*
X98876442Y-64707923D01*
X99713768Y-65696326D01*
X99716501Y-65704854D01*
X99713870Y-65711330D01*
X98657620Y-66993035D01*
X98649714Y-66997240D01*
X98641150Y-66994623D01*
X98639079Y-66992406D01*
X97722777Y-65711668D01*
X97720751Y-65702947D01*
X97723833Y-65696780D01*
X98669481Y-64707402D01*
X98677675Y-64703789D01*
X98677939Y-64703786D01*
X98867515Y-64703786D01*
X98875788Y-64707213D01*
G37*
%TD.AperFunction*%
%TD*%
%TA.AperFunction,Conductor*%
%TO.N,P18*%
G36*
X99039788Y-63366282D02*
G01*
X99046100Y-63372634D01*
X99046267Y-63381091D01*
X98875744Y-63848099D01*
X98869688Y-63854695D01*
X98864754Y-63855786D01*
X98681120Y-63855786D01*
X98672847Y-63852359D01*
X98670130Y-63848099D01*
X98499606Y-63381088D01*
X98499987Y-63372144D01*
X98506084Y-63366282D01*
X98768427Y-63256669D01*
X98777381Y-63256643D01*
X99039788Y-63366282D01*
G37*
%TD.AperFunction*%
%TD*%
%TA.AperFunction,Conductor*%
%TO.N,P15*%
G36*
X79825788Y-62611713D02*
G01*
X79826442Y-62612423D01*
X80663768Y-63600826D01*
X80666501Y-63609354D01*
X80663870Y-63615830D01*
X79607620Y-64897535D01*
X79599714Y-64901740D01*
X79591150Y-64899123D01*
X79589079Y-64896906D01*
X78672777Y-63616168D01*
X78670751Y-63607447D01*
X78673833Y-63601280D01*
X79619481Y-62611902D01*
X79627675Y-62608289D01*
X79627939Y-62608286D01*
X79817515Y-62608286D01*
X79825788Y-62611713D01*
G37*
%TD.AperFunction*%
%TD*%
%TA.AperFunction,Conductor*%
%TO.N,P15*%
G36*
X79989788Y-60906282D02*
G01*
X79996100Y-60912634D01*
X79996267Y-60921091D01*
X79825744Y-61388099D01*
X79819688Y-61394695D01*
X79814754Y-61395786D01*
X79631120Y-61395786D01*
X79622847Y-61392359D01*
X79620130Y-61388099D01*
X79449606Y-60921088D01*
X79449987Y-60912144D01*
X79456084Y-60906282D01*
X79718427Y-60796669D01*
X79727381Y-60796643D01*
X79989788Y-60906282D01*
G37*
%TD.AperFunction*%
%TD*%
%TA.AperFunction,Conductor*%
%TO.N,P14*%
G36*
X60553621Y-39577684D02*
G01*
X61613870Y-40864241D01*
X61616487Y-40872805D01*
X61613768Y-40879245D01*
X60776442Y-41867649D01*
X60768480Y-41871746D01*
X60767515Y-41871786D01*
X60585137Y-41871786D01*
X60576864Y-41868359D01*
X60573437Y-41860086D01*
X60573437Y-41657052D01*
X60543485Y-41429549D01*
X60484095Y-41207900D01*
X60484091Y-41207889D01*
X60396284Y-40995906D01*
X60396281Y-40995898D01*
X60281548Y-40797174D01*
X60141856Y-40615125D01*
X59979598Y-40452867D01*
X59797549Y-40313175D01*
X59706847Y-40260808D01*
X59702401Y-40256229D01*
X59576346Y-40022294D01*
X59575439Y-40013386D01*
X59581097Y-40006445D01*
X59581841Y-40006078D01*
X60539787Y-39574457D01*
X60548736Y-39574184D01*
X60553621Y-39577684D01*
G37*
%TD.AperFunction*%
%TD*%
%TA.AperFunction,Conductor*%
%TO.N,P14*%
G36*
X60773027Y-54099213D02*
G01*
X60775744Y-54103473D01*
X60946267Y-54570480D01*
X60945886Y-54579427D01*
X60939788Y-54585289D01*
X60677448Y-54694901D01*
X60668493Y-54694928D01*
X60668426Y-54694901D01*
X60406085Y-54585289D01*
X60399773Y-54578937D01*
X60399606Y-54570483D01*
X60570130Y-54103472D01*
X60576186Y-54096877D01*
X60581120Y-54095786D01*
X60764754Y-54095786D01*
X60773027Y-54099213D01*
G37*
%TD.AperFunction*%
%TD*%
%TA.AperFunction,Conductor*%
%TO.N,P14*%
G36*
X60775788Y-37275213D02*
G01*
X60776442Y-37275923D01*
X61613768Y-38264326D01*
X61616501Y-38272854D01*
X61613870Y-38279330D01*
X60557620Y-39561035D01*
X60549714Y-39565240D01*
X60541150Y-39562623D01*
X60539079Y-39560406D01*
X59622777Y-38279668D01*
X59620751Y-38270947D01*
X59623833Y-38264780D01*
X60569481Y-37275402D01*
X60577675Y-37271789D01*
X60577939Y-37271786D01*
X60767515Y-37271786D01*
X60775788Y-37275213D01*
G37*
%TD.AperFunction*%
%TD*%
%TA.AperFunction,Conductor*%
%TO.N,P14*%
G36*
X60553621Y-20527684D02*
G01*
X61613870Y-21814241D01*
X61616487Y-21822805D01*
X61613768Y-21829245D01*
X60776442Y-22817649D01*
X60768480Y-22821746D01*
X60767515Y-22821786D01*
X60585137Y-22821786D01*
X60576864Y-22818359D01*
X60573437Y-22810086D01*
X60573437Y-22607052D01*
X60543485Y-22379549D01*
X60484095Y-22157900D01*
X60484091Y-22157889D01*
X60396284Y-21945906D01*
X60396281Y-21945898D01*
X60281548Y-21747174D01*
X60141856Y-21565125D01*
X59979598Y-21402867D01*
X59797549Y-21263175D01*
X59706847Y-21210808D01*
X59702401Y-21206229D01*
X59576346Y-20972294D01*
X59575439Y-20963386D01*
X59581097Y-20956445D01*
X59581841Y-20956078D01*
X60539787Y-20524457D01*
X60548736Y-20524184D01*
X60553621Y-20527684D01*
G37*
%TD.AperFunction*%
%TD*%
%TA.AperFunction,Conductor*%
%TO.N,P16*%
G36*
X41725788Y-42609213D02*
G01*
X41726442Y-42609923D01*
X42563768Y-43598326D01*
X42566501Y-43606854D01*
X42563870Y-43613330D01*
X41507620Y-44895035D01*
X41499714Y-44899240D01*
X41491150Y-44896623D01*
X41489079Y-44894406D01*
X40572777Y-43613668D01*
X40570751Y-43604947D01*
X40573833Y-43598780D01*
X41519481Y-42609402D01*
X41527675Y-42605789D01*
X41527939Y-42605786D01*
X41717515Y-42605786D01*
X41725788Y-42609213D01*
G37*
%TD.AperFunction*%
%TD*%
%TA.AperFunction,Conductor*%
%TO.N,P16*%
G36*
X41503621Y-25861684D02*
G01*
X42563870Y-27148241D01*
X42566487Y-27156805D01*
X42563768Y-27163245D01*
X41726442Y-28151649D01*
X41718480Y-28155746D01*
X41717515Y-28155786D01*
X41535137Y-28155786D01*
X41526864Y-28152359D01*
X41523437Y-28144086D01*
X41523437Y-27941052D01*
X41493485Y-27713549D01*
X41434095Y-27491900D01*
X41434091Y-27491889D01*
X41346284Y-27279906D01*
X41346281Y-27279898D01*
X41231548Y-27081174D01*
X41091856Y-26899125D01*
X40929598Y-26736867D01*
X40747549Y-26597175D01*
X40656847Y-26544808D01*
X40652401Y-26540229D01*
X40526346Y-26306294D01*
X40525439Y-26297386D01*
X40531097Y-26290445D01*
X40531841Y-26290078D01*
X41489787Y-25858457D01*
X41498736Y-25858184D01*
X41503621Y-25861684D01*
G37*
%TD.AperFunction*%
%TD*%
%TA.AperFunction,Conductor*%
%TO.N,P16*%
G36*
X41600999Y-61659213D02*
G01*
X41601423Y-61659659D01*
X42491423Y-62648549D01*
X42494410Y-62656991D01*
X42492002Y-62663506D01*
X41507213Y-63944717D01*
X41499455Y-63949188D01*
X41490807Y-63946863D01*
X41488661Y-63944717D01*
X40503871Y-62663506D01*
X40501546Y-62654858D01*
X40504450Y-62648549D01*
X41394451Y-61659659D01*
X41402533Y-61655802D01*
X41403148Y-61655786D01*
X41592726Y-61655786D01*
X41600999Y-61659213D01*
G37*
%TD.AperFunction*%
%TD*%
%TA.AperFunction,Conductor*%
%TO.N,P16*%
G36*
X41764788Y-59266282D02*
G01*
X41771100Y-59272634D01*
X41771267Y-59281091D01*
X41600744Y-59748099D01*
X41594688Y-59754695D01*
X41589754Y-59755786D01*
X41406120Y-59755786D01*
X41397847Y-59752359D01*
X41395130Y-59748099D01*
X41224606Y-59281088D01*
X41224987Y-59272144D01*
X41231084Y-59266282D01*
X41493427Y-59156669D01*
X41502381Y-59156643D01*
X41764788Y-59266282D01*
G37*
%TD.AperFunction*%
%TD*%
%TA.AperFunction,Conductor*%
%TO.N,P16*%
G36*
X41503621Y-44911684D02*
G01*
X42563870Y-46198241D01*
X42566487Y-46206805D01*
X42563768Y-46213245D01*
X41726442Y-47201649D01*
X41718480Y-47205746D01*
X41717515Y-47205786D01*
X41535137Y-47205786D01*
X41526864Y-47202359D01*
X41523437Y-47194086D01*
X41523437Y-46991052D01*
X41493485Y-46763549D01*
X41434095Y-46541900D01*
X41434091Y-46541889D01*
X41346284Y-46329906D01*
X41346281Y-46329898D01*
X41231548Y-46131174D01*
X41091856Y-45949125D01*
X40929598Y-45786867D01*
X40747549Y-45647175D01*
X40656847Y-45594808D01*
X40652401Y-45590229D01*
X40526346Y-45356294D01*
X40525439Y-45347386D01*
X40531097Y-45340445D01*
X40531841Y-45340078D01*
X41489787Y-44908457D01*
X41498736Y-44908184D01*
X41503621Y-44911684D01*
G37*
%TD.AperFunction*%
%TD*%
%TA.AperFunction,Conductor*%
%TO.N,P10*%
G36*
X22675788Y-69279213D02*
G01*
X22676442Y-69279923D01*
X23513768Y-70268326D01*
X23516501Y-70276854D01*
X23513870Y-70283330D01*
X22457620Y-71565035D01*
X22449714Y-71569240D01*
X22441150Y-71566623D01*
X22439079Y-71564406D01*
X21522777Y-70283668D01*
X21520751Y-70274947D01*
X21523833Y-70268780D01*
X22469481Y-69279402D01*
X22477675Y-69275789D01*
X22477939Y-69275786D01*
X22667515Y-69275786D01*
X22675788Y-69279213D01*
G37*
%TD.AperFunction*%
%TD*%
%TA.AperFunction,Conductor*%
%TO.N,P10*%
G36*
X22839788Y-62626282D02*
G01*
X22846100Y-62632634D01*
X22846267Y-62641091D01*
X22675744Y-63108099D01*
X22669688Y-63114695D01*
X22664754Y-63115786D01*
X22481120Y-63115786D01*
X22472847Y-63112359D01*
X22470130Y-63108099D01*
X22299606Y-62641088D01*
X22299987Y-62632144D01*
X22306084Y-62626282D01*
X22568427Y-62516669D01*
X22577381Y-62516643D01*
X22839788Y-62626282D01*
G37*
%TD.AperFunction*%
%TD*%
%TA.AperFunction,Conductor*%
%TO.N,P10*%
G36*
X22675788Y-50229213D02*
G01*
X22676442Y-50229923D01*
X23513768Y-51218326D01*
X23516501Y-51226854D01*
X23513870Y-51233330D01*
X22457620Y-52515035D01*
X22449714Y-52519240D01*
X22441150Y-52516623D01*
X22439079Y-52514406D01*
X21522777Y-51233668D01*
X21520751Y-51224947D01*
X21523833Y-51218780D01*
X22469481Y-50229402D01*
X22477675Y-50225789D01*
X22477939Y-50225786D01*
X22667515Y-50225786D01*
X22675788Y-50229213D01*
G37*
%TD.AperFunction*%
%TD*%
%TA.AperFunction,Conductor*%
%TO.N,P10*%
G36*
X22453621Y-33481684D02*
G01*
X23513870Y-34768241D01*
X23516487Y-34776805D01*
X23513768Y-34783245D01*
X22676442Y-35771649D01*
X22668480Y-35775746D01*
X22667515Y-35775786D01*
X22485137Y-35775786D01*
X22476864Y-35772359D01*
X22473437Y-35764086D01*
X22473437Y-35561052D01*
X22443485Y-35333549D01*
X22384095Y-35111900D01*
X22384091Y-35111889D01*
X22296284Y-34899906D01*
X22296281Y-34899898D01*
X22181548Y-34701174D01*
X22041856Y-34519125D01*
X21879598Y-34356867D01*
X21697549Y-34217175D01*
X21606847Y-34164808D01*
X21602401Y-34160229D01*
X21476346Y-33926294D01*
X21475439Y-33917386D01*
X21481097Y-33910445D01*
X21481841Y-33910078D01*
X22439787Y-33478457D01*
X22448736Y-33478184D01*
X22453621Y-33481684D01*
G37*
%TD.AperFunction*%
%TD*%
%TA.AperFunction,Conductor*%
%TO.N,P14*%
G36*
X91061209Y-83978921D02*
G01*
X91064681Y-83981317D01*
X91195405Y-84112041D01*
X91198832Y-84120314D01*
X91198071Y-84124463D01*
X90426076Y-86159723D01*
X90419938Y-86166243D01*
X90414120Y-86167230D01*
X89132015Y-86055346D01*
X89124071Y-86051213D01*
X89121376Y-86044707D01*
X89009492Y-84762602D01*
X89012187Y-84754062D01*
X89016996Y-84750647D01*
X91052262Y-83978651D01*
X91061209Y-83978921D01*
G37*
%TD.AperFunction*%
%TD*%
%TA.AperFunction,Conductor*%
%TO.N,P14*%
G36*
X92756578Y-83292836D02*
G01*
X92762440Y-83298934D01*
X92872052Y-83561275D01*
X92872079Y-83570230D01*
X92872052Y-83570297D01*
X92762440Y-83832637D01*
X92756088Y-83838949D01*
X92747631Y-83839115D01*
X92613884Y-83790279D01*
X92280624Y-83668592D01*
X92274028Y-83662536D01*
X92272937Y-83657602D01*
X92272937Y-83473969D01*
X92276364Y-83465696D01*
X92280624Y-83462979D01*
X92747634Y-83292455D01*
X92756578Y-83292836D01*
G37*
%TD.AperFunction*%
%TD*%
%TA.AperFunction,Conductor*%
%TO.N,P15*%
G36*
X81536209Y-62833421D02*
G01*
X81539681Y-62835817D01*
X81670405Y-62966541D01*
X81673832Y-62974814D01*
X81673071Y-62978963D01*
X80901076Y-65014223D01*
X80894938Y-65020743D01*
X80889120Y-65021730D01*
X79607015Y-64909846D01*
X79599071Y-64905713D01*
X79596376Y-64899207D01*
X79484492Y-63617102D01*
X79487187Y-63608562D01*
X79491996Y-63605147D01*
X81527262Y-62833151D01*
X81536209Y-62833421D01*
G37*
%TD.AperFunction*%
%TD*%
%TA.AperFunction,Conductor*%
%TO.N,P15*%
G36*
X82752635Y-61909435D02*
G01*
X82752859Y-61909936D01*
X82852327Y-62147995D01*
X82861764Y-62170579D01*
X82861791Y-62179534D01*
X82861772Y-62179581D01*
X82752571Y-62442271D01*
X82746231Y-62448595D01*
X82737402Y-62448635D01*
X82355634Y-62295117D01*
X82351726Y-62292535D01*
X82223732Y-62164541D01*
X82220305Y-62156268D01*
X82223732Y-62147995D01*
X82226991Y-62145697D01*
X82737052Y-61903874D01*
X82745994Y-61903427D01*
X82752635Y-61909435D01*
G37*
%TD.AperFunction*%
%TD*%
%TA.AperFunction,Conductor*%
%TO.N,P14*%
G36*
X61070350Y-56500817D02*
G01*
X61204691Y-56635158D01*
X61204957Y-56635432D01*
X61840195Y-57313522D01*
X61843350Y-57321902D01*
X61839929Y-57329793D01*
X60558572Y-58611150D01*
X60550299Y-58614577D01*
X60542026Y-58611150D01*
X60539894Y-58608228D01*
X60445849Y-58425360D01*
X59882982Y-57330872D01*
X59882247Y-57321949D01*
X59886686Y-57315934D01*
X61055380Y-56499498D01*
X61064121Y-56497570D01*
X61070350Y-56500817D01*
G37*
%TD.AperFunction*%
%TD*%
%TA.AperFunction,Conductor*%
%TO.N,P14*%
G36*
X63956578Y-55532836D02*
G01*
X63962440Y-55538934D01*
X64072052Y-55801275D01*
X64072079Y-55810230D01*
X64072052Y-55810297D01*
X63962440Y-56072637D01*
X63956088Y-56078949D01*
X63947631Y-56079115D01*
X63813884Y-56030279D01*
X63480624Y-55908592D01*
X63474028Y-55902536D01*
X63472937Y-55897602D01*
X63472937Y-55713969D01*
X63476364Y-55705696D01*
X63480624Y-55702979D01*
X63947634Y-55532455D01*
X63956578Y-55532836D01*
G37*
%TD.AperFunction*%
%TD*%
%TA.AperFunction,Conductor*%
%TO.N,P4*%
G36*
X45065250Y-60007979D02*
G01*
X45071846Y-60014035D01*
X45072937Y-60018969D01*
X45072937Y-60202602D01*
X45069510Y-60210875D01*
X45065250Y-60213592D01*
X44598242Y-60384116D01*
X44589295Y-60383735D01*
X44583433Y-60377637D01*
X44473820Y-60115295D01*
X44473794Y-60106342D01*
X44473799Y-60106328D01*
X44583433Y-59843933D01*
X44589785Y-59837622D01*
X44598239Y-59837455D01*
X45065250Y-60007979D01*
G37*
%TD.AperFunction*%
%TD*%
%TA.AperFunction,Conductor*%
%TO.N,P16*%
G36*
X41923747Y-61668901D02*
G01*
X42057201Y-61802355D01*
X42057764Y-61802959D01*
X42790791Y-62647552D01*
X42793626Y-62656046D01*
X42790228Y-62663494D01*
X41508097Y-63945625D01*
X41499824Y-63949052D01*
X41491551Y-63945625D01*
X41489650Y-63943128D01*
X40764292Y-62664154D01*
X40763192Y-62655268D01*
X40766838Y-62649515D01*
X41907847Y-61668302D01*
X41916352Y-61665507D01*
X41923747Y-61668901D01*
G37*
%TD.AperFunction*%
%TD*%
%TA.AperFunction,Conductor*%
%TO.N,P16*%
G36*
X44981578Y-60517836D02*
G01*
X44987440Y-60523934D01*
X45097052Y-60786275D01*
X45097079Y-60795230D01*
X45097052Y-60795297D01*
X44987440Y-61057637D01*
X44981088Y-61063949D01*
X44972631Y-61064115D01*
X44838884Y-61015279D01*
X44505624Y-60893592D01*
X44499028Y-60887536D01*
X44497937Y-60882602D01*
X44497937Y-60698969D01*
X44501364Y-60690696D01*
X44505624Y-60687979D01*
X44972634Y-60517455D01*
X44981578Y-60517836D01*
G37*
%TD.AperFunction*%
%TD*%
%TA.AperFunction,Conductor*%
%TO.N,P10*%
G36*
X24386209Y-50450921D02*
G01*
X24389681Y-50453317D01*
X24520405Y-50584041D01*
X24523832Y-50592314D01*
X24523071Y-50596463D01*
X23751076Y-52631723D01*
X23744938Y-52638243D01*
X23739120Y-52639230D01*
X22457015Y-52527346D01*
X22449071Y-52523213D01*
X22446376Y-52516707D01*
X22334492Y-51234602D01*
X22337187Y-51226062D01*
X22341996Y-51222647D01*
X24377262Y-50450651D01*
X24386209Y-50450921D01*
G37*
%TD.AperFunction*%
%TD*%
%TA.AperFunction,Conductor*%
%TO.N,P10*%
G36*
X25556578Y-49712836D02*
G01*
X25562440Y-49718934D01*
X25672052Y-49981275D01*
X25672079Y-49990230D01*
X25672052Y-49990297D01*
X25562440Y-50252637D01*
X25556088Y-50258949D01*
X25547631Y-50259115D01*
X25413884Y-50210279D01*
X25080624Y-50088592D01*
X25074028Y-50082536D01*
X25072937Y-50077602D01*
X25072937Y-49893969D01*
X25076364Y-49885696D01*
X25080624Y-49882979D01*
X25547634Y-49712455D01*
X25556578Y-49712836D01*
G37*
%TD.AperFunction*%
%TD*%
%TA.AperFunction,Conductor*%
%TO.N,P16*%
G36*
X44556578Y-42012836D02*
G01*
X44562440Y-42018934D01*
X44672052Y-42281275D01*
X44672079Y-42290230D01*
X44672052Y-42290297D01*
X44562440Y-42552637D01*
X44556088Y-42558949D01*
X44547631Y-42559115D01*
X44413884Y-42510279D01*
X44080624Y-42388592D01*
X44074028Y-42382536D01*
X44072937Y-42377602D01*
X44072937Y-42193969D01*
X44076364Y-42185696D01*
X44080624Y-42182979D01*
X44547634Y-42012455D01*
X44556578Y-42012836D01*
G37*
%TD.AperFunction*%
%TD*%
%TA.AperFunction,Conductor*%
%TO.N,P16*%
G36*
X42130349Y-42830199D02*
G01*
X42264769Y-42964619D01*
X42265492Y-42965412D01*
X42791113Y-43597579D01*
X42793768Y-43606131D01*
X42790390Y-43613332D01*
X41509036Y-44894686D01*
X41500763Y-44898113D01*
X41492490Y-44894686D01*
X41490163Y-44891365D01*
X41340641Y-44571304D01*
X40893938Y-43615107D01*
X40893542Y-43606164D01*
X40898274Y-43600277D01*
X42115815Y-42828589D01*
X42124635Y-42827055D01*
X42130349Y-42830199D01*
G37*
%TD.AperFunction*%
%TD*%
%TA.AperFunction,Conductor*%
%TO.N,P14*%
G36*
X62486209Y-37496921D02*
G01*
X62489681Y-37499317D01*
X62620405Y-37630041D01*
X62623832Y-37638314D01*
X62623071Y-37642463D01*
X61851076Y-39677723D01*
X61844938Y-39684243D01*
X61839120Y-39685230D01*
X60557015Y-39573346D01*
X60549071Y-39569213D01*
X60546376Y-39562707D01*
X60434492Y-38280602D01*
X60437187Y-38272062D01*
X60441996Y-38268647D01*
X62477262Y-37496651D01*
X62486209Y-37496921D01*
G37*
%TD.AperFunction*%
%TD*%
%TA.AperFunction,Conductor*%
%TO.N,P14*%
G36*
X64206578Y-36502836D02*
G01*
X64212440Y-36508934D01*
X64322052Y-36771275D01*
X64322079Y-36780230D01*
X64322052Y-36780297D01*
X64212440Y-37042637D01*
X64206088Y-37048949D01*
X64197631Y-37049115D01*
X64063884Y-37000279D01*
X63730624Y-36878592D01*
X63724028Y-36872536D01*
X63722937Y-36867602D01*
X63722937Y-36683969D01*
X63726364Y-36675696D01*
X63730624Y-36672979D01*
X64197634Y-36502455D01*
X64206578Y-36502836D01*
G37*
%TD.AperFunction*%
%TD*%
%TA.AperFunction,Conductor*%
%TO.N,P18*%
G36*
X100586740Y-65205891D02*
G01*
X100589046Y-65207682D01*
X100720204Y-65338840D01*
X100723631Y-65347113D01*
X100722724Y-65351629D01*
X100373554Y-66186202D01*
X100372894Y-66187535D01*
X100349590Y-66227902D01*
X100261782Y-66439889D01*
X100261778Y-66439900D01*
X100251946Y-66476594D01*
X100251438Y-66478082D01*
X99951464Y-67195070D01*
X99945110Y-67201379D01*
X99938901Y-67202119D01*
X98656985Y-67005985D01*
X98649326Y-67001347D01*
X98647057Y-66994626D01*
X98624698Y-65713034D01*
X98627980Y-65704703D01*
X98633496Y-65701496D01*
X100577876Y-65204619D01*
X100586740Y-65205891D01*
G37*
%TD.AperFunction*%
%TD*%
%TA.AperFunction,Conductor*%
%TO.N,P18*%
G36*
X102066578Y-64152836D02*
G01*
X102072440Y-64158934D01*
X102182052Y-64421275D01*
X102182079Y-64430230D01*
X102182052Y-64430297D01*
X102072440Y-64692637D01*
X102066088Y-64698949D01*
X102057631Y-64699115D01*
X101923884Y-64650279D01*
X101590624Y-64528592D01*
X101584028Y-64522536D01*
X101582937Y-64517602D01*
X101582937Y-64333969D01*
X101586364Y-64325696D01*
X101590624Y-64322979D01*
X102057634Y-64152455D01*
X102066578Y-64152836D01*
G37*
%TD.AperFunction*%
%TD*%
%TA.AperFunction,Conductor*%
%TO.N,P18*%
G36*
X100586209Y-45878921D02*
G01*
X100589681Y-45881317D01*
X100720405Y-46012041D01*
X100723832Y-46020314D01*
X100723071Y-46024463D01*
X99951076Y-48059723D01*
X99944938Y-48066243D01*
X99939120Y-48067230D01*
X98657015Y-47955346D01*
X98649071Y-47951213D01*
X98646376Y-47944707D01*
X98534492Y-46662602D01*
X98537187Y-46654062D01*
X98541996Y-46650647D01*
X100577262Y-45878651D01*
X100586209Y-45878921D01*
G37*
%TD.AperFunction*%
%TD*%
%TA.AperFunction,Conductor*%
%TO.N,P18*%
G36*
X102196578Y-45082836D02*
G01*
X102202440Y-45088934D01*
X102312052Y-45351275D01*
X102312079Y-45360230D01*
X102312052Y-45360297D01*
X102202440Y-45622637D01*
X102196088Y-45628949D01*
X102187631Y-45629115D01*
X102053884Y-45580279D01*
X101720624Y-45458592D01*
X101714028Y-45452536D01*
X101712937Y-45447602D01*
X101712937Y-45263969D01*
X101716364Y-45255696D01*
X101720624Y-45252979D01*
X102187634Y-45082455D01*
X102196578Y-45082836D01*
G37*
%TD.AperFunction*%
%TD*%
%TA.AperFunction,Conductor*%
%TO.N,P18*%
G36*
X101946578Y-25862836D02*
G01*
X101952440Y-25868934D01*
X102062052Y-26131275D01*
X102062079Y-26140230D01*
X102062052Y-26140297D01*
X101952440Y-26402637D01*
X101946088Y-26408949D01*
X101937631Y-26409115D01*
X101803884Y-26360279D01*
X101470624Y-26238592D01*
X101464028Y-26232536D01*
X101462937Y-26227602D01*
X101462937Y-26043969D01*
X101466364Y-26035696D01*
X101470624Y-26032979D01*
X101937634Y-25862455D01*
X101946578Y-25862836D01*
G37*
%TD.AperFunction*%
%TD*%
%TA.AperFunction,Conductor*%
%TO.N,P18*%
G36*
X99497674Y-26832310D02*
G01*
X99631393Y-26966029D01*
X99633605Y-26969109D01*
X99944209Y-27596259D01*
X99944809Y-27605194D01*
X99941997Y-27609725D01*
X98659904Y-28891818D01*
X98651631Y-28895245D01*
X98643358Y-28891818D01*
X98640728Y-28887789D01*
X98144606Y-27613151D01*
X98144798Y-27604198D01*
X98149666Y-27598771D01*
X99483562Y-26830444D01*
X99492441Y-26829285D01*
X99497674Y-26832310D01*
G37*
%TD.AperFunction*%
%TD*%
%TA.AperFunction,Conductor*%
%TO.N,P15*%
G36*
X80045265Y-24656346D02*
G01*
X80179530Y-24790611D01*
X80889655Y-25500013D01*
X80893086Y-25508284D01*
X80889663Y-25516559D01*
X79608276Y-26797946D01*
X79600003Y-26801373D01*
X79591730Y-26797946D01*
X79589737Y-26795285D01*
X78891081Y-25517202D01*
X78890119Y-25508299D01*
X78894351Y-25502211D01*
X80030000Y-24655239D01*
X80038678Y-24653041D01*
X80045265Y-24656346D01*
G37*
%TD.AperFunction*%
%TD*%
%TA.AperFunction,Conductor*%
%TO.N,P15*%
G36*
X83396578Y-23692836D02*
G01*
X83402440Y-23698934D01*
X83512052Y-23961275D01*
X83512079Y-23970230D01*
X83512052Y-23970297D01*
X83402440Y-24232637D01*
X83396088Y-24238949D01*
X83387631Y-24239115D01*
X83253884Y-24190279D01*
X82920624Y-24068592D01*
X82914028Y-24062536D01*
X82912937Y-24057602D01*
X82912937Y-23873969D01*
X82916364Y-23865696D01*
X82920624Y-23862979D01*
X83387634Y-23692455D01*
X83396578Y-23692836D01*
G37*
%TD.AperFunction*%
%TD*%
%TA.AperFunction,Conductor*%
%TO.N,P2*%
G36*
X63735250Y-17052979D02*
G01*
X63741846Y-17059035D01*
X63742937Y-17063969D01*
X63742937Y-17247602D01*
X63739510Y-17255875D01*
X63735250Y-17258592D01*
X63268242Y-17429116D01*
X63259295Y-17428735D01*
X63253433Y-17422637D01*
X63143820Y-17160295D01*
X63143794Y-17151342D01*
X63143799Y-17151328D01*
X63253433Y-16888933D01*
X63259785Y-16882622D01*
X63268239Y-16882455D01*
X63735250Y-17052979D01*
G37*
%TD.AperFunction*%
%TD*%
%TA.AperFunction,Conductor*%
%TO.N,P2*%
G36*
X70168609Y-20646650D02*
G01*
X72203874Y-21418646D01*
X72210394Y-21424784D01*
X72211381Y-21430602D01*
X72099497Y-22712707D01*
X72095364Y-22720651D01*
X72088858Y-22723346D01*
X70806753Y-22835230D01*
X70798213Y-22832535D01*
X70794797Y-22827723D01*
X70755206Y-22723346D01*
X70022802Y-20792460D01*
X70023072Y-20783513D01*
X70025465Y-20780044D01*
X70156193Y-20649316D01*
X70164465Y-20645890D01*
X70168609Y-20646650D01*
G37*
%TD.AperFunction*%
%TD*%
%TA.AperFunction,Conductor*%
%TO.N,P14*%
G36*
X63876578Y-17482836D02*
G01*
X63882440Y-17488934D01*
X63992052Y-17751275D01*
X63992079Y-17760230D01*
X63992052Y-17760297D01*
X63882440Y-18022637D01*
X63876088Y-18028949D01*
X63867631Y-18029115D01*
X63733884Y-17980279D01*
X63400624Y-17858592D01*
X63394028Y-17852536D01*
X63392937Y-17847602D01*
X63392937Y-17663969D01*
X63396364Y-17655696D01*
X63400624Y-17652979D01*
X63867634Y-17482455D01*
X63876578Y-17482836D01*
G37*
%TD.AperFunction*%
%TD*%
%TA.AperFunction,Conductor*%
%TO.N,P14*%
G36*
X60604999Y-18208850D02*
G01*
X60605165Y-18209013D01*
X60738147Y-18341996D01*
X61610595Y-19214275D01*
X61614023Y-19222548D01*
X61611356Y-19229986D01*
X60556906Y-20510739D01*
X60549002Y-20514947D01*
X60540436Y-20512335D01*
X60538362Y-20510116D01*
X59620925Y-19229693D01*
X59618892Y-19220973D01*
X59621998Y-19214774D01*
X60588459Y-18209177D01*
X60596660Y-18205588D01*
X60604999Y-18208850D01*
G37*
%TD.AperFunction*%
%TD*%
%TA.AperFunction,Conductor*%
%TO.N,P16*%
G36*
X44693804Y-22071387D02*
G01*
X44694757Y-22073201D01*
X44803206Y-22332759D01*
X44803233Y-22341714D01*
X44803206Y-22341781D01*
X44693594Y-22604121D01*
X44687242Y-22610433D01*
X44678785Y-22610599D01*
X44545038Y-22561763D01*
X44211778Y-22440076D01*
X44205182Y-22434020D01*
X44204091Y-22429086D01*
X44204091Y-22245453D01*
X44207518Y-22237180D01*
X44211778Y-22234463D01*
X44287002Y-22206996D01*
X44291015Y-22206286D01*
X44384898Y-22206286D01*
X44491959Y-22174849D01*
X44493440Y-22174518D01*
X44508717Y-22172152D01*
X44508718Y-22172151D01*
X44508721Y-22172151D01*
X44515080Y-22169828D01*
X44526255Y-22165749D01*
X44526275Y-22165739D01*
X44529963Y-22163833D01*
X44572392Y-22141921D01*
X44577221Y-22138593D01*
X44601054Y-22117258D01*
X44602515Y-22116146D01*
X44677637Y-22067868D01*
X44686448Y-22066279D01*
X44693804Y-22071387D01*
G37*
%TD.AperFunction*%
%TD*%
%TA.AperFunction,Conductor*%
%TO.N,P16*%
G36*
X41600999Y-23559213D02*
G01*
X41601423Y-23559659D01*
X42491423Y-24548549D01*
X42494410Y-24556991D01*
X42492002Y-24563506D01*
X41507213Y-25844717D01*
X41499455Y-25849188D01*
X41490807Y-25846863D01*
X41488661Y-25844717D01*
X40503871Y-24563506D01*
X40501546Y-24554858D01*
X40504450Y-24548549D01*
X41394451Y-23559659D01*
X41402533Y-23555802D01*
X41403148Y-23555786D01*
X41592726Y-23555786D01*
X41600999Y-23559213D01*
G37*
%TD.AperFunction*%
%TD*%
%TA.AperFunction,Conductor*%
%TO.N,P2*%
G36*
X53150999Y-25759213D02*
G01*
X53151423Y-25759659D01*
X54041423Y-26748549D01*
X54044410Y-26756991D01*
X54042002Y-26763506D01*
X53057213Y-28044717D01*
X53049455Y-28049188D01*
X53040807Y-28046863D01*
X53038661Y-28044717D01*
X52053871Y-26763506D01*
X52051546Y-26754858D01*
X52054450Y-26748549D01*
X52944451Y-25759659D01*
X52952533Y-25755802D01*
X52953148Y-25755786D01*
X53142726Y-25755786D01*
X53150999Y-25759213D01*
G37*
%TD.AperFunction*%
%TD*%
%TA.AperFunction,Conductor*%
%TO.N,P2*%
G36*
X44905250Y-21602979D02*
G01*
X44911846Y-21609035D01*
X44912937Y-21613969D01*
X44912937Y-21797602D01*
X44909510Y-21805875D01*
X44905250Y-21808592D01*
X44830026Y-21836060D01*
X44826013Y-21836770D01*
X44732129Y-21836770D01*
X44594038Y-21877317D01*
X44472963Y-21955127D01*
X44472961Y-21955128D01*
X44472961Y-21955129D01*
X44460608Y-21969384D01*
X44455779Y-21972712D01*
X44438241Y-21979115D01*
X44429294Y-21978734D01*
X44423433Y-21972637D01*
X44313820Y-21710295D01*
X44313794Y-21701342D01*
X44313799Y-21701328D01*
X44423433Y-21438933D01*
X44429785Y-21432622D01*
X44438239Y-21432455D01*
X44905250Y-21602979D01*
G37*
%TD.AperFunction*%
%TD*%
%TA.AperFunction,Conductor*%
%TO.N,P2*%
G36*
X34100999Y-33379213D02*
G01*
X34101423Y-33379659D01*
X34991423Y-34368549D01*
X34994410Y-34376991D01*
X34992002Y-34383506D01*
X34007213Y-35664717D01*
X33999455Y-35669188D01*
X33990807Y-35666863D01*
X33988661Y-35664717D01*
X33003871Y-34383506D01*
X33001546Y-34374858D01*
X33004450Y-34368549D01*
X33894451Y-33379659D01*
X33902533Y-33375802D01*
X33903148Y-33375786D01*
X34092726Y-33375786D01*
X34100999Y-33379213D01*
G37*
%TD.AperFunction*%
%TD*%
%TA.AperFunction,Conductor*%
%TO.N,P2*%
G36*
X26231696Y-29052810D02*
G01*
X26238051Y-29059117D01*
X26238959Y-29063636D01*
X26238959Y-29247298D01*
X26235532Y-29255571D01*
X26230891Y-29258420D01*
X25768007Y-29409597D01*
X25759079Y-29408908D01*
X25753579Y-29402986D01*
X25693176Y-29258420D01*
X25643820Y-29140295D01*
X25643794Y-29131342D01*
X25643799Y-29131328D01*
X25753262Y-28869342D01*
X25759614Y-28863031D01*
X25768493Y-28863027D01*
X26231696Y-29052810D01*
G37*
%TD.AperFunction*%
%TD*%
%TA.AperFunction,Conductor*%
%TO.N,P10*%
G36*
X22550999Y-31179213D02*
G01*
X22551423Y-31179659D01*
X23441423Y-32168549D01*
X23444410Y-32176991D01*
X23442002Y-32183506D01*
X22457213Y-33464717D01*
X22449455Y-33469188D01*
X22440807Y-33466863D01*
X22438661Y-33464717D01*
X21453871Y-32183506D01*
X21451546Y-32174858D01*
X21454450Y-32168549D01*
X22344451Y-31179659D01*
X22352533Y-31175802D01*
X22353148Y-31175786D01*
X22542726Y-31175786D01*
X22550999Y-31179213D01*
G37*
%TD.AperFunction*%
%TD*%
%TA.AperFunction,Conductor*%
%TO.N,P10*%
G36*
X25292641Y-29639418D02*
G01*
X25292698Y-29639550D01*
X25402052Y-29901275D01*
X25402079Y-29910230D01*
X25402052Y-29910297D01*
X25292221Y-30173161D01*
X25285869Y-30179473D01*
X25277990Y-30179835D01*
X24817169Y-30038324D01*
X24810267Y-30032619D01*
X24808904Y-30027139D01*
X24808904Y-29843474D01*
X24812331Y-29835201D01*
X24815959Y-29832735D01*
X25277259Y-29633321D01*
X25286213Y-29633184D01*
X25292641Y-29639418D01*
G37*
%TD.AperFunction*%
%TD*%
%TA.AperFunction,Conductor*%
%TO.N,_1_0*%
G36*
X116638767Y-33653591D02*
G01*
X116639357Y-33653856D01*
X117995918Y-34307595D01*
X118001883Y-34314274D01*
X118002539Y-34318135D01*
X118002539Y-34553417D01*
X117999112Y-34561690D01*
X117995893Y-34563969D01*
X116639343Y-35213754D01*
X116630402Y-35214237D01*
X116623737Y-35208256D01*
X116623484Y-35207691D01*
X116303802Y-34438275D01*
X116303793Y-34429320D01*
X116303802Y-34429297D01*
X116349988Y-34318135D01*
X116623473Y-33659906D01*
X116629812Y-33653582D01*
X116638767Y-33653591D01*
G37*
%TD.AperFunction*%
%TD*%
%TA.AperFunction,Conductor*%
%TO.N,_1_25*%
G36*
X131222135Y-33659317D02*
G01*
X131222400Y-33659907D01*
X131542071Y-34429297D01*
X131542080Y-34438252D01*
X131542071Y-34438275D01*
X131222389Y-35207691D01*
X131216050Y-35214016D01*
X131207095Y-35214007D01*
X131206530Y-35213754D01*
X129849981Y-34563969D01*
X129844000Y-34557304D01*
X129843335Y-34553417D01*
X129843335Y-34318135D01*
X129846762Y-34309862D01*
X129849954Y-34307595D01*
X131206517Y-33653855D01*
X131215456Y-33653352D01*
X131222135Y-33659317D01*
G37*
%TD.AperFunction*%
%TD*%
%TA.AperFunction,Conductor*%
%TO.N,B-*%
G36*
X120506213Y-34068530D02*
G01*
X120512230Y-34074706D01*
X120660060Y-34429284D01*
X120660081Y-34438238D01*
X120660060Y-34438288D01*
X120512206Y-34792921D01*
X120505859Y-34799239D01*
X120497297Y-34799373D01*
X119868925Y-34563633D01*
X119862383Y-34557519D01*
X119861335Y-34552679D01*
X119861335Y-34318846D01*
X119864762Y-34310573D01*
X119868866Y-34307914D01*
X120497264Y-34068276D01*
X120506213Y-34068530D01*
G37*
%TD.AperFunction*%
%TD*%
%TA.AperFunction,Conductor*%
%TO.N,B+*%
G36*
X127977008Y-34307914D02*
G01*
X127983517Y-34314064D01*
X127984539Y-34318846D01*
X127984539Y-34552679D01*
X127981112Y-34560952D01*
X127976949Y-34563633D01*
X127348576Y-34799373D01*
X127339626Y-34799071D01*
X127333667Y-34792921D01*
X127328048Y-34779445D01*
X127185812Y-34438285D01*
X127185792Y-34429336D01*
X127333644Y-34074704D01*
X127339990Y-34068388D01*
X127348609Y-34068276D01*
X127977008Y-34307914D01*
G37*
%TD.AperFunction*%
%TD*%
%TA.AperFunction,Conductor*%
%TO.N,_1_1*%
G36*
X116638767Y-36193591D02*
G01*
X116639357Y-36193856D01*
X117995918Y-36847595D01*
X118001883Y-36854274D01*
X118002539Y-36858135D01*
X118002539Y-37093417D01*
X117999112Y-37101690D01*
X117995893Y-37103969D01*
X116639343Y-37753754D01*
X116630402Y-37754237D01*
X116623737Y-37748256D01*
X116623484Y-37747691D01*
X116303802Y-36978275D01*
X116303793Y-36969320D01*
X116303802Y-36969297D01*
X116349988Y-36858135D01*
X116623473Y-36199906D01*
X116629812Y-36193582D01*
X116638767Y-36193591D01*
G37*
%TD.AperFunction*%
%TD*%
%TA.AperFunction,Conductor*%
%TO.N,_1_24*%
G36*
X131222135Y-36199317D02*
G01*
X131222400Y-36199907D01*
X131542071Y-36969297D01*
X131542080Y-36978252D01*
X131542071Y-36978275D01*
X131222389Y-37747691D01*
X131216050Y-37754016D01*
X131207095Y-37754007D01*
X131206530Y-37753754D01*
X129849981Y-37103969D01*
X129844000Y-37097304D01*
X129843335Y-37093417D01*
X129843335Y-36858135D01*
X129846762Y-36849862D01*
X129849954Y-36847595D01*
X131206517Y-36193855D01*
X131215456Y-36193352D01*
X131222135Y-36199317D01*
G37*
%TD.AperFunction*%
%TD*%
%TA.AperFunction,Conductor*%
%TO.N,P1*%
G36*
X120506213Y-36608530D02*
G01*
X120512230Y-36614706D01*
X120660060Y-36969284D01*
X120660081Y-36978238D01*
X120660060Y-36978288D01*
X120512206Y-37332921D01*
X120505859Y-37339239D01*
X120497297Y-37339373D01*
X119868925Y-37103633D01*
X119862383Y-37097519D01*
X119861335Y-37092679D01*
X119861335Y-36858846D01*
X119864762Y-36850573D01*
X119868866Y-36847914D01*
X120497264Y-36608276D01*
X120506213Y-36608530D01*
G37*
%TD.AperFunction*%
%TD*%
%TA.AperFunction,Conductor*%
%TO.N,RAW*%
G36*
X127977008Y-36847914D02*
G01*
X127983517Y-36854064D01*
X127984539Y-36858846D01*
X127984539Y-37092679D01*
X127981112Y-37100952D01*
X127976949Y-37103633D01*
X127348576Y-37339373D01*
X127339626Y-37339071D01*
X127333667Y-37332921D01*
X127328048Y-37319445D01*
X127185812Y-36978285D01*
X127185792Y-36969336D01*
X127333644Y-36614704D01*
X127339990Y-36608388D01*
X127348609Y-36608276D01*
X127977008Y-36847914D01*
G37*
%TD.AperFunction*%
%TD*%
%TA.AperFunction,Conductor*%
%TO.N,_1_2*%
G36*
X116638767Y-38733591D02*
G01*
X116639357Y-38733856D01*
X117995918Y-39387595D01*
X118001883Y-39394274D01*
X118002539Y-39398135D01*
X118002539Y-39633417D01*
X117999112Y-39641690D01*
X117995893Y-39643969D01*
X116639343Y-40293754D01*
X116630402Y-40294237D01*
X116623737Y-40288256D01*
X116623484Y-40287691D01*
X116303802Y-39518275D01*
X116303793Y-39509320D01*
X116303802Y-39509297D01*
X116349988Y-39398135D01*
X116623473Y-38739906D01*
X116629812Y-38733582D01*
X116638767Y-38733591D01*
G37*
%TD.AperFunction*%
%TD*%
%TA.AperFunction,Conductor*%
%TO.N,_1_23*%
G36*
X131222135Y-38739317D02*
G01*
X131222400Y-38739907D01*
X131542071Y-39509297D01*
X131542080Y-39518252D01*
X131542071Y-39518275D01*
X131222389Y-40287691D01*
X131216050Y-40294016D01*
X131207095Y-40294007D01*
X131206530Y-40293754D01*
X129849981Y-39643969D01*
X129844000Y-39637304D01*
X129843335Y-39633417D01*
X129843335Y-39398135D01*
X129846762Y-39389862D01*
X129849954Y-39387595D01*
X131206517Y-38733855D01*
X131215456Y-38733352D01*
X131222135Y-38739317D01*
G37*
%TD.AperFunction*%
%TD*%
%TA.AperFunction,Conductor*%
%TO.N,P0*%
G36*
X120506213Y-39148530D02*
G01*
X120512230Y-39154706D01*
X120660060Y-39509284D01*
X120660081Y-39518238D01*
X120660060Y-39518288D01*
X120512206Y-39872921D01*
X120505859Y-39879239D01*
X120497297Y-39879373D01*
X119868925Y-39643633D01*
X119862383Y-39637519D01*
X119861335Y-39632679D01*
X119861335Y-39398846D01*
X119864762Y-39390573D01*
X119868866Y-39387914D01*
X120497264Y-39148276D01*
X120506213Y-39148530D01*
G37*
%TD.AperFunction*%
%TD*%
%TA.AperFunction,Conductor*%
%TO.N,GND*%
G36*
X127977008Y-39387914D02*
G01*
X127983517Y-39394064D01*
X127984539Y-39398846D01*
X127984539Y-39632679D01*
X127981112Y-39640952D01*
X127976949Y-39643633D01*
X127348576Y-39879373D01*
X127339626Y-39879071D01*
X127333667Y-39872921D01*
X127328048Y-39859445D01*
X127185812Y-39518285D01*
X127185792Y-39509336D01*
X127333644Y-39154704D01*
X127339990Y-39148388D01*
X127348609Y-39148276D01*
X127977008Y-39387914D01*
G37*
%TD.AperFunction*%
%TD*%
%TA.AperFunction,Conductor*%
%TO.N,_1_3*%
G36*
X116638767Y-41273591D02*
G01*
X116639357Y-41273856D01*
X117995918Y-41927595D01*
X118001883Y-41934274D01*
X118002539Y-41938135D01*
X118002539Y-42173417D01*
X117999112Y-42181690D01*
X117995893Y-42183969D01*
X116639343Y-42833754D01*
X116630402Y-42834237D01*
X116623737Y-42828256D01*
X116623484Y-42827691D01*
X116303802Y-42058275D01*
X116303793Y-42049320D01*
X116303802Y-42049297D01*
X116349988Y-41938135D01*
X116623473Y-41279906D01*
X116629812Y-41273582D01*
X116638767Y-41273591D01*
G37*
%TD.AperFunction*%
%TD*%
%TA.AperFunction,Conductor*%
%TO.N,_1_22*%
G36*
X131222135Y-41279317D02*
G01*
X131222400Y-41279907D01*
X131542071Y-42049297D01*
X131542080Y-42058252D01*
X131542071Y-42058275D01*
X131222389Y-42827691D01*
X131216050Y-42834016D01*
X131207095Y-42834007D01*
X131206530Y-42833754D01*
X129849981Y-42183969D01*
X129844000Y-42177304D01*
X129843335Y-42173417D01*
X129843335Y-41938135D01*
X129846762Y-41929862D01*
X129849954Y-41927595D01*
X131206517Y-41273855D01*
X131215456Y-41273352D01*
X131222135Y-41279317D01*
G37*
%TD.AperFunction*%
%TD*%
%TA.AperFunction,Conductor*%
%TO.N,GND*%
G36*
X120506213Y-41688530D02*
G01*
X120512230Y-41694706D01*
X120660060Y-42049284D01*
X120660081Y-42058238D01*
X120660060Y-42058288D01*
X120512206Y-42412921D01*
X120505859Y-42419239D01*
X120497297Y-42419373D01*
X119868925Y-42183633D01*
X119862383Y-42177519D01*
X119861335Y-42172679D01*
X119861335Y-41938846D01*
X119864762Y-41930573D01*
X119868866Y-41927914D01*
X120497264Y-41688276D01*
X120506213Y-41688530D01*
G37*
%TD.AperFunction*%
%TD*%
%TA.AperFunction,Conductor*%
%TO.N,RST*%
G36*
X127977008Y-41927914D02*
G01*
X127983517Y-41934064D01*
X127984539Y-41938846D01*
X127984539Y-42172679D01*
X127981112Y-42180952D01*
X127976949Y-42183633D01*
X127348576Y-42419373D01*
X127339626Y-42419071D01*
X127333667Y-42412921D01*
X127328048Y-42399445D01*
X127185812Y-42058285D01*
X127185792Y-42049336D01*
X127333644Y-41694704D01*
X127339990Y-41688388D01*
X127348609Y-41688276D01*
X127977008Y-41927914D01*
G37*
%TD.AperFunction*%
%TD*%
%TA.AperFunction,Conductor*%
%TO.N,_1_4*%
G36*
X116638767Y-43813591D02*
G01*
X116639357Y-43813856D01*
X117995918Y-44467595D01*
X118001883Y-44474274D01*
X118002539Y-44478135D01*
X118002539Y-44713417D01*
X117999112Y-44721690D01*
X117995893Y-44723969D01*
X116639343Y-45373754D01*
X116630402Y-45374237D01*
X116623737Y-45368256D01*
X116623484Y-45367691D01*
X116303802Y-44598275D01*
X116303793Y-44589320D01*
X116303802Y-44589297D01*
X116349988Y-44478135D01*
X116623473Y-43819906D01*
X116629812Y-43813582D01*
X116638767Y-43813591D01*
G37*
%TD.AperFunction*%
%TD*%
%TA.AperFunction,Conductor*%
%TO.N,_1_21*%
G36*
X131222135Y-43819317D02*
G01*
X131222400Y-43819907D01*
X131542071Y-44589297D01*
X131542080Y-44598252D01*
X131542071Y-44598275D01*
X131222389Y-45367691D01*
X131216050Y-45374016D01*
X131207095Y-45374007D01*
X131206530Y-45373754D01*
X129849981Y-44723969D01*
X129844000Y-44717304D01*
X129843335Y-44713417D01*
X129843335Y-44478135D01*
X129846762Y-44469862D01*
X129849954Y-44467595D01*
X131206517Y-43813855D01*
X131215456Y-43813352D01*
X131222135Y-43819317D01*
G37*
%TD.AperFunction*%
%TD*%
%TA.AperFunction,Conductor*%
%TO.N,GND*%
G36*
X120506213Y-44228530D02*
G01*
X120512230Y-44234706D01*
X120660060Y-44589284D01*
X120660081Y-44598238D01*
X120660060Y-44598288D01*
X120512206Y-44952921D01*
X120505859Y-44959239D01*
X120497297Y-44959373D01*
X119868925Y-44723633D01*
X119862383Y-44717519D01*
X119861335Y-44712679D01*
X119861335Y-44478846D01*
X119864762Y-44470573D01*
X119868866Y-44467914D01*
X120497264Y-44228276D01*
X120506213Y-44228530D01*
G37*
%TD.AperFunction*%
%TD*%
%TA.AperFunction,Conductor*%
%TO.N,VCC*%
G36*
X127977008Y-44467914D02*
G01*
X127983517Y-44474064D01*
X127984539Y-44478846D01*
X127984539Y-44712679D01*
X127981112Y-44720952D01*
X127976949Y-44723633D01*
X127348576Y-44959373D01*
X127339626Y-44959071D01*
X127333667Y-44952921D01*
X127328048Y-44939445D01*
X127185812Y-44598285D01*
X127185792Y-44589336D01*
X127333644Y-44234704D01*
X127339990Y-44228388D01*
X127348609Y-44228276D01*
X127977008Y-44467914D01*
G37*
%TD.AperFunction*%
%TD*%
%TA.AperFunction,Conductor*%
%TO.N,_1_5*%
G36*
X116638767Y-46353591D02*
G01*
X116639357Y-46353856D01*
X117995918Y-47007595D01*
X118001883Y-47014274D01*
X118002539Y-47018135D01*
X118002539Y-47253417D01*
X117999112Y-47261690D01*
X117995893Y-47263969D01*
X116639343Y-47913754D01*
X116630402Y-47914237D01*
X116623737Y-47908256D01*
X116623484Y-47907691D01*
X116303802Y-47138275D01*
X116303793Y-47129320D01*
X116303802Y-47129297D01*
X116349988Y-47018135D01*
X116623473Y-46359906D01*
X116629812Y-46353582D01*
X116638767Y-46353591D01*
G37*
%TD.AperFunction*%
%TD*%
%TA.AperFunction,Conductor*%
%TO.N,_1_20*%
G36*
X131222135Y-46359317D02*
G01*
X131222400Y-46359907D01*
X131542071Y-47129297D01*
X131542080Y-47138252D01*
X131542071Y-47138275D01*
X131222389Y-47907691D01*
X131216050Y-47914016D01*
X131207095Y-47914007D01*
X131206530Y-47913754D01*
X129849981Y-47263969D01*
X129844000Y-47257304D01*
X129843335Y-47253417D01*
X129843335Y-47018135D01*
X129846762Y-47009862D01*
X129849954Y-47007595D01*
X131206517Y-46353855D01*
X131215456Y-46353352D01*
X131222135Y-46359317D01*
G37*
%TD.AperFunction*%
%TD*%
%TA.AperFunction,Conductor*%
%TO.N,P2*%
G36*
X120506213Y-46768530D02*
G01*
X120512230Y-46774706D01*
X120660060Y-47129284D01*
X120660081Y-47138238D01*
X120660060Y-47138288D01*
X120512206Y-47492921D01*
X120505859Y-47499239D01*
X120497297Y-47499373D01*
X119868925Y-47263633D01*
X119862383Y-47257519D01*
X119861335Y-47252679D01*
X119861335Y-47018846D01*
X119864762Y-47010573D01*
X119868866Y-47007914D01*
X120497264Y-46768276D01*
X120506213Y-46768530D01*
G37*
%TD.AperFunction*%
%TD*%
%TA.AperFunction,Conductor*%
%TO.N,P21*%
G36*
X127977008Y-47007914D02*
G01*
X127983517Y-47014064D01*
X127984539Y-47018846D01*
X127984539Y-47252679D01*
X127981112Y-47260952D01*
X127976949Y-47263633D01*
X127348576Y-47499373D01*
X127339626Y-47499071D01*
X127333667Y-47492921D01*
X127328048Y-47479445D01*
X127185812Y-47138285D01*
X127185792Y-47129336D01*
X127333644Y-46774704D01*
X127339990Y-46768388D01*
X127348609Y-46768276D01*
X127977008Y-47007914D01*
G37*
%TD.AperFunction*%
%TD*%
%TA.AperFunction,Conductor*%
%TO.N,_1_6*%
G36*
X116638767Y-48893591D02*
G01*
X116639357Y-48893856D01*
X117995918Y-49547595D01*
X118001883Y-49554274D01*
X118002539Y-49558135D01*
X118002539Y-49793417D01*
X117999112Y-49801690D01*
X117995893Y-49803969D01*
X116639343Y-50453754D01*
X116630402Y-50454237D01*
X116623737Y-50448256D01*
X116623484Y-50447691D01*
X116303802Y-49678275D01*
X116303793Y-49669320D01*
X116303802Y-49669297D01*
X116349988Y-49558135D01*
X116623473Y-48899906D01*
X116629812Y-48893582D01*
X116638767Y-48893591D01*
G37*
%TD.AperFunction*%
%TD*%
%TA.AperFunction,Conductor*%
%TO.N,_1_19*%
G36*
X131222135Y-48899317D02*
G01*
X131222400Y-48899907D01*
X131542071Y-49669297D01*
X131542080Y-49678252D01*
X131542071Y-49678275D01*
X131222389Y-50447691D01*
X131216050Y-50454016D01*
X131207095Y-50454007D01*
X131206530Y-50453754D01*
X129849981Y-49803969D01*
X129844000Y-49797304D01*
X129843335Y-49793417D01*
X129843335Y-49558135D01*
X129846762Y-49549862D01*
X129849954Y-49547595D01*
X131206517Y-48893855D01*
X131215456Y-48893352D01*
X131222135Y-48899317D01*
G37*
%TD.AperFunction*%
%TD*%
%TA.AperFunction,Conductor*%
%TO.N,P3*%
G36*
X120506213Y-49308530D02*
G01*
X120512230Y-49314706D01*
X120660060Y-49669284D01*
X120660081Y-49678238D01*
X120660060Y-49678288D01*
X120512206Y-50032921D01*
X120505859Y-50039239D01*
X120497297Y-50039373D01*
X119868925Y-49803633D01*
X119862383Y-49797519D01*
X119861335Y-49792679D01*
X119861335Y-49558846D01*
X119864762Y-49550573D01*
X119868866Y-49547914D01*
X120497264Y-49308276D01*
X120506213Y-49308530D01*
G37*
%TD.AperFunction*%
%TD*%
%TA.AperFunction,Conductor*%
%TO.N,P20*%
G36*
X127977008Y-49547914D02*
G01*
X127983517Y-49554064D01*
X127984539Y-49558846D01*
X127984539Y-49792679D01*
X127981112Y-49800952D01*
X127976949Y-49803633D01*
X127348576Y-50039373D01*
X127339626Y-50039071D01*
X127333667Y-50032921D01*
X127328048Y-50019445D01*
X127185812Y-49678285D01*
X127185792Y-49669336D01*
X127333644Y-49314704D01*
X127339990Y-49308388D01*
X127348609Y-49308276D01*
X127977008Y-49547914D01*
G37*
%TD.AperFunction*%
%TD*%
%TA.AperFunction,Conductor*%
%TO.N,_1_7*%
G36*
X116638767Y-51433591D02*
G01*
X116639357Y-51433856D01*
X117995918Y-52087595D01*
X118001883Y-52094274D01*
X118002539Y-52098135D01*
X118002539Y-52333417D01*
X117999112Y-52341690D01*
X117995893Y-52343969D01*
X116639343Y-52993754D01*
X116630402Y-52994237D01*
X116623737Y-52988256D01*
X116623484Y-52987691D01*
X116303802Y-52218275D01*
X116303793Y-52209320D01*
X116303802Y-52209297D01*
X116349988Y-52098135D01*
X116623473Y-51439906D01*
X116629812Y-51433582D01*
X116638767Y-51433591D01*
G37*
%TD.AperFunction*%
%TD*%
%TA.AperFunction,Conductor*%
%TO.N,_1_18*%
G36*
X131222135Y-51439317D02*
G01*
X131222400Y-51439907D01*
X131542071Y-52209297D01*
X131542080Y-52218252D01*
X131542071Y-52218275D01*
X131222389Y-52987691D01*
X131216050Y-52994016D01*
X131207095Y-52994007D01*
X131206530Y-52993754D01*
X129849981Y-52343969D01*
X129844000Y-52337304D01*
X129843335Y-52333417D01*
X129843335Y-52098135D01*
X129846762Y-52089862D01*
X129849954Y-52087595D01*
X131206517Y-51433855D01*
X131215456Y-51433352D01*
X131222135Y-51439317D01*
G37*
%TD.AperFunction*%
%TD*%
%TA.AperFunction,Conductor*%
%TO.N,P4*%
G36*
X120506213Y-51848530D02*
G01*
X120512230Y-51854706D01*
X120660060Y-52209284D01*
X120660081Y-52218238D01*
X120660060Y-52218288D01*
X120512206Y-52572921D01*
X120505859Y-52579239D01*
X120497297Y-52579373D01*
X119868925Y-52343633D01*
X119862383Y-52337519D01*
X119861335Y-52332679D01*
X119861335Y-52098846D01*
X119864762Y-52090573D01*
X119868866Y-52087914D01*
X120497264Y-51848276D01*
X120506213Y-51848530D01*
G37*
%TD.AperFunction*%
%TD*%
%TA.AperFunction,Conductor*%
%TO.N,P19*%
G36*
X127977008Y-52087914D02*
G01*
X127983517Y-52094064D01*
X127984539Y-52098846D01*
X127984539Y-52332679D01*
X127981112Y-52340952D01*
X127976949Y-52343633D01*
X127348576Y-52579373D01*
X127339626Y-52579071D01*
X127333667Y-52572921D01*
X127328048Y-52559445D01*
X127185812Y-52218285D01*
X127185792Y-52209336D01*
X127333644Y-51854704D01*
X127339990Y-51848388D01*
X127348609Y-51848276D01*
X127977008Y-52087914D01*
G37*
%TD.AperFunction*%
%TD*%
%TA.AperFunction,Conductor*%
%TO.N,_1_8*%
G36*
X116638767Y-53973591D02*
G01*
X116639357Y-53973856D01*
X117995918Y-54627595D01*
X118001883Y-54634274D01*
X118002539Y-54638135D01*
X118002539Y-54873417D01*
X117999112Y-54881690D01*
X117995893Y-54883969D01*
X116639343Y-55533754D01*
X116630402Y-55534237D01*
X116623737Y-55528256D01*
X116623484Y-55527691D01*
X116303802Y-54758275D01*
X116303793Y-54749320D01*
X116303802Y-54749297D01*
X116349988Y-54638135D01*
X116623473Y-53979906D01*
X116629812Y-53973582D01*
X116638767Y-53973591D01*
G37*
%TD.AperFunction*%
%TD*%
%TA.AperFunction,Conductor*%
%TO.N,_1_17*%
G36*
X131222135Y-53979317D02*
G01*
X131222400Y-53979907D01*
X131542071Y-54749297D01*
X131542080Y-54758252D01*
X131542071Y-54758275D01*
X131222389Y-55527691D01*
X131216050Y-55534016D01*
X131207095Y-55534007D01*
X131206530Y-55533754D01*
X129849981Y-54883969D01*
X129844000Y-54877304D01*
X129843335Y-54873417D01*
X129843335Y-54638135D01*
X129846762Y-54629862D01*
X129849954Y-54627595D01*
X131206517Y-53973855D01*
X131215456Y-53973352D01*
X131222135Y-53979317D01*
G37*
%TD.AperFunction*%
%TD*%
%TA.AperFunction,Conductor*%
%TO.N,P5*%
G36*
X120506213Y-54388530D02*
G01*
X120512230Y-54394706D01*
X120660060Y-54749284D01*
X120660081Y-54758238D01*
X120660060Y-54758288D01*
X120512206Y-55112921D01*
X120505859Y-55119239D01*
X120497297Y-55119373D01*
X119868925Y-54883633D01*
X119862383Y-54877519D01*
X119861335Y-54872679D01*
X119861335Y-54638846D01*
X119864762Y-54630573D01*
X119868866Y-54627914D01*
X120497264Y-54388276D01*
X120506213Y-54388530D01*
G37*
%TD.AperFunction*%
%TD*%
%TA.AperFunction,Conductor*%
%TO.N,P18*%
G36*
X127977008Y-54627914D02*
G01*
X127983517Y-54634064D01*
X127984539Y-54638846D01*
X127984539Y-54872679D01*
X127981112Y-54880952D01*
X127976949Y-54883633D01*
X127348576Y-55119373D01*
X127339626Y-55119071D01*
X127333667Y-55112921D01*
X127328048Y-55099445D01*
X127185812Y-54758285D01*
X127185792Y-54749336D01*
X127333644Y-54394704D01*
X127339990Y-54388388D01*
X127348609Y-54388276D01*
X127977008Y-54627914D01*
G37*
%TD.AperFunction*%
%TD*%
%TA.AperFunction,Conductor*%
%TO.N,_1_9*%
G36*
X116638767Y-56513591D02*
G01*
X116639357Y-56513856D01*
X117995918Y-57167595D01*
X118001883Y-57174274D01*
X118002539Y-57178135D01*
X118002539Y-57413417D01*
X117999112Y-57421690D01*
X117995893Y-57423969D01*
X116639343Y-58073754D01*
X116630402Y-58074237D01*
X116623737Y-58068256D01*
X116623484Y-58067691D01*
X116303802Y-57298275D01*
X116303793Y-57289320D01*
X116303802Y-57289297D01*
X116349988Y-57178135D01*
X116623473Y-56519906D01*
X116629812Y-56513582D01*
X116638767Y-56513591D01*
G37*
%TD.AperFunction*%
%TD*%
%TA.AperFunction,Conductor*%
%TO.N,_1_16*%
G36*
X131222135Y-56519317D02*
G01*
X131222400Y-56519907D01*
X131542071Y-57289297D01*
X131542080Y-57298252D01*
X131542071Y-57298275D01*
X131222389Y-58067691D01*
X131216050Y-58074016D01*
X131207095Y-58074007D01*
X131206530Y-58073754D01*
X129849981Y-57423969D01*
X129844000Y-57417304D01*
X129843335Y-57413417D01*
X129843335Y-57178135D01*
X129846762Y-57169862D01*
X129849954Y-57167595D01*
X131206517Y-56513855D01*
X131215456Y-56513352D01*
X131222135Y-56519317D01*
G37*
%TD.AperFunction*%
%TD*%
%TA.AperFunction,Conductor*%
%TO.N,P6*%
G36*
X120506213Y-56928530D02*
G01*
X120512230Y-56934706D01*
X120660060Y-57289284D01*
X120660081Y-57298238D01*
X120660060Y-57298288D01*
X120512206Y-57652921D01*
X120505859Y-57659239D01*
X120497297Y-57659373D01*
X119868925Y-57423633D01*
X119862383Y-57417519D01*
X119861335Y-57412679D01*
X119861335Y-57178846D01*
X119864762Y-57170573D01*
X119868866Y-57167914D01*
X120497264Y-56928276D01*
X120506213Y-56928530D01*
G37*
%TD.AperFunction*%
%TD*%
%TA.AperFunction,Conductor*%
%TO.N,P15*%
G36*
X127977008Y-57167914D02*
G01*
X127983517Y-57174064D01*
X127984539Y-57178846D01*
X127984539Y-57412679D01*
X127981112Y-57420952D01*
X127976949Y-57423633D01*
X127348576Y-57659373D01*
X127339626Y-57659071D01*
X127333667Y-57652921D01*
X127328048Y-57639445D01*
X127185812Y-57298285D01*
X127185792Y-57289336D01*
X127333644Y-56934704D01*
X127339990Y-56928388D01*
X127348609Y-56928276D01*
X127977008Y-57167914D01*
G37*
%TD.AperFunction*%
%TD*%
%TA.AperFunction,Conductor*%
%TO.N,_1_10*%
G36*
X116638767Y-59053591D02*
G01*
X116639357Y-59053856D01*
X117995918Y-59707595D01*
X118001883Y-59714274D01*
X118002539Y-59718135D01*
X118002539Y-59953417D01*
X117999112Y-59961690D01*
X117995893Y-59963969D01*
X116639343Y-60613754D01*
X116630402Y-60614237D01*
X116623737Y-60608256D01*
X116623484Y-60607691D01*
X116303802Y-59838275D01*
X116303793Y-59829320D01*
X116303802Y-59829297D01*
X116349988Y-59718135D01*
X116623473Y-59059906D01*
X116629812Y-59053582D01*
X116638767Y-59053591D01*
G37*
%TD.AperFunction*%
%TD*%
%TA.AperFunction,Conductor*%
%TO.N,_1_15*%
G36*
X131222135Y-59059317D02*
G01*
X131222400Y-59059907D01*
X131542071Y-59829297D01*
X131542080Y-59838252D01*
X131542071Y-59838275D01*
X131222389Y-60607691D01*
X131216050Y-60614016D01*
X131207095Y-60614007D01*
X131206530Y-60613754D01*
X129849981Y-59963969D01*
X129844000Y-59957304D01*
X129843335Y-59953417D01*
X129843335Y-59718135D01*
X129846762Y-59709862D01*
X129849954Y-59707595D01*
X131206517Y-59053855D01*
X131215456Y-59053352D01*
X131222135Y-59059317D01*
G37*
%TD.AperFunction*%
%TD*%
%TA.AperFunction,Conductor*%
%TO.N,P7*%
G36*
X120506213Y-59468530D02*
G01*
X120512230Y-59474706D01*
X120660060Y-59829284D01*
X120660081Y-59838238D01*
X120660060Y-59838288D01*
X120512206Y-60192921D01*
X120505859Y-60199239D01*
X120497297Y-60199373D01*
X119868925Y-59963633D01*
X119862383Y-59957519D01*
X119861335Y-59952679D01*
X119861335Y-59718846D01*
X119864762Y-59710573D01*
X119868866Y-59707914D01*
X120497264Y-59468276D01*
X120506213Y-59468530D01*
G37*
%TD.AperFunction*%
%TD*%
%TA.AperFunction,Conductor*%
%TO.N,P14*%
G36*
X127977008Y-59707914D02*
G01*
X127983517Y-59714064D01*
X127984539Y-59718846D01*
X127984539Y-59952679D01*
X127981112Y-59960952D01*
X127976949Y-59963633D01*
X127348576Y-60199373D01*
X127339626Y-60199071D01*
X127333667Y-60192921D01*
X127328048Y-60179445D01*
X127185812Y-59838285D01*
X127185792Y-59829336D01*
X127333644Y-59474704D01*
X127339990Y-59468388D01*
X127348609Y-59468276D01*
X127977008Y-59707914D01*
G37*
%TD.AperFunction*%
%TD*%
%TA.AperFunction,Conductor*%
%TO.N,_1_11*%
G36*
X116638767Y-61593591D02*
G01*
X116639357Y-61593856D01*
X117995918Y-62247595D01*
X118001883Y-62254274D01*
X118002539Y-62258135D01*
X118002539Y-62493417D01*
X117999112Y-62501690D01*
X117995893Y-62503969D01*
X116639343Y-63153754D01*
X116630402Y-63154237D01*
X116623737Y-63148256D01*
X116623484Y-63147691D01*
X116303802Y-62378275D01*
X116303793Y-62369320D01*
X116303802Y-62369297D01*
X116349988Y-62258135D01*
X116623473Y-61599906D01*
X116629812Y-61593582D01*
X116638767Y-61593591D01*
G37*
%TD.AperFunction*%
%TD*%
%TA.AperFunction,Conductor*%
%TO.N,_1_14*%
G36*
X131222135Y-61599317D02*
G01*
X131222400Y-61599907D01*
X131542071Y-62369297D01*
X131542080Y-62378252D01*
X131542071Y-62378275D01*
X131222389Y-63147691D01*
X131216050Y-63154016D01*
X131207095Y-63154007D01*
X131206530Y-63153754D01*
X129849981Y-62503969D01*
X129844000Y-62497304D01*
X129843335Y-62493417D01*
X129843335Y-62258135D01*
X129846762Y-62249862D01*
X129849954Y-62247595D01*
X131206517Y-61593855D01*
X131215456Y-61593352D01*
X131222135Y-61599317D01*
G37*
%TD.AperFunction*%
%TD*%
%TA.AperFunction,Conductor*%
%TO.N,P8*%
G36*
X120506213Y-62008530D02*
G01*
X120512230Y-62014706D01*
X120660060Y-62369284D01*
X120660081Y-62378238D01*
X120660060Y-62378288D01*
X120512206Y-62732921D01*
X120505859Y-62739239D01*
X120497297Y-62739373D01*
X119868925Y-62503633D01*
X119862383Y-62497519D01*
X119861335Y-62492679D01*
X119861335Y-62258846D01*
X119864762Y-62250573D01*
X119868866Y-62247914D01*
X120497264Y-62008276D01*
X120506213Y-62008530D01*
G37*
%TD.AperFunction*%
%TD*%
%TA.AperFunction,Conductor*%
%TO.N,P16*%
G36*
X127977008Y-62247914D02*
G01*
X127983517Y-62254064D01*
X127984539Y-62258846D01*
X127984539Y-62492679D01*
X127981112Y-62500952D01*
X127976949Y-62503633D01*
X127348576Y-62739373D01*
X127339626Y-62739071D01*
X127333667Y-62732921D01*
X127328048Y-62719445D01*
X127185812Y-62378285D01*
X127185792Y-62369336D01*
X127333644Y-62014704D01*
X127339990Y-62008388D01*
X127348609Y-62008276D01*
X127977008Y-62247914D01*
G37*
%TD.AperFunction*%
%TD*%
%TA.AperFunction,Conductor*%
%TO.N,_1_12*%
G36*
X116638767Y-64133591D02*
G01*
X116639357Y-64133856D01*
X117995918Y-64787595D01*
X118001883Y-64794274D01*
X118002539Y-64798135D01*
X118002539Y-65033417D01*
X117999112Y-65041690D01*
X117995893Y-65043969D01*
X116639343Y-65693754D01*
X116630402Y-65694237D01*
X116623737Y-65688256D01*
X116623484Y-65687691D01*
X116303802Y-64918275D01*
X116303793Y-64909320D01*
X116303802Y-64909297D01*
X116349988Y-64798135D01*
X116623473Y-64139906D01*
X116629812Y-64133582D01*
X116638767Y-64133591D01*
G37*
%TD.AperFunction*%
%TD*%
%TA.AperFunction,Conductor*%
%TO.N,_1_13*%
G36*
X131222135Y-64139317D02*
G01*
X131222400Y-64139907D01*
X131542071Y-64909297D01*
X131542080Y-64918252D01*
X131542071Y-64918275D01*
X131222389Y-65687691D01*
X131216050Y-65694016D01*
X131207095Y-65694007D01*
X131206530Y-65693754D01*
X129849981Y-65043969D01*
X129844000Y-65037304D01*
X129843335Y-65033417D01*
X129843335Y-64798135D01*
X129846762Y-64789862D01*
X129849954Y-64787595D01*
X131206517Y-64133855D01*
X131215456Y-64133352D01*
X131222135Y-64139317D01*
G37*
%TD.AperFunction*%
%TD*%
%TA.AperFunction,Conductor*%
%TO.N,P9*%
G36*
X120506213Y-64548530D02*
G01*
X120512230Y-64554706D01*
X120660060Y-64909284D01*
X120660081Y-64918238D01*
X120660060Y-64918288D01*
X120512206Y-65272921D01*
X120505859Y-65279239D01*
X120497297Y-65279373D01*
X119868925Y-65043633D01*
X119862383Y-65037519D01*
X119861335Y-65032679D01*
X119861335Y-64798846D01*
X119864762Y-64790573D01*
X119868866Y-64787914D01*
X120497264Y-64548276D01*
X120506213Y-64548530D01*
G37*
%TD.AperFunction*%
%TD*%
%TA.AperFunction,Conductor*%
%TO.N,P10*%
G36*
X127977008Y-64787914D02*
G01*
X127983517Y-64794064D01*
X127984539Y-64798846D01*
X127984539Y-65032679D01*
X127981112Y-65040952D01*
X127976949Y-65043633D01*
X127348576Y-65279373D01*
X127339626Y-65279071D01*
X127333667Y-65272921D01*
X127328048Y-65259445D01*
X127185812Y-64918285D01*
X127185792Y-64909336D01*
X127333644Y-64554704D01*
X127339990Y-64548388D01*
X127348609Y-64548276D01*
X127977008Y-64787914D01*
G37*
%TD.AperFunction*%
%TD*%
%TA.AperFunction,Conductor*%
%TO.N,DISP1_1*%
G36*
X120238849Y-70907213D02*
G01*
X120241123Y-70910420D01*
X120892887Y-72267372D01*
X120893379Y-72276314D01*
X120887406Y-72282985D01*
X120886829Y-72283243D01*
X120117426Y-72602920D01*
X120108471Y-72602929D01*
X120108448Y-72602920D01*
X119339044Y-72283243D01*
X119332719Y-72276904D01*
X119332728Y-72267949D01*
X119332986Y-72267372D01*
X119984751Y-70910420D01*
X119991422Y-70904447D01*
X119995298Y-70903786D01*
X120230576Y-70903786D01*
X120238849Y-70907213D01*
G37*
%TD.AperFunction*%
%TD*%
%TA.AperFunction,Conductor*%
%TO.N,DISP1_1*%
G36*
X120121195Y-70861071D02*
G01*
X120340819Y-71081428D01*
X120406581Y-71147409D01*
X120409994Y-71155687D01*
X120408400Y-71161563D01*
X120241323Y-71447981D01*
X120234195Y-71453401D01*
X120231217Y-71453786D01*
X119994657Y-71453786D01*
X119986384Y-71450359D01*
X119984551Y-71447981D01*
X119934427Y-71362055D01*
X119817472Y-71161561D01*
X119816264Y-71152690D01*
X119819290Y-71147410D01*
X120104651Y-70861099D01*
X120112918Y-70857659D01*
X120121195Y-70861071D01*
G37*
%TD.AperFunction*%
%TD*%
%TA.AperFunction,Conductor*%
%TO.N,DISP1_2*%
G36*
X122661195Y-70861071D02*
G01*
X122880819Y-71081428D01*
X122946581Y-71147409D01*
X122949994Y-71155687D01*
X122948400Y-71161563D01*
X122781323Y-71447981D01*
X122774195Y-71453401D01*
X122771217Y-71453786D01*
X122534657Y-71453786D01*
X122526384Y-71450359D01*
X122524551Y-71447981D01*
X122474427Y-71362055D01*
X122357472Y-71161561D01*
X122356264Y-71152690D01*
X122359290Y-71147410D01*
X122644651Y-70861099D01*
X122652918Y-70857659D01*
X122661195Y-70861071D01*
G37*
%TD.AperFunction*%
%TD*%
%TA.AperFunction,Conductor*%
%TO.N,DISP1_2*%
G36*
X122778849Y-70907213D02*
G01*
X122781123Y-70910420D01*
X123432887Y-72267372D01*
X123433379Y-72276314D01*
X123427406Y-72282985D01*
X123426829Y-72283243D01*
X122657426Y-72602920D01*
X122648471Y-72602929D01*
X122648448Y-72602920D01*
X121879044Y-72283243D01*
X121872719Y-72276904D01*
X121872728Y-72267949D01*
X121872986Y-72267372D01*
X122524751Y-70910420D01*
X122531422Y-70904447D01*
X122535298Y-70903786D01*
X122770576Y-70903786D01*
X122778849Y-70907213D01*
G37*
%TD.AperFunction*%
%TD*%
%TA.AperFunction,Conductor*%
%TO.N,DISP1_3*%
G36*
X125318849Y-70907213D02*
G01*
X125321123Y-70910420D01*
X125972887Y-72267372D01*
X125973379Y-72276314D01*
X125967406Y-72282985D01*
X125966829Y-72283243D01*
X125197426Y-72602920D01*
X125188471Y-72602929D01*
X125188448Y-72602920D01*
X124419044Y-72283243D01*
X124412719Y-72276904D01*
X124412728Y-72267949D01*
X124412986Y-72267372D01*
X125064751Y-70910420D01*
X125071422Y-70904447D01*
X125075298Y-70903786D01*
X125310576Y-70903786D01*
X125318849Y-70907213D01*
G37*
%TD.AperFunction*%
%TD*%
%TA.AperFunction,Conductor*%
%TO.N,DISP1_3*%
G36*
X125201195Y-70861071D02*
G01*
X125420819Y-71081428D01*
X125486581Y-71147409D01*
X125489994Y-71155687D01*
X125488400Y-71161563D01*
X125321323Y-71447981D01*
X125314195Y-71453401D01*
X125311217Y-71453786D01*
X125074657Y-71453786D01*
X125066384Y-71450359D01*
X125064551Y-71447981D01*
X125014427Y-71362055D01*
X124897472Y-71161561D01*
X124896264Y-71152690D01*
X124899290Y-71147410D01*
X125184651Y-70861099D01*
X125192918Y-70857659D01*
X125201195Y-70861071D01*
G37*
%TD.AperFunction*%
%TD*%
%TA.AperFunction,Conductor*%
%TO.N,DISP1_4*%
G36*
X127858849Y-70907213D02*
G01*
X127861123Y-70910420D01*
X128512887Y-72267372D01*
X128513379Y-72276314D01*
X128507406Y-72282985D01*
X128506829Y-72283243D01*
X127737426Y-72602920D01*
X127728471Y-72602929D01*
X127728448Y-72602920D01*
X126959044Y-72283243D01*
X126952719Y-72276904D01*
X126952728Y-72267949D01*
X126952986Y-72267372D01*
X127604751Y-70910420D01*
X127611422Y-70904447D01*
X127615298Y-70903786D01*
X127850576Y-70903786D01*
X127858849Y-70907213D01*
G37*
%TD.AperFunction*%
%TD*%
%TA.AperFunction,Conductor*%
%TO.N,DISP1_4*%
G36*
X127741195Y-70861071D02*
G01*
X127960819Y-71081428D01*
X128026581Y-71147409D01*
X128029994Y-71155687D01*
X128028400Y-71161563D01*
X127861323Y-71447981D01*
X127854195Y-71453401D01*
X127851217Y-71453786D01*
X127614657Y-71453786D01*
X127606384Y-71450359D01*
X127604551Y-71447981D01*
X127554427Y-71362055D01*
X127437472Y-71161561D01*
X127436264Y-71152690D01*
X127439290Y-71147410D01*
X127724651Y-70861099D01*
X127732918Y-70857659D01*
X127741195Y-70861071D01*
G37*
%TD.AperFunction*%
%TD*%
M02*
