%TF.GenerationSoftware,KiCad,Pcbnew,8.0.5*%
%TF.CreationDate,2024-10-18T08:38:23+02:00*%
%TF.ProjectId,switch_plate,73776974-6368-45f7-906c-6174652e6b69,0.0.2*%
%TF.SameCoordinates,Original*%
%TF.FileFunction,Profile,NP*%
%FSLAX46Y46*%
G04 Gerber Fmt 4.6, Leading zero omitted, Abs format (unit mm)*
G04 Created by KiCad (PCBNEW 8.0.5) date 2024-10-18 08:38:23*
%MOMM*%
%LPD*%
G01*
G04 APERTURE LIST*
%TA.AperFunction,Profile*%
%ADD10C,0.150000*%
%TD*%
G04 APERTURE END LIST*
D10*
X18460000Y-81190000D02*
X36460000Y-81190000D01*
X38460000Y-79190000D02*
G75*
G02*
X36460000Y-81190000I-2000000J0D01*
G01*
X38460000Y-79190000D02*
X38460000Y-76390000D01*
X40460000Y-74390000D02*
X54460000Y-74390000D01*
X56460000Y-72390000D02*
G75*
G02*
X54460000Y-74390000I-2000000J0D01*
G01*
X56460000Y-72390000D02*
X56460000Y-71630000D01*
X58460000Y-69630000D02*
X68460000Y-69630000D01*
X70460000Y-71630000D02*
X70460000Y-73240000D01*
X72460000Y-75240000D02*
G75*
G02*
X70460000Y-73240000I0J2000000D01*
G01*
X72460000Y-75240000D02*
X77460000Y-75240000D01*
X79460000Y-94660000D02*
X79460000Y-77240000D01*
X81460000Y-96660000D02*
G75*
G02*
X79460000Y-94660000I0J2000000D01*
G01*
X81460000Y-96660000D02*
X99460000Y-96660000D01*
X99684578Y-96647351D02*
G75*
G02*
X99460000Y-96660000I-224578J1987351D01*
G01*
X99684578Y-96647351D02*
X116987201Y-99233245D01*
X117333606Y-99254568D02*
G75*
G02*
X116987201Y-99233245I-50786J1999354D01*
G01*
X117333606Y-99254569D02*
X134098555Y-104380128D01*
X136595907Y-103052262D02*
G75*
G02*
X134098555Y-104380128I-1912609J584743D01*
G01*
X136595908Y-103052262D02*
X141566227Y-86795081D01*
X140238360Y-84297728D02*
G75*
G02*
X141566227Y-86795081I-584743J-1912610D01*
G01*
X140238360Y-84297728D02*
X123024875Y-79035038D01*
X122815774Y-78983240D02*
G75*
G02*
X123024875Y-79035037I-375643J-1964407D01*
G01*
X120171222Y-78477538D02*
X122815774Y-78983241D01*
X120091198Y-78463913D02*
G75*
G02*
X120171222Y-78477538I-295618J-1978031D01*
G01*
X120091198Y-78463912D02*
X110460000Y-77024520D01*
X110460000Y-77024520D02*
X110460000Y-24110000D01*
X108460000Y-22110000D02*
G75*
G02*
X110460000Y-24110000I0J-2000000D01*
G01*
X93845720Y-22110000D02*
X108460000Y-22110000D01*
X90460000Y-20240000D02*
G75*
G02*
X92152860Y-21175000I0J-2000000D01*
G01*
X76460000Y-20240000D02*
X90460000Y-20240000D01*
X74460000Y-18240000D02*
X74460000Y-16630000D01*
X72460000Y-14630000D02*
G75*
G02*
X74460000Y-16630000I0J-2000000D01*
G01*
X72460000Y-14630000D02*
X54460000Y-14630000D01*
X52460000Y-16630000D02*
G75*
G02*
X54460000Y-14630000I2000000J0D01*
G01*
X52460000Y-16630000D02*
X52460000Y-17390000D01*
X36460000Y-19390000D02*
X50460000Y-19390000D01*
X34460000Y-21390000D02*
G75*
G02*
X36460000Y-19390000I2000000J0D01*
G01*
X34460000Y-21390000D02*
X34460000Y-24190000D01*
X18460000Y-26190000D02*
X32460000Y-26190000D01*
X16460000Y-28190000D02*
G75*
G02*
X18460000Y-26190000I2000000J0D01*
G01*
X16460000Y-79190000D02*
X16460000Y-28190000D01*
X18460000Y-81190000D02*
G75*
G02*
X16460000Y-79190000I0J2000000D01*
G01*
X38460000Y-76390000D02*
G75*
G02*
X40460000Y-74390000I2000000J0D01*
G01*
X56460000Y-71630000D02*
G75*
G02*
X58460000Y-69630000I2000000J0D01*
G01*
X68460000Y-69630000D02*
G75*
G02*
X70460000Y-71630000I0J-2000000D01*
G01*
X77460000Y-75240000D02*
G75*
G02*
X79460000Y-77240000I0J-2000000D01*
G01*
X93845720Y-22110000D02*
G75*
G02*
X92152860Y-21175000I0J2000000D01*
G01*
X76460000Y-20240000D02*
G75*
G02*
X74460000Y-18240000I0J2000000D01*
G01*
X52460000Y-17390000D02*
G75*
G02*
X50460000Y-19390000I-2000000J0D01*
G01*
X34460000Y-24190000D02*
G75*
G02*
X32460000Y-26190000I-2000000J0D01*
G01*
X20460000Y-77690000D02*
X34460000Y-77690000D01*
X34460000Y-77690000D02*
X34460000Y-63690000D01*
X34460000Y-63690000D02*
X20460000Y-63690000D01*
X20460000Y-63690000D02*
X20460000Y-77690000D01*
X20460000Y-60690000D02*
X34460000Y-60690000D01*
X34460000Y-60690000D02*
X34460000Y-46690000D01*
X34460000Y-46690000D02*
X20460000Y-46690000D01*
X20460000Y-46690000D02*
X20460000Y-60690000D01*
X20460000Y-43690000D02*
X34460000Y-43690000D01*
X34460000Y-43690000D02*
X34460000Y-29690000D01*
X34460000Y-29690000D02*
X20460000Y-29690000D01*
X20460000Y-29690000D02*
X20460000Y-43690000D01*
X38460000Y-70890000D02*
X52460000Y-70890000D01*
X52460000Y-70890000D02*
X52460000Y-56890000D01*
X52460000Y-56890000D02*
X38460000Y-56890000D01*
X38460000Y-56890000D02*
X38460000Y-70890000D01*
X38460000Y-53890000D02*
X52460000Y-53890000D01*
X52460000Y-53890000D02*
X52460000Y-39890000D01*
X52460000Y-39890000D02*
X38460000Y-39890000D01*
X38460000Y-39890000D02*
X38460000Y-53890000D01*
X38460000Y-36890000D02*
X52460000Y-36890000D01*
X52460000Y-36890000D02*
X52460000Y-22890000D01*
X52460000Y-22890000D02*
X38460000Y-22890000D01*
X38460000Y-22890000D02*
X38460000Y-36890000D01*
X56460000Y-66130000D02*
X70460000Y-66130000D01*
X70460000Y-66130000D02*
X70460000Y-52130000D01*
X70460000Y-52130000D02*
X56460000Y-52130000D01*
X56460000Y-52130000D02*
X56460000Y-66130000D01*
X56460000Y-49130000D02*
X70460000Y-49130000D01*
X70460000Y-49130000D02*
X70460000Y-35130000D01*
X70460000Y-35130000D02*
X56460000Y-35130000D01*
X56460000Y-35130000D02*
X56460000Y-49130000D01*
X56460000Y-32130000D02*
X70460000Y-32130000D01*
X70460000Y-32130000D02*
X70460000Y-18130000D01*
X70460000Y-18130000D02*
X56460000Y-18130000D01*
X56460000Y-18130000D02*
X56460000Y-32130000D01*
X74460000Y-71740000D02*
X88460000Y-71740000D01*
X88460000Y-71740000D02*
X88460000Y-57740000D01*
X88460000Y-57740000D02*
X74460000Y-57740000D01*
X74460000Y-57740000D02*
X74460000Y-71740000D01*
X74460000Y-54740000D02*
X88460000Y-54740000D01*
X88460000Y-54740000D02*
X88460000Y-40740000D01*
X88460000Y-40740000D02*
X74460000Y-40740000D01*
X74460000Y-40740000D02*
X74460000Y-54740000D01*
X74460000Y-37740000D02*
X88460000Y-37740000D01*
X88460000Y-37740000D02*
X88460000Y-23740000D01*
X88460000Y-23740000D02*
X74460000Y-23740000D01*
X74460000Y-23740000D02*
X74460000Y-37740000D01*
X92460000Y-73610000D02*
X106460000Y-73610000D01*
X106460000Y-73610000D02*
X106460000Y-59610000D01*
X106460000Y-59610000D02*
X92460000Y-59610000D01*
X92460000Y-59610000D02*
X92460000Y-73610000D01*
X92460000Y-56610000D02*
X106460000Y-56610000D01*
X106460000Y-56610000D02*
X106460000Y-42610000D01*
X106460000Y-42610000D02*
X92460000Y-42610000D01*
X92460000Y-42610000D02*
X92460000Y-56610000D01*
X92460000Y-39610000D02*
X106460000Y-39610000D01*
X106460000Y-39610000D02*
X106460000Y-25610000D01*
X106460000Y-25610000D02*
X92460000Y-25610000D01*
X92460000Y-25610000D02*
X92460000Y-39610000D01*
X83460000Y-93160000D02*
X97460000Y-93160000D01*
X97460000Y-93160000D02*
X97460000Y-79160000D01*
X97460000Y-79160000D02*
X83460000Y-79160000D01*
X83460000Y-79160000D02*
X83460000Y-93160000D01*
X101680280Y-93406739D02*
X115526502Y-95476071D01*
X115526502Y-95476071D02*
X117595834Y-81629849D01*
X117595834Y-81629849D02*
X103749612Y-79560517D01*
X103749612Y-79560517D02*
X101680280Y-93406739D01*
X119820980Y-96355114D02*
X133209246Y-100448318D01*
X133209246Y-100448318D02*
X137302450Y-87060051D01*
X137302450Y-87060051D02*
X123914183Y-82966848D01*
X123914183Y-82966848D02*
X119820980Y-96355114D01*
M02*
