%TF.GenerationSoftware,KiCad,Pcbnew,8.0.5*%
%TF.CreationDate,2024-10-18T08:38:23+02:00*%
%TF.ProjectId,switch_plate,73776974-6368-45f7-906c-6174652e6b69,0.0.2*%
%TF.SameCoordinates,Original*%
%TF.FileFunction,Legend,Bot*%
%TF.FilePolarity,Positive*%
%FSLAX46Y46*%
G04 Gerber Fmt 4.6, Leading zero omitted, Abs format (unit mm)*
G04 Created by KiCad (PCBNEW 8.0.5) date 2024-10-18 08:38:23*
%MOMM*%
%LPD*%
G01*
G04 APERTURE LIST*
%ADD10C,0.150000*%
G04 APERTURE END LIST*
D10*
X88123220Y-73194819D02*
X87694649Y-73194819D01*
X87694649Y-73194819D02*
X87742268Y-73480533D01*
X87742268Y-73480533D02*
X87837506Y-73671009D01*
X87837506Y-73671009D02*
X87932744Y-73813866D01*
X87932744Y-73813866D02*
X88027982Y-73956723D01*
X88027982Y-73956723D02*
X88170839Y-74099580D01*
X87837506Y-73718628D02*
X87742268Y-73861485D01*
X87742268Y-73861485D02*
X87599411Y-74099580D01*
X86789887Y-73480533D02*
X86789887Y-74194819D01*
X86551792Y-73147200D02*
X86647030Y-73290057D01*
X86647030Y-73290057D02*
X86789887Y-73480533D01*
X86789887Y-73480533D02*
X86980363Y-73623390D01*
X86980363Y-73623390D02*
X87123220Y-73718628D01*
X86027982Y-73480533D02*
X85932744Y-73718628D01*
X85789887Y-73432914D02*
X85742268Y-73671009D01*
X85504173Y-73480533D02*
X85504173Y-73718628D01*
X85504173Y-73718628D02*
X85551792Y-73861485D01*
X85551792Y-73861485D02*
X85694649Y-74004342D01*
X85694649Y-74004342D02*
X85837506Y-74099580D01*
X85027982Y-73575771D02*
X84361316Y-73575771D01*
X84504173Y-73147200D02*
X84599411Y-73194819D01*
X84599411Y-73194819D02*
X84742268Y-73242438D01*
X84742268Y-73242438D02*
X84932744Y-73290057D01*
X84647030Y-73242438D02*
X84647030Y-73528152D01*
X84647030Y-73528152D02*
X84694649Y-73718628D01*
X84694649Y-73718628D02*
X84742268Y-73909104D01*
X84742268Y-73909104D02*
X84789887Y-74004342D01*
X84789887Y-74004342D02*
X84932744Y-74147200D01*
X83932744Y-73290057D02*
X83408935Y-73290057D01*
X83408935Y-73290057D02*
X83408935Y-73528152D01*
X83408935Y-73528152D02*
X83456554Y-73766247D01*
X83456554Y-73766247D02*
X83551792Y-73909104D01*
X83551792Y-73909104D02*
X83694649Y-74004342D01*
X83694649Y-74004342D02*
X83885125Y-74099580D01*
X83313697Y-73147200D02*
X83266078Y-73147200D01*
X83266078Y-73147200D02*
X83218459Y-73194819D01*
X83218459Y-73194819D02*
X83218459Y-73242438D01*
X83218459Y-73242438D02*
X83266078Y-73290057D01*
X83266078Y-73290057D02*
X83313697Y-73290057D01*
X83313697Y-73290057D02*
X83361316Y-73242438D01*
X83361316Y-73242438D02*
X83361316Y-73194819D01*
X83361316Y-73194819D02*
X83313697Y-73147200D01*
X82789887Y-73147200D02*
X82789887Y-74051961D01*
X82789887Y-74051961D02*
X82599411Y-74004342D01*
X82599411Y-74004342D02*
X82456554Y-73909104D01*
X82456554Y-73909104D02*
X82361316Y-73813866D01*
X82361316Y-73813866D02*
X82266078Y-73623390D01*
X81932744Y-73671009D02*
X81170840Y-73671009D01*
X80504173Y-73099580D02*
X80504173Y-74147200D01*
X80504173Y-73528152D02*
X80218459Y-73766247D01*
M02*
