%TF.GenerationSoftware,KiCad,Pcbnew,8.0.5*%
%TF.CreationDate,2024-10-18T08:46:28+02:00*%
%TF.ProjectId,keyboard_pcb,6b657962-6f61-4726-945f-7063622e6b69,0.0.2*%
%TF.SameCoordinates,Original*%
%TF.FileFunction,Legend,Top*%
%TF.FilePolarity,Positive*%
%FSLAX46Y46*%
G04 Gerber Fmt 4.6, Leading zero omitted, Abs format (unit mm)*
G04 Created by KiCad (PCBNEW 8.0.5) date 2024-10-18 08:46:28*
%MOMM*%
%LPD*%
G01*
G04 APERTURE LIST*
%ADD10C,0.150000*%
%ADD11C,0.100000*%
%ADD12C,0.120000*%
G04 APERTURE END LIST*
D10*
X20859160Y-79122438D02*
X21525826Y-79122438D01*
X21525826Y-79122438D02*
X21478207Y-79217676D01*
X21478207Y-79217676D02*
X21382969Y-79360533D01*
X21382969Y-79360533D02*
X21240112Y-79455771D01*
X21144874Y-79265295D02*
X21144874Y-79598628D01*
X21144874Y-79598628D02*
X21144874Y-79693866D01*
X21144874Y-79693866D02*
X21097255Y-79836723D01*
X21097255Y-79836723D02*
X21002017Y-80074819D01*
X21954398Y-79312914D02*
X22525826Y-79312914D01*
X22240112Y-79027200D02*
X22240112Y-80027200D01*
X22240112Y-80027200D02*
X22097255Y-79979580D01*
X22382969Y-79503390D02*
X22525826Y-79884342D01*
X22049636Y-79503390D02*
X22002017Y-79646247D01*
X22002017Y-79646247D02*
X21954398Y-79741485D01*
X21954398Y-79741485D02*
X21906779Y-79884342D01*
X22478207Y-79122438D02*
X22573445Y-79217676D01*
X22621064Y-79074819D02*
X22716303Y-79170057D01*
X23002017Y-79265295D02*
X23573445Y-79265295D01*
X23573445Y-79265295D02*
X23525826Y-79979580D01*
X23525826Y-79979580D02*
X23382969Y-79884342D01*
X23240112Y-78931961D02*
X23240112Y-79265295D01*
X23240112Y-79265295D02*
X23240112Y-79503390D01*
X23240112Y-79503390D02*
X23192493Y-79693866D01*
X23192493Y-79693866D02*
X23097255Y-79836723D01*
X23097255Y-79836723D02*
X23002017Y-79979580D01*
X24525826Y-79312914D02*
X24621064Y-79408152D01*
X24668683Y-79265295D02*
X24763921Y-79360533D01*
X24335350Y-78979580D02*
X24335350Y-80027200D01*
X24335350Y-79408152D02*
X24621064Y-79646247D01*
X25763922Y-79408152D02*
X26002017Y-80074819D01*
X26002017Y-80074819D02*
X26240112Y-79408152D01*
X26811541Y-79074819D02*
X26906779Y-79074819D01*
X26906779Y-79074819D02*
X27002017Y-79122438D01*
X27002017Y-79122438D02*
X27049636Y-79170057D01*
X27049636Y-79170057D02*
X27097255Y-79265295D01*
X27097255Y-79265295D02*
X27144874Y-79455771D01*
X27144874Y-79455771D02*
X27144874Y-79693866D01*
X27144874Y-79693866D02*
X27097255Y-79884342D01*
X27097255Y-79884342D02*
X27049636Y-79979580D01*
X27049636Y-79979580D02*
X27002017Y-80027200D01*
X27002017Y-80027200D02*
X26906779Y-80074819D01*
X26906779Y-80074819D02*
X26811541Y-80074819D01*
X26811541Y-80074819D02*
X26716303Y-80027200D01*
X26716303Y-80027200D02*
X26668684Y-79979580D01*
X26668684Y-79979580D02*
X26621065Y-79884342D01*
X26621065Y-79884342D02*
X26573446Y-79693866D01*
X26573446Y-79693866D02*
X26573446Y-79455771D01*
X26573446Y-79455771D02*
X26621065Y-79265295D01*
X26621065Y-79265295D02*
X26668684Y-79170057D01*
X26668684Y-79170057D02*
X26716303Y-79122438D01*
X26716303Y-79122438D02*
X26811541Y-79074819D01*
X27573446Y-79979580D02*
X27621065Y-80027200D01*
X27621065Y-80027200D02*
X27573446Y-80074819D01*
X27573446Y-80074819D02*
X27525827Y-80027200D01*
X27525827Y-80027200D02*
X27573446Y-79979580D01*
X27573446Y-79979580D02*
X27573446Y-80074819D01*
X28002017Y-79170057D02*
X28049636Y-79122438D01*
X28049636Y-79122438D02*
X28144874Y-79074819D01*
X28144874Y-79074819D02*
X28382969Y-79074819D01*
X28382969Y-79074819D02*
X28478207Y-79122438D01*
X28478207Y-79122438D02*
X28525826Y-79170057D01*
X28525826Y-79170057D02*
X28573445Y-79265295D01*
X28573445Y-79265295D02*
X28573445Y-79360533D01*
X28573445Y-79360533D02*
X28525826Y-79503390D01*
X28525826Y-79503390D02*
X27954398Y-80074819D01*
X27954398Y-80074819D02*
X28573445Y-80074819D01*
D11*
X128605633Y-79980476D02*
X128605633Y-79599524D01*
X130605633Y-79980476D02*
X130605633Y-79599524D01*
X130796109Y-79790000D02*
X130415157Y-79790000D01*
D10*
X115522380Y-65494819D02*
X115189047Y-65018628D01*
X114950952Y-65494819D02*
X114950952Y-64494819D01*
X114950952Y-64494819D02*
X115331904Y-64494819D01*
X115331904Y-64494819D02*
X115427142Y-64542438D01*
X115427142Y-64542438D02*
X115474761Y-64590057D01*
X115474761Y-64590057D02*
X115522380Y-64685295D01*
X115522380Y-64685295D02*
X115522380Y-64828152D01*
X115522380Y-64828152D02*
X115474761Y-64923390D01*
X115474761Y-64923390D02*
X115427142Y-64971009D01*
X115427142Y-64971009D02*
X115331904Y-65018628D01*
X115331904Y-65018628D02*
X114950952Y-65018628D01*
X115950952Y-65399580D02*
X115998571Y-65447200D01*
X115998571Y-65447200D02*
X115950952Y-65494819D01*
X115950952Y-65494819D02*
X115903333Y-65447200D01*
X115903333Y-65447200D02*
X115950952Y-65399580D01*
X115950952Y-65399580D02*
X115950952Y-65494819D01*
X117141428Y-65447200D02*
X117284285Y-65494819D01*
X117284285Y-65494819D02*
X117522380Y-65494819D01*
X117522380Y-65494819D02*
X117617618Y-65447200D01*
X117617618Y-65447200D02*
X117665237Y-65399580D01*
X117665237Y-65399580D02*
X117712856Y-65304342D01*
X117712856Y-65304342D02*
X117712856Y-65209104D01*
X117712856Y-65209104D02*
X117665237Y-65113866D01*
X117665237Y-65113866D02*
X117617618Y-65066247D01*
X117617618Y-65066247D02*
X117522380Y-65018628D01*
X117522380Y-65018628D02*
X117331904Y-64971009D01*
X117331904Y-64971009D02*
X117236666Y-64923390D01*
X117236666Y-64923390D02*
X117189047Y-64875771D01*
X117189047Y-64875771D02*
X117141428Y-64780533D01*
X117141428Y-64780533D02*
X117141428Y-64685295D01*
X117141428Y-64685295D02*
X117189047Y-64590057D01*
X117189047Y-64590057D02*
X117236666Y-64542438D01*
X117236666Y-64542438D02*
X117331904Y-64494819D01*
X117331904Y-64494819D02*
X117569999Y-64494819D01*
X117569999Y-64494819D02*
X117712856Y-64542438D01*
X118141428Y-65494819D02*
X118141428Y-64828152D01*
X118141428Y-64494819D02*
X118093809Y-64542438D01*
X118093809Y-64542438D02*
X118141428Y-64590057D01*
X118141428Y-64590057D02*
X118189047Y-64542438D01*
X118189047Y-64542438D02*
X118141428Y-64494819D01*
X118141428Y-64494819D02*
X118141428Y-64590057D01*
X119046189Y-65494819D02*
X119046189Y-64494819D01*
X119046189Y-65447200D02*
X118950951Y-65494819D01*
X118950951Y-65494819D02*
X118760475Y-65494819D01*
X118760475Y-65494819D02*
X118665237Y-65447200D01*
X118665237Y-65447200D02*
X118617618Y-65399580D01*
X118617618Y-65399580D02*
X118569999Y-65304342D01*
X118569999Y-65304342D02*
X118569999Y-65018628D01*
X118569999Y-65018628D02*
X118617618Y-64923390D01*
X118617618Y-64923390D02*
X118665237Y-64875771D01*
X118665237Y-64875771D02*
X118760475Y-64828152D01*
X118760475Y-64828152D02*
X118950951Y-64828152D01*
X118950951Y-64828152D02*
X119046189Y-64875771D01*
X119903332Y-65447200D02*
X119808094Y-65494819D01*
X119808094Y-65494819D02*
X119617618Y-65494819D01*
X119617618Y-65494819D02*
X119522380Y-65447200D01*
X119522380Y-65447200D02*
X119474761Y-65351961D01*
X119474761Y-65351961D02*
X119474761Y-64971009D01*
X119474761Y-64971009D02*
X119522380Y-64875771D01*
X119522380Y-64875771D02*
X119617618Y-64828152D01*
X119617618Y-64828152D02*
X119808094Y-64828152D01*
X119808094Y-64828152D02*
X119903332Y-64875771D01*
X119903332Y-64875771D02*
X119950951Y-64971009D01*
X119950951Y-64971009D02*
X119950951Y-65066247D01*
X119950951Y-65066247D02*
X119474761Y-65161485D01*
X121141428Y-65113866D02*
X121903333Y-65113866D01*
X123427142Y-64494819D02*
X123427142Y-65209104D01*
X123427142Y-65209104D02*
X123379523Y-65351961D01*
X123379523Y-65351961D02*
X123284285Y-65447200D01*
X123284285Y-65447200D02*
X123141428Y-65494819D01*
X123141428Y-65494819D02*
X123046190Y-65494819D01*
X124331904Y-64828152D02*
X124331904Y-65494819D01*
X123903333Y-64828152D02*
X123903333Y-65351961D01*
X123903333Y-65351961D02*
X123950952Y-65447200D01*
X123950952Y-65447200D02*
X124046190Y-65494819D01*
X124046190Y-65494819D02*
X124189047Y-65494819D01*
X124189047Y-65494819D02*
X124284285Y-65447200D01*
X124284285Y-65447200D02*
X124331904Y-65399580D01*
X124808095Y-65494819D02*
X124808095Y-64828152D01*
X124808095Y-64923390D02*
X124855714Y-64875771D01*
X124855714Y-64875771D02*
X124950952Y-64828152D01*
X124950952Y-64828152D02*
X125093809Y-64828152D01*
X125093809Y-64828152D02*
X125189047Y-64875771D01*
X125189047Y-64875771D02*
X125236666Y-64971009D01*
X125236666Y-64971009D02*
X125236666Y-65494819D01*
X125236666Y-64971009D02*
X125284285Y-64875771D01*
X125284285Y-64875771D02*
X125379523Y-64828152D01*
X125379523Y-64828152D02*
X125522380Y-64828152D01*
X125522380Y-64828152D02*
X125617619Y-64875771D01*
X125617619Y-64875771D02*
X125665238Y-64971009D01*
X125665238Y-64971009D02*
X125665238Y-65494819D01*
X126141428Y-64828152D02*
X126141428Y-65828152D01*
X126141428Y-64875771D02*
X126236666Y-64828152D01*
X126236666Y-64828152D02*
X126427142Y-64828152D01*
X126427142Y-64828152D02*
X126522380Y-64875771D01*
X126522380Y-64875771D02*
X126569999Y-64923390D01*
X126569999Y-64923390D02*
X126617618Y-65018628D01*
X126617618Y-65018628D02*
X126617618Y-65304342D01*
X126617618Y-65304342D02*
X126569999Y-65399580D01*
X126569999Y-65399580D02*
X126522380Y-65447200D01*
X126522380Y-65447200D02*
X126427142Y-65494819D01*
X126427142Y-65494819D02*
X126236666Y-65494819D01*
X126236666Y-65494819D02*
X126141428Y-65447200D01*
X127427142Y-65447200D02*
X127331904Y-65494819D01*
X127331904Y-65494819D02*
X127141428Y-65494819D01*
X127141428Y-65494819D02*
X127046190Y-65447200D01*
X127046190Y-65447200D02*
X126998571Y-65351961D01*
X126998571Y-65351961D02*
X126998571Y-64971009D01*
X126998571Y-64971009D02*
X127046190Y-64875771D01*
X127046190Y-64875771D02*
X127141428Y-64828152D01*
X127141428Y-64828152D02*
X127331904Y-64828152D01*
X127331904Y-64828152D02*
X127427142Y-64875771D01*
X127427142Y-64875771D02*
X127474761Y-64971009D01*
X127474761Y-64971009D02*
X127474761Y-65066247D01*
X127474761Y-65066247D02*
X126998571Y-65161485D01*
X127903333Y-65494819D02*
X127903333Y-64828152D01*
X127903333Y-65018628D02*
X127950952Y-64923390D01*
X127950952Y-64923390D02*
X127998571Y-64875771D01*
X127998571Y-64875771D02*
X128093809Y-64828152D01*
X128093809Y-64828152D02*
X128189047Y-64828152D01*
X129284286Y-65494819D02*
X129284286Y-64494819D01*
X129284286Y-64971009D02*
X129855714Y-64971009D01*
X129855714Y-65494819D02*
X129855714Y-64494819D01*
X130712857Y-65447200D02*
X130617619Y-65494819D01*
X130617619Y-65494819D02*
X130427143Y-65494819D01*
X130427143Y-65494819D02*
X130331905Y-65447200D01*
X130331905Y-65447200D02*
X130284286Y-65351961D01*
X130284286Y-65351961D02*
X130284286Y-64971009D01*
X130284286Y-64971009D02*
X130331905Y-64875771D01*
X130331905Y-64875771D02*
X130427143Y-64828152D01*
X130427143Y-64828152D02*
X130617619Y-64828152D01*
X130617619Y-64828152D02*
X130712857Y-64875771D01*
X130712857Y-64875771D02*
X130760476Y-64971009D01*
X130760476Y-64971009D02*
X130760476Y-65066247D01*
X130760476Y-65066247D02*
X130284286Y-65161485D01*
X131189048Y-65494819D02*
X131189048Y-64828152D01*
X131189048Y-65018628D02*
X131236667Y-64923390D01*
X131236667Y-64923390D02*
X131284286Y-64875771D01*
X131284286Y-64875771D02*
X131379524Y-64828152D01*
X131379524Y-64828152D02*
X131474762Y-64828152D01*
X132189048Y-65447200D02*
X132093810Y-65494819D01*
X132093810Y-65494819D02*
X131903334Y-65494819D01*
X131903334Y-65494819D02*
X131808096Y-65447200D01*
X131808096Y-65447200D02*
X131760477Y-65351961D01*
X131760477Y-65351961D02*
X131760477Y-64971009D01*
X131760477Y-64971009D02*
X131808096Y-64875771D01*
X131808096Y-64875771D02*
X131903334Y-64828152D01*
X131903334Y-64828152D02*
X132093810Y-64828152D01*
X132093810Y-64828152D02*
X132189048Y-64875771D01*
X132189048Y-64875771D02*
X132236667Y-64971009D01*
X132236667Y-64971009D02*
X132236667Y-65066247D01*
X132236667Y-65066247D02*
X131760477Y-65161485D01*
X120498571Y-28828152D02*
X120498571Y-29828152D01*
X120498571Y-28875771D02*
X120593809Y-28828152D01*
X120593809Y-28828152D02*
X120784285Y-28828152D01*
X120784285Y-28828152D02*
X120879523Y-28875771D01*
X120879523Y-28875771D02*
X120927142Y-28923390D01*
X120927142Y-28923390D02*
X120974761Y-29018628D01*
X120974761Y-29018628D02*
X120974761Y-29304342D01*
X120974761Y-29304342D02*
X120927142Y-29399580D01*
X120927142Y-29399580D02*
X120879523Y-29447200D01*
X120879523Y-29447200D02*
X120784285Y-29494819D01*
X120784285Y-29494819D02*
X120593809Y-29494819D01*
X120593809Y-29494819D02*
X120498571Y-29447200D01*
X121403333Y-29494819D02*
X121403333Y-28828152D01*
X121403333Y-29018628D02*
X121450952Y-28923390D01*
X121450952Y-28923390D02*
X121498571Y-28875771D01*
X121498571Y-28875771D02*
X121593809Y-28828152D01*
X121593809Y-28828152D02*
X121689047Y-28828152D01*
X122165238Y-29494819D02*
X122070000Y-29447200D01*
X122070000Y-29447200D02*
X122022381Y-29399580D01*
X122022381Y-29399580D02*
X121974762Y-29304342D01*
X121974762Y-29304342D02*
X121974762Y-29018628D01*
X121974762Y-29018628D02*
X122022381Y-28923390D01*
X122022381Y-28923390D02*
X122070000Y-28875771D01*
X122070000Y-28875771D02*
X122165238Y-28828152D01*
X122165238Y-28828152D02*
X122308095Y-28828152D01*
X122308095Y-28828152D02*
X122403333Y-28875771D01*
X122403333Y-28875771D02*
X122450952Y-28923390D01*
X122450952Y-28923390D02*
X122498571Y-29018628D01*
X122498571Y-29018628D02*
X122498571Y-29304342D01*
X122498571Y-29304342D02*
X122450952Y-29399580D01*
X122450952Y-29399580D02*
X122403333Y-29447200D01*
X122403333Y-29447200D02*
X122308095Y-29494819D01*
X122308095Y-29494819D02*
X122165238Y-29494819D01*
X122927143Y-29494819D02*
X122927143Y-28828152D01*
X122927143Y-28923390D02*
X122974762Y-28875771D01*
X122974762Y-28875771D02*
X123070000Y-28828152D01*
X123070000Y-28828152D02*
X123212857Y-28828152D01*
X123212857Y-28828152D02*
X123308095Y-28875771D01*
X123308095Y-28875771D02*
X123355714Y-28971009D01*
X123355714Y-28971009D02*
X123355714Y-29494819D01*
X123355714Y-28971009D02*
X123403333Y-28875771D01*
X123403333Y-28875771D02*
X123498571Y-28828152D01*
X123498571Y-28828152D02*
X123641428Y-28828152D01*
X123641428Y-28828152D02*
X123736667Y-28875771D01*
X123736667Y-28875771D02*
X123784286Y-28971009D01*
X123784286Y-28971009D02*
X123784286Y-29494819D01*
X124260476Y-29494819D02*
X124260476Y-28828152D01*
X124260476Y-28494819D02*
X124212857Y-28542438D01*
X124212857Y-28542438D02*
X124260476Y-28590057D01*
X124260476Y-28590057D02*
X124308095Y-28542438D01*
X124308095Y-28542438D02*
X124260476Y-28494819D01*
X124260476Y-28494819D02*
X124260476Y-28590057D01*
X125165237Y-29447200D02*
X125069999Y-29494819D01*
X125069999Y-29494819D02*
X124879523Y-29494819D01*
X124879523Y-29494819D02*
X124784285Y-29447200D01*
X124784285Y-29447200D02*
X124736666Y-29399580D01*
X124736666Y-29399580D02*
X124689047Y-29304342D01*
X124689047Y-29304342D02*
X124689047Y-29018628D01*
X124689047Y-29018628D02*
X124736666Y-28923390D01*
X124736666Y-28923390D02*
X124784285Y-28875771D01*
X124784285Y-28875771D02*
X124879523Y-28828152D01*
X124879523Y-28828152D02*
X125069999Y-28828152D01*
X125069999Y-28828152D02*
X125165237Y-28875771D01*
X125593809Y-29494819D02*
X125593809Y-28828152D01*
X125593809Y-29018628D02*
X125641428Y-28923390D01*
X125641428Y-28923390D02*
X125689047Y-28875771D01*
X125689047Y-28875771D02*
X125784285Y-28828152D01*
X125784285Y-28828152D02*
X125879523Y-28828152D01*
X126355714Y-29494819D02*
X126260476Y-29447200D01*
X126260476Y-29447200D02*
X126212857Y-29399580D01*
X126212857Y-29399580D02*
X126165238Y-29304342D01*
X126165238Y-29304342D02*
X126165238Y-29018628D01*
X126165238Y-29018628D02*
X126212857Y-28923390D01*
X126212857Y-28923390D02*
X126260476Y-28875771D01*
X126260476Y-28875771D02*
X126355714Y-28828152D01*
X126355714Y-28828152D02*
X126498571Y-28828152D01*
X126498571Y-28828152D02*
X126593809Y-28875771D01*
X126593809Y-28875771D02*
X126641428Y-28923390D01*
X126641428Y-28923390D02*
X126689047Y-29018628D01*
X126689047Y-29018628D02*
X126689047Y-29304342D01*
X126689047Y-29304342D02*
X126641428Y-29399580D01*
X126641428Y-29399580D02*
X126593809Y-29447200D01*
X126593809Y-29447200D02*
X126498571Y-29494819D01*
X126498571Y-29494819D02*
X126355714Y-29494819D01*
D11*
X115796109Y-28849523D02*
X115462776Y-28849523D01*
X115558014Y-28849523D02*
X115510395Y-28825713D01*
X115510395Y-28825713D02*
X115486585Y-28801904D01*
X115486585Y-28801904D02*
X115462776Y-28754285D01*
X115462776Y-28754285D02*
X115462776Y-28706666D01*
X115772300Y-28349523D02*
X115796109Y-28397142D01*
X115796109Y-28397142D02*
X115796109Y-28492380D01*
X115796109Y-28492380D02*
X115772300Y-28539999D01*
X115772300Y-28539999D02*
X115724680Y-28563808D01*
X115724680Y-28563808D02*
X115534204Y-28563808D01*
X115534204Y-28563808D02*
X115486585Y-28539999D01*
X115486585Y-28539999D02*
X115462776Y-28492380D01*
X115462776Y-28492380D02*
X115462776Y-28397142D01*
X115462776Y-28397142D02*
X115486585Y-28349523D01*
X115486585Y-28349523D02*
X115534204Y-28325713D01*
X115534204Y-28325713D02*
X115581823Y-28325713D01*
X115581823Y-28325713D02*
X115629442Y-28563808D01*
X115772300Y-28135237D02*
X115796109Y-28087618D01*
X115796109Y-28087618D02*
X115796109Y-27992380D01*
X115796109Y-27992380D02*
X115772300Y-27944761D01*
X115772300Y-27944761D02*
X115724680Y-27920952D01*
X115724680Y-27920952D02*
X115700871Y-27920952D01*
X115700871Y-27920952D02*
X115653252Y-27944761D01*
X115653252Y-27944761D02*
X115629442Y-27992380D01*
X115629442Y-27992380D02*
X115629442Y-28063809D01*
X115629442Y-28063809D02*
X115605633Y-28111428D01*
X115605633Y-28111428D02*
X115558014Y-28135237D01*
X115558014Y-28135237D02*
X115534204Y-28135237D01*
X115534204Y-28135237D02*
X115486585Y-28111428D01*
X115486585Y-28111428D02*
X115462776Y-28063809D01*
X115462776Y-28063809D02*
X115462776Y-27992380D01*
X115462776Y-27992380D02*
X115486585Y-27944761D01*
X115772300Y-27516190D02*
X115796109Y-27563809D01*
X115796109Y-27563809D02*
X115796109Y-27659047D01*
X115796109Y-27659047D02*
X115772300Y-27706666D01*
X115772300Y-27706666D02*
X115724680Y-27730475D01*
X115724680Y-27730475D02*
X115534204Y-27730475D01*
X115534204Y-27730475D02*
X115486585Y-27706666D01*
X115486585Y-27706666D02*
X115462776Y-27659047D01*
X115462776Y-27659047D02*
X115462776Y-27563809D01*
X115462776Y-27563809D02*
X115486585Y-27516190D01*
X115486585Y-27516190D02*
X115534204Y-27492380D01*
X115534204Y-27492380D02*
X115581823Y-27492380D01*
X115581823Y-27492380D02*
X115629442Y-27730475D01*
X115462776Y-27349523D02*
X115462776Y-27159047D01*
X115296109Y-27278095D02*
X115724680Y-27278095D01*
X115724680Y-27278095D02*
X115772300Y-27254285D01*
X115772300Y-27254285D02*
X115796109Y-27206666D01*
X115796109Y-27206666D02*
X115796109Y-27159047D01*
D12*
%TO.C,D12*%
X78620000Y-36530000D02*
X78620000Y-32870000D01*
X78620000Y-36530000D02*
X80520000Y-36530000D01*
X80520000Y-36530000D02*
X80520000Y-32870000D01*
%TO.C,D8*%
X60620000Y-47920000D02*
X60620000Y-44260000D01*
X60620000Y-47920000D02*
X62520000Y-47920000D01*
X62520000Y-47920000D02*
X62520000Y-44260000D01*
%TO.C,D1*%
X24620000Y-76480000D02*
X24620000Y-72820000D01*
X24620000Y-76480000D02*
X26520000Y-76480000D01*
X26520000Y-76480000D02*
X26520000Y-72820000D01*
%TO.C,D13*%
X96620000Y-72400000D02*
X96620000Y-68740000D01*
X96620000Y-72400000D02*
X98520000Y-72400000D01*
X98520000Y-72400000D02*
X98520000Y-68740000D01*
%TO.C,D17*%
X105986266Y-92512271D02*
X106527248Y-88892473D01*
X105986266Y-92512271D02*
X107865396Y-92793109D01*
X107865396Y-92793109D02*
X108406378Y-89173311D01*
%TO.C,_2*%
X126510000Y-72180000D02*
X126510000Y-80000000D01*
X126510000Y-78400000D02*
X127430000Y-78400000D01*
X126510000Y-80000000D02*
X127430000Y-80000000D01*
X127270000Y-74440000D02*
X128270000Y-74440000D01*
X127270000Y-76040000D02*
X127270000Y-74440000D01*
X127430000Y-78400000D02*
X127710000Y-78400000D01*
X127430000Y-80000000D02*
X127430000Y-78400000D01*
X128270000Y-74440000D02*
X128270000Y-76040000D01*
X128270000Y-76040000D02*
X127270000Y-76040000D01*
X129070000Y-76540000D02*
X129070000Y-72180000D01*
X130070000Y-72180000D02*
X130070000Y-76540000D01*
X130070000Y-76540000D02*
X129070000Y-76540000D01*
X130870000Y-74440000D02*
X130870000Y-72180000D01*
X130870000Y-74440000D02*
X130870000Y-76040000D01*
X130870000Y-76040000D02*
X131870000Y-76040000D01*
X131370000Y-74440000D02*
X131370000Y-72180000D01*
X131430000Y-78400000D02*
X131430000Y-79615000D01*
X131430000Y-78400000D02*
X131710000Y-78400000D01*
X131710000Y-78400000D02*
X131710000Y-80000000D01*
X131710000Y-80000000D02*
X132630000Y-80000000D01*
X131870000Y-74440000D02*
X130870000Y-74440000D01*
X131870000Y-76040000D02*
X131870000Y-74440000D01*
X132630000Y-72180000D02*
X126510000Y-72180000D01*
X132630000Y-78400000D02*
X131710000Y-78400000D01*
X132630000Y-80000000D02*
X132630000Y-72180000D01*
%TO.C,D9*%
X60620000Y-30920000D02*
X60620000Y-27260000D01*
X60620000Y-30920000D02*
X62520000Y-30920000D01*
X62520000Y-30920000D02*
X62520000Y-27260000D01*
%TO.C,D15*%
X96620000Y-38400000D02*
X96620000Y-34740000D01*
X96620000Y-38400000D02*
X98520000Y-38400000D01*
X98520000Y-38400000D02*
X98520000Y-34740000D01*
%TO.C,D4*%
X42620000Y-69680000D02*
X42620000Y-66020000D01*
X42620000Y-69680000D02*
X44520000Y-69680000D01*
X44520000Y-69680000D02*
X44520000Y-66020000D01*
%TO.C,D10*%
X78620000Y-70530000D02*
X78620000Y-66870000D01*
X78620000Y-70530000D02*
X80520000Y-70530000D01*
X80520000Y-70530000D02*
X80520000Y-66870000D01*
%TO.C,D18*%
X124224708Y-95794289D02*
X125294789Y-92294213D01*
X124224708Y-95794289D02*
X126041687Y-96349795D01*
X126041687Y-96349795D02*
X127111768Y-92849719D01*
%TO.C,D16*%
X87620000Y-91950000D02*
X87620000Y-88290000D01*
X87620000Y-91950000D02*
X89520000Y-91950000D01*
X89520000Y-91950000D02*
X89520000Y-88290000D01*
%TO.C,D6*%
X42620000Y-35680000D02*
X42620000Y-32020000D01*
X42620000Y-35680000D02*
X44520000Y-35680000D01*
X44520000Y-35680000D02*
X44520000Y-32020000D01*
%TO.C,D14*%
X96620000Y-55400000D02*
X96620000Y-51740000D01*
X96620000Y-55400000D02*
X98520000Y-55400000D01*
X98520000Y-55400000D02*
X98520000Y-51740000D01*
D10*
%TO.C,*%
X114680000Y-30800000D02*
X114680000Y-63820000D01*
X114680000Y-63820000D02*
X132460000Y-63820000D01*
X119760000Y-28260000D02*
X119760000Y-30800000D01*
X119760000Y-30800000D02*
X114680000Y-30800000D01*
X127380000Y-28260000D02*
X119760000Y-28260000D01*
X127380000Y-30800000D02*
X127380000Y-28260000D01*
X132460000Y-30800000D02*
X127380000Y-30800000D01*
X132460000Y-30800000D02*
X132460000Y-63820000D01*
D12*
%TO.C,D3*%
X24620000Y-42480000D02*
X24620000Y-38820000D01*
X24620000Y-42480000D02*
X26520000Y-42480000D01*
X26520000Y-42480000D02*
X26520000Y-38820000D01*
%TO.C,D5*%
X42620000Y-52680000D02*
X42620000Y-49020000D01*
X42620000Y-52680000D02*
X44520000Y-52680000D01*
X44520000Y-52680000D02*
X44520000Y-49020000D01*
%TO.C,D2*%
X24620000Y-59480000D02*
X24620000Y-55820000D01*
X24620000Y-59480000D02*
X26520000Y-59480000D01*
X26520000Y-59480000D02*
X26520000Y-55820000D01*
%TO.C,D7*%
X60620000Y-64920000D02*
X60620000Y-61260000D01*
X60620000Y-64920000D02*
X62520000Y-64920000D01*
X62520000Y-64920000D02*
X62520000Y-61260000D01*
%TO.C,D11*%
X78620000Y-53530000D02*
X78620000Y-49870000D01*
X78620000Y-53530000D02*
X80520000Y-53530000D01*
X80520000Y-53530000D02*
X80520000Y-49870000D01*
D11*
%TO.C,S19*%
X113570000Y-26040000D02*
X117570000Y-26040000D01*
X113570000Y-27040000D02*
X113570000Y-26040000D01*
X113570000Y-29040000D02*
X113570000Y-30040000D01*
X113570000Y-30040000D02*
X117570000Y-30040000D01*
X117570000Y-26040000D02*
X117570000Y-27040000D01*
X117570000Y-30040000D02*
X117570000Y-29040000D01*
%TD*%
M02*
