M48
; DRILL file {KiCad 8.0.5} date 2024-10-18T08:46:24+0200
; FORMAT={-:-/ absolute / inch / decimal}
; #@! TF.CreationDate,2024-10-18T08:46:24+02:00
; #@! TF.GenerationSoftware,Kicad,Pcbnew,8.0.5
; #@! TF.FileFunction,NonPlated,1,2,NPTH
FMAT,2
INCH
; #@! TA.AperFunction,NonPlated,NPTH,ComponentDrill
T1C0.0354
; #@! TA.AperFunction,NonPlated,NPTH,ComponentDrill
T2C0.0670
; #@! TA.AperFunction,NonPlated,NPTH,ComponentDrill
T3C0.1181
; #@! TA.AperFunction,NonPlated,NPTH,ComponentDrill
T4C0.1350
%
G90
G05
T1
X4.8059Y-1.0909
X4.8059Y-1.0909
X4.924Y-1.0909
X4.924Y-1.0909
T2
X0.9476Y-1.4417
X0.9476Y-2.111
X0.9476Y-2.7803
X1.3807Y-1.4417
X1.3807Y-2.111
X1.3807Y-2.7803
X1.6563Y-1.174
X1.6563Y-1.8433
X1.6563Y-2.5126
X2.0894Y-1.174
X2.0894Y-1.8433
X2.0894Y-2.5126
X2.365Y-0.9866
X2.365Y-1.6559
X2.365Y-2.3252
X2.798Y-0.9866
X2.798Y-1.6559
X2.798Y-2.3252
X3.0736Y-1.2075
X3.0736Y-1.8768
X3.0736Y-2.5461
X3.428Y-3.3894
X3.5067Y-1.2075
X3.5067Y-1.8768
X3.5067Y-2.5461
X3.7823Y-1.2811
X3.7823Y-1.9504
X3.7823Y-2.6197
X3.861Y-3.3894
X4.1854Y-3.4108
X4.2154Y-1.2811
X4.2154Y-1.9504
X4.2154Y-2.6197
X4.6137Y-3.4749
X4.9375Y-3.5445
X5.3516Y-3.6711
T3
X0.9673Y-1.2941
X0.9673Y-1.9634
X0.9673Y-2.6327
X1.1642Y-1.2075
X1.1642Y-1.2075
X1.1642Y-1.8768
X1.1642Y-1.8768
X1.1642Y-2.5461
X1.1642Y-2.5461
X1.361Y-1.2941
X1.361Y-1.9634
X1.361Y-2.6327
X1.676Y-1.0264
X1.676Y-1.6957
X1.676Y-2.365
X1.8728Y-0.9398
X1.8728Y-0.9398
X1.8728Y-1.6091
X1.8728Y-1.6091
X1.8728Y-2.2783
X1.8728Y-2.2783
X2.0697Y-1.0264
X2.0697Y-1.6957
X2.0697Y-2.365
X2.3846Y-0.839
X2.3846Y-1.5083
X2.3846Y-2.1776
X2.5815Y-0.7524
X2.5815Y-0.7524
X2.5815Y-1.4217
X2.5815Y-1.4217
X2.5815Y-2.0909
X2.5815Y-2.0909
X2.7783Y-0.839
X2.7783Y-1.5083
X2.7783Y-2.1776
X3.0933Y-1.0598
X3.0933Y-1.7291
X3.0933Y-2.3984
X3.2902Y-0.9732
X3.2902Y-0.9732
X3.2902Y-1.6425
X3.2902Y-1.6425
X3.2902Y-2.3118
X3.2902Y-2.3118
X3.4476Y-3.2417
X3.487Y-1.0598
X3.487Y-1.7291
X3.487Y-2.3984
X3.6445Y-3.1551
X3.6445Y-3.1551
X3.802Y-1.1335
X3.802Y-1.8028
X3.802Y-2.472
X3.8413Y-3.2417
X3.9988Y-1.0469
X3.9988Y-1.0469
X3.9988Y-1.7161
X3.9988Y-1.7161
X3.9988Y-2.3854
X3.9988Y-2.3854
X4.1957Y-1.1335
X4.1957Y-1.8028
X4.1957Y-2.472
X4.2267Y-3.2677
X4.4342Y-3.2112
X4.4342Y-3.2112
X4.616Y-3.3259
X4.9995Y-3.409
X5.213Y-3.3838
X5.213Y-3.3838
X5.376Y-3.5241
T4
X1.1642Y-1.4417
X1.1642Y-2.111
X1.1642Y-2.7803
X1.8728Y-1.174
X1.8728Y-1.8433
X1.8728Y-2.5126
X2.5815Y-0.9866
X2.5815Y-1.6559
X2.5815Y-2.3252
X3.2902Y-1.2075
X3.2902Y-1.8768
X3.2902Y-2.5461
X3.6445Y-3.3894
X3.9988Y-1.2811
X3.9988Y-1.9504
X3.9988Y-2.6197
X4.3995Y-3.4428
X5.1446Y-3.6078
M30
