M48
; DRILL file {KiCad 8.0.5} date 2024-10-18T08:46:24+0200
; FORMAT={-:-/ absolute / inch / decimal}
; #@! TF.CreationDate,2024-10-18T08:46:24+02:00
; #@! TF.GenerationSoftware,Kicad,Pcbnew,8.0.5
; #@! TF.FileFunction,Plated,1,2,PTH
FMAT,2
INCH
; #@! TA.AperFunction,Plated,PTH,ComponentDrill
T1C0.0118
; #@! TA.AperFunction,Plated,PTH,ViaDrill
T2C0.0157
; #@! TA.AperFunction,Plated,PTH,ComponentDrill
T3C0.0157
; #@! TA.AperFunction,Plated,PTH,ComponentDrill
T4C0.0295
; #@! TA.AperFunction,Plated,PTH,ComponentDrill
T5C0.0394
; #@! TA.AperFunction,Plated,PTH,ComponentDrill
T6C0.0866
%
G90
G05
T1
X1.0067Y-1.5283
X1.0067Y-1.6386
X1.0067Y-2.1976
X1.0067Y-2.3079
X1.0067Y-2.8669
X1.0067Y-2.9772
X1.7154Y-1.2606
X1.7154Y-1.3709
X1.7154Y-1.9299
X1.7154Y-2.0402
X1.7154Y-2.5992
X1.7154Y-2.7094
X2.424Y-1.0732
X2.424Y-1.1835
X2.424Y-1.7425
X2.424Y-1.8528
X2.424Y-2.4118
X2.424Y-2.522
X3.1327Y-1.2941
X3.1327Y-1.4043
X3.1327Y-1.9634
X3.1327Y-2.0736
X3.1327Y-2.6327
X3.1327Y-2.7429
X3.487Y-3.476
X3.487Y-3.5862
X3.8413Y-1.3677
X3.8413Y-1.478
X3.8413Y-2.037
X3.8413Y-2.1472
X3.8413Y-2.7063
X3.8413Y-2.8165
X4.2147Y-3.6143
X4.231Y-3.5052
X4.4713Y-1.1039
X4.6287Y-1.1039
X4.9364Y-3.75
X4.9686Y-3.6446
T2
X1.1492Y-1.9961
X1.1512Y-1.5567
X1.163Y-2.6677
X1.1634Y-1.311
X1.1701Y-2.2268
X1.2868Y-2.7829
X1.8669Y-1.0606
X1.8689Y-1.2925
X1.8705Y-1.7256
X1.8791Y-2.3933
X1.9917Y-1.8748
X1.9925Y-2.4941
X2.5772Y-0.8657
X2.5823Y-1.5413
X2.5839Y-1.1028
X2.5866Y-2.1894
X2.6091Y-1.776
X2.8067Y-2.4126
X3.2795Y-1.7622
X3.2889Y-2.4284
X3.2906Y-1.3382
X3.2921Y-1.0909
X3.2965Y-1.9909
X3.4232Y-2.4992
X3.6187Y-3.2632
X3.6957Y-3.4965
X3.9866Y-2.4921
X3.9902Y-1.8232
X3.9937Y-1.1654
X3.9984Y-2.7398
X4.0063Y-2.0614
X4.0201Y-1.398
X4.3382Y-3.1075
X4.402Y-2.45
X4.4238Y-2.3179
X4.4346Y-3.5472
X4.4524Y-2.3839
X4.4772Y-3.3146
X4.487Y-2.1209
X4.7449Y-3.1496
X4.8051Y-1.4911
X4.8354Y-1.1602
X4.9537Y-1.1604
X4.9738Y-2.6146
X4.9774Y-2.7327
X5.1843Y-3.4941
X5.2217Y-3.7587
T3
X4.7365Y-1.2626
X4.7365Y-1.3626
X4.7365Y-1.4626
X4.7365Y-1.5626
X4.7365Y-1.6626
X4.7365Y-1.7626
X4.7365Y-1.8626
X4.7365Y-1.9626
X4.7365Y-2.0626
X4.7365Y-2.1626
X4.7365Y-2.2626
X4.7365Y-2.3626
X4.7365Y-2.4626
X4.9934Y-1.2626
X4.9934Y-1.3626
X4.9934Y-1.4626
X4.9934Y-1.5626
X4.9934Y-1.6626
X4.9934Y-1.7626
X4.9934Y-1.8626
X4.9934Y-1.9626
X4.9934Y-2.0626
X4.9934Y-2.1626
X4.9934Y-2.2626
X4.9934Y-2.3626
X4.9934Y-2.4626
T4
X4.1268Y-2.6591
X4.1268Y-2.7378
X4.1268Y-2.8165
X4.1268Y-2.8953
X4.1268Y-2.974
X5.0618Y-3.0921
X5.1406Y-3.0921
T5
X4.565Y-1.2626
X4.565Y-1.3626
X4.565Y-1.4626
X4.565Y-1.5626
X4.565Y-1.6626
X4.565Y-1.7626
X4.565Y-1.8626
X4.565Y-1.9626
X4.565Y-2.0626
X4.565Y-2.1626
X4.565Y-2.2626
X4.565Y-2.3626
X4.565Y-2.4626
X5.165Y-1.2626
X5.165Y-1.3626
X5.165Y-1.4626
X5.165Y-1.5626
X5.165Y-1.6626
X5.165Y-1.7626
X5.165Y-1.8626
X5.165Y-1.9626
X5.165Y-2.0626
X5.165Y-2.1626
X5.165Y-2.2626
X5.165Y-2.3626
X5.165Y-2.4626
T6
X1.5382Y-1.506
X1.5382Y-2.1753
X3.6445Y-1.5789
X3.6445Y-2.2482
X4.5772Y-2.6534
X5.1543Y-2.654
M30
