%TF.GenerationSoftware,KiCad,Pcbnew,8.0.6*%
%TF.CreationDate,2024-12-06T19:57:19+01:00*%
%TF.ProjectId,bottom_case,626f7474-6f6d-45f6-9361-73652e6b6963,0.0.3*%
%TF.SameCoordinates,Original*%
%TF.FileFunction,Copper,L2,Bot*%
%TF.FilePolarity,Positive*%
%FSLAX46Y46*%
G04 Gerber Fmt 4.6, Leading zero omitted, Abs format (unit mm)*
G04 Created by KiCad (PCBNEW 8.0.6) date 2024-12-06 19:57:19*
%MOMM*%
%LPD*%
G01*
G04 APERTURE LIST*
%TA.AperFunction,NonConductor*%
%ADD10C,0.100000*%
%TD*%
%TA.AperFunction,ComponentPad*%
%ADD11C,3.800000*%
%TD*%
G04 APERTURE END LIST*
D10*
X89190000Y-45112641D02*
X89190000Y-45612756D01*
X89144794Y-46107323D01*
X89601649Y-45997165D01*
X90068368Y-46112782D01*
X90100677Y-46574720D01*
X90597094Y-46528955D01*
X90992658Y-46796997D01*
X90841462Y-47225037D01*
X90576559Y-47648006D01*
X90300599Y-48063784D01*
X89890249Y-48347135D01*
X89436183Y-48555101D01*
X88946920Y-48649141D01*
X88678687Y-49019498D01*
X88564182Y-49506510D01*
X88445790Y-49992367D01*
X88351320Y-50483312D01*
X88286078Y-50978760D01*
X88245818Y-51477074D01*
X88223368Y-51976330D01*
X88220781Y-52476700D01*
X88227326Y-52976387D01*
X88240835Y-53475956D01*
X88261772Y-53975495D01*
X88293719Y-54474459D01*
X88351280Y-54971348D01*
X88423978Y-55465940D01*
X88519382Y-55956165D01*
X88637481Y-56441954D01*
X88777949Y-56921804D01*
X88940586Y-57394935D01*
X89130269Y-57857039D01*
X89354088Y-58304675D01*
X89577653Y-58751807D01*
X89801049Y-59198598D01*
X90024798Y-59646095D01*
X90248345Y-60093190D01*
X90503564Y-60522616D01*
X90787582Y-60933958D01*
X91097111Y-61327525D01*
X91430130Y-61699737D01*
X91785042Y-62051725D01*
X92156396Y-62386257D01*
X92528189Y-62720870D01*
X92832244Y-62437359D01*
X93131454Y-62036783D01*
X93426061Y-61632766D01*
X93715689Y-61225190D01*
X94000306Y-60814101D01*
X94279880Y-60399545D01*
X94554378Y-59981568D01*
X94834540Y-59567841D01*
X95116499Y-59154302D01*
X95394149Y-58739243D01*
X95643257Y-58305377D01*
X95880840Y-57864932D01*
X96111045Y-57421743D01*
X96335478Y-56975253D01*
X96553700Y-56525205D01*
X96763094Y-56071375D01*
X96962770Y-55612767D01*
X96966603Y-55185475D01*
X96630912Y-54816295D01*
X96293338Y-54447534D01*
X96099092Y-54011456D01*
X96474285Y-54253289D01*
X96790545Y-54640349D01*
X97160587Y-54975021D01*
X97423756Y-54608987D01*
X97647211Y-54162078D01*
X97871189Y-53714121D01*
X98094752Y-53266996D01*
X98333313Y-52828537D01*
X98576167Y-52391400D01*
X98815775Y-51951698D01*
X99057562Y-51515043D01*
X99305974Y-51080838D01*
X99562076Y-50651264D01*
X99827747Y-50227971D01*
X100105664Y-49812043D01*
X100397718Y-49405575D01*
X100703819Y-49011297D01*
X101024666Y-48627222D01*
X101360086Y-48256858D01*
X101720769Y-47910769D01*
X102090181Y-47574095D01*
X102467889Y-47245916D01*
X102853571Y-46927197D01*
X103247893Y-46621241D01*
X103669655Y-46351442D01*
X104105416Y-46106131D01*
X104553853Y-45886287D01*
X105019851Y-45709893D01*
X105512289Y-45631566D01*
X106012472Y-45626517D01*
X106512485Y-45638920D01*
X107008545Y-45694685D01*
X107473851Y-45871221D01*
X107914975Y-46106487D01*
X108353416Y-46345838D01*
X108780990Y-46605721D01*
X109197653Y-46881342D01*
X109602319Y-47175103D01*
X109972036Y-47510987D01*
X110236879Y-47933291D01*
X110445533Y-48387690D01*
X110601772Y-48861721D01*
X110716949Y-49348627D01*
X110823753Y-49836746D01*
X110923461Y-50326748D01*
X111014980Y-50818555D01*
X111096700Y-51311554D01*
X111200494Y-51800438D01*
X111322933Y-52285541D01*
X111463557Y-52765064D01*
X111622380Y-53239126D01*
X111799265Y-53707200D01*
X111993540Y-54167552D01*
X112205215Y-54620299D01*
X112434084Y-55064938D01*
X112679603Y-55500400D01*
X112941500Y-55926218D01*
X113226068Y-56337159D01*
X113521366Y-56739233D01*
X113834777Y-56631723D01*
X114176555Y-56266626D01*
X114508512Y-55893173D01*
X114838852Y-55517877D01*
X115159284Y-55133359D01*
X115479482Y-54749122D01*
X115837584Y-54521922D01*
X115645042Y-54976664D01*
X115349083Y-55379692D01*
X115044438Y-55775731D01*
X114734309Y-56168120D01*
X114419336Y-56555779D01*
X114087636Y-56928864D01*
X113934145Y-57293125D01*
X114236373Y-57691706D01*
X114519574Y-58103870D01*
X114783282Y-58528943D01*
X115054780Y-58948670D01*
X115331872Y-59364308D01*
X115609021Y-59781108D01*
X115889015Y-60194634D01*
X116177381Y-60603468D01*
X116473524Y-61006723D01*
X116753138Y-61419853D01*
X117015166Y-61845019D01*
X117290906Y-62262285D01*
X117555967Y-62685240D01*
X117799058Y-63122805D01*
X118033782Y-63564064D01*
X118257605Y-64011709D01*
X118502460Y-64447267D01*
X118759423Y-64875539D01*
X119067929Y-65099742D01*
X119491550Y-64834604D01*
X119909083Y-64559443D01*
X120320439Y-64274658D01*
X120711933Y-63964930D01*
X121100558Y-63649171D01*
X121511562Y-63366841D01*
X121905803Y-63059532D01*
X122263893Y-62710460D01*
X122595775Y-62337243D01*
X122935492Y-61969849D01*
X123281055Y-61608579D01*
X123626507Y-61247425D01*
X123975311Y-60889566D01*
X124320931Y-60527798D01*
X124650873Y-60152265D01*
X124957120Y-59756645D01*
X125239845Y-59344498D01*
X125509971Y-58924005D01*
X125763928Y-58492989D01*
X125998603Y-58051779D01*
X126214491Y-57601222D01*
X126411566Y-57141282D01*
X126589009Y-56673808D01*
X126746614Y-56199434D01*
X126884176Y-55718793D01*
X127001345Y-55233182D01*
X127098116Y-54742584D01*
X127174286Y-54247631D01*
X127229467Y-53750993D01*
X127250207Y-53252225D01*
X127248324Y-52751735D01*
X127228688Y-52251779D01*
X127191386Y-51753485D01*
X127136431Y-51256664D01*
X127062675Y-50762547D01*
X126984271Y-50268850D01*
X126495546Y-50274555D01*
X125996708Y-50243132D01*
X125502592Y-50164888D01*
X125066367Y-49937593D01*
X124782931Y-49539249D01*
X124738837Y-49045901D01*
X124466135Y-48696943D01*
X124493175Y-48200776D01*
X124871059Y-47926035D01*
X125122250Y-47556245D01*
X125376582Y-47135266D01*
X125754558Y-47320135D01*
X126038249Y-47627084D01*
X126218169Y-47185152D01*
X126272828Y-46688012D01*
X126361856Y-46196430D01*
X126586624Y-45758362D01*
X127058929Y-45729389D01*
X127327878Y-46137084D01*
X127432584Y-46625944D01*
X127557711Y-46958789D01*
X127959466Y-46681251D01*
X128366317Y-46880254D01*
X128650486Y-47096257D01*
X129129936Y-46986888D01*
X129382391Y-47358230D01*
X129220862Y-47827511D01*
X129181986Y-48324586D01*
X129099770Y-48817877D01*
X128816087Y-49218258D01*
X128426331Y-49530693D01*
X127999965Y-49792901D01*
X127556047Y-50022310D01*
X127352287Y-50429012D01*
X127448311Y-50919057D01*
X127528828Y-51412768D01*
X127594339Y-51908046D01*
X127648390Y-52405303D01*
X127685568Y-52903962D01*
X127673025Y-53403397D01*
X127619567Y-53901073D01*
X127551696Y-54396123D01*
X127473831Y-54889637D01*
X127385441Y-55382442D01*
X127276038Y-55869540D01*
X127121173Y-56344524D01*
X126962864Y-56819543D01*
X126796138Y-57291023D01*
X126608999Y-57754010D01*
X126390046Y-58203681D01*
X126150287Y-58642098D01*
X125901843Y-59076494D01*
X125641931Y-59503811D01*
X125369799Y-59922445D01*
X125079555Y-60330435D01*
X124767936Y-60721259D01*
X124432417Y-61091478D01*
X124075088Y-61441325D01*
X123715870Y-61788137D01*
X123394001Y-62169897D01*
X123069513Y-62550051D01*
X122736970Y-62923920D01*
X122389126Y-63282605D01*
X122012244Y-63610141D01*
X121605818Y-63901187D01*
X121199887Y-64194359D01*
X120794944Y-64486818D01*
X120387949Y-64777965D01*
X119979090Y-65064521D01*
X119553941Y-65327707D01*
X119133896Y-65598767D01*
X119309757Y-66011047D01*
X119542317Y-66453063D01*
X119698670Y-66927201D01*
X119855160Y-67400005D01*
X120049234Y-67860930D01*
X120247758Y-68319081D01*
X120430300Y-68784952D01*
X120538414Y-69271812D01*
X120657989Y-69755550D01*
X120790456Y-70237250D01*
X120923116Y-70719648D01*
X121055803Y-71202147D01*
X121166468Y-71689721D01*
X121269350Y-72178411D01*
X121342855Y-72672913D01*
X121432217Y-73163430D01*
X121565587Y-73645697D01*
X121676804Y-74133123D01*
X121765734Y-74624942D01*
X121832242Y-75120392D01*
X121876195Y-75618708D01*
X121929607Y-76114142D01*
X122011962Y-76608273D01*
X122125725Y-77093974D01*
X122186056Y-77589584D01*
X122189869Y-78089677D01*
X122180409Y-78588939D01*
X122157394Y-79089037D01*
X122120554Y-79587293D01*
X122063849Y-80083864D01*
X121968915Y-80574097D01*
X121898183Y-81069216D01*
X121856262Y-81567070D01*
X121775745Y-82060148D01*
X121641859Y-82542481D01*
X121461205Y-83007933D01*
X121246953Y-83459808D01*
X121011870Y-83900983D01*
X120764117Y-84335285D01*
X120523697Y-84773198D01*
X120265304Y-85201443D01*
X119970939Y-85604878D01*
X119642937Y-85982387D01*
X119304629Y-86351451D01*
X118953035Y-86703786D01*
X118518954Y-86953152D01*
X118078249Y-87188604D01*
X117636074Y-87422696D01*
X117207769Y-87679019D01*
X116756122Y-87890771D01*
X116279551Y-88043291D01*
X115798290Y-88176975D01*
X115322540Y-88328665D01*
X114853924Y-88500147D01*
X114359720Y-88570485D01*
X113863509Y-88633365D01*
X113371318Y-88718670D01*
X112885802Y-88840049D01*
X112392819Y-88911094D01*
X111908639Y-89032380D01*
X111416435Y-89124668D01*
X110927000Y-89222448D01*
X110434246Y-89310708D01*
X109938690Y-89374589D01*
X109440625Y-89414125D01*
X108940332Y-89429228D01*
X108441990Y-89449625D01*
X107944601Y-89501766D01*
X107446571Y-89545482D01*
X106948005Y-89580772D01*
X106448266Y-89607668D01*
X105948949Y-89626089D01*
X105449418Y-89636078D01*
X104949034Y-89637630D01*
X104448649Y-89630723D01*
X103949117Y-89615383D01*
X103449798Y-89591605D01*
X102950799Y-89559386D01*
X102452907Y-89513530D01*
X101959341Y-89436450D01*
X101466820Y-89349472D01*
X100977500Y-89246646D01*
X100492822Y-89123529D01*
X100013542Y-88980238D01*
X99539785Y-88820966D01*
X99070203Y-88650177D01*
X98615717Y-88442901D01*
X98170998Y-88212617D01*
X97733352Y-87972104D01*
X97299356Y-87723640D01*
X96869341Y-87468939D01*
X96442610Y-87207891D01*
X96020116Y-86940398D01*
X95602530Y-86664885D01*
X95193226Y-86378845D01*
X94805631Y-86062568D01*
X94427411Y-85735852D01*
X94054573Y-85402948D01*
X93685323Y-85064550D01*
X93321187Y-84722650D01*
X92961048Y-84375671D01*
X92606592Y-84023325D01*
X92259620Y-83662737D01*
X91928377Y-83288607D01*
X91630766Y-82888040D01*
X91328935Y-82488778D01*
X91039552Y-82080670D01*
X90763230Y-81664672D01*
X90499291Y-81239766D01*
X90248753Y-80807580D01*
X90011017Y-80367046D01*
X89801171Y-79913437D01*
X89593516Y-79459190D01*
X89385446Y-79004038D01*
X89182808Y-78547733D01*
X89061433Y-78062232D01*
X88940109Y-77576935D01*
X88842042Y-77086709D01*
X88766382Y-76593664D01*
X88706232Y-76097366D01*
X88632773Y-75602017D01*
X88546457Y-75110437D01*
X88540000Y-74610409D01*
X88540000Y-74110630D01*
X88567054Y-73611453D01*
X88616671Y-73114725D01*
X88687813Y-72619848D01*
X88796581Y-72131265D01*
X88935422Y-71651227D01*
X89081064Y-71172953D01*
X89224720Y-70694099D01*
X89368448Y-70215008D01*
X89495985Y-69732328D01*
X89622463Y-69248004D01*
X89780431Y-68774414D01*
X89976409Y-68314003D01*
X90190660Y-67862514D01*
X90393893Y-67405241D01*
X90572100Y-66940667D01*
X90697613Y-66456793D01*
X90840765Y-65976886D01*
X91015705Y-65509051D01*
X91249476Y-65067875D01*
X91486516Y-64627924D01*
X91733036Y-64191899D01*
X91987795Y-63761993D01*
X92251286Y-63337305D01*
X92215000Y-62951500D01*
X91848045Y-62612157D01*
X91477288Y-62276476D01*
X91122567Y-61925030D01*
X90786667Y-61553768D01*
X90474614Y-61163369D01*
X90186738Y-60754596D01*
X89937945Y-60322390D01*
X89714300Y-59875100D01*
X89490682Y-59427864D01*
X89266951Y-58980402D01*
X89043306Y-58533111D01*
X88838341Y-58077960D01*
X88673875Y-57606062D01*
X88508932Y-57134332D01*
X88343171Y-56661791D01*
X88182484Y-56188919D01*
X88085956Y-55698192D01*
X88015234Y-55203140D01*
X87967657Y-54706348D01*
X87938854Y-54206647D01*
X87917461Y-53707685D01*
X87903389Y-53207467D01*
X87896697Y-52708152D01*
X87897360Y-52207743D01*
X87905399Y-51707360D01*
X87920776Y-51208123D01*
X87947352Y-50708847D01*
X88023265Y-50214436D01*
X88122097Y-49724122D01*
X88241469Y-49239358D01*
X88372777Y-48757059D01*
X87998685Y-48585662D01*
X87520206Y-48442961D01*
X87050930Y-48270436D01*
X86621122Y-48023714D01*
X86513464Y-47546893D01*
X86312705Y-47093598D01*
X86427100Y-46631091D01*
X86895983Y-46561298D01*
X86791596Y-46776181D01*
X86583048Y-47098691D01*
X86933547Y-46915535D01*
X87107621Y-46487629D01*
X87244246Y-46022254D01*
X87662743Y-45826500D01*
X87934397Y-46187840D01*
X88225616Y-46280096D01*
X88323839Y-45815947D01*
X88584492Y-45815947D01*
X88639148Y-46259228D01*
X88920597Y-46031723D01*
X88969678Y-45152498D01*
X88768823Y-45351586D01*
X88584492Y-45815947D01*
X88323839Y-45815947D01*
X88327444Y-45798912D01*
X88504921Y-45332413D01*
X88789707Y-44926720D01*
X88971843Y-45113715D01*
X88990401Y-44781282D01*
X89190000Y-45112641D01*
X127089063Y-46259656D02*
X127179862Y-46750283D01*
X127167036Y-47233061D01*
X126681909Y-47346261D01*
X126444387Y-47124103D01*
X126516159Y-46629162D01*
X126632290Y-46143347D01*
X127089063Y-46259656D01*
X106253003Y-46053804D02*
X107600615Y-46397810D01*
X108053091Y-46609612D01*
X108475705Y-46875246D01*
X108878142Y-47172422D01*
X109270008Y-47481701D01*
X109614730Y-47843427D01*
X109637311Y-48070809D01*
X109207484Y-47815062D01*
X108763012Y-47588070D01*
X108286866Y-47436179D01*
X107794893Y-47347826D01*
X107296665Y-47326500D01*
X106796411Y-47326500D01*
X106301593Y-47371615D01*
X105826868Y-47526218D01*
X105381810Y-47753489D01*
X104976273Y-48045797D01*
X104601283Y-48375599D01*
X104242635Y-48723865D01*
X103906362Y-49094521D01*
X103585713Y-49478462D01*
X103290841Y-49881736D01*
X103010314Y-50296044D01*
X102744394Y-50719469D01*
X102478288Y-51142214D01*
X102199713Y-51556831D01*
X101952714Y-51991849D01*
X101727929Y-52438763D01*
X101494837Y-52880819D01*
X101256653Y-53319922D01*
X100983544Y-53738169D01*
X100704821Y-54149674D01*
X100484205Y-54597917D01*
X100277039Y-55052421D01*
X100053432Y-55499637D01*
X99826469Y-55945034D01*
X99545251Y-56358095D01*
X99290293Y-56788454D01*
X98987484Y-56773984D01*
X98633712Y-56420212D01*
X98280230Y-56066730D01*
X97926205Y-55712705D01*
X97573049Y-55359549D01*
X97661086Y-54934327D01*
X97884943Y-54486615D01*
X98093539Y-54033051D01*
X98312863Y-53583177D01*
X98542385Y-53139284D01*
X98782309Y-52700919D01*
X99032898Y-52267660D01*
X99293015Y-51840699D01*
X99557554Y-51416613D01*
X99825089Y-50994423D01*
X100095610Y-50574147D01*
X100369514Y-50155181D01*
X100645980Y-49738781D01*
X100928355Y-49326287D01*
X101252045Y-48945446D01*
X101595246Y-48582206D01*
X101950152Y-48228959D01*
X102312510Y-47884339D01*
X102681010Y-47547360D01*
X103056387Y-47217044D01*
X103442120Y-46898937D01*
X103865860Y-46634685D01*
X104307012Y-46399469D01*
X104771643Y-46219468D01*
X105258671Y-46107685D01*
X105753630Y-46042477D01*
X106253003Y-46053804D01*
X89081041Y-46655268D02*
X89816948Y-46803900D01*
X89812760Y-46891439D01*
X90211270Y-47188669D01*
X90234332Y-47649254D01*
X89860840Y-47976207D01*
X89423373Y-48219611D01*
X88941774Y-48325282D01*
X88441818Y-48315970D01*
X87950159Y-48229711D01*
X87475819Y-48070584D01*
X87020369Y-47865551D01*
X86906116Y-47463384D01*
X87206033Y-47065700D01*
X87602687Y-46765022D01*
X88085271Y-46641222D01*
X88583585Y-46607997D01*
X89081041Y-46655268D01*
X90728085Y-46987925D02*
X90322422Y-46917137D01*
X90006509Y-46842186D01*
X90728085Y-46987925D01*
X90006509Y-46842186D02*
X89816948Y-46803900D01*
X89817264Y-46797288D01*
X90006509Y-46842186D01*
X89650185Y-46515083D02*
X89425596Y-46309126D01*
X89839558Y-46331319D01*
X89829170Y-46548440D01*
X89906704Y-46562891D01*
X89827622Y-46580780D01*
X89817264Y-46797288D01*
X87742343Y-46305014D01*
X87403747Y-46519627D01*
X87488141Y-46112137D01*
X89650185Y-46515083D01*
X128907194Y-47485028D02*
X127964707Y-47276500D01*
X127753934Y-47145660D01*
X128142928Y-47005892D01*
X128907194Y-47485028D01*
X107255179Y-47618741D02*
X108541034Y-47943152D01*
X108979303Y-48183349D01*
X109367931Y-48496484D01*
X109715674Y-48855607D01*
X109994315Y-49268483D01*
X110161625Y-49739061D01*
X110290941Y-50221998D01*
X110407954Y-50708120D01*
X110520170Y-51195562D01*
X110630184Y-51682788D01*
X110744949Y-52169466D01*
X110888171Y-52648058D01*
X111054236Y-53120165D01*
X111240031Y-53583799D01*
X111446947Y-54039137D01*
X111670690Y-54486665D01*
X111904806Y-54928804D01*
X112149126Y-55364263D01*
X112404373Y-55794344D01*
X112670021Y-56218105D01*
X112945958Y-56635356D01*
X113231571Y-57045209D01*
X112999080Y-57400448D01*
X112623868Y-57731521D01*
X112237199Y-58048703D01*
X111839462Y-58351703D01*
X111431047Y-58640228D01*
X111013066Y-58913531D01*
X110584476Y-59172258D01*
X110119708Y-59349102D01*
X109620970Y-59376417D01*
X109144497Y-59258607D01*
X108839984Y-58910542D01*
X108520007Y-58931604D01*
X108724845Y-59363115D01*
X109150908Y-59620200D01*
X109632974Y-59749743D01*
X109740000Y-60165801D01*
X109784362Y-60664477D01*
X109970184Y-61123159D01*
X110292089Y-61502211D01*
X110776196Y-61601493D01*
X111265481Y-61516241D01*
X111676153Y-61232824D01*
X112055857Y-60907597D01*
X112324150Y-60492063D01*
X112463772Y-60012774D01*
X112536400Y-59517649D01*
X112581518Y-59019800D01*
X112388828Y-58574156D01*
X112652833Y-58242449D01*
X113041146Y-57927653D01*
X113415399Y-57596162D01*
X113780925Y-57791946D01*
X114090672Y-58184533D01*
X114375275Y-58595459D01*
X114640215Y-59020161D01*
X114912362Y-59438882D01*
X115197690Y-59849983D01*
X115494742Y-60251365D01*
X115802856Y-60645784D01*
X116080169Y-61061754D01*
X116362622Y-61474142D01*
X116640269Y-61889840D01*
X116907388Y-62312086D01*
X117164166Y-62741188D01*
X117410172Y-63176447D01*
X117645294Y-63617658D01*
X117869422Y-64064619D01*
X118082448Y-64517127D01*
X118284260Y-64974977D01*
X118474312Y-65436867D01*
X118072300Y-65662657D01*
X117627117Y-65890638D01*
X117169562Y-66091705D01*
X116692961Y-66240612D01*
X116213198Y-66382456D01*
X115726930Y-66494525D01*
X115624238Y-66799897D01*
X116119257Y-66789180D01*
X116610136Y-66691478D01*
X117090904Y-66554362D01*
X117558162Y-66378981D01*
X118011717Y-66167193D01*
X118471395Y-65970188D01*
X118863922Y-66071529D01*
X119113948Y-66503460D01*
X119297132Y-66968289D01*
X119448592Y-67444951D01*
X119612807Y-67917071D01*
X119777144Y-68389540D01*
X119983541Y-68844710D01*
X120096233Y-69328595D01*
X120192873Y-69818812D01*
X120329186Y-70299502D01*
X120477592Y-70777239D01*
X120628345Y-71253851D01*
X120753995Y-71737564D01*
X120834279Y-72231210D01*
X120910827Y-72725072D01*
X120988879Y-73219399D01*
X121119289Y-73701445D01*
X121229551Y-74189372D01*
X121318276Y-74681509D01*
X121385270Y-75176504D01*
X121430538Y-75674279D01*
X121491621Y-76170643D01*
X121565733Y-76664721D01*
X121655845Y-77156550D01*
X121725985Y-77651693D01*
X121740749Y-78151230D01*
X121735715Y-78651198D01*
X121713224Y-79150385D01*
X121673247Y-79649092D01*
X121615848Y-80146100D01*
X121541198Y-80640199D01*
X121449269Y-81131692D01*
X121404408Y-81628553D01*
X121295700Y-82115904D01*
X121132299Y-82589139D01*
X120929830Y-83045717D01*
X120710981Y-83495463D01*
X120474600Y-83935556D01*
X120218343Y-84364876D01*
X119943028Y-84782022D01*
X119648564Y-85187034D01*
X119336938Y-85577232D01*
X119007603Y-85953387D01*
X118665032Y-86316827D01*
X118230725Y-86561725D01*
X117784185Y-86787455D01*
X117342052Y-87020157D01*
X116914596Y-87277802D01*
X116457341Y-87470050D01*
X115972333Y-87586381D01*
X115502120Y-87754314D01*
X115033852Y-87930397D01*
X114547749Y-88042619D01*
X114052436Y-88111668D01*
X113561503Y-88203718D01*
X113069274Y-88296011D01*
X112578139Y-88386810D01*
X112084747Y-88469042D01*
X111593396Y-88559079D01*
X111105162Y-88667575D01*
X110614875Y-88764021D01*
X110119740Y-88834016D01*
X109621398Y-88865163D01*
X109122223Y-88896361D01*
X108623124Y-88926504D01*
X108122540Y-88931029D01*
X107623463Y-88946546D01*
X107124415Y-88980557D01*
X106632251Y-89065172D01*
X106135391Y-89116071D01*
X105635454Y-89125291D01*
X105135417Y-89126482D01*
X104636143Y-89120292D01*
X104136038Y-89109515D01*
X103635979Y-89096182D01*
X103136131Y-89075559D01*
X102638230Y-89035558D01*
X102146306Y-88945720D01*
X101678459Y-88771578D01*
X101232844Y-88545421D01*
X100804116Y-88288466D01*
X100410469Y-87980911D01*
X100049121Y-87635621D01*
X99695350Y-87281850D01*
X99342120Y-86928620D01*
X98988300Y-86574800D01*
X98629912Y-86226347D01*
X98275873Y-85872968D01*
X97934395Y-85508396D01*
X97608083Y-85128847D01*
X97307552Y-84729902D01*
X96988031Y-84346535D01*
X96651431Y-83976673D01*
X96343886Y-83583370D01*
X96062733Y-83169566D01*
X95800569Y-82743655D01*
X95554691Y-82308400D01*
X95324485Y-81864570D01*
X95114078Y-81411493D01*
X94927531Y-80947400D01*
X94738734Y-80484221D01*
X94547889Y-80022438D01*
X94354807Y-79561583D01*
X94237622Y-79076173D01*
X94113462Y-78591059D01*
X93939122Y-78123429D01*
X93813682Y-77639040D01*
X93746303Y-77143716D01*
X93706283Y-76645554D01*
X93664682Y-76147275D01*
X93616209Y-75649916D01*
X93548399Y-75154406D01*
X93440842Y-74666391D01*
X93410686Y-74169128D01*
X93440210Y-73669884D01*
X93460423Y-73170245D01*
X93489170Y-72671097D01*
X93526441Y-72172549D01*
X93572301Y-71673980D01*
X93626606Y-71176962D01*
X93689408Y-70680873D01*
X93732917Y-70182957D01*
X93776200Y-69685195D01*
X93870095Y-69195567D01*
X93996351Y-68711559D01*
X94134817Y-68231075D01*
X94288211Y-67755205D01*
X94459851Y-67285209D01*
X94652826Y-66824524D01*
X94871448Y-66374654D01*
X95118638Y-65940250D01*
X95380256Y-65514040D01*
X95594097Y-65064208D01*
X95975958Y-65038486D01*
X96430273Y-65240465D01*
X96885616Y-65445452D01*
X97361317Y-65600272D01*
X97835776Y-65758425D01*
X98310269Y-65915420D01*
X98773064Y-65893388D01*
X98475547Y-65634861D01*
X97994769Y-65497060D01*
X97520656Y-65336950D01*
X97055387Y-65155315D01*
X96598315Y-64951914D01*
X96151567Y-64727663D01*
X95837905Y-64454643D01*
X96080081Y-64019740D01*
X96283070Y-63562941D01*
X96490893Y-63107641D01*
X96702691Y-62655696D01*
X96919583Y-62204716D01*
X97140989Y-61755950D01*
X97366589Y-61310027D01*
X97596658Y-60866380D01*
X97831496Y-60424453D01*
X98070458Y-59985461D01*
X98313838Y-59548846D01*
X98539715Y-59103246D01*
X98752458Y-58650898D01*
X98975560Y-58203672D01*
X99212515Y-57763274D01*
X99552770Y-57746716D01*
X99941193Y-58061918D01*
X100328991Y-58376706D01*
X100726647Y-58679930D01*
X100894823Y-59019265D01*
X100746478Y-59494013D01*
X100666109Y-59987247D01*
X100642720Y-60486404D01*
X100708704Y-60981170D01*
X100840583Y-61463045D01*
X101032852Y-61925238D01*
X101305324Y-62342081D01*
X101713836Y-62624571D01*
X102203815Y-62686040D01*
X102698321Y-62621805D01*
X103129124Y-62375848D01*
X103456578Y-62001262D01*
X103617259Y-61531651D01*
X103640000Y-61032533D01*
X103733277Y-60642046D01*
X104225848Y-60727604D01*
X104724049Y-60744977D01*
X105185200Y-60579463D01*
X105389415Y-60128548D01*
X105233279Y-59850185D01*
X105015607Y-60297701D01*
X104546585Y-60397926D01*
X104048227Y-60357510D01*
X103564572Y-60233766D01*
X103108244Y-60029990D01*
X102691671Y-59754988D01*
X102286893Y-59460604D01*
X101881887Y-59168902D01*
X101488636Y-58859018D01*
X101097883Y-58547543D01*
X100704414Y-58239149D01*
X100311170Y-57930931D01*
X99917722Y-57622552D01*
X99527860Y-57309561D01*
X99703769Y-56850683D01*
X99939347Y-56408974D01*
X100194341Y-55980729D01*
X100455551Y-55554649D01*
X100654148Y-55098203D01*
X100878039Y-54650422D01*
X101101633Y-54203234D01*
X101362949Y-53779430D01*
X101617898Y-53351230D01*
X101842539Y-52905602D01*
X102082628Y-52467681D01*
X102332595Y-52033586D01*
X102596104Y-51608835D01*
X102873446Y-51192871D01*
X103149472Y-50775901D01*
X103417832Y-50354192D01*
X103685982Y-49932814D01*
X103954519Y-49510827D01*
X104266565Y-49122032D01*
X104616278Y-48764714D01*
X104987144Y-48428918D01*
X105380657Y-48120477D01*
X105800339Y-47850693D01*
X106261304Y-47661221D01*
X106756023Y-47596490D01*
X107255179Y-47618741D01*
X128526529Y-47605403D02*
X128901800Y-47903858D01*
X128938687Y-48400849D01*
X128784321Y-48865723D01*
X128417884Y-49204714D01*
X127989763Y-49463004D01*
X127559090Y-49717492D01*
X127203137Y-49715911D01*
X126901994Y-49950624D01*
X126410760Y-50015931D01*
X125914481Y-49962327D01*
X125425773Y-49861665D01*
X125054876Y-49547203D01*
X125017387Y-49066907D01*
X125274342Y-48638392D01*
X125589264Y-48251724D01*
X125725514Y-48151033D01*
X125152119Y-48427110D01*
X124840891Y-48817127D01*
X124707515Y-48466220D01*
X125810359Y-48088331D01*
X125989727Y-47955776D01*
X126439738Y-47737937D01*
X126912145Y-47579697D01*
X125967753Y-48034400D01*
X127059871Y-47660187D01*
X127534178Y-47605659D01*
X128030736Y-47557038D01*
X128526529Y-47605403D01*
X97807296Y-56036897D02*
X98171504Y-56379680D01*
X98535427Y-56722196D01*
X98889103Y-57075603D01*
X98985064Y-57465385D01*
X98749795Y-57906911D01*
X98526441Y-58353617D01*
X98302521Y-58801458D01*
X98104865Y-59259910D01*
X97898345Y-59715523D01*
X97681644Y-60166299D01*
X97454849Y-60612069D01*
X97218045Y-61052661D01*
X96971701Y-61487244D01*
X96756626Y-61937707D01*
X96540813Y-62389102D01*
X96323708Y-62838820D01*
X96106170Y-63289435D01*
X95892743Y-63741464D01*
X95623657Y-64161532D01*
X95231926Y-64353172D01*
X94776560Y-64146888D01*
X94329809Y-63922665D01*
X93892090Y-63681095D01*
X93464517Y-63423571D01*
X93053535Y-63137646D01*
X93052193Y-62771626D01*
X93326575Y-62354277D01*
X93615915Y-61945796D01*
X93904514Y-61538362D01*
X94191652Y-61128379D01*
X94474586Y-60716103D01*
X94757217Y-60304270D01*
X95040220Y-59891894D01*
X95323227Y-59479512D01*
X95605803Y-59067758D01*
X95882270Y-58651192D01*
X96123531Y-58212873D01*
X96358539Y-57771235D01*
X96586877Y-57327099D01*
X96809285Y-56879028D01*
X97025339Y-56427839D01*
X97234654Y-55974369D01*
X97807296Y-56036897D01*
X111795423Y-60639292D02*
X111421206Y-60967885D01*
X111290000Y-60532680D01*
X111795423Y-60639292D01*
X103048873Y-61710033D02*
X102680673Y-62047549D01*
X102322488Y-62021649D01*
X102442149Y-61540639D01*
X103048873Y-61710033D01*
X93563868Y-63857321D02*
X93998589Y-64105532D01*
X94440978Y-64337141D01*
X94892645Y-64552989D01*
X95294822Y-64790507D01*
X95119489Y-65257770D01*
X94853831Y-65680753D01*
X94603086Y-66112946D01*
X94381070Y-66560465D01*
X94195743Y-67024565D01*
X94027092Y-67495312D01*
X93871180Y-67970437D01*
X93727614Y-68449520D01*
X93598343Y-68932130D01*
X93526251Y-69424822D01*
X93494019Y-69924336D01*
X93455767Y-70422594D01*
X93411453Y-70920335D01*
X93360999Y-71418297D01*
X93304568Y-71914837D01*
X93242092Y-72410695D01*
X93184458Y-72907421D01*
X93142187Y-73405573D01*
X93116453Y-73905041D01*
X93111112Y-74404760D01*
X93145915Y-74903491D01*
X93236823Y-75394983D01*
X93310561Y-75889811D01*
X93371541Y-76385276D01*
X93419376Y-76882876D01*
X93456895Y-77381871D01*
X93517650Y-77877847D01*
X93678508Y-78350471D01*
X93819404Y-78829413D01*
X93956749Y-79310120D01*
X94074191Y-79796489D01*
X94235428Y-80269485D01*
X94440714Y-80724013D01*
X94664677Y-81170950D01*
X94886296Y-81619049D01*
X95105566Y-82068301D01*
X95322781Y-82519323D01*
X95537041Y-82970229D01*
X95784777Y-83404860D01*
X96052393Y-83826358D01*
X96352407Y-84226376D01*
X96663225Y-84618031D01*
X96975760Y-85008700D01*
X97290130Y-85397078D01*
X97613522Y-85778806D01*
X97944919Y-86152506D01*
X98285440Y-86519424D01*
X98633254Y-86877601D01*
X98989962Y-87228686D01*
X99353652Y-87570797D01*
X99726002Y-87905504D01*
X100105024Y-88231006D01*
X100491499Y-88548011D01*
X100228136Y-88531273D01*
X99744384Y-88403970D01*
X99283916Y-88212787D01*
X98833734Y-87994948D01*
X98388667Y-87767299D01*
X97948319Y-87529625D01*
X97513961Y-87282622D01*
X97085192Y-87026090D01*
X96661636Y-86759779D01*
X96244523Y-86484458D01*
X95833472Y-86199888D01*
X95428639Y-85906165D01*
X95031168Y-85602964D01*
X94636521Y-85296016D01*
X94241389Y-84988692D01*
X93847263Y-84682149D01*
X93482688Y-84339416D01*
X93129663Y-83985146D01*
X92788218Y-83620455D01*
X92458050Y-83245032D01*
X92139428Y-82859126D01*
X91833580Y-82464257D01*
X91539747Y-82059466D01*
X91258640Y-81645669D01*
X90990890Y-81223843D01*
X90736253Y-80793632D01*
X90494943Y-80355330D01*
X90267878Y-79910667D01*
X90054480Y-79458551D01*
X89869517Y-78993304D01*
X89701884Y-78522381D01*
X89550588Y-78046592D01*
X89415331Y-77564927D01*
X89296668Y-77079229D01*
X89194540Y-76589198D01*
X89109330Y-76096722D01*
X89040953Y-75601507D01*
X88989554Y-75104726D01*
X88955058Y-74605329D01*
X88937661Y-74105978D01*
X88937303Y-73606363D01*
X88958512Y-73106268D01*
X88983463Y-72607233D01*
X89100017Y-72124444D01*
X89249105Y-71646453D01*
X89394096Y-71167982D01*
X89539152Y-70689298D01*
X89684099Y-70210973D01*
X89815256Y-69728961D01*
X89961613Y-69250784D01*
X90139450Y-68783377D01*
X90343704Y-68327665D01*
X90558198Y-67875950D01*
X90727582Y-67405439D01*
X90896760Y-66935501D01*
X91051101Y-66459644D01*
X91200968Y-65982498D01*
X91392345Y-65521002D01*
X91624672Y-65078643D01*
X91876771Y-64646640D01*
X92130945Y-64216334D01*
X92386775Y-63786341D01*
X92673580Y-63377224D01*
X93563868Y-63857321D01*
X107755065Y-62812196D02*
X108255313Y-62819665D01*
X108754252Y-62833382D01*
X109254142Y-62853409D01*
X109753764Y-62879719D01*
X110252480Y-62912269D01*
X110750810Y-62951084D01*
X111230490Y-63064472D01*
X111673995Y-63295580D01*
X112100521Y-63556698D01*
X112505499Y-63849119D01*
X112883937Y-64176245D01*
X113232352Y-64533966D01*
X113537723Y-64929873D01*
X113813454Y-65346697D01*
X114074143Y-65773279D01*
X114335072Y-66200255D01*
X114595533Y-66626463D01*
X114858634Y-67051436D01*
X115129867Y-67471118D01*
X115292362Y-67942224D01*
X115415517Y-68426286D01*
X115560287Y-68905142D01*
X115704901Y-69383479D01*
X115849760Y-69862629D01*
X115994025Y-70340587D01*
X116131609Y-70822130D01*
X116268873Y-71302556D01*
X116406311Y-71783589D01*
X116519184Y-72269054D01*
X116563874Y-72767471D01*
X116564717Y-73266780D01*
X116521770Y-73764936D01*
X116435345Y-74257376D01*
X116306082Y-74740407D01*
X116135228Y-75209648D01*
X115938676Y-75669678D01*
X115755118Y-76134474D01*
X115570691Y-76598410D01*
X115343050Y-77044044D01*
X115071153Y-77463426D01*
X114715308Y-77809877D01*
X114296234Y-78082503D01*
X113864383Y-78334778D01*
X113426762Y-78576233D01*
X112982096Y-78805452D01*
X112535287Y-79028857D01*
X112089841Y-79255153D01*
X111615623Y-79412805D01*
X111128877Y-79528839D01*
X110638871Y-79626305D01*
X110145863Y-79710773D01*
X109650316Y-79776988D01*
X109152764Y-79817838D01*
X108652706Y-79824052D01*
X108154465Y-79784860D01*
X107663694Y-79691861D01*
X107186145Y-79543821D01*
X106717745Y-79368154D01*
X106255268Y-79180282D01*
X105816528Y-78940970D01*
X105403443Y-78658884D01*
X104993396Y-78373015D01*
X104584903Y-78084667D01*
X104179749Y-77792190D01*
X103782053Y-77488070D01*
X103380610Y-77190476D01*
X102969300Y-76907515D01*
X102631201Y-76541057D01*
X102316274Y-76152700D01*
X102026951Y-75744389D01*
X101788197Y-75305679D01*
X101623326Y-74834816D01*
X101437704Y-74370760D01*
X101251960Y-73906399D01*
X101066167Y-73441918D01*
X100861387Y-72987267D01*
X100770390Y-72495767D01*
X100696281Y-72001708D01*
X100626668Y-71506604D01*
X100582659Y-71008599D01*
X100569292Y-70508984D01*
X100579734Y-70008849D01*
X100590000Y-69509111D01*
X100590000Y-69008888D01*
X100594654Y-68509436D01*
X100726157Y-68027257D01*
X100892256Y-67555893D01*
X101060191Y-67084602D01*
X101225363Y-66613185D01*
X101413662Y-66150429D01*
X101691017Y-65735637D01*
X102054811Y-65394015D01*
X102416292Y-65050208D01*
X102765688Y-64692423D01*
X103092970Y-64315153D01*
X103503157Y-64032451D01*
X103946256Y-63802746D01*
X104380064Y-63555456D01*
X104832731Y-63342245D01*
X105294238Y-63149449D01*
X105763396Y-62977513D01*
X106239747Y-62826574D01*
X106754937Y-62816117D01*
X107254726Y-62811016D01*
X107755065Y-62812196D01*
X108474763Y-63077191D02*
X108975173Y-63086480D01*
X109474852Y-63102636D01*
X110471504Y-63183147D01*
X110958076Y-63279468D01*
X111405038Y-63503329D01*
X111841465Y-63747019D01*
X112248062Y-64034996D01*
X112301450Y-64490666D01*
X112228019Y-64985643D01*
X112052540Y-65250133D01*
X111621564Y-64997753D01*
X111201432Y-64727031D01*
X110781759Y-64691419D01*
X110603641Y-65156904D01*
X110501274Y-65645949D01*
X110414434Y-66138041D01*
X110335056Y-66622792D01*
X109917322Y-66349255D01*
X109483221Y-66101198D01*
X109048287Y-65855588D01*
X108605851Y-65623404D01*
X108184170Y-65355389D01*
X107896416Y-64959503D01*
X107673887Y-64598655D01*
X107590000Y-65038067D01*
X107590000Y-65538407D01*
X107590000Y-66038479D01*
X107590000Y-66537886D01*
X107590000Y-67038610D01*
X107590000Y-67537731D01*
X107590000Y-68038425D01*
X107334322Y-67920822D01*
X106978163Y-67570525D01*
X106600483Y-67242360D01*
X106206401Y-66934391D01*
X105791764Y-66655532D01*
X105356054Y-66409978D01*
X104924314Y-66158629D01*
X104510057Y-65878525D01*
X104264673Y-65478684D01*
X104135195Y-65940419D01*
X104038145Y-66430602D01*
X103954431Y-66924032D01*
X103884414Y-67418509D01*
X103827857Y-67915683D01*
X103785015Y-68413338D01*
X103755757Y-68913136D01*
X103740232Y-69412853D01*
X103418518Y-69146600D01*
X103067270Y-68792048D01*
X102650358Y-68516408D01*
X102208528Y-68282178D01*
X101777548Y-68029679D01*
X101370477Y-67739944D01*
X101318838Y-67301556D01*
X101496868Y-66834345D01*
X101687383Y-66371218D01*
X101931126Y-65944486D01*
X102302419Y-65610323D01*
X102671610Y-65273883D01*
X102979650Y-64881304D01*
X103328741Y-64523700D01*
X103744370Y-64247090D01*
X104189078Y-64018705D01*
X104620586Y-63766991D01*
X105073639Y-63555994D01*
X105530251Y-63353055D01*
X105991042Y-63159399D01*
X106474785Y-63076500D01*
X106975145Y-63076500D01*
X107475087Y-63076500D01*
X107974817Y-63074792D01*
X108474763Y-63077191D01*
X113301767Y-65133693D02*
X113567350Y-65556588D01*
X113823021Y-65986581D01*
X114078644Y-66416491D01*
X114334180Y-66846258D01*
X114589800Y-67276163D01*
X114837563Y-67708687D01*
X114983534Y-68186751D01*
X115103961Y-68671486D01*
X115252142Y-69148959D01*
X115400392Y-69626650D01*
X115549193Y-70104115D01*
X115703364Y-70579230D01*
X115849426Y-71057901D01*
X115983417Y-71539458D01*
X116098797Y-72025979D01*
X116178657Y-72519244D01*
X116153663Y-73017198D01*
X115814829Y-72912116D01*
X115433571Y-72613641D01*
X115203123Y-72391490D01*
X115121533Y-72884101D01*
X115022461Y-73374816D01*
X114917895Y-73863415D01*
X114807661Y-74350781D01*
X114542352Y-74463933D01*
X114087917Y-74255528D01*
X113634216Y-74043801D01*
X113180925Y-73832265D01*
X112728529Y-73620764D01*
X112537213Y-73950913D01*
X112542604Y-74451278D01*
X112582492Y-74948947D01*
X112641988Y-75445285D01*
X112687061Y-75942400D01*
X112322938Y-75745046D01*
X111945074Y-75417564D01*
X111585605Y-75070391D01*
X111226466Y-74722709D01*
X110859570Y-74383321D01*
X110485061Y-74052356D01*
X110102563Y-73729517D01*
X109714678Y-73414873D01*
X109327149Y-73097804D01*
X109068302Y-73373429D01*
X108974354Y-73862233D01*
X108978954Y-74361154D01*
X109012620Y-74860221D01*
X109066017Y-75357026D01*
X109126471Y-75853824D01*
X109169611Y-76351774D01*
X109164867Y-76824199D01*
X108729487Y-76586002D01*
X108342656Y-76269427D01*
X107973214Y-75933235D01*
X107588417Y-75613138D01*
X107195812Y-75304382D01*
X106788425Y-75014061D01*
X106358920Y-75007580D01*
X106203402Y-75455884D01*
X106148209Y-75952623D01*
X106092996Y-76449533D01*
X106028500Y-76945818D01*
X105951119Y-77439796D01*
X105861031Y-77931625D01*
X105662241Y-78284875D01*
X105223393Y-78045935D01*
X104816521Y-77756751D01*
X104437216Y-77430331D01*
X104043764Y-77122910D01*
X103616889Y-76862581D01*
X103210605Y-76572692D01*
X102887862Y-76192215D01*
X102596566Y-75785694D01*
X102318001Y-75371472D01*
X102108363Y-74917860D01*
X101963504Y-74439626D01*
X101790667Y-73971107D01*
X101491635Y-73586894D01*
X101379451Y-73099440D01*
X101250753Y-72616823D01*
X101130290Y-72131619D01*
X101071738Y-71635819D01*
X101047367Y-71136111D01*
X101040190Y-70636149D01*
X101032221Y-70135770D01*
X100954602Y-69645719D01*
X100901981Y-69155940D01*
X100936468Y-68657719D01*
X101014854Y-68163644D01*
X101336366Y-68140744D01*
X101770377Y-68387820D01*
X102207745Y-68630803D01*
X102643343Y-68875597D01*
X103040148Y-69178366D01*
X103381523Y-69543871D01*
X103742369Y-69888914D01*
X103986693Y-69565345D01*
X104026337Y-69080861D01*
X104030066Y-68586985D01*
X104107368Y-68092990D01*
X104177661Y-67597978D01*
X104240936Y-67102026D01*
X104297182Y-66605207D01*
X104401623Y-66207312D01*
X104826401Y-66470543D01*
X105249313Y-66737645D01*
X105673764Y-67002371D01*
X106084997Y-67286598D01*
X106478032Y-67594546D01*
X106852915Y-67926337D01*
X107206445Y-68279153D01*
X107538727Y-68653048D01*
X107734582Y-69099493D01*
X107940000Y-68946310D01*
X107940000Y-68446317D01*
X107940000Y-67946089D01*
X107940000Y-67446347D01*
X107940000Y-66945866D01*
X107940000Y-66446515D01*
X107940000Y-65946230D01*
X108089891Y-65726428D01*
X108518362Y-65983517D01*
X108955268Y-66227397D01*
X109393625Y-66468494D01*
X109829340Y-66713105D01*
X110276520Y-66936028D01*
X110738830Y-67126068D01*
X110686790Y-66677238D01*
X110713348Y-66177811D01*
X110780775Y-65682733D01*
X110897417Y-65196831D01*
X111223715Y-65184120D01*
X111659945Y-65428503D01*
X112116144Y-65631264D01*
X112602045Y-65669615D01*
X112510924Y-65318398D01*
X112555583Y-64821329D01*
X113301767Y-65133693D01*
X116055974Y-73451551D02*
X116162924Y-73892081D01*
X116050879Y-74379816D01*
X115902877Y-74856625D01*
X115711017Y-75318316D01*
X115520737Y-75780426D01*
X115329398Y-76242762D01*
X115106594Y-76689861D01*
X114840197Y-77112964D01*
X114486885Y-77460595D01*
X114061660Y-77723599D01*
X113628239Y-77974144D01*
X113188549Y-78211141D01*
X112741233Y-78435336D01*
X112288270Y-78645740D01*
X111828253Y-78842997D01*
X111363210Y-79026220D01*
X110884918Y-79167023D01*
X110393688Y-79257300D01*
X109898834Y-79328347D01*
X109400434Y-79366930D01*
X108900524Y-79376497D01*
X108400653Y-79366193D01*
X107903869Y-79311370D01*
X107432301Y-79149808D01*
X106970889Y-78958856D01*
X106497887Y-78797749D01*
X106090073Y-78528862D01*
X106147347Y-78032420D01*
X106229550Y-77539202D01*
X106311756Y-77045966D01*
X106391778Y-76551994D01*
X106440904Y-76054712D01*
X106522218Y-75561325D01*
X106794134Y-75356220D01*
X107182036Y-75672028D01*
X107558278Y-76001112D01*
X107931360Y-76333947D01*
X108301416Y-76670896D01*
X108711291Y-76955098D01*
X109160386Y-77174449D01*
X109557720Y-77133087D01*
X109497591Y-76637228D01*
X109436898Y-76140822D01*
X109393586Y-75642740D01*
X109350232Y-75144166D01*
X109292847Y-74648232D01*
X109262181Y-74148566D01*
X109261003Y-73649118D01*
X109483127Y-73620448D01*
X109846953Y-73964036D01*
X110223419Y-74292306D01*
X110613413Y-74606026D01*
X110978279Y-74946975D01*
X111341640Y-75291211D01*
X111698448Y-75641108D01*
X112063123Y-75982152D01*
X112450569Y-76298152D01*
X112860083Y-76585449D01*
X113234808Y-76617133D01*
X113021250Y-76170250D01*
X112964454Y-75674099D01*
X112930771Y-75174986D01*
X112885538Y-74677413D01*
X112840287Y-74179656D01*
X113167285Y-74240142D01*
X113614519Y-74463759D01*
X114061644Y-74687322D01*
X114516659Y-74895068D01*
X114973559Y-75095677D01*
X115342156Y-75171189D01*
X115113813Y-74733786D01*
X115138122Y-74240388D01*
X115258575Y-73755763D01*
X115334624Y-73261447D01*
X115646462Y-73168846D01*
X116055974Y-73451551D01*
X139366538Y-64958372D02*
X138882751Y-65082606D01*
X138397864Y-65206072D01*
X137913581Y-65328336D01*
X137428199Y-65449828D01*
X136942573Y-65570330D01*
X136457558Y-65689635D01*
X135971447Y-65808161D01*
X135485095Y-65925698D01*
X134999361Y-66042040D01*
X134512534Y-66157597D01*
X134026327Y-66271964D01*
X133539031Y-66385541D01*
X133052359Y-66497929D01*
X132564599Y-66609525D01*
X132076050Y-66715254D01*
X131587251Y-66821996D01*
X131098908Y-66930741D01*
X130612014Y-67041262D01*
X130124600Y-67154005D01*
X129637660Y-67268746D01*
X129152185Y-67385246D01*
X128666210Y-67503976D01*
X128180728Y-67624699D01*
X127695745Y-67747416D01*
X127212246Y-67871868D01*
X126728277Y-67998561D01*
X126244826Y-68127241D01*
X125761897Y-68257908D01*
X125280474Y-68390289D01*
X124798609Y-68524920D01*
X124318571Y-68663801D01*
X124108098Y-68578769D01*
X124574136Y-68398439D01*
X125044242Y-68229252D01*
X125518794Y-68071089D01*
X125997021Y-67924231D01*
X126479048Y-67795214D01*
X126967325Y-67685352D01*
X127455493Y-67575514D01*
X127942473Y-67465944D01*
X128430619Y-67356975D01*
X128919422Y-67251092D01*
X129408023Y-67144298D01*
X129896422Y-67036595D01*
X130384617Y-66927982D01*
X130872606Y-66818460D01*
X131360389Y-66708030D01*
X131846914Y-66596931D01*
X132334280Y-66484685D01*
X132821437Y-66371531D01*
X133308381Y-66257469D01*
X133795113Y-66142500D01*
X134281631Y-66026624D01*
X134767933Y-65909841D01*
X135254019Y-65792151D01*
X135739363Y-65673683D01*
X136224489Y-65554311D01*
X136709917Y-65433905D01*
X137196348Y-65316183D01*
X137683172Y-65201636D01*
X138169840Y-65087126D01*
X139179082Y-64822776D01*
X139366538Y-64958372D01*
X140506367Y-70664225D02*
X140017836Y-70763938D01*
X139526856Y-70854860D01*
X139036775Y-70954591D01*
X138553180Y-71079973D01*
X138066665Y-71195886D01*
X137578164Y-71302095D01*
X137087822Y-71398580D01*
X136594981Y-71485457D01*
X136100586Y-71562539D01*
X135605592Y-71629704D01*
X135109340Y-71687068D01*
X134611164Y-71734678D01*
X134112832Y-71772360D01*
X133613680Y-71800180D01*
X133113854Y-71818119D01*
X132613498Y-71826155D01*
X132113757Y-71843780D01*
X131614687Y-71864013D01*
X131114776Y-71884279D01*
X130615494Y-71904521D01*
X130115920Y-71924774D01*
X129615641Y-71945055D01*
X129116588Y-71965287D01*
X128714047Y-71867426D01*
X129192258Y-71745610D01*
X129690548Y-71708920D01*
X130189634Y-71685899D01*
X130689318Y-71679044D01*
X131189515Y-71678235D01*
X131689469Y-71669537D01*
X132189088Y-71652960D01*
X132689117Y-71628465D01*
X133187785Y-71596143D01*
X133685837Y-71555967D01*
X134184019Y-71507861D01*
X134680563Y-71451993D01*
X135176214Y-71388300D01*
X135671711Y-71316661D01*
X136165296Y-71237328D01*
X136657708Y-71150194D01*
X137148031Y-71055436D01*
X137638845Y-70956731D01*
X138128804Y-70858739D01*
X138619391Y-70760622D01*
X139110756Y-70669896D01*
X139603279Y-70582980D01*
X140095713Y-70496080D01*
X140506367Y-70664225D01*
X126500161Y-74718088D02*
X126977878Y-74865078D01*
X127453733Y-75019318D01*
X127924517Y-75186802D01*
X128400765Y-75340606D01*
X128880517Y-75480100D01*
X129364568Y-75605535D01*
X129852046Y-75716667D01*
X130342067Y-75813323D01*
X130835448Y-75895653D01*
X131331306Y-75963464D01*
X131828172Y-76016578D01*
X132321575Y-76094414D01*
X132814999Y-76175822D01*
X133309516Y-76250200D01*
X133805051Y-76317536D01*
X134300976Y-76377240D01*
X134798234Y-76428562D01*
X135290310Y-76518039D01*
X135773263Y-76646720D01*
X136246275Y-76809806D01*
X136728046Y-76940773D01*
X137212110Y-77067050D01*
X137697831Y-77185999D01*
X138144418Y-77350591D01*
X137684078Y-77388722D01*
X137192735Y-77296515D01*
X136705866Y-77182309D01*
X136227880Y-77037149D01*
X135750854Y-76887290D01*
X135265062Y-76767681D01*
X134773926Y-76676991D01*
X134277659Y-76622747D01*
X133778057Y-76602999D01*
X133279478Y-76570921D01*
X132781382Y-76526475D01*
X132284765Y-76469742D01*
X131789091Y-76400644D01*
X131295356Y-76319302D01*
X130804543Y-76225908D01*
X130316116Y-76120388D01*
X129830300Y-76002780D01*
X129347324Y-75873126D01*
X128867412Y-75731465D01*
X128391525Y-75578085D01*
X127917633Y-75419044D01*
X127442921Y-75260807D01*
X126969379Y-75102960D01*
X126494412Y-74944637D01*
X126018868Y-74791891D01*
X125538069Y-74654520D01*
X126022958Y-74568955D01*
X126500161Y-74718088D01*
D11*
%TO.P,H1,*%
%TO.N,*%
X43940000Y-43714000D03*
%TD*%
%TO.P,H2,*%
%TO.N,*%
X43940000Y-62764000D03*
%TD*%
%TO.P,H3,*%
%TO.N,*%
X100415000Y-45849250D03*
%TD*%
%TO.P,H4,*%
%TO.N,*%
X100415000Y-64899250D03*
%TD*%
%TO.P,H5,*%
%TO.N,*%
X122940000Y-75472000D03*
%TD*%
%TO.P,H6,*%
%TO.N,*%
X140940000Y-75472000D03*
%TD*%
M02*
