%TF.GenerationSoftware,KiCad,Pcbnew,8.0.6*%
%TF.CreationDate,2024-12-06T19:57:19+01:00*%
%TF.ProjectId,bottom_case,626f7474-6f6d-45f6-9361-73652e6b6963,0.0.3*%
%TF.SameCoordinates,Original*%
%TF.FileFunction,Legend,Top*%
%TF.FilePolarity,Positive*%
%FSLAX46Y46*%
G04 Gerber Fmt 4.6, Leading zero omitted, Abs format (unit mm)*
G04 Created by KiCad (PCBNEW 8.0.6) date 2024-12-06 19:57:19*
%MOMM*%
%LPD*%
G01*
G04 APERTURE LIST*
%ADD10C,0.150000*%
G04 APERTURE END LIST*
D10*
X27029160Y-85941466D02*
X27695826Y-85941466D01*
X27695826Y-85941466D02*
X27648207Y-86036704D01*
X27648207Y-86036704D02*
X27552969Y-86179561D01*
X27552969Y-86179561D02*
X27410112Y-86274799D01*
X27314874Y-86084323D02*
X27314874Y-86417656D01*
X27314874Y-86417656D02*
X27314874Y-86512894D01*
X27314874Y-86512894D02*
X27267255Y-86655751D01*
X27267255Y-86655751D02*
X27172017Y-86893847D01*
X28124398Y-86131942D02*
X28695826Y-86131942D01*
X28410112Y-85846228D02*
X28410112Y-86846228D01*
X28410112Y-86846228D02*
X28267255Y-86798608D01*
X28552969Y-86322418D02*
X28695826Y-86703370D01*
X28219636Y-86322418D02*
X28172017Y-86465275D01*
X28172017Y-86465275D02*
X28124398Y-86560513D01*
X28124398Y-86560513D02*
X28076779Y-86703370D01*
X28648207Y-85941466D02*
X28743445Y-86036704D01*
X28791064Y-85893847D02*
X28886303Y-85989085D01*
X29172017Y-86084323D02*
X29743445Y-86084323D01*
X29743445Y-86084323D02*
X29695826Y-86798608D01*
X29695826Y-86798608D02*
X29552969Y-86703370D01*
X29410112Y-85750989D02*
X29410112Y-86084323D01*
X29410112Y-86084323D02*
X29410112Y-86322418D01*
X29410112Y-86322418D02*
X29362493Y-86512894D01*
X29362493Y-86512894D02*
X29267255Y-86655751D01*
X29267255Y-86655751D02*
X29172017Y-86798608D01*
X30695826Y-86131942D02*
X30791064Y-86227180D01*
X30838683Y-86084323D02*
X30933921Y-86179561D01*
X30505350Y-85798608D02*
X30505350Y-86846228D01*
X30505350Y-86227180D02*
X30791064Y-86465275D01*
X31933922Y-86227180D02*
X32172017Y-86893847D01*
X32172017Y-86893847D02*
X32410112Y-86227180D01*
X32981541Y-85893847D02*
X33076779Y-85893847D01*
X33076779Y-85893847D02*
X33172017Y-85941466D01*
X33172017Y-85941466D02*
X33219636Y-85989085D01*
X33219636Y-85989085D02*
X33267255Y-86084323D01*
X33267255Y-86084323D02*
X33314874Y-86274799D01*
X33314874Y-86274799D02*
X33314874Y-86512894D01*
X33314874Y-86512894D02*
X33267255Y-86703370D01*
X33267255Y-86703370D02*
X33219636Y-86798608D01*
X33219636Y-86798608D02*
X33172017Y-86846228D01*
X33172017Y-86846228D02*
X33076779Y-86893847D01*
X33076779Y-86893847D02*
X32981541Y-86893847D01*
X32981541Y-86893847D02*
X32886303Y-86846228D01*
X32886303Y-86846228D02*
X32838684Y-86798608D01*
X32838684Y-86798608D02*
X32791065Y-86703370D01*
X32791065Y-86703370D02*
X32743446Y-86512894D01*
X32743446Y-86512894D02*
X32743446Y-86274799D01*
X32743446Y-86274799D02*
X32791065Y-86084323D01*
X32791065Y-86084323D02*
X32838684Y-85989085D01*
X32838684Y-85989085D02*
X32886303Y-85941466D01*
X32886303Y-85941466D02*
X32981541Y-85893847D01*
X33743446Y-86798608D02*
X33791065Y-86846228D01*
X33791065Y-86846228D02*
X33743446Y-86893847D01*
X33743446Y-86893847D02*
X33695827Y-86846228D01*
X33695827Y-86846228D02*
X33743446Y-86798608D01*
X33743446Y-86798608D02*
X33743446Y-86893847D01*
X34124398Y-85893847D02*
X34743445Y-85893847D01*
X34743445Y-85893847D02*
X34410112Y-86274799D01*
X34410112Y-86274799D02*
X34552969Y-86274799D01*
X34552969Y-86274799D02*
X34648207Y-86322418D01*
X34648207Y-86322418D02*
X34695826Y-86370037D01*
X34695826Y-86370037D02*
X34743445Y-86465275D01*
X34743445Y-86465275D02*
X34743445Y-86703370D01*
X34743445Y-86703370D02*
X34695826Y-86798608D01*
X34695826Y-86798608D02*
X34648207Y-86846228D01*
X34648207Y-86846228D02*
X34552969Y-86893847D01*
X34552969Y-86893847D02*
X34267255Y-86893847D01*
X34267255Y-86893847D02*
X34172017Y-86846228D01*
X34172017Y-86846228D02*
X34124398Y-86798608D01*
X27029160Y-88218076D02*
X27505350Y-88218076D01*
X26933922Y-88503791D02*
X27267255Y-87503791D01*
X27267255Y-87503791D02*
X27600588Y-88503791D01*
X28695827Y-88503791D02*
X28695827Y-87503791D01*
X28791065Y-88122838D02*
X29076779Y-88503791D01*
X29076779Y-87837124D02*
X28695827Y-88218076D01*
X29886303Y-88456172D02*
X29791065Y-88503791D01*
X29791065Y-88503791D02*
X29600589Y-88503791D01*
X29600589Y-88503791D02*
X29505351Y-88456172D01*
X29505351Y-88456172D02*
X29457732Y-88360933D01*
X29457732Y-88360933D02*
X29457732Y-87979981D01*
X29457732Y-87979981D02*
X29505351Y-87884743D01*
X29505351Y-87884743D02*
X29600589Y-87837124D01*
X29600589Y-87837124D02*
X29791065Y-87837124D01*
X29791065Y-87837124D02*
X29886303Y-87884743D01*
X29886303Y-87884743D02*
X29933922Y-87979981D01*
X29933922Y-87979981D02*
X29933922Y-88075219D01*
X29933922Y-88075219D02*
X29457732Y-88170457D01*
X30267256Y-87837124D02*
X30505351Y-88503791D01*
X30743446Y-87837124D02*
X30505351Y-88503791D01*
X30505351Y-88503791D02*
X30410113Y-88741886D01*
X30410113Y-88741886D02*
X30362494Y-88789505D01*
X30362494Y-88789505D02*
X30267256Y-88837124D01*
X31124399Y-88503791D02*
X31124399Y-87503791D01*
X31124399Y-87884743D02*
X31219637Y-87837124D01*
X31219637Y-87837124D02*
X31410113Y-87837124D01*
X31410113Y-87837124D02*
X31505351Y-87884743D01*
X31505351Y-87884743D02*
X31552970Y-87932362D01*
X31552970Y-87932362D02*
X31600589Y-88027600D01*
X31600589Y-88027600D02*
X31600589Y-88313314D01*
X31600589Y-88313314D02*
X31552970Y-88408552D01*
X31552970Y-88408552D02*
X31505351Y-88456172D01*
X31505351Y-88456172D02*
X31410113Y-88503791D01*
X31410113Y-88503791D02*
X31219637Y-88503791D01*
X31219637Y-88503791D02*
X31124399Y-88456172D01*
X32172018Y-88503791D02*
X32076780Y-88456172D01*
X32076780Y-88456172D02*
X32029161Y-88408552D01*
X32029161Y-88408552D02*
X31981542Y-88313314D01*
X31981542Y-88313314D02*
X31981542Y-88027600D01*
X31981542Y-88027600D02*
X32029161Y-87932362D01*
X32029161Y-87932362D02*
X32076780Y-87884743D01*
X32076780Y-87884743D02*
X32172018Y-87837124D01*
X32172018Y-87837124D02*
X32314875Y-87837124D01*
X32314875Y-87837124D02*
X32410113Y-87884743D01*
X32410113Y-87884743D02*
X32457732Y-87932362D01*
X32457732Y-87932362D02*
X32505351Y-88027600D01*
X32505351Y-88027600D02*
X32505351Y-88313314D01*
X32505351Y-88313314D02*
X32457732Y-88408552D01*
X32457732Y-88408552D02*
X32410113Y-88456172D01*
X32410113Y-88456172D02*
X32314875Y-88503791D01*
X32314875Y-88503791D02*
X32172018Y-88503791D01*
X33362494Y-88503791D02*
X33362494Y-87979981D01*
X33362494Y-87979981D02*
X33314875Y-87884743D01*
X33314875Y-87884743D02*
X33219637Y-87837124D01*
X33219637Y-87837124D02*
X33029161Y-87837124D01*
X33029161Y-87837124D02*
X32933923Y-87884743D01*
X33362494Y-88456172D02*
X33267256Y-88503791D01*
X33267256Y-88503791D02*
X33029161Y-88503791D01*
X33029161Y-88503791D02*
X32933923Y-88456172D01*
X32933923Y-88456172D02*
X32886304Y-88360933D01*
X32886304Y-88360933D02*
X32886304Y-88265695D01*
X32886304Y-88265695D02*
X32933923Y-88170457D01*
X32933923Y-88170457D02*
X33029161Y-88122838D01*
X33029161Y-88122838D02*
X33267256Y-88122838D01*
X33267256Y-88122838D02*
X33362494Y-88075219D01*
X33838685Y-88503791D02*
X33838685Y-87837124D01*
X33838685Y-88027600D02*
X33886304Y-87932362D01*
X33886304Y-87932362D02*
X33933923Y-87884743D01*
X33933923Y-87884743D02*
X34029161Y-87837124D01*
X34029161Y-87837124D02*
X34124399Y-87837124D01*
X34886304Y-88503791D02*
X34886304Y-87503791D01*
X34886304Y-88456172D02*
X34791066Y-88503791D01*
X34791066Y-88503791D02*
X34600590Y-88503791D01*
X34600590Y-88503791D02*
X34505352Y-88456172D01*
X34505352Y-88456172D02*
X34457733Y-88408552D01*
X34457733Y-88408552D02*
X34410114Y-88313314D01*
X34410114Y-88313314D02*
X34410114Y-88027600D01*
X34410114Y-88027600D02*
X34457733Y-87932362D01*
X34457733Y-87932362D02*
X34505352Y-87884743D01*
X34505352Y-87884743D02*
X34600590Y-87837124D01*
X34600590Y-87837124D02*
X34791066Y-87837124D01*
X34791066Y-87837124D02*
X34886304Y-87884743D01*
X35981543Y-87837124D02*
X36362495Y-87837124D01*
X36124400Y-88503791D02*
X36124400Y-87646648D01*
X36124400Y-87646648D02*
X36172019Y-87551410D01*
X36172019Y-87551410D02*
X36267257Y-87503791D01*
X36267257Y-87503791D02*
X36362495Y-87503791D01*
X36838686Y-88503791D02*
X36743448Y-88456172D01*
X36743448Y-88456172D02*
X36695829Y-88408552D01*
X36695829Y-88408552D02*
X36648210Y-88313314D01*
X36648210Y-88313314D02*
X36648210Y-88027600D01*
X36648210Y-88027600D02*
X36695829Y-87932362D01*
X36695829Y-87932362D02*
X36743448Y-87884743D01*
X36743448Y-87884743D02*
X36838686Y-87837124D01*
X36838686Y-87837124D02*
X36981543Y-87837124D01*
X36981543Y-87837124D02*
X37076781Y-87884743D01*
X37076781Y-87884743D02*
X37124400Y-87932362D01*
X37124400Y-87932362D02*
X37172019Y-88027600D01*
X37172019Y-88027600D02*
X37172019Y-88313314D01*
X37172019Y-88313314D02*
X37124400Y-88408552D01*
X37124400Y-88408552D02*
X37076781Y-88456172D01*
X37076781Y-88456172D02*
X36981543Y-88503791D01*
X36981543Y-88503791D02*
X36838686Y-88503791D01*
X37600591Y-88503791D02*
X37600591Y-87837124D01*
X37600591Y-88027600D02*
X37648210Y-87932362D01*
X37648210Y-87932362D02*
X37695829Y-87884743D01*
X37695829Y-87884743D02*
X37791067Y-87837124D01*
X37791067Y-87837124D02*
X37886305Y-87837124D01*
X38933925Y-88218076D02*
X39410115Y-88218076D01*
X38838687Y-88503791D02*
X39172020Y-87503791D01*
X39172020Y-87503791D02*
X39505353Y-88503791D01*
X40267258Y-87837124D02*
X40267258Y-88503791D01*
X39838687Y-87837124D02*
X39838687Y-88360933D01*
X39838687Y-88360933D02*
X39886306Y-88456172D01*
X39886306Y-88456172D02*
X39981544Y-88503791D01*
X39981544Y-88503791D02*
X40124401Y-88503791D01*
X40124401Y-88503791D02*
X40219639Y-88456172D01*
X40219639Y-88456172D02*
X40267258Y-88408552D01*
X40743449Y-88503791D02*
X40743449Y-87837124D01*
X40743449Y-88027600D02*
X40791068Y-87932362D01*
X40791068Y-87932362D02*
X40838687Y-87884743D01*
X40838687Y-87884743D02*
X40933925Y-87837124D01*
X40933925Y-87837124D02*
X41029163Y-87837124D01*
X41267259Y-87837124D02*
X41505354Y-88503791D01*
X41743449Y-87837124D02*
X41505354Y-88503791D01*
X41505354Y-88503791D02*
X41410116Y-88741886D01*
X41410116Y-88741886D02*
X41362497Y-88789505D01*
X41362497Y-88789505D02*
X41267259Y-88837124D01*
X42124402Y-87837124D02*
X42124402Y-88503791D01*
X42124402Y-87932362D02*
X42172021Y-87884743D01*
X42172021Y-87884743D02*
X42267259Y-87837124D01*
X42267259Y-87837124D02*
X42410116Y-87837124D01*
X42410116Y-87837124D02*
X42505354Y-87884743D01*
X42505354Y-87884743D02*
X42552973Y-87979981D01*
X42552973Y-87979981D02*
X42552973Y-88503791D01*
M02*
