%TF.GenerationSoftware,KiCad,Pcbnew,8.0.6*%
%TF.CreationDate,2024-12-06T19:57:19+01:00*%
%TF.ProjectId,bottom_case,626f7474-6f6d-45f6-9361-73652e6b6963,0.0.3*%
%TF.SameCoordinates,Original*%
%TF.FileFunction,Legend,Bot*%
%TF.FilePolarity,Positive*%
%FSLAX46Y46*%
G04 Gerber Fmt 4.6, Leading zero omitted, Abs format (unit mm)*
G04 Created by KiCad (PCBNEW 8.0.6) date 2024-12-06 19:57:19*
%MOMM*%
%LPD*%
G01*
G04 APERTURE LIST*
%ADD10C,0.150000*%
G04 APERTURE END LIST*
D10*
X40450839Y-85941466D02*
X39784173Y-85941466D01*
X39784173Y-85941466D02*
X39831792Y-86036704D01*
X39831792Y-86036704D02*
X39927030Y-86179561D01*
X39927030Y-86179561D02*
X40069887Y-86274799D01*
X40165125Y-86084323D02*
X40165125Y-86417656D01*
X40165125Y-86417656D02*
X40165125Y-86512894D01*
X40165125Y-86512894D02*
X40212744Y-86655751D01*
X40212744Y-86655751D02*
X40307982Y-86893847D01*
X39355601Y-86131942D02*
X38784173Y-86131942D01*
X39069887Y-85846228D02*
X39069887Y-86846228D01*
X39069887Y-86846228D02*
X39212744Y-86798608D01*
X38927030Y-86322418D02*
X38784173Y-86703370D01*
X39260363Y-86322418D02*
X39307982Y-86465275D01*
X39307982Y-86465275D02*
X39355601Y-86560513D01*
X39355601Y-86560513D02*
X39403220Y-86703370D01*
X38831792Y-85941466D02*
X38736554Y-86036704D01*
X38688935Y-85893847D02*
X38593697Y-85989085D01*
X38307982Y-86084323D02*
X37736554Y-86084323D01*
X37736554Y-86084323D02*
X37784173Y-86798608D01*
X37784173Y-86798608D02*
X37927030Y-86703370D01*
X38069887Y-85750989D02*
X38069887Y-86084323D01*
X38069887Y-86084323D02*
X38069887Y-86322418D01*
X38069887Y-86322418D02*
X38117506Y-86512894D01*
X38117506Y-86512894D02*
X38212744Y-86655751D01*
X38212744Y-86655751D02*
X38307982Y-86798608D01*
X36784173Y-86131942D02*
X36688935Y-86227180D01*
X36641316Y-86084323D02*
X36546078Y-86179561D01*
X36974649Y-85798608D02*
X36974649Y-86846228D01*
X36974649Y-86227180D02*
X36688935Y-86465275D01*
X35546077Y-86227180D02*
X35307982Y-86893847D01*
X35307982Y-86893847D02*
X35069887Y-86227180D01*
X34498458Y-85893847D02*
X34403220Y-85893847D01*
X34403220Y-85893847D02*
X34307982Y-85941466D01*
X34307982Y-85941466D02*
X34260363Y-85989085D01*
X34260363Y-85989085D02*
X34212744Y-86084323D01*
X34212744Y-86084323D02*
X34165125Y-86274799D01*
X34165125Y-86274799D02*
X34165125Y-86512894D01*
X34165125Y-86512894D02*
X34212744Y-86703370D01*
X34212744Y-86703370D02*
X34260363Y-86798608D01*
X34260363Y-86798608D02*
X34307982Y-86846228D01*
X34307982Y-86846228D02*
X34403220Y-86893847D01*
X34403220Y-86893847D02*
X34498458Y-86893847D01*
X34498458Y-86893847D02*
X34593696Y-86846228D01*
X34593696Y-86846228D02*
X34641315Y-86798608D01*
X34641315Y-86798608D02*
X34688934Y-86703370D01*
X34688934Y-86703370D02*
X34736553Y-86512894D01*
X34736553Y-86512894D02*
X34736553Y-86274799D01*
X34736553Y-86274799D02*
X34688934Y-86084323D01*
X34688934Y-86084323D02*
X34641315Y-85989085D01*
X34641315Y-85989085D02*
X34593696Y-85941466D01*
X34593696Y-85941466D02*
X34498458Y-85893847D01*
X33736553Y-86798608D02*
X33688934Y-86846228D01*
X33688934Y-86846228D02*
X33736553Y-86893847D01*
X33736553Y-86893847D02*
X33784172Y-86846228D01*
X33784172Y-86846228D02*
X33736553Y-86798608D01*
X33736553Y-86798608D02*
X33736553Y-86893847D01*
X33355601Y-85893847D02*
X32736554Y-85893847D01*
X32736554Y-85893847D02*
X33069887Y-86274799D01*
X33069887Y-86274799D02*
X32927030Y-86274799D01*
X32927030Y-86274799D02*
X32831792Y-86322418D01*
X32831792Y-86322418D02*
X32784173Y-86370037D01*
X32784173Y-86370037D02*
X32736554Y-86465275D01*
X32736554Y-86465275D02*
X32736554Y-86703370D01*
X32736554Y-86703370D02*
X32784173Y-86798608D01*
X32784173Y-86798608D02*
X32831792Y-86846228D01*
X32831792Y-86846228D02*
X32927030Y-86893847D01*
X32927030Y-86893847D02*
X33212744Y-86893847D01*
X33212744Y-86893847D02*
X33307982Y-86846228D01*
X33307982Y-86846228D02*
X33355601Y-86798608D01*
X40450839Y-88218076D02*
X39974649Y-88218076D01*
X40546077Y-88503791D02*
X40212744Y-87503791D01*
X40212744Y-87503791D02*
X39879411Y-88503791D01*
X38784172Y-88503791D02*
X38784172Y-87503791D01*
X38688934Y-88122838D02*
X38403220Y-88503791D01*
X38403220Y-87837124D02*
X38784172Y-88218076D01*
X37593696Y-88456172D02*
X37688934Y-88503791D01*
X37688934Y-88503791D02*
X37879410Y-88503791D01*
X37879410Y-88503791D02*
X37974648Y-88456172D01*
X37974648Y-88456172D02*
X38022267Y-88360933D01*
X38022267Y-88360933D02*
X38022267Y-87979981D01*
X38022267Y-87979981D02*
X37974648Y-87884743D01*
X37974648Y-87884743D02*
X37879410Y-87837124D01*
X37879410Y-87837124D02*
X37688934Y-87837124D01*
X37688934Y-87837124D02*
X37593696Y-87884743D01*
X37593696Y-87884743D02*
X37546077Y-87979981D01*
X37546077Y-87979981D02*
X37546077Y-88075219D01*
X37546077Y-88075219D02*
X38022267Y-88170457D01*
X37212743Y-87837124D02*
X36974648Y-88503791D01*
X36736553Y-87837124D02*
X36974648Y-88503791D01*
X36974648Y-88503791D02*
X37069886Y-88741886D01*
X37069886Y-88741886D02*
X37117505Y-88789505D01*
X37117505Y-88789505D02*
X37212743Y-88837124D01*
X36355600Y-88503791D02*
X36355600Y-87503791D01*
X36355600Y-87884743D02*
X36260362Y-87837124D01*
X36260362Y-87837124D02*
X36069886Y-87837124D01*
X36069886Y-87837124D02*
X35974648Y-87884743D01*
X35974648Y-87884743D02*
X35927029Y-87932362D01*
X35927029Y-87932362D02*
X35879410Y-88027600D01*
X35879410Y-88027600D02*
X35879410Y-88313314D01*
X35879410Y-88313314D02*
X35927029Y-88408552D01*
X35927029Y-88408552D02*
X35974648Y-88456172D01*
X35974648Y-88456172D02*
X36069886Y-88503791D01*
X36069886Y-88503791D02*
X36260362Y-88503791D01*
X36260362Y-88503791D02*
X36355600Y-88456172D01*
X35307981Y-88503791D02*
X35403219Y-88456172D01*
X35403219Y-88456172D02*
X35450838Y-88408552D01*
X35450838Y-88408552D02*
X35498457Y-88313314D01*
X35498457Y-88313314D02*
X35498457Y-88027600D01*
X35498457Y-88027600D02*
X35450838Y-87932362D01*
X35450838Y-87932362D02*
X35403219Y-87884743D01*
X35403219Y-87884743D02*
X35307981Y-87837124D01*
X35307981Y-87837124D02*
X35165124Y-87837124D01*
X35165124Y-87837124D02*
X35069886Y-87884743D01*
X35069886Y-87884743D02*
X35022267Y-87932362D01*
X35022267Y-87932362D02*
X34974648Y-88027600D01*
X34974648Y-88027600D02*
X34974648Y-88313314D01*
X34974648Y-88313314D02*
X35022267Y-88408552D01*
X35022267Y-88408552D02*
X35069886Y-88456172D01*
X35069886Y-88456172D02*
X35165124Y-88503791D01*
X35165124Y-88503791D02*
X35307981Y-88503791D01*
X34117505Y-88503791D02*
X34117505Y-87979981D01*
X34117505Y-87979981D02*
X34165124Y-87884743D01*
X34165124Y-87884743D02*
X34260362Y-87837124D01*
X34260362Y-87837124D02*
X34450838Y-87837124D01*
X34450838Y-87837124D02*
X34546076Y-87884743D01*
X34117505Y-88456172D02*
X34212743Y-88503791D01*
X34212743Y-88503791D02*
X34450838Y-88503791D01*
X34450838Y-88503791D02*
X34546076Y-88456172D01*
X34546076Y-88456172D02*
X34593695Y-88360933D01*
X34593695Y-88360933D02*
X34593695Y-88265695D01*
X34593695Y-88265695D02*
X34546076Y-88170457D01*
X34546076Y-88170457D02*
X34450838Y-88122838D01*
X34450838Y-88122838D02*
X34212743Y-88122838D01*
X34212743Y-88122838D02*
X34117505Y-88075219D01*
X33641314Y-88503791D02*
X33641314Y-87837124D01*
X33641314Y-88027600D02*
X33593695Y-87932362D01*
X33593695Y-87932362D02*
X33546076Y-87884743D01*
X33546076Y-87884743D02*
X33450838Y-87837124D01*
X33450838Y-87837124D02*
X33355600Y-87837124D01*
X32593695Y-88503791D02*
X32593695Y-87503791D01*
X32593695Y-88456172D02*
X32688933Y-88503791D01*
X32688933Y-88503791D02*
X32879409Y-88503791D01*
X32879409Y-88503791D02*
X32974647Y-88456172D01*
X32974647Y-88456172D02*
X33022266Y-88408552D01*
X33022266Y-88408552D02*
X33069885Y-88313314D01*
X33069885Y-88313314D02*
X33069885Y-88027600D01*
X33069885Y-88027600D02*
X33022266Y-87932362D01*
X33022266Y-87932362D02*
X32974647Y-87884743D01*
X32974647Y-87884743D02*
X32879409Y-87837124D01*
X32879409Y-87837124D02*
X32688933Y-87837124D01*
X32688933Y-87837124D02*
X32593695Y-87884743D01*
X31498456Y-87837124D02*
X31117504Y-87837124D01*
X31355599Y-88503791D02*
X31355599Y-87646648D01*
X31355599Y-87646648D02*
X31307980Y-87551410D01*
X31307980Y-87551410D02*
X31212742Y-87503791D01*
X31212742Y-87503791D02*
X31117504Y-87503791D01*
X30641313Y-88503791D02*
X30736551Y-88456172D01*
X30736551Y-88456172D02*
X30784170Y-88408552D01*
X30784170Y-88408552D02*
X30831789Y-88313314D01*
X30831789Y-88313314D02*
X30831789Y-88027600D01*
X30831789Y-88027600D02*
X30784170Y-87932362D01*
X30784170Y-87932362D02*
X30736551Y-87884743D01*
X30736551Y-87884743D02*
X30641313Y-87837124D01*
X30641313Y-87837124D02*
X30498456Y-87837124D01*
X30498456Y-87837124D02*
X30403218Y-87884743D01*
X30403218Y-87884743D02*
X30355599Y-87932362D01*
X30355599Y-87932362D02*
X30307980Y-88027600D01*
X30307980Y-88027600D02*
X30307980Y-88313314D01*
X30307980Y-88313314D02*
X30355599Y-88408552D01*
X30355599Y-88408552D02*
X30403218Y-88456172D01*
X30403218Y-88456172D02*
X30498456Y-88503791D01*
X30498456Y-88503791D02*
X30641313Y-88503791D01*
X29879408Y-88503791D02*
X29879408Y-87837124D01*
X29879408Y-88027600D02*
X29831789Y-87932362D01*
X29831789Y-87932362D02*
X29784170Y-87884743D01*
X29784170Y-87884743D02*
X29688932Y-87837124D01*
X29688932Y-87837124D02*
X29593694Y-87837124D01*
X28546074Y-88218076D02*
X28069884Y-88218076D01*
X28641312Y-88503791D02*
X28307979Y-87503791D01*
X28307979Y-87503791D02*
X27974646Y-88503791D01*
X27212741Y-87837124D02*
X27212741Y-88503791D01*
X27641312Y-87837124D02*
X27641312Y-88360933D01*
X27641312Y-88360933D02*
X27593693Y-88456172D01*
X27593693Y-88456172D02*
X27498455Y-88503791D01*
X27498455Y-88503791D02*
X27355598Y-88503791D01*
X27355598Y-88503791D02*
X27260360Y-88456172D01*
X27260360Y-88456172D02*
X27212741Y-88408552D01*
X26736550Y-88503791D02*
X26736550Y-87837124D01*
X26736550Y-88027600D02*
X26688931Y-87932362D01*
X26688931Y-87932362D02*
X26641312Y-87884743D01*
X26641312Y-87884743D02*
X26546074Y-87837124D01*
X26546074Y-87837124D02*
X26450836Y-87837124D01*
X26212740Y-87837124D02*
X25974645Y-88503791D01*
X25736550Y-87837124D02*
X25974645Y-88503791D01*
X25974645Y-88503791D02*
X26069883Y-88741886D01*
X26069883Y-88741886D02*
X26117502Y-88789505D01*
X26117502Y-88789505D02*
X26212740Y-88837124D01*
X25355597Y-87837124D02*
X25355597Y-88503791D01*
X25355597Y-87932362D02*
X25307978Y-87884743D01*
X25307978Y-87884743D02*
X25212740Y-87837124D01*
X25212740Y-87837124D02*
X25069883Y-87837124D01*
X25069883Y-87837124D02*
X24974645Y-87884743D01*
X24974645Y-87884743D02*
X24927026Y-87979981D01*
X24927026Y-87979981D02*
X24927026Y-88503791D01*
M02*
